<svg id="_6_-_BabyGaga" data-name="6 - BabyGaga" xmlns="http://www.w3.org/2000/svg" viewBox="0 0 80.55 80.55"><defs><style>.cls-1{fill:#77a6f6;}.cls-1,.cls-2{fill-rule:evenodd;}.cls-2{fill:#f17fa9;}</style></defs><title>bg-logo-icon-color</title><path class="cls-1" d="M120.77,592.64A40.27,40.27,0,1,0,161,632.92,40.27,40.27,0,0,0,120.77,592.64ZM97.52,664.2c-15.94-12-18.33-35.71-5.34-53s36.44-21.57,52.38-9.58,18.33,35.71,5.34,53S113.46,676.18,97.52,664.2Z" transform="translate(-80.49 -592.64)"/><path class="cls-1" d="M111.16,604.83c4.8,7,13.25,4,17.36,9.06,2.74,3.87-.44,9.82-3,11,13.59,4.57,30,27.69,3.89,38.89,13.58-13,7.31-31-8.23-38.5,1.35-1.67,6.51-6.61,4.47-10-5.67-5.14-12.35-4.79-14.68-9.69C109,601.28,108.4,600.78,111.16,604.83Z" transform="translate(-80.49 -592.64)"/><path class="cls-2" d="M125,642.47c0.92-3.87,6.24-5.81,7.26-1.22,1,4.43-2.25,10.6-4.54,12.71,0.06-5.05-9.23-5.09-10.3-8.74C115.88,640.15,121.6,638.66,125,642.47Z" transform="translate(-80.49 -592.64)"/></svg>