<svg id="_6_-_BabyGaga" data-name="6 - BabyGaga" xmlns="http://www.w3.org/2000/svg" viewBox="0 0 324.24 80.38"><defs><style>.cls-1,.cls-3{fill:#fff;}.cls-1,.cls-2{fill-rule:evenodd;}.cls-2{fill:#f17fa9;}</style></defs><title>bg-logo-full-colored-light</title><path class="cls-1" d="M497.62,592.72a40.19,40.19,0,1,0,40.19,40.19A40.19,40.19,0,0,0,497.62,592.72Zm-23.2,71.41c-15.91-12-18.3-35.63-5.33-52.88s36.37-21.52,52.28-9.56,18.3,35.63,5.33,52.88S490.33,676.09,474.42,664.13Z" transform="translate(-457.43 -592.72)"/><path class="cls-1" d="M488,604.89c4.79,7,13.23,4,17.32,9,2.73,3.86-.44,9.8-3,11,13.56,4.56,29.92,27.64,3.88,38.81,13.55-12.95,7.29-31-8.21-38.42,1.35-1.66,6.49-6.6,4.46-10-5.66-5.13-12.33-4.78-14.65-9.67C485.83,601.35,485.28,600.85,488,604.89Z" transform="translate(-457.43 -592.72)"/><path class="cls-2" d="M501.8,642.45c0.92-3.86,6.23-5.8,7.25-1.21,1,4.42-2.25,10.57-4.53,12.68,0.06-5-9.21-5.08-10.28-8.72C492.75,640.13,498.46,638.65,501.8,642.45Z" transform="translate(-457.43 -592.72)"/><path class="cls-3" d="M550.65,615.3l1.32,0.21h5.92l0.39-.08q5,0,8.45,4.61a9.74,9.74,0,0,1,1.76,5.61v0.29a9.13,9.13,0,0,1-2.24,6.24q6,3.29,6,10.53t-7.53,11.16a13.64,13.64,0,0,1-4.37.84h-9q-2.61-.47-2.61-2.69V618.14q0.39-2.63,1.9-2.63V615.3Zm3.55,5.66v9.56h2.87q4.34,0,5.53-3a4.65,4.65,0,0,0,.34-1.71v-0.29q0-3.26-3.82-4.48l-2-.1h-2.95Zm0,15v13.29h4.37q5.24,0,7-2.9a6.25,6.25,0,0,0,1.16-3.66v-0.18q0-4.77-5.21-6.37l-2.66-.18h-4.63Z" transform="translate(-457.43 -592.72)"/><path class="cls-3" d="M596.7,651.71a11.92,11.92,0,0,1-8.48,3h-0.76q-7.27,0-12.11-7.27a15.7,15.7,0,0,1-1.76-7.08q0-8,7.79-12.61a15.22,15.22,0,0,1,6.48-1.55q8.08,0,12.79,7.9a16.16,16.16,0,0,1,1.45,6.66v11.4q0,2.11-2.58,2.55h-0.18a2.85,2.85,0,0,1-2.66-2.11v-0.29ZM579,640.26v0.29q0,5.4,5.42,8.11a8.75,8.75,0,0,0,3,.63h0.76q4.48,0,7.4-4.5a9,9,0,0,0,1.05-4v-0.39q0-5.19-5.13-8a8.93,8.93,0,0,0-3.69-.79h-0.11q-5.45,0-8.21,5.69A10.47,10.47,0,0,0,579,640.26Z" transform="translate(-457.43 -592.72)"/><path class="cls-3" d="M608.89,615.43h0.45q2.5,0.55,2.5,2.5V629q3.24-3.11,9-3.11a14.56,14.56,0,0,1,14.4,14.4q0,8.11-7.66,12.74a14.32,14.32,0,0,1-6.45,1.68h-0.79q-5.84,0-10.85-5.45a15.65,15.65,0,0,1-3.08-9.66V617.93Q606.39,616,608.89,615.43ZM611.84,640v0.5q0,5.58,5.87,8.32a10,10,0,0,0,2.79.45h0.61q5.42,0,8.21-5.84a12,12,0,0,0,.45-2.71V640.1q0-5.55-5.95-8.32a12.71,12.71,0,0,0-2.82-.45H620.6q-5.42,0-8.21,5.76A9,9,0,0,0,611.84,640Z" transform="translate(-457.43 -592.72)"/><path class="cls-3" d="M648.83,643.84q6.56-16,7.08-16.59a3,3,0,0,1,1.92-.76q2.53,0.47,2.53,2.53v0.16q-0.1.82-9.14,22.35-4.29,10.66-4.95,11.5a5,5,0,0,1-1.71.79q-2.66-.58-2.66-2.4V661q0-.5,4.08-10.35l-8.69-21.19v-0.32q0.5-2.53,2.63-2.53t3.4,4.16Q647.59,640.81,648.83,643.84Z" transform="translate(-457.43 -592.72)"/><path class="cls-3" d="M675.55,626.25a14.18,14.18,0,0,1,11,5.27q3.21,4.4,3.21,8.35l-0.11,3.32V655q0,3.71-5.42,7.87a15.56,15.56,0,0,1-8.66,2.71q-7.74,0-12.79-6.9a5.85,5.85,0,0,1-1-2.4V656q0-1.92,2.47-2.47h0.37q1.87,0,2.92,2.84a9.88,9.88,0,0,0,8,4,9.29,9.29,0,0,0,8.64-5.16l0.16-1.05v-2.55a12,12,0,0,1-8.5,3H675q-5.74,0-10.66-5.37a15,15,0,0,1-3-8.82q0-6.92,6.11-11.58A14.34,14.34,0,0,1,675.55,626.25Zm-8.79,13.9v0.47q0,5.48,5.77,8.16a9.65,9.65,0,0,0,2.74.45h0.58q5.34,0,8.08-5.74a12,12,0,0,0,.42-2.66v-0.61q0-5.45-5.82-8.16a13.4,13.4,0,0,0-2.79-.42h-0.37q-5.34,0-8.08,5.66A8.91,8.91,0,0,0,666.75,640.15Z" transform="translate(-457.43 -592.72)"/><path class="cls-3" d="M714.49,651.71a11.92,11.92,0,0,1-8.48,3h-0.76q-7.27,0-12.11-7.27a15.7,15.7,0,0,1-1.76-7.08q0-8,7.79-12.61a15.22,15.22,0,0,1,6.48-1.55q8.08,0,12.79,7.9a16.17,16.17,0,0,1,1.45,6.66v11.4q0,2.11-2.58,2.55h-0.18a2.85,2.85,0,0,1-2.66-2.11v-0.29Zm-17.69-11.45v0.29q0,5.4,5.42,8.11a8.75,8.75,0,0,0,3,.63H706q4.48,0,7.4-4.5a9,9,0,0,0,1.05-4v-0.39q0-5.19-5.13-8a8.93,8.93,0,0,0-3.69-.79h-0.1q-5.45,0-8.21,5.69A10.47,10.47,0,0,0,696.79,640.26Z" transform="translate(-457.43 -592.72)"/><path class="cls-3" d="M737.34,626.25a14.18,14.18,0,0,1,11,5.27q3.21,4.4,3.21,8.35l-0.11,3.32V655q0,3.71-5.42,7.87a15.56,15.56,0,0,1-8.66,2.71q-7.74,0-12.79-6.9a5.85,5.85,0,0,1-1-2.4V656q0-1.92,2.47-2.47h0.37q1.87,0,2.92,2.84a9.88,9.88,0,0,0,8,4,9.29,9.29,0,0,0,8.64-5.16l0.16-1.05v-2.55a12,12,0,0,1-8.5,3h-0.79q-5.74,0-10.66-5.37a15,15,0,0,1-3-8.82q0-6.92,6.11-11.58A14.34,14.34,0,0,1,737.34,626.25Zm-8.79,13.9v0.47q0,5.48,5.77,8.16a9.65,9.65,0,0,0,2.74.45h0.58q5.34,0,8.08-5.74a12,12,0,0,0,.42-2.66v-0.61q0-5.45-5.82-8.16a13.4,13.4,0,0,0-2.79-.42h-0.37q-5.34,0-8.08,5.66A8.91,8.91,0,0,0,728.54,640.15Z" transform="translate(-457.43 -592.72)"/><path class="cls-3" d="M776.27,651.71a11.92,11.92,0,0,1-8.48,3H767q-7.27,0-12.11-7.27a15.7,15.7,0,0,1-1.76-7.08q0-8,7.79-12.61a15.22,15.22,0,0,1,6.48-1.55q8.08,0,12.79,7.9a16.17,16.17,0,0,1,1.45,6.66v11.4q0,2.11-2.58,2.55h-0.18a2.85,2.85,0,0,1-2.66-2.11v-0.29Zm-17.69-11.45v0.29q0,5.4,5.42,8.11a8.75,8.75,0,0,0,3,.63h0.76q4.48,0,7.4-4.5a9,9,0,0,0,1.05-4v-0.39q0-5.19-5.13-8a8.93,8.93,0,0,0-3.69-.79h-0.1q-5.45,0-8.21,5.69A10.47,10.47,0,0,0,758.58,640.26Z" transform="translate(-457.43 -592.72)"/></svg>