<svg id="_6_-_BabyGaga" data-name="6 - BabyGaga" xmlns="http://www.w3.org/2000/svg" viewBox="0 0 324.91 80.55"><defs><style>.cls-1,.cls-3{fill:#29aae1;}.cls-1,.cls-2{fill-rule:evenodd;}.cls-2{fill:#f17fa9;}</style></defs><title>bg-logo-full-colored-dark</title><path class="cls-1" d="M120.77,592.64A40.27,40.27,0,1,0,161,632.92,40.27,40.27,0,0,0,120.77,592.64ZM97.52,664.2c-15.94-12-18.33-35.71-5.34-53s36.44-21.57,52.38-9.58,18.33,35.71,5.34,53S113.46,676.18,97.52,664.2Z" transform="translate(-80.49 -592.64)"/><path class="cls-1" d="M111.16,604.83c4.8,7,13.25,4,17.36,9.06,2.74,3.87-.44,9.82-3,11,13.59,4.57,30,27.69,3.89,38.89,13.58-13,7.31-31-8.23-38.5,1.35-1.67,6.51-6.61,4.47-10-5.67-5.14-12.35-4.79-14.68-9.69C109,601.28,108.4,600.78,111.16,604.83Z" transform="translate(-80.49 -592.64)"/><path class="cls-2" d="M125,642.47c0.92-3.87,6.24-5.81,7.26-1.22,1,4.43-2.25,10.6-4.54,12.71,0.06-5.05-9.23-5.09-10.3-8.74C115.88,640.15,121.6,638.66,125,642.47Z" transform="translate(-80.49 -592.64)"/><path class="cls-3" d="M173.91,615.26l1.32,0.21h5.94l0.4-.08q5,0,8.47,4.62a9.76,9.76,0,0,1,1.77,5.62v0.29a9.15,9.15,0,0,1-2.24,6.25q6,3.3,6,10.55T188,653.91a13.66,13.66,0,0,1-4.38.84h-9q-2.61-.47-2.61-2.69v-34q0.4-2.64,1.9-2.64v-0.21Zm3.56,5.67v9.58h2.88q4.35,0,5.54-3a4.66,4.66,0,0,0,.34-1.71v-0.29q0-3.27-3.83-4.49l-2-.11h-3Zm0,15V649.3h4.38q5.25,0,7-2.9a6.27,6.27,0,0,0,1.16-3.67v-0.18q0-4.77-5.22-6.38l-2.66-.18h-4.64Z" transform="translate(-80.49 -592.64)"/><path class="cls-3" d="M220,651.75a11.94,11.94,0,0,1-8.49,3h-0.77q-7.28,0-12.14-7.28a15.73,15.73,0,0,1-1.77-7.1q0-8,7.81-12.64a15.25,15.25,0,0,1,6.49-1.56q8.1,0,12.82,7.91a16.19,16.19,0,0,1,1.45,6.67V652.2q0,2.11-2.59,2.56h-0.18a2.86,2.86,0,0,1-2.66-2.11v-0.29Zm-17.73-11.48v0.29q0,5.41,5.43,8.13a8.77,8.77,0,0,0,3,.63h0.77q4.48,0,7.41-4.51a9,9,0,0,0,1.06-4v-0.4q0-5.2-5.14-8a8.94,8.94,0,0,0-3.69-.79h-0.11q-5.46,0-8.23,5.7A10.49,10.49,0,0,0,202.32,640.27Z" transform="translate(-80.49 -592.64)"/><path class="cls-3" d="M232.26,615.4h0.45q2.51,0.55,2.51,2.51V629q3.24-3.11,9-3.11a14.59,14.59,0,0,1,14.43,14.43q0,8.13-7.68,12.77a14.35,14.35,0,0,1-6.46,1.69h-0.79q-5.86,0-10.87-5.46a15.68,15.68,0,0,1-3.09-9.68V617.9Q229.76,616,232.26,615.4Zm3,24.61v0.5q0,5.59,5.88,8.34a10,10,0,0,0,2.8.45h0.61q5.43,0,8.23-5.86a12,12,0,0,0,.45-2.72v-0.61q0-5.57-6-8.34a12.74,12.74,0,0,0-2.82-.45H244q-5.44,0-8.23,5.78A9,9,0,0,0,235.22,640Z" transform="translate(-80.49 -592.64)"/><path class="cls-3" d="M272.28,643.86q6.57-16,7.1-16.62a3,3,0,0,1,1.93-.77q2.53,0.47,2.53,2.53v0.16q-0.11.82-9.15,22.4-4.3,10.68-5,11.53a5,5,0,0,1-1.71.79q-2.67-.58-2.66-2.4V661q0-.5,4.09-10.37l-8.71-21.24v-0.32q0.5-2.53,2.64-2.53t3.4,4.17Q271,640.83,272.28,643.86Z" transform="translate(-80.49 -592.64)"/><path class="cls-3" d="M299.06,626.24a14.21,14.21,0,0,1,11,5.28q3.22,4.41,3.22,8.36l-0.11,3.32V655q0,3.72-5.43,7.89a15.59,15.59,0,0,1-8.68,2.72q-7.76,0-12.82-6.91a5.87,5.87,0,0,1-1-2.4V656q0-1.93,2.48-2.48h0.37q1.87,0,2.93,2.85a9.9,9.9,0,0,0,8,4,9.31,9.31,0,0,0,8.65-5.17l0.16-1.05v-2.56a12,12,0,0,1-8.52,3h-0.79q-5.75,0-10.68-5.38a15.08,15.08,0,0,1-3-8.84q0-6.94,6.12-11.61A14.37,14.37,0,0,1,299.06,626.24Zm-8.81,13.93v0.48q0,5.49,5.78,8.18a9.67,9.67,0,0,0,2.74.45h0.58q5.36,0,8.1-5.75a12,12,0,0,0,.42-2.66v-0.61q0-5.46-5.83-8.18a13.42,13.42,0,0,0-2.8-.42h-0.37q-5.36,0-8.1,5.67A8.93,8.93,0,0,0,290.25,640.17Z" transform="translate(-80.49 -592.64)"/><path class="cls-3" d="M338.08,651.75a11.94,11.94,0,0,1-8.5,3h-0.77q-7.28,0-12.13-7.28a15.73,15.73,0,0,1-1.77-7.1q0-8,7.81-12.64a15.25,15.25,0,0,1,6.49-1.56q8.1,0,12.82,7.91a16.2,16.2,0,0,1,1.45,6.67V652.2q0,2.11-2.59,2.56h-0.18a2.86,2.86,0,0,1-2.66-2.11v-0.29Zm-17.73-11.48v0.29q0,5.41,5.43,8.13a8.77,8.77,0,0,0,3,.63h0.77q4.49,0,7.41-4.51a9,9,0,0,0,1.05-4v-0.4q0-5.2-5.14-8a9,9,0,0,0-3.69-.79h-0.11q-5.46,0-8.23,5.7A10.49,10.49,0,0,0,320.35,640.27Z" transform="translate(-80.49 -592.64)"/><path class="cls-3" d="M361,626.24a14.21,14.21,0,0,1,11,5.28q3.22,4.41,3.22,8.36l-0.11,3.32V655q0,3.72-5.43,7.89a15.59,15.59,0,0,1-8.68,2.72q-7.76,0-12.82-6.91a5.87,5.87,0,0,1-1-2.4V656q0-1.93,2.48-2.48H350q1.87,0,2.93,2.85a9.9,9.9,0,0,0,8,4,9.31,9.31,0,0,0,8.65-5.17l0.16-1.05v-2.56a12,12,0,0,1-8.52,3h-0.79q-5.75,0-10.68-5.38a15.08,15.08,0,0,1-3-8.84q0-6.94,6.12-11.61A14.37,14.37,0,0,1,361,626.24Zm-8.81,13.93v0.48q0,5.49,5.78,8.18a9.67,9.67,0,0,0,2.74.45h0.58q5.36,0,8.1-5.75a12,12,0,0,0,.42-2.66v-0.61q0-5.46-5.83-8.18a13.42,13.42,0,0,0-2.8-.42h-0.37q-5.36,0-8.1,5.67A8.93,8.93,0,0,0,352.16,640.17Z" transform="translate(-80.49 -592.64)"/><path class="cls-3" d="M400,651.75a11.94,11.94,0,0,1-8.5,3h-0.77q-7.28,0-12.13-7.28a15.73,15.73,0,0,1-1.77-7.1q0-8,7.81-12.64a15.25,15.25,0,0,1,6.49-1.56q8.1,0,12.82,7.91a16.2,16.2,0,0,1,1.45,6.67V652.2q0,2.11-2.59,2.56h-0.18a2.86,2.86,0,0,1-2.66-2.11v-0.29Zm-17.73-11.48v0.29q0,5.41,5.43,8.13a8.77,8.77,0,0,0,3,.63h0.77q4.49,0,7.41-4.51a9,9,0,0,0,1.05-4v-0.4q0-5.2-5.14-8a9,9,0,0,0-3.69-.79H391q-5.46,0-8.23,5.7A10.49,10.49,0,0,0,382.27,640.27Z" transform="translate(-80.49 -592.64)"/></svg>