<svg id="_6_-_BabyGaga" data-name="6 - BabyGaga" xmlns="http://www.w3.org/2000/svg" viewBox="0 0 324.24 80.38"><defs><style>.cls-1,.cls-2{fill:#fff;}.cls-1{fill-rule:evenodd;}</style></defs><title>bg-logo-full-white</title><path class="cls-1" d="M-341.8,592.72A40.19,40.19,0,0,0-382,632.92a40.19,40.19,0,0,0,40.19,40.19,40.19,40.19,0,0,0,40.19-40.19A40.19,40.19,0,0,0-341.8,592.72ZM-365,664.13c-15.91-12-18.3-35.63-5.33-52.88s36.37-21.52,52.28-9.56,18.3,35.63,5.33,52.88S-349.09,676.09-365,664.13Z" transform="translate(381.99 -592.72)"/><path class="cls-1" d="M-351.38,604.89c4.79,7,13.23,4,17.32,9,2.73,3.86-.44,9.8-3,11,13.56,4.56,29.92,27.64,3.88,38.81,13.55-12.95,7.29-31-8.21-38.42,1.35-1.66,6.49-6.6,4.46-10-5.66-5.13-12.33-4.78-14.65-9.67C-353.59,601.35-354.14,600.85-351.38,604.89Z" transform="translate(381.99 -592.72)"/><path class="cls-1" d="M-337.62,642.45c0.92-3.86,6.23-5.8,7.25-1.21,1,4.42-2.25,10.57-4.53,12.68,0.06-5-9.21-5.08-10.28-8.72C-346.67,640.13-341,638.65-337.62,642.45Z" transform="translate(381.99 -592.72)"/><path class="cls-2" d="M-288.77,615.3l1.32,0.21h5.92l0.39-.08q5,0,8.45,4.61a9.74,9.74,0,0,1,1.76,5.61v0.29a9.13,9.13,0,0,1-2.24,6.24q6,3.29,6,10.53t-7.53,11.16a13.64,13.64,0,0,1-4.37.84h-9q-2.61-.47-2.61-2.69V618.14q0.39-2.63,1.9-2.63V615.3Zm3.55,5.66v9.56h2.87q4.34,0,5.53-3a4.65,4.65,0,0,0,.34-1.71v-0.29q0-3.26-3.82-4.48l-2-.1h-2.95Zm0,15v13.29h4.37q5.24,0,7-2.9a6.25,6.25,0,0,0,1.16-3.66v-0.18q0-4.77-5.21-6.37l-2.66-.18h-4.63Z" transform="translate(381.99 -592.72)"/><path class="cls-2" d="M-242.72,651.71a11.92,11.92,0,0,1-8.48,3H-252q-7.27,0-12.11-7.27a15.7,15.7,0,0,1-1.76-7.08q0-8,7.79-12.61a15.22,15.22,0,0,1,6.48-1.55q8.08,0,12.79,7.9a16.16,16.16,0,0,1,1.45,6.66v11.4q0,2.11-2.58,2.55h-0.18a2.85,2.85,0,0,1-2.66-2.11v-0.29Zm-17.69-11.45v0.29q0,5.4,5.42,8.11a8.75,8.75,0,0,0,3,.63h0.76q4.48,0,7.4-4.5a9,9,0,0,0,1.05-4v-0.39q0-5.19-5.13-8a8.93,8.93,0,0,0-3.69-.79h-0.11q-5.45,0-8.21,5.69A10.47,10.47,0,0,0-260.41,640.26Z" transform="translate(381.99 -592.72)"/><path class="cls-2" d="M-230.53,615.43h0.45q2.5,0.55,2.5,2.5V629q3.24-3.11,9-3.11a14.46,14.46,0,0,1,10.08,4.21,14.4,14.4,0,0,1,4.32,10.19q0,8.11-7.66,12.74a14.32,14.32,0,0,1-6.45,1.68h-0.79q-5.84,0-10.85-5.45A15.65,15.65,0,0,1-233,639.6V617.93Q-233,616-230.53,615.43Zm2.95,24.56v0.5q0,5.58,5.87,8.32a10,10,0,0,0,2.79.45h0.61q5.42,0,8.21-5.84a12,12,0,0,0,.45-2.71V640.1q0-5.55-5.95-8.32a12.71,12.71,0,0,0-2.82-.45h-0.39q-5.42,0-8.21,5.76A9,9,0,0,0-227.58,640Z" transform="translate(381.99 -592.72)"/><path class="cls-2" d="M-190.59,643.84q6.56-16,7.08-16.59a3,3,0,0,1,1.92-.76q2.53,0.47,2.53,2.53v0.16q-0.1.82-9.14,22.35-4.29,10.66-4.95,11.5a5,5,0,0,1-1.71.79q-2.66-.58-2.66-2.4V661q0-.5,4.08-10.35l-8.69-21.19v-0.32q0.5-2.53,2.63-2.53t3.4,4.16Q-191.83,640.81-190.59,643.84Z" transform="translate(381.99 -592.72)"/><path class="cls-2" d="M-163.87,626.25a14.18,14.18,0,0,1,11,5.27q3.21,4.4,3.21,8.35l-0.11,3.32V655q0,3.71-5.42,7.87a15.56,15.56,0,0,1-8.66,2.71q-7.74,0-12.79-6.9a5.85,5.85,0,0,1-1-2.4V656q0-1.92,2.47-2.47h0.37q1.87,0,2.92,2.84a9.88,9.88,0,0,0,8,4,9.29,9.29,0,0,0,8.64-5.16l0.16-1.05v-2.55a12,12,0,0,1-8.5,3h-0.79q-5.74,0-10.66-5.37a15,15,0,0,1-3-8.82q0-6.92,6.11-11.58A14.34,14.34,0,0,1-163.87,626.25Zm-8.79,13.9v0.47q0,5.48,5.77,8.16a9.65,9.65,0,0,0,2.74.45h0.58q5.34,0,8.08-5.74a12,12,0,0,0,.42-2.66v-0.61q0-5.45-5.82-8.16a13.4,13.4,0,0,0-2.79-.42h-0.37q-5.34,0-8.08,5.66A8.91,8.91,0,0,0-172.67,640.15Z" transform="translate(381.99 -592.72)"/><path class="cls-2" d="M-124.94,651.71a11.92,11.92,0,0,1-8.48,3h-0.76q-7.27,0-12.11-7.27a15.7,15.7,0,0,1-1.76-7.08q0-8,7.79-12.61a15.22,15.22,0,0,1,6.48-1.55q8.08,0,12.79,7.9a16.17,16.17,0,0,1,1.45,6.66v11.4q0,2.11-2.58,2.55h-0.18a2.85,2.85,0,0,1-2.66-2.11v-0.29Zm-17.69-11.45v0.29q0,5.4,5.42,8.11a8.75,8.75,0,0,0,3,.63h0.76q4.48,0,7.4-4.5a9,9,0,0,0,1.05-4v-0.39q0-5.19-5.13-8a8.93,8.93,0,0,0-3.69-.79h-0.1q-5.45,0-8.21,5.69A10.47,10.47,0,0,0-142.63,640.26Z" transform="translate(381.99 -592.72)"/><path class="cls-2" d="M-102.08,626.25a14.18,14.18,0,0,1,11,5.27q3.21,4.4,3.21,8.35L-88,643.18V655q0,3.71-5.42,7.87a15.56,15.56,0,0,1-8.66,2.71q-7.74,0-12.79-6.9a5.85,5.85,0,0,1-1-2.4V656q0-1.92,2.47-2.47H-113q1.87,0,2.92,2.84a9.88,9.88,0,0,0,8,4,9.29,9.29,0,0,0,8.64-5.16l0.16-1.05v-2.55a12,12,0,0,1-8.5,3h-0.79q-5.74,0-10.66-5.37a15,15,0,0,1-3-8.82q0-6.92,6.11-11.58A14.34,14.34,0,0,1-102.08,626.25Zm-8.79,13.9v0.47q0,5.48,5.77,8.16a9.65,9.65,0,0,0,2.74.45h0.58q5.34,0,8.08-5.74a12,12,0,0,0,.42-2.66v-0.61q0-5.45-5.82-8.16a13.4,13.4,0,0,0-2.79-.42h-0.37q-5.34,0-8.08,5.66A8.91,8.91,0,0,0-110.88,640.15Z" transform="translate(381.99 -592.72)"/><path class="cls-2" d="M-63.15,651.71a11.92,11.92,0,0,1-8.48,3h-0.76q-7.27,0-12.11-7.27a15.7,15.7,0,0,1-1.76-7.08q0-8,7.79-12.61A15.22,15.22,0,0,1-72,626.2q8.08,0,12.79,7.9a16.17,16.17,0,0,1,1.45,6.66v11.4q0,2.11-2.58,2.55h-0.18a2.85,2.85,0,0,1-2.66-2.11v-0.29Zm-17.69-11.45v0.29q0,5.4,5.42,8.11a8.75,8.75,0,0,0,3,.63h0.76q4.48,0,7.4-4.5a9,9,0,0,0,1.05-4v-0.39q0-5.19-5.13-8a8.93,8.93,0,0,0-3.69-.79h-0.1q-5.45,0-8.21,5.69A10.47,10.47,0,0,0-80.84,640.26Z" transform="translate(381.99 -592.72)"/></svg>