<svg xmlns="http://www.w3.org/2000/svg" viewBox="0 0 201.51 75.84"><defs><style>.cls-1{fill:#04549f;}.cls-2{fill:#fcc826;}.cls-3{fill:none;}.cls-4{fill:#c52129;}</style></defs><g id="Layer_2" data-name="Layer 2"><g id="_7_-_CBR" data-name="7 - CBR"><path class="cls-1" d="M39.79,16.74a12.06,12.06,0,0,0-5.58-1.26,12.33,12.33,0,0,0-10.8,5.59c-1.8,2.7-2.88,7.2-2.88,13,0,7.38,1.08,12.42,3.42,15.12a12.06,12.06,0,0,0,3,2.47c-1.62-2.9-2.38-7.41-2.38-13.59,0-5.76,1.08-10.26,2.88-13a12.33,12.33,0,0,1,10.8-5.59,12.06,12.06,0,0,1,5.58,1.26c.2.11.38.25.58.37-.15-.26-.28-.51-.44-.76A13.34,13.34,0,0,0,39.79,16.74Z"/><path class="cls-2" d="M46.63,40.51a19.24,19.24,0,0,1-4.32,9.54,11.9,11.9,0,0,1-9,3.24A11.06,11.06,0,0,1,27.59,52c-.23-.12-.45-.26-.68-.39a12.06,12.06,0,0,1-3-2.47c-2.34-2.7-3.42-7.74-3.42-15.12,0-5.76,1.08-10.26,2.88-13a12.33,12.33,0,0,1,10.8-5.59,12.06,12.06,0,0,1,5.58,1.26,13.34,13.34,0,0,1,4.14,3.61c.16.25.29.5.44.76s.24.4.34.6a12.2,12.2,0,0,1,1.2,3.14l2-.47.15,0,16-3.64a28.14,28.14,0,0,0-5-10.16c-.17-.22-.35-.42-.52-.64A27.19,27.19,0,0,0,53.47,5c-4.86-3.42-11.34-5-19.8-5C22.87,0,14.76,2.88,8.82,8.82S0,23.23,0,34.21c0,8.28,1.62,15.12,4.86,20.17A26.7,26.7,0,0,0,11.34,62l.59.47a29.34,29.34,0,0,0,4.81,3,42.18,42.18,0,0,0,17.65,3.24,37.52,37.52,0,0,0,14.76-2.52,25.49,25.49,0,0,0,9.73-7.74c.42-.59.81-1.2,1.19-1.81a36.92,36.92,0,0,0,3.63-7.58c.07-.21.13-.43.2-.64.28-.85.53-1.71.74-2.58Z"/><path class="cls-1" d="M63.9,48.49c-.07.21-.13.43-.2.64a36.92,36.92,0,0,1-3.63,7.58c-.38.61-.77,1.22-1.19,1.81a25.49,25.49,0,0,1-9.73,7.74,37.52,37.52,0,0,1-14.76,2.52,42.18,42.18,0,0,1-17.65-3.24,29.34,29.34,0,0,1-4.81-3L11.34,62a27,27,0,0,0,4.59,4.47,29.34,29.34,0,0,0,4.81,3,42.18,42.18,0,0,0,17.65,3.24,37.52,37.52,0,0,0,14.76-2.52,25.49,25.49,0,0,0,9.73-7.74c.42-.59.81-1.2,1.19-1.81a36.92,36.92,0,0,0,3.63-7.58c.36-1.06.68-2.13.94-3.22l-4-4Z"/><path class="cls-1" d="M52.1,28.35l16-3.64a28.32,28.32,0,0,0-9.51-14.8c.17.22.35.42.52.64a28.14,28.14,0,0,1,5,10.16l-16,3.64-.15,0-2,.47,4,4Z"/><path class="cls-1" d="M69.46,71.3h35.65a79.22,79.22,0,0,0,9.18-.9A19.14,19.14,0,0,0,122,68.24a19.65,19.65,0,0,0,6.66-6.66A19,19,0,0,0,131,52.21a16.33,16.33,0,0,0-3.42-10.62,21.2,21.2,0,0,0-3.12-2.73A16.15,16.15,0,0,1,127,48.21a19,19,0,0,1-2.34,9.37A19.65,19.65,0,0,1,118,64.24a19.14,19.14,0,0,1-7.74,2.16,79.22,79.22,0,0,1-9.18.9H65.46l4,4"/><path class="cls-1" d="M90.34,18h9a10.2,10.2,0,0,1,4.17.5,5.37,5.37,0,0,0-1.69-2.88A10.3,10.3,0,0,0,95.35,14h-9l-.18,12.6h4.06Z"/><path class="cls-1" d="M120.19,27.15a16.84,16.84,0,0,1-7.2,4.5,18.06,18.06,0,0,1,6.88,2.78,15.59,15.59,0,0,0,4.32-3.28,13.69,13.69,0,0,0,3.6-10.08,14.45,14.45,0,0,0-5-11.71,15.43,15.43,0,0,0-1.53-1.25,14.66,14.66,0,0,1,2.57,9A13.69,13.69,0,0,1,120.19,27.15Z"/><path class="cls-1" d="M100.61,43.39a18,18,0,0,1,5.46.67,5.36,5.36,0,0,0-1.9-2.87c-1.44-1.26-4-1.8-7.56-1.8H86.16V52.72h4V43.39Z"/><path class="cls-2" d="M124.49,38.86a15.17,15.17,0,0,0-.88-1.27,20.75,20.75,0,0,0-3.74-3.16A18.06,18.06,0,0,0,113,31.65a16.84,16.84,0,0,0,7.2-4.5,13.69,13.69,0,0,0,3.6-10.08,14.66,14.66,0,0,0-2.57-9,13.68,13.68,0,0,0-2.47-2.75C115.33,2.12,110.47.5,104,.5H65.46V67.3h35.65a79.22,79.22,0,0,0,9.18-.9A19.14,19.14,0,0,0,118,64.24a19.65,19.65,0,0,0,6.66-6.66A19,19,0,0,0,127,48.21,16.15,16.15,0,0,0,124.49,38.86ZM86.34,14h9a10.3,10.3,0,0,1,6.48,1.62,5.37,5.37,0,0,1,1.69,2.88,5,5,0,0,1,.11,1.62,6.11,6.11,0,0,1-1.8,4.86,10.83,10.83,0,0,1-6.66,1.62h-9Zm17.83,36.91c-1.44,1.26-4,1.8-7.56,1.8H86.16V39.39H96.61c3.6,0,6.12.54,7.56,1.8a5.36,5.36,0,0,1,1.9,2.87,6.55,6.55,0,0,1,.26,1.81A6,6,0,0,1,104.17,50.92Z"/><path class="cls-3" d="M162.66,26.63a5.76,5.76,0,0,0,3.24-2.17,6.7,6.7,0,0,0,1.26-3.6,6.12,6.12,0,0,0-.19-2.19,19,19,0,0,0-5.53-.65h-9v9.51h4.83A28.2,28.2,0,0,0,162.66,26.63Z"/><path class="cls-1" d="M187.86,19.06a17.52,17.52,0,0,1-2.34,9.55A18.61,18.61,0,0,1,179,35.09a24.77,24.77,0,0,1-7.2,2.7,18.57,18.57,0,0,1,5.4,2.52,9.89,9.89,0,0,1,1,.83,23.28,23.28,0,0,0,4.79-2,18.61,18.61,0,0,0,6.48-6.48,17.52,17.52,0,0,0,2.34-9.55,18,18,0,0,0-3.06-10.8,16.24,16.24,0,0,0-4-4.06l0,.06A18,18,0,0,1,187.86,19.06Z"/><path class="cls-1" d="M161.44,18a19,19,0,0,1,5.53.65,5.79,5.79,0,0,0-1.79-2.85c-1.44-1.26-4-1.8-7.74-1.8h-9V27.53h4V18Z"/><path class="cls-2" d="M180.65,44l-.17-.22a17.06,17.06,0,0,0-2.23-2.59,9.89,9.89,0,0,0-1-.83,18.57,18.57,0,0,0-5.4-2.52,24.77,24.77,0,0,0,7.2-2.7,18.61,18.61,0,0,0,6.48-6.48,17.52,17.52,0,0,0,2.34-9.55,18,18,0,0,0-3.06-10.8l0-.06a16,16,0,0,0-8.06-6.06A49.71,49.71,0,0,0,162.12.52H127.91V67.14h20.52v-27h1.8a8.45,8.45,0,0,1,5.05,1.62A14.81,14.81,0,0,1,158,45a18.45,18.45,0,0,1,1.1,2l11,20.35h9.72c-.18-.18-.18-13.15,0-13.15h6.84l-3.24-6.3A34,34,0,0,0,180.65,44ZM148.43,27.53V14h9c3.78,0,6.3.54,7.74,1.8A5.79,5.79,0,0,1,167,18.67a6.12,6.12,0,0,1,.19,2.19,6.7,6.7,0,0,1-1.26,3.6,5.76,5.76,0,0,1-3.24,2.17,28.2,28.2,0,0,1-5.4.9h-8.83Z"/><path class="cls-1" d="M155.28,41.75a8.45,8.45,0,0,0-5.05-1.62h-1.8v27H127.91l4,4h20.52v-27h1.8A8.73,8.73,0,0,1,158,45,14.81,14.81,0,0,0,155.28,41.75Z"/><path class="cls-1" d="M190.6,58.17l-3.24-6.3a33.88,33.88,0,0,0-2.88-4.14,14.63,14.63,0,0,0-3.24-3.42c-.19-.13-.39-.24-.59-.36a34,34,0,0,1,2.71,3.92l3.24,6.3h-6.84c-.18,0-.18,13,0,13.15H170l4,4h9.72c-.18-.18-.18-13.15,0-13.15Z"/><polygon class="cls-1" points="197.51 59.24 197.51 63.24 197.51 71.84 188.94 71.84 184.94 71.84 188.94 75.84 201.51 75.84 201.51 63.24 197.51 59.24"/><polygon class="cls-4" points="184.94 59.24 184.94 71.84 188.94 71.84 197.51 71.84 197.51 63.24 197.51 59.24 184.94 59.24"/></g></g></svg>