<svg id="_8_-_CBR_New" data-name="8 - CBR New" xmlns="http://www.w3.org/2000/svg" viewBox="0 0 268.49 71.99"><defs><style>.cls-1{fill:#fff;}</style></defs><title>cb-logo-full-white</title><path class="cls-1" d="M-319.54,966.55a19.24,19.24,0,0,1-4.32,9.54,11.9,11.9,0,0,1-9,3.24,11.21,11.21,0,0,1-5.71-1.28c-0.23-.12-0.46-0.26-0.68-0.39a12.21,12.21,0,0,1-3-2.47c-2.34-2.7-3.42-7.74-3.42-15.12,0-5.76,1.08-10.26,2.88-13a12.35,12.35,0,0,1,10.8-5.58,12.06,12.06,0,0,1,5.58,1.26,13.32,13.32,0,0,1,4.14,3.6c0.16,0.25.29,0.51,0.43,0.76s0.24,0.4.35,0.61a12.5,12.5,0,0,1,1.2,3.14l2-.46,0.14,0,16-3.64a28.13,28.13,0,0,0-5-10.16c-0.17-.22-0.35-0.42-0.52-0.63a27.33,27.33,0,0,0-5.11-4.87c-4.86-3.42-11.34-5-19.81-5-10.8,0-18.91,2.88-24.85,8.82s-8.82,14.4-8.82,25.39c0,8.28,1.62,15.12,4.86,20.17a26.38,26.38,0,0,0,6.48,7.66l0.59,0.48a29.56,29.56,0,0,0,4.81,3,42.12,42.12,0,0,0,17.64,3.24A37.53,37.53,0,0,0-317,992.3a25.47,25.47,0,0,0,9.72-7.74c0.42-.59.81-1.2,1.2-1.81a36.61,36.61,0,0,0,3.63-7.57c0.07-.21.13-0.43,0.2-0.64,0.27-.85.53-1.71,0.74-2.58Z" transform="translate(366.17 -926.04)"/><path class="cls-1" d="M-241.68,964.9c-0.27-.43-0.57-0.86-0.88-1.27a21.28,21.28,0,0,0-3.74-3.16,18,18,0,0,0-6.88-2.78,16.85,16.85,0,0,0,7.2-4.5,13.69,13.69,0,0,0,3.6-10.08,14.69,14.69,0,0,0-2.57-9,13.92,13.92,0,0,0-2.47-2.74c-3.42-3.24-8.28-4.86-14.76-4.86h-38.53v66.8h35.65a79.24,79.24,0,0,0,9.18-.9,19.15,19.15,0,0,0,7.74-2.16,19.65,19.65,0,0,0,6.66-6.66,19,19,0,0,0,2.34-9.36A16.17,16.17,0,0,0-241.68,964.9ZM-279.83,940h9a10.3,10.3,0,0,1,6.48,1.62,5.4,5.4,0,0,1,1.69,2.88,4.91,4.91,0,0,1,.11,1.62,6.11,6.11,0,0,1-1.8,4.86,10.83,10.83,0,0,1-6.66,1.62h-9ZM-262,977c-1.44,1.26-4,1.8-7.56,1.8H-280V965.43h10.44c3.6,0,6.12.54,7.56,1.8a5.39,5.39,0,0,1,1.9,2.87,6.6,6.6,0,0,1,.26,1.81A6,6,0,0,1-262,977Z" transform="translate(366.17 -926.04)"/><path class="cls-1" d="M-185.52,970l-0.17-.22a17,17,0,0,0-2.23-2.59,10.39,10.39,0,0,0-1-.83,18.57,18.57,0,0,0-5.4-2.52,24.77,24.77,0,0,0,7.2-2.7,18.62,18.62,0,0,0,6.48-6.48,17.49,17.49,0,0,0,2.34-9.54,18,18,0,0,0-3.06-10.8l0-.06a16.06,16.06,0,0,0-8.06-6.06,49.72,49.72,0,0,0-14.58-1.62h-34.21v66.62h20.53v-27h1.8a8.42,8.42,0,0,1,5,1.62,14.88,14.88,0,0,1,2.68,3.22,16.88,16.88,0,0,1,1.1,2l11,20.35h9.72c-0.18-.18-0.18-13.14,0-13.14h6.84l-3.24-6.3A35.93,35.93,0,0,0-185.52,970Zm-32.22-16.42v-13.5h9c3.78,0,6.3.54,7.74,1.8a5.79,5.79,0,0,1,1.79,2.84,6.17,6.17,0,0,1,.19,2.2,6.7,6.7,0,0,1-1.26,3.6,5.79,5.79,0,0,1-3.24,2.16,28.21,28.21,0,0,1-5.4.9h-8.82Z" transform="translate(366.17 -926.04)"/><path class="cls-1" d="M-192.14,997.36" transform="translate(366.17 -926.04)"/><polygon class="cls-1" points="184.94 59.24 184.94 71.84 188.94 71.84 197.51 71.84 197.51 63.24 197.51 59.24 184.94 59.24"/><path class="cls-1" d="M-157.06,991h0a3.8,3.8,0,0,0,.41.52A3.8,3.8,0,0,1-157.06,991Z" transform="translate(366.17 -926.04)"/><path class="cls-1" d="M-157.17,985.16a5.52,5.52,0,0,1,.34-0.47A5.57,5.57,0,0,0-157.17,985.16Z" transform="translate(366.17 -926.04)"/><path class="cls-1" d="M-157.91,987.11a4.27,4.27,0,0,1,.13-0.62A4.24,4.24,0,0,0-157.91,987.11Z" transform="translate(366.17 -926.04)"/><path class="cls-1" d="M-157.75,986.4a5.11,5.11,0,0,1,.51-1.13A5.11,5.11,0,0,0-157.75,986.4Z" transform="translate(366.17 -926.04)"/><path class="cls-1" d="M-155.87,998h0Z" transform="translate(366.17 -926.04)"/><path class="cls-1" d="M-154.67,998a7.44,7.44,0,0,1-1.2,0A7.69,7.69,0,0,0-154.67,998Z" transform="translate(366.17 -926.04)"/><path class="cls-1" d="M-157.78,986.49l0-.09Z" transform="translate(366.17 -926.04)"/><path class="cls-1" d="M-153.41,992.79c-0.16,0-.3,0-0.45,0a4.22,4.22,0,0,1-2.79-1.23,3.8,3.8,0,0,1-.41-0.52,5,5,0,0,1-.85-2.9,3.64,3.64,0,0,1,0-1,4.24,4.24,0,0,1,.13-0.62l0-.09a5.11,5.11,0,0,1,.51-1.13l0.07-.12a5.57,5.57,0,0,1,.34-0.47,4,4,0,0,1,3.06-1.26,6.4,6.4,0,0,1,1.8.36,6.47,6.47,0,0,1,1.8,1.26l0.09-2.66,0.09-2.92a11,11,0,0,0-2.16-.9,11.89,11.89,0,0,0-2.52-.18,9,9,0,0,0-6.84,2.7,9.09,9.09,0,0,0-2.7,7,10.54,10.54,0,0,0,2.7,7.2c0.14,0.14.3,0.25,0.45,0.38a9.63,9.63,0,0,0,2,1.39,8.92,8.92,0,0,0,2,.71H-157a8.37,8.37,0,0,0,1.07.18h0a7.44,7.44,0,0,0,1.2,0,10.54,10.54,0,0,0,2.34-.36,9,9,0,0,0,2.34-.9h0v-5.58a9.89,9.89,0,0,1-1.62,1.26A6.4,6.4,0,0,1-153.41,992.79Z" transform="translate(366.17 -926.04)"/><path class="cls-1" d="M-157.24,985.28l0.07-.12Z" transform="translate(366.17 -926.04)"/><path class="cls-1" d="M-138.56,988.87a5.44,5.44,0,0,0-1,3.7,4.06,4.06,0,0,0,2.45-1l0.18-.18a5,5,0,0,0,1.08-3.24c0-.15,0-0.3,0-0.45a4.06,4.06,0,0,0-2.45,1Z" transform="translate(366.17 -926.04)"/><polygon class="cls-1" points="233.94 55.38 233.94 55.38 233.94 55.38 233.94 55.38"/><path class="cls-1" d="M-130.13,984.51a9.73,9.73,0,0,0-2.1-3.09h0a11.1,11.1,0,0,0-3.47-2.31,12,12,0,0,0-7.92,0h-0.18A9.65,9.65,0,0,0-149,991.89a9.88,9.88,0,0,0,4.46,4.94c0.3,0.16.62,0.32,0.94,0.46a12,12,0,0,0,7.92,0,10.22,10.22,0,0,0,3.24-2.16,10.22,10.22,0,0,0,2.16-3.24,9.4,9.4,0,0,0,.72-3.78A11.61,11.61,0,0,0-130.13,984.51Zm-12.42,6.84a5.4,5.4,0,0,1,0-6.48l0.18-.18a3.75,3.75,0,0,1,5.4.18,5.29,5.29,0,0,1,1,2.79c0,0.15,0,.31,0,0.45a5,5,0,0,1-1.08,3.24l-0.18.18a4.06,4.06,0,0,1-2.45,1A3.58,3.58,0,0,1-142.56,991.35Z" transform="translate(366.17 -926.04)"/><path class="cls-1" d="M-98,983.25l0-.24a4.34,4.34,0,0,0-.79-1.84s-0.07-.1-0.11-0.14a3.62,3.62,0,0,0-2-1.62,8.16,8.16,0,0,0-2.88-.54,8.2,8.2,0,0,0-3.6.9,8.41,8.41,0,0,0-2.52,2.52,4.6,4.6,0,0,0-2.16-2.7,7.33,7.33,0,0,0-7.2,0,7.86,7.86,0,0,0-1.29,1.11,12.91,12.91,0,0,0-1.41,1.77v-3.24h-6.3v18.37h6.3v-7.74a12.68,12.68,0,0,1,.72-5.22,2.42,2.42,0,0,1,2.52-1.26,2.86,2.86,0,0,1,1.91.84l0.07,0.06c0.09,0.19.16,0.37,0.23,0.56a5,5,0,0,1,.31,2.68v10.08h6.3v-7.74a12.68,12.68,0,0,1,.72-5.22,2.42,2.42,0,0,1,2.52-1.26,2.89,2.89,0,0,1,2,.9,5.19,5.19,0,0,1,.54,3.24v10.08h6.48v-10.8A25.23,25.23,0,0,0-98,983.25Z" transform="translate(366.17 -926.04)"/></svg>