<svg xmlns="http://www.w3.org/2000/svg" viewBox="0 0 292.07 25.01"><defs><style>.cls-1{fill:#ec1c24;}.cls-2{fill:#fff;}.cls-3{fill:#eee;}.cls-4{fill:#ddd;}</style></defs><title>Asset 52</title><g id="Layer_2" data-name="Layer 2"><g id="_18_-_TheCarsHub" data-name="18 - TheCarsHub"><polygon class="cls-1" points="285.49 24.92 268.29 24.92 274.87 0.09 292.07 0.09 285.49 24.92"/><polygon class="cls-1" points="17.2 24.92 0 24.92 6.58 0.09 23.79 0.09 17.2 24.92"/><path class="cls-2" d="M44.13,5.36H38.37L33.11,25H27.24L32.51,5.36H26.75L28.16.11H45.53Z"/><path class="cls-2" d="M68.72.11,62.05,25H56.29l2.25-8.38H50.45L48.2,25H42.34L49,.11h5.87l-3,11.23H60L63,.11Z"/><path class="cls-2" d="M77.42,5.47,76.2,10h7.12l-1.4,5.24H74.8l-1.21,4.5H86.52L85.12,25H66.43L73.1.11H91.79L90.35,5.47Z"/><path class="cls-3" d="M110.85,8.6l.84-3.13h-7.12l-3.83,14.3h7.12l.84-3.14h5.87L113,22.39a3.31,3.31,0,0,1-1.36,1.87,3.91,3.91,0,0,1-2.31.75H96.43a2.32,2.32,0,0,1-1.88-.75,1.94,1.94,0,0,1-.32-1.87l5.25-19.6A3.43,3.43,0,0,1,100.82.88,3.73,3.73,0,0,1,103.1.11H116a2.34,2.34,0,0,1,1.9.77,2,2,0,0,1,.35,1.91L116.72,8.6Z"/><path class="cls-3" d="M133.46,25l-.37-5.87h-9.22L120.3,25h-6L129.06.17H138L139.5,25Zm-1.3-19.6-5.09,8.38h5.64Z"/><path class="cls-3" d="M157.84,25l-3.41-8.55h-4.21L147.93,25h-5.87L148.73.11h16.92a2.37,2.37,0,0,1,1.9.77,1.94,1.94,0,0,1,.36,1.85l-3,11.06a3.45,3.45,0,0,1-1.37,1.9,3.82,3.82,0,0,1-2.31.77l3.4,8.55Zm-6.2-13.84h8.14l1.54-5.76h-8.14Z"/><path class="cls-3" d="M182,25H167.35l1.42-5.3h11.68L181.7,15H173a2.38,2.38,0,0,1-1.87-.77,2,2,0,0,1-.37-1.91l2.61-9.74A3.28,3.28,0,0,1,174.73.77,3.87,3.87,0,0,1,177,0H191.6l-1.42,5.3H178.56l-1.18,4.38h8.72a2.29,2.29,0,0,1,1.84.77,2,2,0,0,1,.34,1.91l-2.67,10a3.42,3.42,0,0,1-1.36,1.91A3.81,3.81,0,0,1,182,25Z"/><path class="cls-4" d="M219.8.11,213.13,25h-5.75l2.24-8.38h-8.09L199.29,25h-5.87L200.09.11H206l-3,11.23H211l3-11.23Z"/><path class="cls-4" d="M234.83,25h-14.3a2.38,2.38,0,0,1-1.9-.75,1.9,1.9,0,0,1-.36-1.87l6-22.33h5.92l-5.26,19.65h8.37L238.55.06h5.93l-6,22.33a3.31,3.31,0,0,1-1.36,1.87A3.91,3.91,0,0,1,234.83,25Z"/><path class="cls-4" d="M266.28.11a2.33,2.33,0,0,1,1.82.77,2,2,0,0,1,.37,1.91l-5.25,19.6a3.28,3.28,0,0,1-1.39,1.87,3.85,3.85,0,0,1-2.22.75H242.75L249.42.11Zm-8.17,19.66,1.21-4.5h-8.15L250,19.77Zm-4.32-14.3L252.6,9.91h8.15l1.19-4.44Z"/></g></g></svg>