<svg xmlns="http://www.w3.org/2000/svg" viewBox="0 0 208.67 208.67"><defs><style>.cls-1{fill:#e5a345;}.cls-2{fill:#e9ad4d;}.cls-3{fill:#451805;}</style></defs><title>Asset 2</title><g id="Layer_2" data-name="Layer 2"><g id="Layer_1-2" data-name="Layer 1"><path class="cls-1" d="M192.67,67c-1.67.48-3.15,1.48-4.8,2a11.7,11.7,0,0,1-5.42.34c-2.91-.45-5.64-1.72-8.54-2.19s-6.29.1-8,2.51c-.68,1-1.12,2.26-2.23,2.68-1.36.52-2.74-.61-3.76-1.64l-9.26-9.37a6.86,6.86,0,0,1-2.29-3.6c-.41-3,3.12-5.76,2-8.57l-9.76-3.73c-.85-.32-1.81-.77-2-1.66a3.36,3.36,0,0,1,.63-2.13,8.66,8.66,0,0,0-4.55-11.51c-2.11-.78-4.64-.77-6.23-2.36-1.33-1.35-1.57-3.48-2.8-4.93-2.19-2.57-7.31-3.06-7.21-6.43a5.91,5.91,0,0,1,.91-2.52c1.72-3.21,3-6.84,2.49-10.44a5.72,5.72,0,0,0-.77-2.09A104.25,104.25,0,1,0,201.75,66.9C198.75,66.74,195.47,66.15,192.67,67Z"/><path class="cls-2" d="M187.87,69a11.7,11.7,0,0,1-5.42.34c-2.91-.45-5.64-1.72-8.54-2.19s-6.29.1-8,2.51c-.68,1-1.12,2.26-2.23,2.68-1.36.52-2.74-.61-3.76-1.64l-9.26-9.37a6.86,6.86,0,0,1-2.29-3.6c-.41-3,3.12-5.76,2-8.57l-9.76-3.73c-.85-.32-1.81-.77-2-1.66a3.36,3.36,0,0,1,.63-2.13,8.66,8.66,0,0,0-4.55-11.51c-2.11-.78-4.64-.77-6.23-2.36-1.33-1.35-1.57-3.48-2.8-4.93-2.19-2.57-7.31-3.06-7.21-6.43a5.91,5.91,0,0,1,.91-2.52,24.78,24.78,0,0,0,1.87-4.37,97.58,97.58,0,0,0-17-1.48,96.2,96.2,0,1,0,88.75,58.82l-.41.11C191,67.44,189.52,68.44,187.87,69Z"/><circle class="cls-3" cx="163.81" cy="116.95" r="14.9"/><path class="cls-3" d="M142.24,148.19a3.94,3.94,0,1,1,3.94,3.94A3.93,3.93,0,0,1,142.24,148.19Z"/><circle class="cls-3" cx="54.6" cy="152.13" r="16.98" transform="translate(-104.33 181.52) rotate(-80.73)"/><path class="cls-3" d="M83.41,102a6.45,6.45,0,1,1,6.45,6.45A6.45,6.45,0,0,1,83.41,102Z"/><circle class="cls-3" cx="50.3" cy="75.38" r="6.23"/><circle class="cls-3" cx="96.31" cy="48.44" r="15.48" transform="translate(-11.21 40.54) rotate(-22.5)"/><circle class="cls-3" cx="101.71" cy="179.11" r="11.75"/></g></g></svg>