<?xml version="1.0" encoding="utf-8"?>
<!-- Generator: Adobe Illustrator 23.0.3, SVG Export Plug-In . SVG Version: 6.00 Build 0)  -->
<svg version="1.1" id="Layer_1" xmlns="http://www.w3.org/2000/svg" xmlns:xlink="http://www.w3.org/1999/xlink" x="0px" y="0px"
	 viewBox="0 0 200 200" style="enable-background:new 0 0 200 200;" xml:space="preserve">
<style type="text/css">
	.st0{display:none;}
	.st1{display:inline;fill:#7F7F7F;}
	.st2{display:inline;}
	.st3{fill:#E8C27F;}
	.st4{fill:#E6E6E5;}
	.st5{fill:#333333;}
	.st6{fill:#0E1131;}
	.st7{fill:#FFFFFF;}
	.st8{fill:#221F1F;}
	.st9{fill:#BE232F;}
	.st10{fill:#D9A32C;}
	.st11{display:inline;fill:#FFFFFF;}
	.st12{display:inline;fill:#1B4279;}
	.st13{fill:#DD4331;}
	.st14{fill:#DD4330;}
	.st15{fill:#F17FA8;}
	.st16{fill:#29A9E1;}
	.st17{fill:#FCC826;}
	.st18{fill:#C62129;}
	.st19{fill:#0251A2;}
	.st20{fill:#FF6600;}
	.st21{fill:#E1E3E5;}
	.st22{fill:#2E72EF;}
	.st23{fill:#1B62C9;}
	.st24{fill:#E82323;}
	.st25{fill:#9E0707;}
	.st26{fill:#BF0D0B;}
	.st27{fill:#E5E5E5;}
	.st28{fill:#444444;}
	.st29{fill:none;}
	.st30{fill:#EB1A21;}
	.st31{fill:#F37838;}
	.st32{fill:#3B3E3F;}
</style>
<g id="Layer_7" class="st0">
	<rect class="st1" width="200" height="200"/>
</g>
<g id="square-tr-color-onblack" class="st0">
	<g id="Layer_1_3_" class="st2">
		<g id="Layer_2_1_" class="st0">
		</g>
		<g id="Layer_4_2_">
		</g>
		<g id="Layer_6_3_">
			<g>
				<rect x="23.5" y="80.8" class="st3" width="27.6" height="116.2"/>
				<polygon class="st3" points="140.6,124.5 119.3,142.1 164.3,196.9 200,196.9 				"/>
			</g>
			<g>
				<g>
					<polygon class="st4" points="72.2,164.2 72.1,133.3 158.2,64.4 126.1,28.8 16.8,28.8 0,3.1 137.6,3.1 193.8,65.3 					"/>
				</g>
				<path class="st4" d="M111.2,87.6C98.5,77.4,97,76.9,95.6,76.5c-1.4,0.4-2.9,0.9-15.6,11.1C90.3,74.9,90.7,73.5,91.1,72
					c-0.4-1.4-0.9-2.9-11.1-15.6c12.7,10.3,14.2,10.7,15.6,11.1c1.4-0.4,2.9-0.9,15.6-11.1c-10.3,12.7-10.7,14.2-11.1,15.6
					C100.5,73.5,100.9,75,111.2,87.6z"/>
				<path class="st4" d="M123.6,60.1c-6.6-5.3-7.3-5.5-8-5.7c-0.7,0.2-1.5,0.4-8.1,5.7c5.3-6.6,5.5-7.3,5.7-8.1
					c-0.2-0.7-0.4-1.5-5.7-8c6.6,5.3,7.3,5.5,8,5.7c0.7-0.2,1.5-0.4,8.1-5.7c-5.3,6.6-5.5,7.3-5.7,8.1
					C118.1,52.8,118.3,53.5,123.6,60.1z"/>
			</g>
		</g>
	</g>
</g>
<g id="square-tr-color-onwhite" class="st0">
	<g id="Layer_1_1_" class="st2">
		<g id="Layer_2_2_" class="st0">
		</g>
		<g id="Layer_4_1_">
		</g>
		<g id="Layer_6_1_">
			<g>
				<rect x="23.5" y="80.8" class="st3" width="27.6" height="116.2"/>
				<polygon class="st3" points="140.6,124.5 119.3,142.1 164.3,196.9 200,196.9 				"/>
			</g>
			<g>
				<g>
					<polygon class="st5" points="72.2,164.2 72.1,133.3 158.2,64.4 126.1,28.8 16.8,28.8 0,3.1 137.6,3.1 193.8,65.3 					"/>
				</g>
				<path class="st6" d="M111.2,87.6C98.5,77.4,97,76.9,95.6,76.5c-1.4,0.4-2.9,0.9-15.6,11.1C90.3,74.9,90.7,73.5,91.1,72
					c-0.4-1.4-0.9-2.9-11.1-15.6c12.7,10.3,14.2,10.7,15.6,11.1c1.4-0.4,2.9-0.9,15.6-11.1c-10.3,12.7-10.7,14.2-11.1,15.6
					C100.5,73.5,100.9,75,111.2,87.6z"/>
				<path class="st6" d="M123.6,60.1c-6.6-5.3-7.3-5.5-8-5.7c-0.7,0.2-1.5,0.4-8.1,5.7c5.3-6.6,5.5-7.3,5.7-8.1
					c-0.2-0.7-0.4-1.5-5.7-8c6.6,5.3,7.3,5.5,8,5.7c0.7-0.2,1.5-0.4,8.1-5.7c-5.3,6.6-5.5,7.3-5.7,8.1
					C118.1,52.8,118.3,53.5,123.6,60.1z"/>
			</g>
		</g>
	</g>
</g>
<g id="square-tr-white" class="st0">
	<g id="Layer_1_2_" class="st2">
		<g id="Layer_2_3_" class="st0">
		</g>
		<g id="Layer_4_3_">
		</g>
		<g id="Layer_6_2_">
			<g>
				<rect x="23.5" y="80.8" class="st7" width="27.6" height="116.2"/>
				<polygon class="st7" points="140.6,124.5 119.3,142.1 164.3,196.9 200,196.9 				"/>
			</g>
			<g>
				<g>
					<polygon class="st7" points="72.2,164.2 72.1,133.3 158.2,64.4 126.1,28.8 16.8,28.8 0,3.1 137.6,3.1 193.8,65.3 					"/>
				</g>
				<path class="st7" d="M111.2,87.6C98.5,77.4,97,76.9,95.6,76.5c-1.4,0.4-2.9,0.9-15.6,11.1C90.3,74.9,90.7,73.5,91.1,72
					c-0.4-1.4-0.9-2.9-11.1-15.6c12.7,10.3,14.2,10.7,15.6,11.1c1.4-0.4,2.9-0.9,15.6-11.1c-10.3,12.7-10.7,14.2-11.1,15.6
					C100.5,73.5,100.9,75,111.2,87.6z"/>
				<path class="st7" d="M123.6,60.1c-6.6-5.3-7.3-5.5-8-5.7c-0.7,0.2-1.5,0.4-8.1,5.7c5.3-6.6,5.5-7.3,5.7-8.1
					c-0.2-0.7-0.4-1.5-5.7-8c6.6,5.3,7.3,5.5,8,5.7c0.7-0.2,1.5-0.4,8.1-5.7c-5.3,6.6-5.5,7.3-5.7,8.1
					C118.1,52.8,118.3,53.5,123.6,60.1z"/>
			</g>
		</g>
	</g>
</g>
<g id="square-tr-white_1_" class="st0">
	<g id="Layer_1_4_" class="st2">
		<g id="Layer_2_4_" class="st0">
		</g>
		<g id="Layer_4_4_">
		</g>
		<g id="Layer_6_4_">
			<g>
				<rect x="23.5" y="80.8" width="27.6" height="116.2"/>
				<polygon points="140.6,124.5 119.3,142.1 164.3,196.9 200,196.9 				"/>
			</g>
			<g>
				<g>
					<polygon points="72.2,164.2 72.1,133.3 158.2,64.4 126.1,28.8 16.8,28.8 0,3.1 137.6,3.1 193.8,65.3 					"/>
				</g>
				<path d="M111.2,87.6C98.5,77.4,97,76.9,95.6,76.5c-1.4,0.4-2.9,0.9-15.6,11.1C90.3,74.9,90.7,73.5,91.1,72
					c-0.4-1.4-0.9-2.9-11.1-15.6c12.7,10.3,14.2,10.7,15.6,11.1c1.4-0.4,2.9-0.9,15.6-11.1c-10.3,12.7-10.7,14.2-11.1,15.6
					C100.5,73.5,100.9,75,111.2,87.6z"/>
				<path d="M123.6,60.1c-6.6-5.3-7.3-5.5-8-5.7c-0.7,0.2-1.5,0.4-8.1,5.7c5.3-6.6,5.5-7.3,5.7-8.1c-0.2-0.7-0.4-1.5-5.7-8
					c6.6,5.3,7.3,5.5,8,5.7c0.7-0.2,1.5-0.4,8.1-5.7c-5.3,6.6-5.5,7.3-5.7,8.1C118.1,52.8,118.3,53.5,123.6,60.1z"/>
			</g>
		</g>
	</g>
</g>
<g id="square-ts-color-onwhite" class="st0">
	<g class="st2">
		<polygon class="st8" points="151.6,69.3 0,69.3 48.4,20.8 200,20.8 		"/>
		<polygon class="st9" points="48.4,124.2 200,124.2 151.6,75.8 0,75.8 		"/>
		<polygon class="st8" points="151.6,179.2 0,179.2 48.4,130.7 200,130.7 		"/>
	</g>
</g>
<g id="square-ts-color-onblack" class="st0">
	<g class="st2">
		<polygon class="st7" points="151.6,69.3 0,69.3 48.4,20.8 200,20.8 		"/>
		<polygon class="st9" points="48.4,124.2 200,124.2 151.6,75.8 0,75.8 		"/>
		<polygon class="st7" points="151.6,179.2 0,179.2 48.4,130.7 200,130.7 		"/>
	</g>
</g>
<g id="square-ts-white" class="st0">
	<g class="st2">
		<polygon class="st7" points="151.6,69.3 0,69.3 48.4,20.8 200,20.8 		"/>
		<polygon class="st7" points="48.4,124.2 200,124.2 151.6,75.8 0,75.8 		"/>
		<polygon class="st7" points="151.6,179.2 0,179.2 48.4,130.7 200,130.7 		"/>
	</g>
</g>
<g id="square-ts-white_1_" class="st0">
	<g class="st2">
		<polygon points="151.6,69.3 0,69.3 48.4,20.8 200,20.8 		"/>
		<polygon points="48.4,124.2 200,124.2 151.6,75.8 0,75.8 		"/>
		<polygon points="151.6,179.2 0,179.2 48.4,130.7 200,130.7 		"/>
	</g>
</g>
<g id="square-sr-color-onwhite" class="st0">
	<g id="SR_1_" class="st2">
		<path class="st5" d="M63.6,86.4H43.4c-8.9,0-12.9-3.6-12.9-11.7c0-4,0-16.2,29.7-16.2h20.2l26.2-26.2H87.5H75H60.2
			C21,32.4,1.1,46.6,1.1,74.8c0,25.7,14.2,38.8,42.3,38.8h20.2c13.7,0,15.5,6.2,15.5,11.7c0,4.2,0,17.1-26.9,17.1
			c-8.8,0-24.3-2.8-31.7-3.6L0,162.2c19,1.9,35.9,3.6,51.9,3.6c37.6,0,56.5-11.8,56.5-40.5C108.4,99.5,93.4,86.4,63.6,86.4z"/>
		<path class="st10" d="M158.4,110.9c19.8-6,28.8-24.6,28.8-40.3c0-25-14.6-38.2-42.2-38.2h-23.9L94.9,58.6h9.8h38.9
			c8.8,0,13.3,4.3,13.3,12.7c0,15.8-13.4,23.8-39.7,23.8H112l2.8,4.3l47.4,67l0.8,1.2h1.4h30.1h5.4l-3.2-4.4L158.4,110.9z"/>
	</g>
</g>
<g id="square-sr-white" class="st0">
	<g id="SR_2_" class="st2">
		<path class="st7" d="M63.6,86.4H43.4c-8.9,0-12.9-3.6-12.9-11.7c0-4,0-16.2,29.7-16.2h20.2l26.2-26.2H87.5H75H60.2
			C21,32.4,1.1,46.6,1.1,74.8c0,25.7,14.2,38.8,42.3,38.8h20.2c13.7,0,15.5,6.2,15.5,11.7c0,4.2,0,17.1-26.9,17.1
			c-8.8,0-24.3-2.8-31.7-3.6L0,162.2c19,1.9,35.9,3.6,51.9,3.6c37.6,0,56.5-11.8,56.5-40.5C108.4,99.5,93.4,86.4,63.6,86.4z"/>
		<path class="st7" d="M158.4,110.9c19.8-6,28.8-24.6,28.8-40.3c0-25-14.6-38.2-42.2-38.2h-23.9L94.9,58.6h9.8h38.9
			c8.8,0,13.3,4.3,13.3,12.7c0,15.8-13.4,23.8-39.7,23.8H112l2.8,4.3l47.4,67l0.8,1.2h1.4h30.1h5.4l-3.2-4.4L158.4,110.9z"/>
	</g>
</g>
<g id="square-sr-white_1_" class="st0">
	<g id="SR_4_" class="st2">
		<path d="M63.6,86.4H43.4c-8.9,0-12.9-3.6-12.9-11.7c0-4,0-16.2,29.7-16.2h20.2l26.2-26.2H87.5H75H60.2C21,32.4,1.1,46.6,1.1,74.8
			c0,25.7,14.2,38.8,42.3,38.8h20.2c13.7,0,15.5,6.2,15.5,11.7c0,4.2,0,17.1-26.9,17.1c-8.8,0-24.3-2.8-31.7-3.6L0,162.2
			c19,1.9,35.9,3.6,51.9,3.6c37.6,0,56.5-11.8,56.5-40.5C108.4,99.5,93.4,86.4,63.6,86.4z"/>
		<path d="M158.4,110.9c19.8-6,28.8-24.6,28.8-40.3c0-25-14.6-38.2-42.2-38.2h-23.9L94.9,58.6h9.8h38.9c8.8,0,13.3,4.3,13.3,12.7
			c0,15.8-13.4,23.8-39.7,23.8H112l2.8,4.3l47.4,67l0.8,1.2h1.4h30.1h5.4l-3.2-4.4L158.4,110.9z"/>
	</g>
</g>
<g id="square-tt-color-onblack" class="st0">
	<path class="st11" d="M27,31.7c0,0,50.1-31.2,130.5-31.7c8,10.4,24.1,30.7,24.1,30.7s-46.8-3.3-89.8,0.5l-8-8l-0.5,9
		C63.4,34.5,45.9,38.3,34,44.9c0,0,82.7-35,12.3,121.5c0,0,37.8-96,43-131c8,7.6,24.6,22.2,24.6,22.2s-25,88.5-59.5,142.4
		c-7.1-8-18-21.3-18-21.3S118,41.4,18.4,48.2C20.8,41.6,27,31.7,27,31.7"/>
</g>
<g id="square-tt-color-onwhite" class="st0">
	<path class="st12" d="M27,31.7c0,0,50.1-31.2,130.5-31.7c8,10.4,24.1,30.7,24.1,30.7s-46.8-3.3-89.8,0.5l-8-8l-0.5,9
		C63.4,34.5,45.9,38.3,34,44.9c0,0,82.7-35,12.3,121.5c0,0,37.8-96,43-131c8,7.6,24.6,22.2,24.6,22.2s-25,88.5-59.5,142.4
		c-7.1-8-18-21.3-18-21.3S118,41.4,18.4,48.2C20.8,41.6,27,31.7,27,31.7"/>
</g>
<g id="square-tt-white_1_" class="st0">
	<path class="st11" d="M27,31.7c0,0,50.1-31.2,130.5-31.7c8,10.4,24.1,30.7,24.1,30.7s-46.8-3.3-89.8,0.5l-8-8l-0.5,9
		C63.4,34.5,45.9,38.3,34,44.9c0,0,82.7-35,12.3,121.5c0,0,37.8-96,43-131c8,7.6,24.6,22.2,24.6,22.2s-25,88.5-59.5,142.4
		c-7.1-8-18-21.3-18-21.3S118,41.4,18.4,48.2C20.8,41.6,27,31.7,27,31.7"/>
</g>
<g id="square-tt-white" class="st0">
	<path class="st2" d="M27,31.7c0,0,50.1-31.2,130.5-31.7c8,10.4,24.1,30.7,24.1,30.7s-46.8-3.3-89.8,0.5l-8-8l-0.5,9
		C63.4,34.5,45.9,38.3,34,44.9c0,0,82.7-35,12.3,121.5c0,0,37.8-96,43-131c8,7.6,24.6,22.2,24.6,22.2s-25,88.5-59.5,142.4
		c-7.1-8-18-21.3-18-21.3S118,41.4,18.4,48.2C20.8,41.6,27,31.7,27,31.7"/>
</g>
<g id="square-th-color-onblack" class="st0">
	<g class="st2">
		<g>
			<path class="st7" d="M28.8,138.7c0,1.6-0.1,3-0.3,4.2c-0.2,1.2-0.5,2.2-0.8,2.9c-0.4,0.8-0.8,1.4-1.3,1.8
				c-0.5,0.4-1.1,0.7-1.7,0.8c-0.5,0.1-1,0-1.5-0.2s-1.1-0.5-1.6-0.9s-0.9-0.8-1.2-1.2c-0.3-0.4-0.5-0.8-0.5-1.2
				c0-0.2,0-0.4,0.1-0.5s0.1-0.1,0.2-0.1s0.2,0,0.4,0c0.2,0,0.3,0,0.5,0c0.7-0.1,1.1-0.6,1.4-1.5s0.4-2.3,0.4-4.1V99.3
				c0-0.5-0.4-0.9-1-0.7c-1.9,0.5-3.8,1.2-5.6,2.1c-2.1,1-3.9,2.2-5.5,3.7s-2.9,3.3-3.8,5.4c-1,2.1-1.4,4.6-1.4,7.4
				c0,1.3,0.1,2.4,0.4,3.3c0.2,1,0.6,1.8,1,2.6c0.4,0.7,0.9,1.4,1.3,1.9c0.4,0.4,0.8,0.8,1.2,1.1c0.2,0.1,0.4,0.2,0.7,0.1
				c0.2,0,0.4,0,0.5,0.1c0.2,0.2,0.2,0.5,0.2,0.8c0,0.5-0.1,1-0.3,1.5s-0.5,1.1-0.8,1.5c-0.3,0.5-0.7,0.9-1.1,1.2
				c-0.4,0.3-0.8,0.6-1.3,0.6c-0.2,0-0.4,0-0.6,0s-0.4-0.1-0.6-0.2c-0.5-0.3-1.2-0.8-1.9-1.5s-1.4-1.7-2.1-2.9
				c-0.7-1.2-1.2-2.5-1.7-4.1s-0.7-3.3-0.7-5.3c0-3.5,0.7-6.7,2-9.7c1.3-2.9,3.1-5.5,5.5-7.7c2.3-2.2,5.1-4.1,8.3-5.6
				s6.7-2.6,10.5-3.2c0.9-0.2,1.9-0.3,3.2-0.5c1.2-0.2,2.5-0.4,3.7-0.6s2.3-0.4,3.3-0.5c1-0.2,1.7-0.3,2-0.3
				c0.3-0.1,0.6-0.1,0.8-0.2s0.4-0.2,0.5-0.3c0.1-0.1,0.2-0.2,0.3-0.2C40,89,40,89,40.1,89s0.2,0,0.3,0.2c0.1,0.1,0.2,0.3,0.3,0.5
				s0.1,0.5,0.2,0.7c0,0.3,0.1,0.6,0.1,0.8c0,0.4-0.1,0.9-0.2,1.4c-0.1,0.5-0.3,0.9-0.5,1.3s-0.5,0.8-0.9,1.1
				c-0.4,0.3-0.8,0.5-1.2,0.6c-0.3,0-0.7,0.1-1.4,0.2s-1.5,0.2-2.4,0.4c-0.9,0.1-1.9,0.3-2.9,0.4c-0.7,0.1-1.3,0.2-1.9,0.3
				c-0.5,0.1-0.9,0.5-0.9,1v40.8H28.8z"/>
		</g>
		<path class="st7" d="M38.8,96c0-0.5,0-0.9-0.1-1.2c-0.1-0.3-0.2-0.5-0.2-0.7c-0.1-0.2-0.2-0.3-0.2-0.4c-0.1-0.1-0.1-0.2-0.1-0.3
			c0-0.1,0.1-0.3,0.2-0.4c0.1-0.1,0.3-0.2,0.6-0.3c0.2-0.1,0.5-0.2,0.8-0.3c0.3-0.1,0.5-0.1,0.8-0.2c1.2-0.2,2.2-0.1,2.9,0.4
			s1.1,1.2,1.1,2.1v20.7c0,0.9,1.1,1,1.6,0.2l0,0c0.6-1,1.2-1.9,1.9-2.6c0.7-0.8,1.4-1.4,2.2-1.9s1.6-0.8,2.5-1
			c1.2-0.2,2.2-0.2,3,0.2c0.8,0.3,1.4,0.8,1.9,1.4s0.8,1.4,0.9,2.2c0.2,0.9,0.3,1.7,0.3,2.5v15.2c0,0.2,0,0.4,0,0.8
			c0,0.4,0.1,0.7,0.2,1.1c0.1,0.4,0.3,0.7,0.6,0.9c0.2,0.2,0.6,0.3,1.1,0.2c0.7-0.1,1.4-0.5,1.9-1.1s1-1.4,1.4-2.2
			c0.4-0.9,0.7-1.8,1-2.7c0.2-1,0.5-1.9,0.6-2.7c0.1-0.8,0.4-1.3,0.7-1.7c0.3-0.4,0.6-0.6,1-0.7c0.3-0.1,0.7-0.1,1.1,0.1
			s0.7,0.4,0.9,0.7c0.3,0.3,0.5,0.7,0.6,1.1s0.1,0.8,0.1,1.2c-0.3,1.3-0.8,2.6-1.3,4.1c-0.5,1.4-1.2,2.8-2.1,4
			c-0.8,1.3-1.8,2.4-3,3.3c-1.2,0.9-2.5,1.5-4.1,1.8c-1,0.2-1.8,0.1-2.6-0.1c-0.7-0.2-1.4-0.6-1.9-1.1s-0.9-1.2-1.2-2
			s-0.4-1.6-0.4-2.6v-14.9c0-0.6,0-1.1,0-1.6s-0.1-0.9-0.2-1.3c-0.1-0.4-0.3-0.6-0.5-0.8c-0.2-0.2-0.5-0.3-0.8-0.2
			c-0.5,0.1-1.2,0.6-1.9,1.4c-0.8,0.8-1.5,1.9-2.2,3.2c-0.7,1.3-1.4,2.7-1.9,4.2c-0.6,1.5-0.9,3-1,4.5v0.1V139c0,0.4,0,0.7,0,1.1
			c0,0.4-0.1,0.7-0.2,1c-0.1,0.3-0.3,0.6-0.6,0.9c-0.3,0.3-0.7,0.4-1.2,0.5c-0.4,0.1-0.7,0.1-1.2,0.1c-0.4,0-0.8-0.1-1.1-0.3
			s-0.6-0.4-0.9-0.8c-0.2-0.4-0.3-0.9-0.3-1.6V96H38.8z"/>
		<path class="st7" d="M82.5,112.1c0,1.4-0.2,2.8-0.7,4.3s-1.2,3-2.1,4.4s-2,2.8-3.4,4c-1.1,1-2.4,1.9-3.8,2.7
			c-0.5,0.3-0.7,0.9-0.5,1.3c0.2,0.3,0.3,0.5,0.5,0.7c0.4,0.5,0.9,0.9,1.4,1.2s1.2,0.5,1.9,0.6c0.7,0.1,1.6,0.1,2.5-0.1
			c1.4-0.2,2.7-0.7,3.7-1.4s1.9-1.6,2.6-2.6c0.7-1,1.3-2.1,1.7-3.3c0.4-1.2,0.7-2.3,1-3.5c0.2-0.8,0.5-1.4,1-1.8s1-0.5,1.6-0.5
			c0.5,0,1,0.3,1.4,0.7c0.4,0.4,0.6,0.9,0.5,1.6c-0.1,0.8-0.3,1.6-0.5,2.6s-0.6,2-1,3.1c-0.5,1.1-1,2.1-1.7,3.2
			c-0.7,1.1-1.6,2.1-2.6,3s-2.2,1.7-3.6,2.4s-3,1.2-4.7,1.5s-3.3,0.2-4.8-0.1c-1.6-0.4-2.9-1.1-4.1-2.1s-2.2-2.4-2.9-4
			c-0.7-1.7-1.1-3.7-1.1-5.9c0-2.3,0.3-4.5,1-6.6c0.6-2.1,1.5-4,2.5-5.6s2.2-3,3.6-4c1.3-1.1,2.7-1.7,4.1-1.9c1-0.2,1.9-0.2,2.8,0.1
			c0.8,0.2,1.5,0.6,2.1,1.2s1,1.3,1.3,2.1C82.3,110.1,82.5,111,82.5,112.1z M70.7,122.8c0,0.2,0,0.4,0,0.6s0,0.4,0,0.7
			c0.9-0.6,1.7-1.3,2.5-2.1c0.7-0.8,1.4-1.7,1.9-2.6s0.9-2,1.2-3c0.3-1.1,0.4-2.1,0.4-3.2c0-0.8-0.1-1.4-0.4-1.8s-0.6-0.6-1.1-0.5
			c-0.6,0.1-1.1,0.4-1.6,0.9s-0.9,1.1-1.2,1.8c-0.3,0.7-0.6,1.5-0.9,2.4c-0.2,0.9-0.4,1.7-0.6,2.6c-0.1,0.9-0.2,1.7-0.3,2.4
			C70.7,121.7,70.7,122.3,70.7,122.8z"/>
		<g>
			<path class="st7" d="M102.7,42.8v131.3l97.3-17V25.9L102.7,42.8z M187.2,59.1l-25.7,4.5v86.2l-19.1,3.3V66.9l-25.5,4.4v-17
				L187.2,42V59.1z"/>
		</g>
	</g>
</g>
<g id="square-th-color-onwhite" class="st0">
	<g class="st2">
		<g>
			<path class="st13" d="M28.8,138.7c0,1.6-0.1,3-0.3,4.2c-0.2,1.2-0.5,2.2-0.8,2.9c-0.4,0.8-0.8,1.4-1.3,1.8
				c-0.5,0.4-1.1,0.7-1.7,0.8c-0.5,0.1-1,0-1.5-0.2s-1.1-0.5-1.6-0.9s-0.9-0.8-1.2-1.2c-0.3-0.4-0.5-0.8-0.5-1.2
				c0-0.2,0-0.4,0.1-0.5s0.1-0.1,0.2-0.1s0.2,0,0.4,0c0.2,0,0.3,0,0.5,0c0.7-0.1,1.1-0.6,1.4-1.5s0.4-2.3,0.4-4.1V99.3
				c0-0.5-0.4-0.9-1-0.7c-1.9,0.5-3.8,1.2-5.6,2.1c-2.1,1-3.9,2.2-5.5,3.7s-2.9,3.3-3.8,5.4c-1,2.1-1.4,4.6-1.4,7.4
				c0,1.3,0.1,2.4,0.4,3.3c0.2,1,0.6,1.8,1,2.6c0.4,0.7,0.9,1.4,1.3,1.9c0.4,0.4,0.8,0.8,1.2,1.1c0.2,0.1,0.4,0.2,0.7,0.1
				c0.2,0,0.4,0,0.5,0.1c0.2,0.2,0.2,0.5,0.2,0.8c0,0.5-0.1,1-0.3,1.5s-0.5,1.1-0.8,1.5c-0.3,0.5-0.7,0.9-1.1,1.2
				c-0.4,0.3-0.8,0.6-1.3,0.6c-0.2,0-0.4,0-0.6,0s-0.4-0.1-0.6-0.2c-0.5-0.3-1.2-0.8-1.9-1.5s-1.4-1.7-2.1-2.9
				c-0.7-1.2-1.2-2.5-1.7-4.1s-0.7-3.3-0.7-5.3c0-3.5,0.7-6.7,2-9.7c1.3-2.9,3.1-5.5,5.5-7.7c2.3-2.2,5.1-4.1,8.3-5.6
				s6.7-2.6,10.5-3.2c0.9-0.2,1.9-0.3,3.2-0.5c1.2-0.2,2.5-0.4,3.7-0.6s2.3-0.4,3.3-0.5c1-0.2,1.7-0.3,2-0.3
				c0.3-0.1,0.6-0.1,0.8-0.2s0.4-0.2,0.5-0.3c0.1-0.1,0.2-0.2,0.3-0.2C40,89,40,89,40.1,89s0.2,0,0.3,0.2c0.1,0.1,0.2,0.3,0.3,0.5
				s0.1,0.5,0.2,0.7c0,0.3,0.1,0.6,0.1,0.8c0,0.4-0.1,0.9-0.2,1.4c-0.1,0.5-0.3,0.9-0.5,1.3s-0.5,0.8-0.9,1.1
				c-0.4,0.3-0.8,0.5-1.2,0.6c-0.3,0-0.7,0.1-1.4,0.2s-1.5,0.2-2.4,0.4c-0.9,0.1-1.9,0.3-2.9,0.4c-0.7,0.1-1.3,0.2-1.9,0.3
				c-0.5,0.1-0.9,0.5-0.9,1v40.8H28.8z"/>
		</g>
		<path class="st13" d="M38.8,96c0-0.5,0-0.9-0.1-1.2c-0.1-0.3-0.2-0.5-0.2-0.7c-0.1-0.2-0.2-0.3-0.2-0.4c-0.1-0.1-0.1-0.2-0.1-0.3
			c0-0.1,0.1-0.3,0.2-0.4c0.1-0.1,0.3-0.2,0.6-0.3c0.2-0.1,0.5-0.2,0.8-0.3c0.3-0.1,0.5-0.1,0.8-0.2c1.2-0.2,2.2-0.1,2.9,0.4
			s1.1,1.2,1.1,2.1v20.7c0,0.9,1.1,1,1.6,0.2l0,0c0.6-1,1.2-1.9,1.9-2.6c0.7-0.8,1.4-1.4,2.2-1.9s1.6-0.8,2.5-1
			c1.2-0.2,2.2-0.2,3,0.2c0.8,0.3,1.4,0.8,1.9,1.4s0.8,1.4,0.9,2.2c0.2,0.9,0.3,1.7,0.3,2.5v15.2c0,0.2,0,0.4,0,0.8
			c0,0.4,0.1,0.7,0.2,1.1c0.1,0.4,0.3,0.7,0.6,0.9c0.2,0.2,0.6,0.3,1.1,0.2c0.7-0.1,1.4-0.5,1.9-1.1s1-1.4,1.4-2.2
			c0.4-0.9,0.7-1.8,1-2.7c0.2-1,0.5-1.9,0.6-2.7c0.1-0.8,0.4-1.3,0.7-1.7c0.3-0.4,0.6-0.6,1-0.7c0.3-0.1,0.7-0.1,1.1,0.1
			s0.7,0.4,0.9,0.7c0.3,0.3,0.5,0.7,0.6,1.1s0.1,0.8,0.1,1.2c-0.3,1.3-0.8,2.6-1.3,4.1c-0.5,1.4-1.2,2.8-2.1,4
			c-0.8,1.3-1.8,2.4-3,3.3c-1.2,0.9-2.5,1.5-4.1,1.8c-1,0.2-1.8,0.1-2.6-0.1c-0.7-0.2-1.4-0.6-1.9-1.1s-0.9-1.2-1.2-2
			s-0.4-1.6-0.4-2.6v-14.9c0-0.6,0-1.1,0-1.6s-0.1-0.9-0.2-1.3c-0.1-0.4-0.3-0.6-0.5-0.8c-0.2-0.2-0.5-0.3-0.8-0.2
			c-0.5,0.1-1.2,0.6-1.9,1.4c-0.8,0.8-1.5,1.9-2.2,3.2c-0.7,1.3-1.4,2.7-1.9,4.2c-0.6,1.5-0.9,3-1,4.5v0.1V139c0,0.4,0,0.7,0,1.1
			c0,0.4-0.1,0.7-0.2,1c-0.1,0.3-0.3,0.6-0.6,0.9c-0.3,0.3-0.7,0.4-1.2,0.5c-0.4,0.1-0.7,0.1-1.2,0.1c-0.4,0-0.8-0.1-1.1-0.3
			s-0.6-0.4-0.9-0.8c-0.2-0.4-0.3-0.9-0.3-1.6V96H38.8z"/>
		<path class="st13" d="M82.5,112.1c0,1.4-0.2,2.8-0.7,4.3s-1.2,3-2.1,4.4s-2,2.8-3.4,4c-1.1,1-2.4,1.9-3.8,2.7
			c-0.5,0.3-0.7,0.9-0.5,1.3c0.2,0.3,0.3,0.5,0.5,0.7c0.4,0.5,0.9,0.9,1.4,1.2s1.2,0.5,1.9,0.6c0.7,0.1,1.6,0.1,2.5-0.1
			c1.4-0.2,2.7-0.7,3.7-1.4s1.9-1.6,2.6-2.6c0.7-1,1.3-2.1,1.7-3.3c0.4-1.2,0.7-2.3,1-3.5c0.2-0.8,0.5-1.4,1-1.8s1-0.5,1.6-0.5
			c0.5,0,1,0.3,1.4,0.7c0.4,0.4,0.6,0.9,0.5,1.6c-0.1,0.8-0.3,1.6-0.5,2.6s-0.6,2-1,3.1c-0.5,1.1-1,2.1-1.7,3.2
			c-0.7,1.1-1.6,2.1-2.6,3s-2.2,1.7-3.6,2.4s-3,1.2-4.7,1.5s-3.3,0.2-4.8-0.1c-1.6-0.4-2.9-1.1-4.1-2.1s-2.2-2.4-2.9-4
			c-0.7-1.7-1.1-3.7-1.1-5.9c0-2.3,0.3-4.5,1-6.6c0.6-2.1,1.5-4,2.5-5.6s2.2-3,3.6-4c1.3-1.1,2.7-1.7,4.1-1.9c1-0.2,1.9-0.2,2.8,0.1
			c0.8,0.2,1.5,0.6,2.1,1.2s1,1.3,1.3,2.1C82.3,110.1,82.5,111,82.5,112.1z M70.7,122.8c0,0.2,0,0.4,0,0.6s0,0.4,0,0.7
			c0.9-0.6,1.7-1.3,2.5-2.1c0.7-0.8,1.4-1.7,1.9-2.6s0.9-2,1.2-3c0.3-1.1,0.4-2.1,0.4-3.2c0-0.8-0.1-1.4-0.4-1.8s-0.6-0.6-1.1-0.5
			c-0.6,0.1-1.1,0.4-1.6,0.9s-0.9,1.1-1.2,1.8c-0.3,0.7-0.6,1.5-0.9,2.4c-0.2,0.9-0.4,1.7-0.6,2.6c-0.1,0.9-0.2,1.7-0.3,2.4
			C70.7,121.7,70.7,122.3,70.7,122.8z"/>
		<g>
			<polygon class="st7" points="142.3,153.1 161.5,149.8 161.5,63.6 187.2,59.1 187.2,42.1 116.8,54.4 116.8,71.4 142.3,66.9 			"/>
			<path class="st14" d="M102.7,174.1l97.3-17V25.9l-97.3,17V174.1z M116.8,54.4l70.3-12.3v17l-25.7,4.5v86.2l-19.1,3.3V66.9
				l-25.5,4.4V54.4z"/>
		</g>
	</g>
</g>
<g id="square-th-white" class="st0">
	<g class="st2">
		<g>
			<path class="st7" d="M28.8,138.7c0,1.6-0.1,3-0.3,4.2c-0.2,1.2-0.5,2.2-0.8,2.9c-0.4,0.8-0.8,1.4-1.3,1.8
				c-0.5,0.4-1.1,0.7-1.7,0.8c-0.5,0.1-1,0-1.5-0.2s-1.1-0.5-1.6-0.9s-0.9-0.8-1.2-1.2c-0.3-0.4-0.5-0.8-0.5-1.2
				c0-0.2,0-0.4,0.1-0.5s0.1-0.1,0.2-0.1s0.2,0,0.4,0c0.2,0,0.3,0,0.5,0c0.7-0.1,1.1-0.6,1.4-1.5s0.4-2.3,0.4-4.1V99.3
				c0-0.5-0.4-0.9-1-0.7c-1.9,0.5-3.8,1.2-5.6,2.1c-2.1,1-3.9,2.2-5.5,3.7s-2.9,3.3-3.8,5.4c-1,2.1-1.4,4.6-1.4,7.4
				c0,1.3,0.1,2.4,0.4,3.3c0.2,1,0.6,1.8,1,2.6c0.4,0.7,0.9,1.4,1.3,1.9c0.4,0.4,0.8,0.8,1.2,1.1c0.2,0.1,0.4,0.2,0.7,0.1
				c0.2,0,0.4,0,0.5,0.1c0.2,0.2,0.2,0.5,0.2,0.8c0,0.5-0.1,1-0.3,1.5s-0.5,1.1-0.8,1.5c-0.3,0.5-0.7,0.9-1.1,1.2
				c-0.4,0.3-0.8,0.6-1.3,0.6c-0.2,0-0.4,0-0.6,0s-0.4-0.1-0.6-0.2c-0.5-0.3-1.2-0.8-1.9-1.5s-1.4-1.7-2.1-2.9
				c-0.7-1.2-1.2-2.5-1.7-4.1s-0.7-3.3-0.7-5.3c0-3.5,0.7-6.7,2-9.7c1.3-2.9,3.1-5.5,5.5-7.7c2.3-2.2,5.1-4.1,8.3-5.6
				s6.7-2.6,10.5-3.2c0.9-0.2,1.9-0.3,3.2-0.5c1.2-0.2,2.5-0.4,3.7-0.6s2.3-0.4,3.3-0.5c1-0.2,1.7-0.3,2-0.3
				c0.3-0.1,0.6-0.1,0.8-0.2s0.4-0.2,0.5-0.3c0.1-0.1,0.2-0.2,0.3-0.2C40,89,40,89,40.1,89s0.2,0,0.3,0.2c0.1,0.1,0.2,0.3,0.3,0.5
				s0.1,0.5,0.2,0.7c0,0.3,0.1,0.6,0.1,0.8c0,0.4-0.1,0.9-0.2,1.4c-0.1,0.5-0.3,0.9-0.5,1.3s-0.5,0.8-0.9,1.1
				c-0.4,0.3-0.8,0.5-1.2,0.6c-0.3,0-0.7,0.1-1.4,0.2s-1.5,0.2-2.4,0.4c-0.9,0.1-1.9,0.3-2.9,0.4c-0.7,0.1-1.3,0.2-1.9,0.3
				c-0.5,0.1-0.9,0.5-0.9,1v40.8H28.8z"/>
		</g>
		<path class="st7" d="M38.8,96c0-0.5,0-0.9-0.1-1.2c-0.1-0.3-0.2-0.5-0.2-0.7c-0.1-0.2-0.2-0.3-0.2-0.4c-0.1-0.1-0.1-0.2-0.1-0.3
			c0-0.1,0.1-0.3,0.2-0.4c0.1-0.1,0.3-0.2,0.6-0.3c0.2-0.1,0.5-0.2,0.8-0.3c0.3-0.1,0.5-0.1,0.8-0.2c1.2-0.2,2.2-0.1,2.9,0.4
			s1.1,1.2,1.1,2.1v20.7c0,0.9,1.1,1,1.6,0.2l0,0c0.6-1,1.2-1.9,1.9-2.6c0.7-0.8,1.4-1.4,2.2-1.9s1.6-0.8,2.5-1
			c1.2-0.2,2.2-0.2,3,0.2c0.8,0.3,1.4,0.8,1.9,1.4s0.8,1.4,0.9,2.2c0.2,0.9,0.3,1.7,0.3,2.5v15.2c0,0.2,0,0.4,0,0.8
			c0,0.4,0.1,0.7,0.2,1.1c0.1,0.4,0.3,0.7,0.6,0.9c0.2,0.2,0.6,0.3,1.1,0.2c0.7-0.1,1.4-0.5,1.9-1.1s1-1.4,1.4-2.2
			c0.4-0.9,0.7-1.8,1-2.7c0.2-1,0.5-1.9,0.6-2.7c0.1-0.8,0.4-1.3,0.7-1.7c0.3-0.4,0.6-0.6,1-0.7c0.3-0.1,0.7-0.1,1.1,0.1
			s0.7,0.4,0.9,0.7c0.3,0.3,0.5,0.7,0.6,1.1s0.1,0.8,0.1,1.2c-0.3,1.3-0.8,2.6-1.3,4.1c-0.5,1.4-1.2,2.8-2.1,4
			c-0.8,1.3-1.8,2.4-3,3.3c-1.2,0.9-2.5,1.5-4.1,1.8c-1,0.2-1.8,0.1-2.6-0.1c-0.7-0.2-1.4-0.6-1.9-1.1s-0.9-1.2-1.2-2
			s-0.4-1.6-0.4-2.6v-14.9c0-0.6,0-1.1,0-1.6s-0.1-0.9-0.2-1.3c-0.1-0.4-0.3-0.6-0.5-0.8c-0.2-0.2-0.5-0.3-0.8-0.2
			c-0.5,0.1-1.2,0.6-1.9,1.4c-0.8,0.8-1.5,1.9-2.2,3.2c-0.7,1.3-1.4,2.7-1.9,4.2c-0.6,1.5-0.9,3-1,4.5v0.1V139c0,0.4,0,0.7,0,1.1
			c0,0.4-0.1,0.7-0.2,1c-0.1,0.3-0.3,0.6-0.6,0.9c-0.3,0.3-0.7,0.4-1.2,0.5c-0.4,0.1-0.7,0.1-1.2,0.1c-0.4,0-0.8-0.1-1.1-0.3
			s-0.6-0.4-0.9-0.8c-0.2-0.4-0.3-0.9-0.3-1.6V96H38.8z"/>
		<path class="st7" d="M82.5,112.1c0,1.4-0.2,2.8-0.7,4.3s-1.2,3-2.1,4.4s-2,2.8-3.4,4c-1.1,1-2.4,1.9-3.8,2.7
			c-0.5,0.3-0.7,0.9-0.5,1.3c0.2,0.3,0.3,0.5,0.5,0.7c0.4,0.5,0.9,0.9,1.4,1.2s1.2,0.5,1.9,0.6c0.7,0.1,1.6,0.1,2.5-0.1
			c1.4-0.2,2.7-0.7,3.7-1.4s1.9-1.6,2.6-2.6c0.7-1,1.3-2.1,1.7-3.3c0.4-1.2,0.7-2.3,1-3.5c0.2-0.8,0.5-1.4,1-1.8s1-0.5,1.6-0.5
			c0.5,0,1,0.3,1.4,0.7c0.4,0.4,0.6,0.9,0.5,1.6c-0.1,0.8-0.3,1.6-0.5,2.6s-0.6,2-1,3.1c-0.5,1.1-1,2.1-1.7,3.2
			c-0.7,1.1-1.6,2.1-2.6,3s-2.2,1.7-3.6,2.4s-3,1.2-4.7,1.5s-3.3,0.2-4.8-0.1c-1.6-0.4-2.9-1.1-4.1-2.1s-2.2-2.4-2.9-4
			c-0.7-1.7-1.1-3.7-1.1-5.9c0-2.3,0.3-4.5,1-6.6c0.6-2.1,1.5-4,2.5-5.6s2.2-3,3.6-4c1.3-1.1,2.7-1.7,4.1-1.9c1-0.2,1.9-0.2,2.8,0.1
			c0.8,0.2,1.5,0.6,2.1,1.2s1,1.3,1.3,2.1C82.3,110.1,82.5,111,82.5,112.1z M70.7,122.8c0,0.2,0,0.4,0,0.6s0,0.4,0,0.7
			c0.9-0.6,1.7-1.3,2.5-2.1c0.7-0.8,1.4-1.7,1.9-2.6s0.9-2,1.2-3c0.3-1.1,0.4-2.1,0.4-3.2c0-0.8-0.1-1.4-0.4-1.8s-0.6-0.6-1.1-0.5
			c-0.6,0.1-1.1,0.4-1.6,0.9s-0.9,1.1-1.2,1.8c-0.3,0.7-0.6,1.5-0.9,2.4c-0.2,0.9-0.4,1.7-0.6,2.6c-0.1,0.9-0.2,1.7-0.3,2.4
			C70.7,121.7,70.7,122.3,70.7,122.8z"/>
		<g>
			<path class="st7" d="M102.7,42.8v131.3l97.3-17V25.9L102.7,42.8z M187.2,59.1l-25.7,4.5v86.2l-19.1,3.3V66.9l-25.5,4.4v-17
				L187.2,42V59.1z"/>
		</g>
	</g>
</g>
<g id="square-th-white_1_" class="st0">
	<g class="st2">
		<g>
			<path d="M28.8,138.7c0,1.6-0.1,3-0.3,4.2c-0.2,1.2-0.5,2.2-0.8,2.9c-0.4,0.8-0.8,1.4-1.3,1.8c-0.5,0.4-1.1,0.7-1.7,0.8
				c-0.5,0.1-1,0-1.5-0.2s-1.1-0.5-1.6-0.9s-0.9-0.8-1.2-1.2c-0.3-0.4-0.5-0.8-0.5-1.2c0-0.2,0-0.4,0.1-0.5s0.1-0.1,0.2-0.1
				s0.2,0,0.4,0c0.2,0,0.3,0,0.5,0c0.7-0.1,1.1-0.6,1.4-1.5s0.4-2.3,0.4-4.1V99.3c0-0.5-0.4-0.9-1-0.7c-1.9,0.5-3.8,1.2-5.6,2.1
				c-2.1,1-3.9,2.2-5.5,3.7s-2.9,3.3-3.8,5.4c-1,2.1-1.4,4.6-1.4,7.4c0,1.3,0.1,2.4,0.4,3.3c0.2,1,0.6,1.8,1,2.6
				c0.4,0.7,0.9,1.4,1.3,1.9c0.4,0.4,0.8,0.8,1.2,1.1c0.2,0.1,0.4,0.2,0.7,0.1c0.2,0,0.4,0,0.5,0.1c0.2,0.2,0.2,0.5,0.2,0.8
				c0,0.5-0.1,1-0.3,1.5s-0.5,1.1-0.8,1.5c-0.3,0.5-0.7,0.9-1.1,1.2c-0.4,0.3-0.8,0.6-1.3,0.6c-0.2,0-0.4,0-0.6,0s-0.4-0.1-0.6-0.2
				c-0.5-0.3-1.2-0.8-1.9-1.5s-1.4-1.7-2.1-2.9c-0.7-1.2-1.2-2.5-1.7-4.1s-0.7-3.3-0.7-5.3c0-3.5,0.7-6.7,2-9.7
				c1.3-2.9,3.1-5.5,5.5-7.7c2.3-2.2,5.1-4.1,8.3-5.6s6.7-2.6,10.5-3.2c0.9-0.2,1.9-0.3,3.2-0.5c1.2-0.2,2.5-0.4,3.7-0.6
				s2.3-0.4,3.3-0.5c1-0.2,1.7-0.3,2-0.3c0.3-0.1,0.6-0.1,0.8-0.2s0.4-0.2,0.5-0.3c0.1-0.1,0.2-0.2,0.3-0.2C40,89,40,89,40.1,89
				s0.2,0,0.3,0.2c0.1,0.1,0.2,0.3,0.3,0.5s0.1,0.5,0.2,0.7c0,0.3,0.1,0.6,0.1,0.8c0,0.4-0.1,0.9-0.2,1.4c-0.1,0.5-0.3,0.9-0.5,1.3
				s-0.5,0.8-0.9,1.1c-0.4,0.3-0.8,0.5-1.2,0.6c-0.3,0-0.7,0.1-1.4,0.2s-1.5,0.2-2.4,0.4c-0.9,0.1-1.9,0.3-2.9,0.4
				c-0.7,0.1-1.3,0.2-1.9,0.3c-0.5,0.1-0.9,0.5-0.9,1v40.8H28.8z"/>
		</g>
		<path d="M38.8,96c0-0.5,0-0.9-0.1-1.2c-0.1-0.3-0.2-0.5-0.2-0.7c-0.1-0.2-0.2-0.3-0.2-0.4c-0.1-0.1-0.1-0.2-0.1-0.3
			c0-0.1,0.1-0.3,0.2-0.4c0.1-0.1,0.3-0.2,0.6-0.3c0.2-0.1,0.5-0.2,0.8-0.3c0.3-0.1,0.5-0.1,0.8-0.2c1.2-0.2,2.2-0.1,2.9,0.4
			s1.1,1.2,1.1,2.1v20.7c0,0.9,1.1,1,1.6,0.2l0,0c0.6-1,1.2-1.9,1.9-2.6c0.7-0.8,1.4-1.4,2.2-1.9s1.6-0.8,2.5-1
			c1.2-0.2,2.2-0.2,3,0.2c0.8,0.3,1.4,0.8,1.9,1.4s0.8,1.4,0.9,2.2c0.2,0.9,0.3,1.7,0.3,2.5v15.2c0,0.2,0,0.4,0,0.8
			c0,0.4,0.1,0.7,0.2,1.1c0.1,0.4,0.3,0.7,0.6,0.9c0.2,0.2,0.6,0.3,1.1,0.2c0.7-0.1,1.4-0.5,1.9-1.1s1-1.4,1.4-2.2
			c0.4-0.9,0.7-1.8,1-2.7c0.2-1,0.5-1.9,0.6-2.7c0.1-0.8,0.4-1.3,0.7-1.7c0.3-0.4,0.6-0.6,1-0.7c0.3-0.1,0.7-0.1,1.1,0.1
			s0.7,0.4,0.9,0.7c0.3,0.3,0.5,0.7,0.6,1.1s0.1,0.8,0.1,1.2c-0.3,1.3-0.8,2.6-1.3,4.1c-0.5,1.4-1.2,2.8-2.1,4
			c-0.8,1.3-1.8,2.4-3,3.3c-1.2,0.9-2.5,1.5-4.1,1.8c-1,0.2-1.8,0.1-2.6-0.1c-0.7-0.2-1.4-0.6-1.9-1.1s-0.9-1.2-1.2-2
			s-0.4-1.6-0.4-2.6v-14.9c0-0.6,0-1.1,0-1.6s-0.1-0.9-0.2-1.3c-0.1-0.4-0.3-0.6-0.5-0.8c-0.2-0.2-0.5-0.3-0.8-0.2
			c-0.5,0.1-1.2,0.6-1.9,1.4c-0.8,0.8-1.5,1.9-2.2,3.2c-0.7,1.3-1.4,2.7-1.9,4.2c-0.6,1.5-0.9,3-1,4.5v0.1V139c0,0.4,0,0.7,0,1.1
			c0,0.4-0.1,0.7-0.2,1c-0.1,0.3-0.3,0.6-0.6,0.9c-0.3,0.3-0.7,0.4-1.2,0.5c-0.4,0.1-0.7,0.1-1.2,0.1c-0.4,0-0.8-0.1-1.1-0.3
			s-0.6-0.4-0.9-0.8c-0.2-0.4-0.3-0.9-0.3-1.6V96H38.8z"/>
		<path d="M82.5,112.1c0,1.4-0.2,2.8-0.7,4.3s-1.2,3-2.1,4.4s-2,2.8-3.4,4c-1.1,1-2.4,1.9-3.8,2.7c-0.5,0.3-0.7,0.9-0.5,1.3
			c0.2,0.3,0.3,0.5,0.5,0.7c0.4,0.5,0.9,0.9,1.4,1.2s1.2,0.5,1.9,0.6c0.7,0.1,1.6,0.1,2.5-0.1c1.4-0.2,2.7-0.7,3.7-1.4
			s1.9-1.6,2.6-2.6c0.7-1,1.3-2.1,1.7-3.3c0.4-1.2,0.7-2.3,1-3.5c0.2-0.8,0.5-1.4,1-1.8s1-0.5,1.6-0.5c0.5,0,1,0.3,1.4,0.7
			c0.4,0.4,0.6,0.9,0.5,1.6c-0.1,0.8-0.3,1.6-0.5,2.6s-0.6,2-1,3.1c-0.5,1.1-1,2.1-1.7,3.2c-0.7,1.1-1.6,2.1-2.6,3s-2.2,1.7-3.6,2.4
			s-3,1.2-4.7,1.5s-3.3,0.2-4.8-0.1c-1.6-0.4-2.9-1.1-4.1-2.1s-2.2-2.4-2.9-4c-0.7-1.7-1.1-3.7-1.1-5.9c0-2.3,0.3-4.5,1-6.6
			c0.6-2.1,1.5-4,2.5-5.6s2.2-3,3.6-4c1.3-1.1,2.7-1.7,4.1-1.9c1-0.2,1.9-0.2,2.8,0.1c0.8,0.2,1.5,0.6,2.1,1.2s1,1.3,1.3,2.1
			C82.3,110.1,82.5,111,82.5,112.1z M70.7,122.8c0,0.2,0,0.4,0,0.6s0,0.4,0,0.7c0.9-0.6,1.7-1.3,2.5-2.1c0.7-0.8,1.4-1.7,1.9-2.6
			s0.9-2,1.2-3c0.3-1.1,0.4-2.1,0.4-3.2c0-0.8-0.1-1.4-0.4-1.8s-0.6-0.6-1.1-0.5c-0.6,0.1-1.1,0.4-1.6,0.9s-0.9,1.1-1.2,1.8
			c-0.3,0.7-0.6,1.5-0.9,2.4c-0.2,0.9-0.4,1.7-0.6,2.6c-0.1,0.9-0.2,1.7-0.3,2.4C70.7,121.7,70.7,122.3,70.7,122.8z"/>
		<g>
			<path d="M102.7,42.8v131.3l97.3-17V25.9L102.7,42.8z M187.2,59.1l-25.7,4.5v86.2l-19.1,3.3V66.9l-25.5,4.4v-17L187.2,42V59.1z"/>
		</g>
	</g>
</g>
<g id="square-bg-color-onblack" class="st0">
	<g class="st2">
		<path class="st7" d="M100,0C44.8,0,0,44.8,0,100s44.8,100,100,100s100-44.8,100-100S155.2,0,100,0z M42.3,177.7
			C2.7,147.9-3.2,89,29,46.1C61.3,3.2,119.5-7.4,159.1,22.3s45.5,88.7,13.3,131.6C140.1,196.8,81.9,207.4,42.3,177.7z"/>
		<path class="st7" d="M76.2,30.3c11.9,17.5,32.9,9.8,43.1,22.5c6.8,9.6-1.1,24.4-7.4,27.3c33.7,11.4,74.4,68.8,9.6,96.6
			c33.7-32.2,18.1-77-20.4-95.6c3.4-4.1,16.2-16.4,11.1-24.9C98.1,43.4,81.5,44.3,75.7,32.1C70.7,21.4,69.3,20.2,76.2,30.3z"/>
		<path class="st15" d="M110.4,123.7c2.3-9.6,15.5-14.4,18-3c2.5,11-5.6,26.3-11.3,31.6c0.1-12.5-22.9-12.6-25.6-21.7
			C87.9,118,102.1,114.3,110.4,123.7z"/>
	</g>
	<g class="st2">
		<path class="st7" d="M100,0C44.8,0,0,44.8,0,100s44.8,100,100,100s100-44.8,100-100S155.2,0,100,0z M42.3,177.7
			C2.7,147.9-3.2,89,29,46.1C61.3,3.2,119.5-7.4,159.1,22.3s45.5,88.7,13.3,131.6C140.1,196.8,81.9,207.4,42.3,177.7z"/>
		<path class="st7" d="M76.2,30.3c11.9,17.5,32.9,9.8,43.1,22.5c6.8,9.6-1.1,24.4-7.4,27.3c33.7,11.4,74.4,68.8,9.6,96.6
			c33.7-32.2,18.1-77-20.4-95.6c3.4-4.1,16.2-16.4,11.1-24.9C98.1,43.4,81.5,44.3,75.7,32.1C70.7,21.4,69.3,20.2,76.2,30.3z"/>
		<path class="st15" d="M110.4,123.7c2.3-9.6,15.5-14.4,18-3c2.5,11-5.6,26.3-11.3,31.6c0.1-12.5-22.9-12.6-25.6-21.7
			C87.9,118,102.1,114.3,110.4,123.7z"/>
	</g>
</g>
<g id="square-bg-color-onwhite" class="st0">
	<g class="st2">
		<path class="st7" d="M100,0C44.8,0,0,44.8,0,100s44.8,100,100,100s100-44.8,100-100S155.2,0,100,0z M42.3,177.7
			C2.7,147.9-3.2,89,29,46.1C61.3,3.2,119.5-7.4,159.1,22.3s45.5,88.7,13.3,131.6C140.1,196.8,81.9,207.4,42.3,177.7z"/>
		<path class="st7" d="M76.2,30.3c11.9,17.5,32.9,9.8,43.1,22.5c6.8,9.6-1.1,24.4-7.4,27.3c33.7,11.4,74.4,68.8,9.6,96.6
			c33.7-32.2,18.1-77-20.4-95.6c3.4-4.1,16.2-16.4,11.1-24.9C98.1,43.4,81.5,44.3,75.7,32.1C70.7,21.4,69.3,20.2,76.2,30.3z"/>
		<path class="st15" d="M110.4,123.7c2.3-9.6,15.5-14.4,18-3c2.5,11-5.6,26.3-11.3,31.6c0.1-12.5-22.9-12.6-25.6-21.7
			C87.9,118,102.1,114.3,110.4,123.7z"/>
	</g>
	<g class="st2">
		<path class="st16" d="M100,0C44.8,0,0,44.8,0,100s44.8,100,100,100s100-44.8,100-100S155.2,0,100,0z M42.3,177.7
			C2.7,147.9-3.2,89,29,46.1C61.3,3.2,119.5-7.4,159.1,22.3s45.5,88.7,13.3,131.6C140.1,196.8,81.9,207.4,42.3,177.7z"/>
		<path class="st16" d="M76.2,30.3c11.9,17.5,32.9,9.8,43.1,22.5c6.8,9.6-1.1,24.4-7.4,27.3c33.7,11.4,74.4,68.8,9.6,96.6
			c33.7-32.2,18.1-77-20.4-95.6c3.4-4.1,16.2-16.4,11.1-24.9C98.1,43.4,81.5,44.3,75.7,32.1C70.7,21.4,69.3,20.2,76.2,30.3z"/>
		<path class="st15" d="M110.4,123.7c2.3-9.6,15.5-14.4,18-3c2.5,11-5.6,26.3-11.3,31.6c0.1-12.5-22.9-12.6-25.6-21.7
			C87.9,118,102.1,114.3,110.4,123.7z"/>
	</g>
</g>
<g id="square-bg-white" class="st0">
	<g class="st2">
		<path class="st7" d="M100,0C44.8,0,0,44.8,0,100s44.8,100,100,100s100-44.8,100-100S155.2,0,100,0z M42.3,177.7
			C2.7,147.9-3.2,89,29,46.1C61.3,3.2,119.5-7.4,159.1,22.3s45.5,88.7,13.3,131.6C140.1,196.8,81.9,207.4,42.3,177.7z"/>
		<path class="st7" d="M76.2,30.3c11.9,17.5,32.9,9.8,43.1,22.5c6.8,9.6-1.1,24.4-7.4,27.3c33.7,11.4,74.4,68.8,9.6,96.6
			c33.7-32.2,18.1-77-20.4-95.6c3.4-4.1,16.2-16.4,11.1-24.9C98.1,43.4,81.5,44.3,75.7,32.1C70.7,21.4,69.3,20.2,76.2,30.3z"/>
		<path class="st7" d="M110.4,123.7c2.3-9.6,15.5-14.4,18-3c2.5,11-5.6,26.3-11.3,31.6c0.1-12.5-22.9-12.6-25.6-21.7
			C87.9,118,102.1,114.3,110.4,123.7z"/>
	</g>
	<g class="st2">
		<path class="st7" d="M100,0C44.8,0,0,44.8,0,100s44.8,100,100,100s100-44.8,100-100S155.2,0,100,0z M42.3,177.7
			C2.7,147.9-3.2,89,29,46.1C61.3,3.2,119.5-7.4,159.1,22.3s45.5,88.7,13.3,131.6C140.1,196.8,81.9,207.4,42.3,177.7z"/>
		<path class="st7" d="M76.2,30.3c11.9,17.5,32.9,9.8,43.1,22.5c6.8,9.6-1.1,24.4-7.4,27.3c33.7,11.4,74.4,68.8,9.6,96.6
			c33.7-32.2,18.1-77-20.4-95.6c3.4-4.1,16.2-16.4,11.1-24.9C98.1,43.4,81.5,44.3,75.7,32.1C70.7,21.4,69.3,20.2,76.2,30.3z"/>
		<path class="st7" d="M110.4,123.7c2.3-9.6,15.5-14.4,18-3c2.5,11-5.6,26.3-11.3,31.6c0.1-12.5-22.9-12.6-25.6-21.7
			C87.9,118,102.1,114.3,110.4,123.7z"/>
	</g>
</g>
<g id="square-bg-white_1_" class="st0">
	<g class="st2">
		<path d="M100,0C44.8,0,0,44.8,0,100s44.8,100,100,100s100-44.8,100-100S155.2,0,100,0z M42.3,177.7C2.7,147.9-3.2,89,29,46.1
			C61.3,3.2,119.5-7.4,159.1,22.3s45.5,88.7,13.3,131.6C140.1,196.8,81.9,207.4,42.3,177.7z"/>
		<path d="M76.2,30.3c11.9,17.5,32.9,9.8,43.1,22.5c6.8,9.6-1.1,24.4-7.4,27.3c33.7,11.4,74.4,68.8,9.6,96.6
			c33.7-32.2,18.1-77-20.4-95.6c3.4-4.1,16.2-16.4,11.1-24.9C98.1,43.4,81.5,44.3,75.7,32.1C70.7,21.4,69.3,20.2,76.2,30.3z"/>
		<path d="M110.4,123.7c2.3-9.6,15.5-14.4,18-3c2.5,11-5.6,26.3-11.3,31.6c0.1-12.5-22.9-12.6-25.6-21.7
			C87.9,118,102.1,114.3,110.4,123.7z"/>
	</g>
	<g class="st2">
		<path d="M100,0C44.8,0,0,44.8,0,100s44.8,100,100,100s100-44.8,100-100S155.2,0,100,0z M42.3,177.7C2.7,147.9-3.2,89,29,46.1
			C61.3,3.2,119.5-7.4,159.1,22.3s45.5,88.7,13.3,131.6C140.1,196.8,81.9,207.4,42.3,177.7z"/>
		<path d="M76.2,30.3c11.9,17.5,32.9,9.8,43.1,22.5c6.8,9.6-1.1,24.4-7.4,27.3c33.7,11.4,74.4,68.8,9.6,96.6
			c33.7-32.2,18.1-77-20.4-95.6c3.4-4.1,16.2-16.4,11.1-24.9C98.1,43.4,81.5,44.3,75.7,32.1C70.7,21.4,69.3,20.2,76.2,30.3z"/>
		<path d="M110.4,123.7c2.3-9.6,15.5-14.4,18-3c2.5,11-5.6,26.3-11.3,31.6c0.1-12.5-22.9-12.6-25.6-21.7
			C87.9,118,102.1,114.3,110.4,123.7z"/>
	</g>
</g>
<g id="square-cb-color-onblack" class="st0">
	<g class="st2">
		<g>
			<path class="st17" d="M47.3,104.5l18.3,5.5c-1.2,5.1-3.2,9.4-5.8,12.8s-5.9,6-9.8,7.8s-8.9,2.6-14.9,2.6c-7.3,0-13.3-1.1-18-3.2
				c-4.6-2.1-8.7-5.9-12-11.2C1.7,113.4,0,106.6,0,98.2C0,87,3,78.5,8.9,72.5s14.3-9,25.2-9c8.5,0,15.2,1.7,20,5.2
				c4.9,3.4,8.5,8.7,10.8,15.8l-18.4,4.1c-0.6-2.1-1.3-3.6-2-4.5c-1.2-1.6-2.6-2.8-4.3-3.7c-1.7-0.9-3.6-1.3-5.7-1.3
				c-4.7,0-8.3,1.9-10.9,5.7c-1.9,2.8-2.9,7.2-2.9,13.3c0,7.5,1.1,12.6,3.4,15.4s5.5,4.2,9.6,4.2c4,0,7-1.1,9-3.4
				C44.9,112,46.4,108.8,47.3,104.5z"/>
			<path class="st17" d="M66.4,64.7h39c6.5,0,11.5,1.6,15,4.8c3.5,3.2,5.2,7.2,5.2,12c0,4-1.2,7.4-3.7,10.3
				c-1.7,1.9-4.1,3.4-7.3,4.5c4.8,1.2,8.4,3.2,10.7,6c2.3,2.8,3.4,6.4,3.4,10.7c0,3.5-0.8,6.6-2.4,9.4s-3.8,5-6.7,6.6
				c-1.7,1-4.4,1.7-7.9,2.2c-4.7,0.6-7.8,0.9-9.3,0.9h-36C66.4,132.1,66.4,64.7,66.4,64.7z M87.4,91.1h9.1c3.2,0,5.5-0.6,6.8-1.7
				s1.9-2.7,1.9-4.9c0-2-0.6-3.5-1.9-4.6s-3.5-1.7-6.6-1.7h-9.2v12.9C87.5,91.1,87.4,91.1,87.4,91.1z M87.4,117.6H98
				c3.6,0,6.1-0.6,7.6-1.9s2.2-3,2.2-5.1c0-2-0.7-3.6-2.2-4.8c-1.5-1.2-4-1.8-7.7-1.8H87.4V117.6z"/>
			<path class="st17" d="M181.9,119h6.9l-3.3-6.4c-0.5-1-1.5-2.4-2.9-4.2c-1.5-1.8-2.6-3-3.3-3.5c-1.1-0.8-2.9-1.7-5.4-2.5
				c3.1-0.7,5.5-1.6,7.3-2.7c2.8-1.7,5-3.9,6.6-6.6s2.4-5.9,2.4-9.7c0-4.3-1-7.9-3.1-10.9s-4.8-5-8.2-6.1s-8.3-1.7-14.8-1.7h-34.7
				v67.4h20.9v-27.4h1.8c1.9,0,3.6,0.5,5.1,1.6c1.1,0.8,2.4,2.5,3.8,5.2l11.1,20.6h9.9V119H181.9z M167.8,88.9
				c-0.9,1.1-2,1.8-3.4,2.1c-2.7,0.6-4.6,0.9-5.5,0.9h-8.8V78.3h9.2c3.8,0,6.4,0.6,7.8,1.7c1.4,1.2,2.1,2.8,2.1,5
				C169.1,86.5,168.7,87.8,167.8,88.9z"/>
			<rect x="187.2" y="123.7" class="st18" width="12.8" height="12.8"/>
		</g>
	</g>
</g>
<g id="square-cb-color-onwhite" class="st0">
	<g class="st2">
		<g>
			<path class="st19" d="M47.3,104.5l18.3,5.5c-1.2,5.1-3.2,9.4-5.8,12.8s-5.9,6-9.8,7.8s-8.9,2.6-14.9,2.6c-7.3,0-13.3-1.1-18-3.2
				c-4.6-2.1-8.7-5.9-12-11.2C1.7,113.4,0,106.6,0,98.2C0,87,3,78.5,8.9,72.5s14.3-9,25.2-9c8.5,0,15.2,1.7,20,5.2
				c4.9,3.4,8.5,8.7,10.8,15.8l-18.4,4.1c-0.6-2.1-1.3-3.6-2-4.5c-1.2-1.6-2.6-2.8-4.3-3.7c-1.7-0.9-3.6-1.3-5.7-1.3
				c-4.7,0-8.3,1.9-10.9,5.7c-1.9,2.8-2.9,7.2-2.9,13.3c0,7.5,1.1,12.6,3.4,15.4s5.5,4.2,9.6,4.2c4,0,7-1.1,9-3.4
				C44.9,112,46.4,108.8,47.3,104.5z"/>
			<path class="st19" d="M66.4,64.7h39c6.5,0,11.5,1.6,15,4.8c3.5,3.2,5.2,7.2,5.2,12c0,4-1.2,7.4-3.7,10.3
				c-1.7,1.9-4.1,3.4-7.3,4.5c4.8,1.2,8.4,3.2,10.7,6c2.3,2.8,3.4,6.4,3.4,10.7c0,3.5-0.8,6.6-2.4,9.4s-3.8,5-6.7,6.6
				c-1.7,1-4.4,1.7-7.9,2.2c-4.7,0.6-7.8,0.9-9.3,0.9h-36C66.4,132.1,66.4,64.7,66.4,64.7z M87.4,91.1h9.1c3.2,0,5.5-0.6,6.8-1.7
				s1.9-2.7,1.9-4.9c0-2-0.6-3.5-1.9-4.6s-3.5-1.7-6.6-1.7h-9.2v12.9C87.5,91.1,87.4,91.1,87.4,91.1z M87.4,117.6H98
				c3.6,0,6.1-0.6,7.6-1.9s2.2-3,2.2-5.1c0-2-0.7-3.6-2.2-4.8c-1.5-1.2-4-1.8-7.7-1.8H87.4V117.6z"/>
			<path class="st19" d="M181.9,119h6.9l-3.3-6.4c-0.5-1-1.5-2.4-2.9-4.2c-1.5-1.8-2.6-3-3.3-3.5c-1.1-0.8-2.9-1.7-5.4-2.5
				c3.1-0.7,5.5-1.6,7.3-2.7c2.8-1.7,5-3.9,6.6-6.6s2.4-5.9,2.4-9.7c0-4.3-1-7.9-3.1-10.9s-4.8-5-8.2-6.1s-8.3-1.7-14.8-1.7h-34.7
				v67.4h20.9v-27.4h1.8c1.9,0,3.6,0.5,5.1,1.6c1.1,0.8,2.4,2.5,3.8,5.2l11.1,20.6h9.9V119H181.9z M167.8,88.9
				c-0.9,1.1-2,1.8-3.4,2.1c-2.7,0.6-4.6,0.9-5.5,0.9h-8.8V78.3h9.2c3.8,0,6.4,0.6,7.8,1.7c1.4,1.2,2.1,2.8,2.1,5
				C169.1,86.5,168.7,87.8,167.8,88.9z"/>
			<rect x="187.2" y="123.7" class="st18" width="12.8" height="12.8"/>
		</g>
	</g>
</g>
<g id="square-cb-white" class="st0">
	<g class="st2">
		<g>
			<path class="st7" d="M47.3,104.5l18.3,5.5c-1.2,5.1-3.2,9.4-5.8,12.8s-5.9,6-9.8,7.8s-8.9,2.6-14.9,2.6c-7.3,0-13.3-1.1-18-3.2
				c-4.6-2.1-8.7-5.9-12-11.2C1.7,113.4,0,106.6,0,98.2C0,87,3,78.5,8.9,72.5s14.3-9,25.2-9c8.5,0,15.2,1.7,20,5.2
				c4.9,3.4,8.5,8.7,10.8,15.8l-18.4,4.1c-0.6-2.1-1.3-3.6-2-4.5c-1.2-1.6-2.6-2.8-4.3-3.7c-1.7-0.9-3.6-1.3-5.7-1.3
				c-4.7,0-8.3,1.9-10.9,5.7c-1.9,2.8-2.9,7.2-2.9,13.3c0,7.5,1.1,12.6,3.4,15.4s5.5,4.2,9.6,4.2c4,0,7-1.1,9-3.4
				C44.9,112,46.4,108.8,47.3,104.5z"/>
			<path class="st7" d="M66.4,64.7h39c6.5,0,11.5,1.6,15,4.8c3.5,3.2,5.2,7.2,5.2,12c0,4-1.2,7.4-3.7,10.3c-1.7,1.9-4.1,3.4-7.3,4.5
				c4.8,1.2,8.4,3.2,10.7,6c2.3,2.8,3.4,6.4,3.4,10.7c0,3.5-0.8,6.6-2.4,9.4s-3.8,5-6.7,6.6c-1.7,1-4.4,1.7-7.9,2.2
				c-4.7,0.6-7.8,0.9-9.3,0.9h-36C66.4,132.1,66.4,64.7,66.4,64.7z M87.4,91.1h9.1c3.2,0,5.5-0.6,6.8-1.7s1.9-2.7,1.9-4.9
				c0-2-0.6-3.5-1.9-4.6s-3.5-1.7-6.6-1.7h-9.2v12.9C87.5,91.1,87.4,91.1,87.4,91.1z M87.4,117.6H98c3.6,0,6.1-0.6,7.6-1.9
				s2.2-3,2.2-5.1c0-2-0.7-3.6-2.2-4.8c-1.5-1.2-4-1.8-7.7-1.8H87.4V117.6z"/>
			<path class="st7" d="M181.9,119h6.9l-3.3-6.4c-0.5-1-1.5-2.4-2.9-4.2c-1.5-1.8-2.6-3-3.3-3.5c-1.1-0.8-2.9-1.7-5.4-2.5
				c3.1-0.7,5.5-1.6,7.3-2.7c2.8-1.7,5-3.9,6.6-6.6s2.4-5.9,2.4-9.7c0-4.3-1-7.9-3.1-10.9s-4.8-5-8.2-6.1s-8.3-1.7-14.8-1.7h-34.7
				v67.4h20.9v-27.4h1.8c1.9,0,3.6,0.5,5.1,1.6c1.1,0.8,2.4,2.5,3.8,5.2l11.1,20.6h9.9V119H181.9z M167.8,88.9
				c-0.9,1.1-2,1.8-3.4,2.1c-2.7,0.6-4.6,0.9-5.5,0.9h-8.8V78.3h9.2c3.8,0,6.4,0.6,7.8,1.7c1.4,1.2,2.1,2.8,2.1,5
				C169.1,86.5,168.7,87.8,167.8,88.9z"/>
			<rect x="187.2" y="123.7" class="st7" width="12.8" height="12.8"/>
		</g>
	</g>
</g>
<g id="square-cb-white_1_" class="st0">
	<g class="st2">
		<g>
			<path d="M47.3,104.5l18.3,5.5c-1.2,5.1-3.2,9.4-5.8,12.8s-5.9,6-9.8,7.8s-8.9,2.6-14.9,2.6c-7.3,0-13.3-1.1-18-3.2
				c-4.6-2.1-8.7-5.9-12-11.2C1.7,113.4,0,106.6,0,98.2C0,87,3,78.5,8.9,72.5s14.3-9,25.2-9c8.5,0,15.2,1.7,20,5.2
				c4.9,3.4,8.5,8.7,10.8,15.8l-18.4,4.1c-0.6-2.1-1.3-3.6-2-4.5c-1.2-1.6-2.6-2.8-4.3-3.7c-1.7-0.9-3.6-1.3-5.7-1.3
				c-4.7,0-8.3,1.9-10.9,5.7c-1.9,2.8-2.9,7.2-2.9,13.3c0,7.5,1.1,12.6,3.4,15.4s5.5,4.2,9.6,4.2c4,0,7-1.1,9-3.4
				C44.9,112,46.4,108.8,47.3,104.5z"/>
			<path d="M66.4,64.7h39c6.5,0,11.5,1.6,15,4.8c3.5,3.2,5.2,7.2,5.2,12c0,4-1.2,7.4-3.7,10.3c-1.7,1.9-4.1,3.4-7.3,4.5
				c4.8,1.2,8.4,3.2,10.7,6c2.3,2.8,3.4,6.4,3.4,10.7c0,3.5-0.8,6.6-2.4,9.4s-3.8,5-6.7,6.6c-1.7,1-4.4,1.7-7.9,2.2
				c-4.7,0.6-7.8,0.9-9.3,0.9h-36C66.4,132.1,66.4,64.7,66.4,64.7z M87.4,91.1h9.1c3.2,0,5.5-0.6,6.8-1.7s1.9-2.7,1.9-4.9
				c0-2-0.6-3.5-1.9-4.6s-3.5-1.7-6.6-1.7h-9.2v12.9C87.5,91.1,87.4,91.1,87.4,91.1z M87.4,117.6H98c3.6,0,6.1-0.6,7.6-1.9
				s2.2-3,2.2-5.1c0-2-0.7-3.6-2.2-4.8c-1.5-1.2-4-1.8-7.7-1.8H87.4V117.6z"/>
			<path d="M181.9,119h6.9l-3.3-6.4c-0.5-1-1.5-2.4-2.9-4.2c-1.5-1.8-2.6-3-3.3-3.5c-1.1-0.8-2.9-1.7-5.4-2.5
				c3.1-0.7,5.5-1.6,7.3-2.7c2.8-1.7,5-3.9,6.6-6.6s2.4-5.9,2.4-9.7c0-4.3-1-7.9-3.1-10.9s-4.8-5-8.2-6.1s-8.3-1.7-14.8-1.7h-34.7
				v67.4h20.9v-27.4h1.8c1.9,0,3.6,0.5,5.1,1.6c1.1,0.8,2.4,2.5,3.8,5.2l11.1,20.6h9.9V119H181.9z M167.8,88.9
				c-0.9,1.1-2,1.8-3.4,2.1c-2.7,0.6-4.6,0.9-5.5,0.9h-8.8V78.3h9.2c3.8,0,6.4,0.6,7.8,1.7c1.4,1.2,2.1,2.8,2.1,5
				C169.1,86.5,168.7,87.8,167.8,88.9z"/>
			<rect x="187.2" y="123.7" width="12.8" height="12.8"/>
		</g>
	</g>
</g>
<g id="TG_2_" class="st0">
	<g class="st2">
		<path class="st20" d="M14.6,120.5L4.3,110.2c-5.7-5.7-5.7-15.1,0-20.8l10.3-10.3l9.5,9.5L13.8,98.9c-0.5,0.5-0.5,1.4,0,1.9
			l10.3,10.3L14.6,120.5z"/>
		<path class="st20" d="M46.7,143.8c-3.2,0-6.3-1.3-8.5-3.5l-9-9l5.7-5.7l9,9c1.6,1.6,4.1,1.6,5.7,0l31.9-31.9
			c1.6-1.6,1.6-4.1,0-5.7l-32-32c-1.6-1.6-4.1-1.6-5.7,0l-9,9l-5.7-5.7l9-9c2.3-2.3,5.3-3.5,8.5-3.5s6.3,1.3,8.5,3.5L87,91.2
			c4.7,4.7,4.7,12.4,0,17.1l-31.9,31.9C52.9,142.5,49.9,143.8,46.7,143.8z"/>
		<path class="st20" d="M185.1,120.5l-9.5-9.5l10.3-10.3c0.5-0.5,0.5-1.4,0-1.9l-10.3-10.3l9.5-9.5l10.3,10.3
			c5.7,5.7,5.7,15.1,0,20.8L185.1,120.5z"/>
		<path class="st20" d="M153,143.8c-3.2,0-6.3-1.3-8.5-3.5l-31.9-31.9c-4.7-4.7-4.7-12.4,0-17.1l31.9-31.9c4.7-4.7,12.4-4.7,17.1,0
			l9,9l-5.7,5.7l-9-9c-1.6-1.6-4.1-1.6-5.7,0l-32,31.9c-0.8,0.8-1.2,1.8-1.2,2.8c0,1.1,0.4,2.1,1.2,2.8l31.9,31.9
			c1.6,1.6,4.1,1.6,5.7,0l9-9l5.7,5.7l-9,9C159.2,142.5,156.2,143.8,153,143.8z"/>
		<path class="st20" d="M88.6,24.1l-9.5-9.5L89.4,4.3c5.7-5.7,15.1-5.7,20.8,0l10.3,10.3L111,24l-10.3-10.3c-0.5-0.5-1.4-0.5-1.9,0
			L88.6,24.1z"/>
		<path class="st20" d="M99.8,90.7c-3.1,0-6.2-1.2-8.5-3.5l-31.9-32c-4.7-4.7-4.7-12.4,0-17.1l9-9l5.7,5.7l-9,9
			c-1.6,1.6-1.6,4.1,0,5.7l31.9,32c1.5,1.5,4.2,1.5,5.7,0l31.9-31.9c1.6-1.6,1.6-4.1,0-5.7l-9-9l5.7-5.7l9,9
			c2.3,2.3,3.5,5.3,3.5,8.5s-1.3,6.3-3.5,8.5l-31.9,31.9C106,89.5,102.9,90.7,99.8,90.7z"/>
		<path class="st20" d="M99.8,199.7c-3.8,0-7.5-1.4-10.4-4.3l-10.3-10.3l9.5-9.5l10.3,10.3c0.5,0.5,1.4,0.5,1.9,0l10.3-10.3l9.5,9.5
			l-10.3,10.3C107.4,198.2,103.6,199.7,99.8,199.7z"/>
		<path class="st20" d="M131.4,170.5l-5.7-5.7l9-9c1.6-1.6,1.6-4.1,0-5.7l-31.9-31.9c-1.6-1.6-4.1-1.6-5.7,0L65,150.1
			c-1.6,1.6-1.6,4.1,0,5.7l9,9l-5.7,5.7l-9-9c-4.7-4.7-4.7-12.4,0-17.1l31.9-31.9c4.7-4.7,12.4-4.7,17.1,0l31.9,31.9
			c2.3,2.3,3.5,5.3,3.5,8.5s-1.3,6.3-3.5,8.5L131.4,170.5z"/>
	</g>
</g>
<g id="TG_1_" class="st0">
	<g class="st2">
		<path class="st7" d="M14.6,120.5L4.3,110.2c-5.7-5.7-5.7-15.1,0-20.8l10.3-10.3l9.5,9.5L13.8,98.9c-0.5,0.5-0.5,1.4,0,1.9
			l10.3,10.3L14.6,120.5z"/>
		<path class="st7" d="M46.7,143.8c-3.2,0-6.3-1.3-8.5-3.5l-9-9l5.7-5.7l9,9c1.6,1.6,4.1,1.6,5.7,0l31.9-31.9c1.6-1.6,1.6-4.1,0-5.7
			l-32-32c-1.6-1.6-4.1-1.6-5.7,0l-9,9l-5.7-5.7l9-9c2.3-2.3,5.3-3.5,8.5-3.5s6.3,1.3,8.5,3.5L87,91.2c4.7,4.7,4.7,12.4,0,17.1
			l-31.9,31.9C52.9,142.5,49.9,143.8,46.7,143.8z"/>
		<path class="st7" d="M185.1,120.5l-9.5-9.5l10.3-10.3c0.5-0.5,0.5-1.4,0-1.9l-10.3-10.3l9.5-9.5l10.3,10.3
			c5.7,5.7,5.7,15.1,0,20.8L185.1,120.5z"/>
		<path class="st7" d="M153,143.8c-3.2,0-6.3-1.3-8.5-3.5l-31.9-31.9c-4.7-4.7-4.7-12.4,0-17.1l31.9-31.9c4.7-4.7,12.4-4.7,17.1,0
			l9,9l-5.7,5.7l-9-9c-1.6-1.6-4.1-1.6-5.7,0l-32,31.9c-0.8,0.8-1.2,1.8-1.2,2.8c0,1.1,0.4,2.1,1.2,2.8l31.9,31.9
			c1.6,1.6,4.1,1.6,5.7,0l9-9l5.7,5.7l-9,9C159.2,142.5,156.2,143.8,153,143.8z"/>
		<path class="st7" d="M88.6,24.1l-9.5-9.5L89.4,4.3c5.7-5.7,15.1-5.7,20.8,0l10.3,10.3L111,24l-10.3-10.3c-0.5-0.5-1.4-0.5-1.9,0
			L88.6,24.1z"/>
		<path class="st7" d="M99.8,90.7c-3.1,0-6.2-1.2-8.5-3.5l-31.9-32c-4.7-4.7-4.7-12.4,0-17.1l9-9l5.7,5.7l-9,9
			c-1.6,1.6-1.6,4.1,0,5.7l31.9,32c1.5,1.5,4.2,1.5,5.7,0l31.9-31.9c1.6-1.6,1.6-4.1,0-5.7l-9-9l5.7-5.7l9,9
			c2.3,2.3,3.5,5.3,3.5,8.5s-1.3,6.3-3.5,8.5l-31.9,31.9C106,89.5,102.9,90.7,99.8,90.7z"/>
		<path class="st7" d="M99.8,199.7c-3.8,0-7.5-1.4-10.4-4.3l-10.3-10.3l9.5-9.5l10.3,10.3c0.5,0.5,1.4,0.5,1.9,0l10.3-10.3l9.5,9.5
			l-10.3,10.3C107.4,198.2,103.6,199.7,99.8,199.7z"/>
		<path class="st7" d="M131.4,170.5l-5.7-5.7l9-9c1.6-1.6,1.6-4.1,0-5.7l-31.9-31.9c-1.6-1.6-4.1-1.6-5.7,0L65,150.1
			c-1.6,1.6-1.6,4.1,0,5.7l9,9l-5.7,5.7l-9-9c-4.7-4.7-4.7-12.4,0-17.1l31.9-31.9c4.7-4.7,12.4-4.7,17.1,0l31.9,31.9
			c2.3,2.3,3.5,5.3,3.5,8.5s-1.3,6.3-3.5,8.5L131.4,170.5z"/>
	</g>
</g>
<g id="TG" class="st0">
	<g class="st2">
		<path d="M14.6,120.5L4.3,110.2c-5.7-5.7-5.7-15.1,0-20.8l10.3-10.3l9.5,9.5L13.8,98.9c-0.5,0.5-0.5,1.4,0,1.9l10.3,10.3
			L14.6,120.5z"/>
		<path d="M46.7,143.8c-3.2,0-6.3-1.3-8.5-3.5l-9-9l5.7-5.7l9,9c1.6,1.6,4.1,1.6,5.7,0l31.9-31.9c1.6-1.6,1.6-4.1,0-5.7l-32-32
			c-1.6-1.6-4.1-1.6-5.7,0l-9,9l-5.7-5.7l9-9c2.3-2.3,5.3-3.5,8.5-3.5s6.3,1.3,8.5,3.5L87,91.2c4.7,4.7,4.7,12.4,0,17.1l-31.9,31.9
			C52.9,142.5,49.9,143.8,46.7,143.8z"/>
		<path d="M185.1,120.5l-9.5-9.5l10.3-10.3c0.5-0.5,0.5-1.4,0-1.9l-10.3-10.3l9.5-9.5l10.3,10.3c5.7,5.7,5.7,15.1,0,20.8
			L185.1,120.5z"/>
		<path d="M153,143.8c-3.2,0-6.3-1.3-8.5-3.5l-31.9-31.9c-4.7-4.7-4.7-12.4,0-17.1l31.9-31.9c4.7-4.7,12.4-4.7,17.1,0l9,9l-5.7,5.7
			l-9-9c-1.6-1.6-4.1-1.6-5.7,0l-32,31.9c-0.8,0.8-1.2,1.8-1.2,2.8c0,1.1,0.4,2.1,1.2,2.8l31.9,31.9c1.6,1.6,4.1,1.6,5.7,0l9-9
			l5.7,5.7l-9,9C159.2,142.5,156.2,143.8,153,143.8z"/>
		<path d="M88.6,24.1l-9.5-9.5L89.4,4.3c5.7-5.7,15.1-5.7,20.8,0l10.3,10.3L111,24l-10.3-10.3c-0.5-0.5-1.4-0.5-1.9,0L88.6,24.1z"/>
		<path d="M99.8,90.7c-3.1,0-6.2-1.2-8.5-3.5l-31.9-32c-4.7-4.7-4.7-12.4,0-17.1l9-9l5.7,5.7l-9,9c-1.6,1.6-1.6,4.1,0,5.7l31.9,32
			c1.5,1.5,4.2,1.5,5.7,0l31.9-31.9c1.6-1.6,1.6-4.1,0-5.7l-9-9l5.7-5.7l9,9c2.3,2.3,3.5,5.3,3.5,8.5s-1.3,6.3-3.5,8.5l-31.9,31.9
			C106,89.5,102.9,90.7,99.8,90.7z"/>
		<path d="M99.8,199.7c-3.8,0-7.5-1.4-10.4-4.3l-10.3-10.3l9.5-9.5l10.3,10.3c0.5,0.5,1.4,0.5,1.9,0l10.3-10.3l9.5,9.5l-10.3,10.3
			C107.4,198.2,103.6,199.7,99.8,199.7z"/>
		<path d="M131.4,170.5l-5.7-5.7l9-9c1.6-1.6,1.6-4.1,0-5.7l-31.9-31.9c-1.6-1.6-4.1-1.6-5.7,0L65,150.1c-1.6,1.6-1.6,4.1,0,5.7l9,9
			l-5.7,5.7l-9-9c-4.7-4.7-4.7-12.4,0-17.1l31.9-31.9c4.7-4.7,12.4-4.7,17.1,0l31.9,31.9c2.3,2.3,3.5,5.3,3.5,8.5s-1.3,6.3-3.5,8.5
			L131.4,170.5z"/>
	</g>
</g>
<g id="Layer_5" class="st0">
	<g class="st2">
		<g>
			<polygon class="st7" points="109.6,112.8 136.8,139.9 199.2,22 183.1,106.9 136.8,178 61.7,102.9 			"/>
			<polyline class="st21" points="136.4,139.9 199.6,22 183.1,106.9 136.8,177.6 			"/>
			<path class="st22" d="M77.8,132H27.5V49.5H110v50.3l27.5,27.5V40.5c0-10.2-8.3-18.5-18.5-18.5H18.5C8.3,22,0,30.2,0,40.5v100.6
				c0,10.2,8.3,18.5,18.5,18.5h86.9L77.8,132z"/>
		</g>
		<g id="Layer_2_13_">
			<path class="st23" d="M4.7,28.3C1.6,31.4,0,35.7,0,40.5v100.6c0,10.2,8.3,18.5,18.5,18.5h86.9L77.8,132H27.5V49.5"/>
		</g>
	</g>
</g>
<g id="Layer_5_copy" class="st0">
	<g class="st2">
		<g>
			<polygon points="109.6,112.8 136.8,139.9 199.2,22 183.1,106.9 136.8,178 61.7,102.9 			"/>
			<polyline points="136.4,139.9 199.6,22 183.1,106.9 136.8,177.6 			"/>
			<path class="st22" d="M77.8,132H27.5V49.5H110v50.3l27.5,27.5V40.5c0-10.2-8.3-18.5-18.5-18.5H18.5C8.3,22,0,30.2,0,40.5v100.6
				c0,10.2,8.3,18.5,18.5,18.5h86.9L77.8,132z"/>
		</g>
		<g id="Layer_2_5_">
			<path class="st23" d="M4.7,28.3C1.6,31.4,0,35.7,0,40.5v100.6c0,10.2,8.3,18.5,18.5,18.5h86.9L77.8,132H27.5V49.5"/>
		</g>
	</g>
</g>
<g id="Layer_5_copy_2" class="st0">
	<g class="st2">
		<g>
			<polygon class="st7" points="109.6,112.8 136.8,139.9 199.2,22 183.1,106.9 136.8,178 61.7,102.9 			"/>
			<polyline class="st7" points="136.4,139.9 199.6,22 183.1,106.9 136.8,177.6 			"/>
			<path class="st7" d="M77.8,132H27.5V49.5H110v50.3l27.5,27.5V40.5c0-10.2-8.3-18.5-18.5-18.5H18.5C8.3,22,0,30.2,0,40.5v100.6
				c0,10.2,8.3,18.5,18.5,18.5h86.9L77.8,132z"/>
		</g>
		<g id="Layer_2_6_">
			<path class="st7" d="M4.7,28.3C1.6,31.4,0,35.7,0,40.5v100.6c0,10.2,8.3,18.5,18.5,18.5h86.9L77.8,132H27.5V49.5"/>
		</g>
	</g>
</g>
<g id="Layer_5_copy_3" class="st0">
	<g class="st2">
		<g>
			<polygon points="109.6,112.8 136.8,139.9 199.2,22 183.1,106.9 136.8,178 61.7,102.9 			"/>
			<polyline points="136.4,139.9 199.6,22 183.1,106.9 136.8,177.6 			"/>
			<path d="M77.8,132H27.5V49.5H110v50.3l27.5,27.5V40.5c0-10.2-8.3-18.5-18.5-18.5H18.5C8.3,22,0,30.2,0,40.5v100.6
				c0,10.2,8.3,18.5,18.5,18.5h86.9L77.8,132z"/>
		</g>
		<g id="Layer_2_7_">
			<path d="M4.7,28.3C1.6,31.4,0,35.7,0,40.5v100.6c0,10.2,8.3,18.5,18.5,18.5h86.9L77.8,132H27.5V49.5"/>
		</g>
	</g>
</g>
<g id="HC" class="st0">
	<g class="st2">
		<path class="st24" d="M73.6,107.3"/>
		<g>
			<path class="st7" d="M98.7,121.5h-25L68,136.8l-22.3,6.1l18-48.4h20l-6,16.2h25l6-16.3l22.2-6.5l-18.2,48.9H93L98.7,121.5z"/>
			<path class="st7" d="M123.4,136.8l11.4-30.7c0.6-1.6,1.5-3.1,2.6-4.5c1.2-1.4,2.5-2.6,4.1-3.7c1.5-1,3.2-1.9,4.9-2.5
				s3.4-0.9,5.1-0.9H200l-0.1,0.5l-5,11h-36.7c-1,0.4-1.9,0.8-2.7,1.4s-1.6,1.7-2.3,3.2c-0.6,1.3-1.2,2.5-1.6,3.5
				c-0.4,1-0.8,1.9-1.1,2.6c-0.3,0.8-0.6,1.5-0.8,2c-0.2,0.6-0.5,1.1-0.7,1.7c-0.3,0.8-0.6,1.7-0.8,2.5s-0.3,1.4-0.4,1.7l-0.1,0.5
				c0,0.4,0.5,0.8,1.4,1.1h42.6l-0.1,0.6l-9.9,10L123.4,136.8L123.4,136.8z"/>
		</g>
		<path class="st25" d="M0.6,112.4c0-36.7,29.8-66.5,66.5-66.5c26.1,0,47.5,11.8,58.4,33.7l13.9-4.3c-10-32.3-38-45.2-71.8-42.5
			C29.9,35.9,0,71.3,0,109.2c0,5.2,0.6,10.2,1.7,15C1,120.3,0.6,116.4,0.6,112.4z"/>
		<path class="st26" d="M68,42.8C35.5,45.4,9.7,76,9.7,108.6c0,31,23.8,56.3,54.1,58.9c-24.7-2.5-43.9-23.4-43.9-48.7
			c0-27,13.9-54.4,47.7-57.3c18.8-1.6,36.9,9,39.8,27.9l23.5-7.2C122.3,54.4,97.2,40.5,68,42.8z"/>
		<polygon class="st7" points="58.5,77.1 45.8,72.6 39.8,36.2 63,64.5 		"/>
		<polyline class="st27" points="39.8,36.2 63,64.5 58.5,77.1 		"/>
	</g>
</g>
<g id="HC_copy" class="st0">
	<g class="st2">
		<path class="st24" d="M73.6,107.3"/>
		<g>
			<path d="M98.7,121.5h-25L68,136.8l-22.3,6.1l18-48.4h20l-6,16.2h25l6-16.3l22.2-6.5l-18.2,48.9H93L98.7,121.5z"/>
			<path d="M123.4,136.8l11.4-30.7c0.6-1.6,1.5-3.1,2.6-4.5c1.2-1.4,2.5-2.6,4.1-3.7c1.5-1,3.2-1.9,4.9-2.5s3.4-0.9,5.1-0.9H200
				l-0.1,0.5l-5,11h-36.7c-1,0.4-1.9,0.8-2.7,1.4s-1.6,1.7-2.3,3.2c-0.6,1.3-1.2,2.5-1.6,3.5c-0.4,1-0.8,1.9-1.1,2.6
				c-0.3,0.8-0.6,1.5-0.8,2c-0.2,0.6-0.5,1.1-0.7,1.7c-0.3,0.8-0.6,1.7-0.8,2.5s-0.3,1.4-0.4,1.7l-0.1,0.5c0,0.4,0.5,0.8,1.4,1.1
				h42.6l-0.1,0.6l-9.9,10L123.4,136.8L123.4,136.8z"/>
		</g>
		<path class="st25" d="M0.6,112.4c0-36.7,29.8-66.5,66.5-66.5c26.1,0,47.5,11.8,58.4,33.7l13.9-4.3c-10-32.3-38-45.2-71.8-42.5
			C29.9,35.9,0,71.3,0,109.2c0,5.2,0.6,10.2,1.7,15C1,120.3,0.6,116.4,0.6,112.4z"/>
		<path class="st26" d="M68,42.8C35.5,45.4,9.7,76,9.7,108.6c0,31,23.8,56.3,54.1,58.9c-24.7-2.5-43.9-23.4-43.9-48.7
			c0-27,13.9-54.4,47.7-57.3c18.8-1.6,36.9,9,39.8,27.9l23.5-7.2C122.3,54.4,97.2,40.5,68,42.8z"/>
		<polygon points="58.5,77.1 45.8,72.6 39.8,36.2 63,64.5 		"/>
		<polyline class="st28" points="39.8,36.2 63,64.5 58.5,77.1 		"/>
	</g>
</g>
<g id="HC_copy_2" class="st0">
	<g class="st2">
		<path class="st24" d="M73.6,107.3"/>
		<g>
			<path class="st7" d="M98.7,121.5h-25L68,136.8l-22.3,6.1l18-48.4h20l-6,16.2h25l6-16.3l22.2-6.5l-18.2,48.9H93L98.7,121.5z"/>
			<path class="st7" d="M123.4,136.8l11.4-30.7c0.6-1.6,1.5-3.1,2.6-4.5c1.2-1.4,2.5-2.6,4.1-3.7c1.5-1,3.2-1.9,4.9-2.5
				s3.4-0.9,5.1-0.9H200l-0.1,0.5l-5,11h-36.7c-1,0.4-1.9,0.8-2.7,1.4s-1.6,1.7-2.3,3.2c-0.6,1.3-1.2,2.5-1.6,3.5
				c-0.4,1-0.8,1.9-1.1,2.6c-0.3,0.8-0.6,1.5-0.8,2c-0.2,0.6-0.5,1.1-0.7,1.7c-0.3,0.8-0.6,1.7-0.8,2.5s-0.3,1.4-0.4,1.7l-0.1,0.5
				c0,0.4,0.5,0.8,1.4,1.1h42.6l-0.1,0.6l-9.9,10L123.4,136.8L123.4,136.8z"/>
		</g>
		<g>
			<path class="st29" d="M40.6,41c0.7-0.4,1.5-0.8,2.2-1.2l-3-3.7L40.6,41z"/>
			<path class="st29" d="M45.8,72.6l12.6,4.5L63,64.5l-1.7-2.1c-6.1,1.2-11.5,3.2-16.1,5.9L45.8,72.6z"/>
			<path class="st29" d="M42.2,50.7l0.1,0.6c1-0.6,2.1-1.2,3.1-1.8C44.4,49.8,43.3,50.3,42.2,50.7z"/>
			<path class="st7" d="M0,109.2c0,5.2,0.6,10.2,1.7,15c-0.7-3.8-1.1-7.8-1.1-11.8c0-26.5,15.5-49.3,37.8-60l-1.5-9.2
				C14.9,56.9,0,82.4,0,109.2z"/>
			<polygon class="st7" points="39.8,36.2 40.6,41 40.6,41 42.2,50.7 42.2,50.7 42.3,51.3 42.3,51.3 44.2,62.5 45.8,72.6 58.5,77.1 
				63,64.5 			"/>
			<path class="st7" d="M9.7,108.6c0,31,23.8,56.3,54.1,58.9c-24.7-2.5-43.9-23.4-43.9-48.7c0-18.6,6.6-37.3,21.6-48.1l-2.8-17
				C21.3,65.9,9.7,86.7,9.7,108.6z"/>
			<path class="st7" d="M139.5,75.3c-10-32.3-38-45.2-71.8-42.5c-7.4,0.6-14.4,2.4-21,5.3L66,61.7c0.6-0.1,1.1-0.1,1.7-0.2
				c18.8-1.6,36.9,9,39.8,27.9l23.5-7.2c-0.4-1.3-0.9-2.6-1.4-3.9L139.5,75.3z"/>
		</g>
	</g>
</g>
<g id="HC_copy_3" class="st0">
	<g class="st2">
		<path d="M73.6,107.3"/>
		<g>
			<path d="M98.7,121.5h-25L68,136.8l-22.3,6.1l18-48.4h20l-6,16.2h25l6-16.3l22.2-6.5l-18.2,48.9H93L98.7,121.5z"/>
			<path d="M123.4,136.8l11.4-30.7c0.6-1.6,1.5-3.1,2.6-4.5c1.2-1.4,2.5-2.6,4.1-3.7c1.5-1,3.2-1.9,4.9-2.5s3.4-0.9,5.1-0.9H200
				l-0.1,0.5l-5,11h-36.7c-1,0.4-1.9,0.8-2.7,1.4s-1.6,1.7-2.3,3.2c-0.6,1.3-1.2,2.5-1.6,3.5c-0.4,1-0.8,1.9-1.1,2.6
				c-0.3,0.8-0.6,1.5-0.8,2c-0.2,0.6-0.5,1.1-0.7,1.7c-0.3,0.8-0.6,1.7-0.8,2.5s-0.3,1.4-0.4,1.7l-0.1,0.5c0,0.4,0.5,0.8,1.4,1.1
				h42.6l-0.1,0.6l-9.9,10L123.4,136.8L123.4,136.8z"/>
		</g>
		<g>
			<path d="M40.6,41c0.7-0.4,1.5-0.8,2.2-1.2l-3-3.7L40.6,41z"/>
			<path d="M45.8,72.6l12.6,4.5L63,64.5l-1.7-2.1c-6.1,1.2-11.5,3.2-16.1,5.9L45.8,72.6z"/>
			<path d="M42.2,50.7l0.1,0.6c1-0.6,2.1-1.2,3.1-1.8C44.4,49.8,43.3,50.3,42.2,50.7z"/>
			<path d="M0,109.2c0,5.2,0.6,10.2,1.7,15c-0.7-3.8-1.1-7.8-1.1-11.8c0-26.5,15.5-49.3,37.8-60l-1.5-9.2C14.9,56.9,0,82.4,0,109.2z
				"/>
			<polygon points="39.8,36.2 40.6,41 40.6,41 42.2,50.7 42.2,50.7 42.3,51.3 42.3,51.3 44.2,62.5 45.8,72.6 58.5,77.1 63,64.5 			
				"/>
			<path d="M9.7,108.6c0,31,23.8,56.3,54.1,58.9c-24.7-2.5-43.9-23.4-43.9-48.7c0-18.6,6.6-37.3,21.6-48.1l-2.8-17
				C21.3,65.9,9.7,86.7,9.7,108.6z"/>
			<path d="M139.5,75.3c-10-32.3-38-45.2-71.8-42.5c-7.4,0.6-14.4,2.4-21,5.3L66,61.7c0.6-0.1,1.1-0.1,1.7-0.2
				c18.8-1.6,36.9,9,39.8,27.9l23.5-7.2c-0.4-1.3-0.9-2.6-1.4-3.9L139.5,75.3z"/>
		</g>
	</g>
</g>
<g id="TC" class="st0">
	<g class="st2">
		<path class="st7" d="M199,200H1V0h198V200z M8.8,192.2h182.4V7.8H8.8V192.2z"/>
	</g>
	<g class="st2">
		<path class="st30" d="M164.8,40.4l-3.3,21.8h-32.4v77.6h34.6v22H98.3V40.4H164.8z"/>
	</g>
	<g class="st2">
		<path class="st30" d="M87.2,40.4v121.5H64.1v-22V62.3H31.7l-3.3-21.8L87.2,40.4L87.2,40.4z"/>
	</g>
</g>
<g id="TC_copy" class="st0">
	<g class="st2">
		<path d="M199,200H1V0h198V200z M8.8,192.2h182.4V7.8H8.8V192.2z"/>
	</g>
	<g class="st2">
		<path class="st30" d="M164.8,40.4l-3.3,21.8h-32.4v77.6h34.6v22H98.3V40.4H164.8z"/>
	</g>
	<g class="st2">
		<path class="st30" d="M87.2,40.4v121.5H64.1v-22V62.3H31.7l-3.3-21.8L87.2,40.4L87.2,40.4z"/>
	</g>
</g>
<g id="TC_copy_2" class="st0">
	<g class="st2">
		<path class="st7" d="M199,200H1V0h198V200z M8.8,192.2h182.4V7.8H8.8V192.2z"/>
	</g>
	<g class="st2">
		<path class="st7" d="M164.8,40.4l-3.3,21.8h-32.4v77.6h34.6v22H98.3V40.4H164.8z"/>
	</g>
	<g class="st2">
		<path class="st7" d="M87.2,40.4v121.5H64.1v-22V62.3H31.7l-3.3-21.8L87.2,40.4L87.2,40.4z"/>
	</g>
</g>
<g id="TC_copy_3" class="st0">
	<g class="st2">
		<path d="M199,200H1V0h198V200z M8.8,192.2h182.4V7.8H8.8V192.2z"/>
	</g>
	<g class="st2">
		<path d="M164.8,40.4l-3.3,21.8h-32.4v77.6h34.6v22H98.3V40.4H164.8z"/>
	</g>
	<g class="st2">
		<path d="M87.2,40.4v121.5H64.1v-22V62.3H31.7l-3.3-21.8L87.2,40.4L87.2,40.4z"/>
	</g>
</g>
<g>
	<path class="st31" d="M180.9,121.9c8.4-8.3,13.5-19.8,13.5-32.5c0-25.4-20.6-45.9-46.1-45.9h-46.1v91.8v17h32.3v-17h13.9
		c0.9,0,1.9,0,2.8-0.1l8.9,17.1H200L180.9,121.9z M149.1,101.4h-14.7v-24h14.7c6.7,0,12.1,5.4,12.1,12
		C161.2,96.1,155.8,101.4,149.1,101.4z"/>
	<path class="st32" d="M102.6,137.3V87.5H63.5v24.9h14.9c-4.2,6.6-11.5,11-20,11c-13,0-23.6-10.5-23.6-23.4
		c0-12.9,10.6-23.4,23.6-23.4c8.2,0,15.4,4.2,19.6,10.5l24.6-24.9v0C91.9,49.7,76.1,41.9,58.4,41.9C26.1,41.9,0,67.9,0,100
		c0,32.1,26.1,58.1,58.4,58.1c17.7,0,33.5-7.8,44.2-20.2V137.3z"/>
</g>
</svg>
