<svg id="_22_-_HotCars" data-name="22 - HotCars" xmlns="http://www.w3.org/2000/svg" viewBox="0 0 401.8 94.3"><defs><style>.cls-1{fill:#fff;}.cls-2{fill:#e82323;}.cls-3{fill:#bf0d0b;}</style></defs><title>hc-logo-full-white</title><path class="cls-1" d="M-372.81,3163.92h-17.41l-4,10.69-15.52,4.23,12.54-33.78h14l-4.2,11.29H-370l4.21-11.34,15.45-4.54L-363,3174.6h-13.77Z" transform="translate(441.62 -3102.1)"/><path class="cls-1" d="M-303.88,3145.81a6.08,6.08,0,0,1,2.24,2,7.38,7.38,0,0,1,1.12,2.87,10,10,0,0,1,0,3.34l-4.62,12.46a9.28,9.28,0,0,1-1.82,3.2,14.23,14.23,0,0,1-2.89,2.57,14.74,14.74,0,0,1-3.47,1.73,11,11,0,0,1-3.57.63h-28.24a7,7,0,0,1-3.36-.75,6,6,0,0,1-2.22-2,6.93,6.93,0,0,1-1.07-2.82,9.56,9.56,0,0,1,.07-3.34l4.62-12.55a11.67,11.67,0,0,1,2-3.22,14.78,14.78,0,0,1,2.85-2.57,14.36,14.36,0,0,1,3.34-1.7,10.54,10.54,0,0,1,3.55-.63h28.14A7.06,7.06,0,0,1-303.88,3145.81Zm-27,7.28a6.32,6.32,0,0,0-2,1.19,6.15,6.15,0,0,0-1.56,2.12l-2.15,5.83q-0.42,2.52.23,3.45a2.19,2.19,0,0,0,1.91.93h13.26l0.77-.33a2.81,2.81,0,0,0,.72-0.44,6.58,6.58,0,0,0,.86-0.89,17.3,17.3,0,0,0,1.19-1.66l2.19-6a5.09,5.09,0,0,0-.28-3.29,1.73,1.73,0,0,0-1.45-.91H-330.9Z" transform="translate(441.62 -3102.1)"/><path class="cls-1" d="M-293.28,3152.86l3.41-7.84h44.95l-3.36,7.61a0.19,0.19,0,0,1-.19.23h-15.31l-8.07,21.75-15.92,5.81,10.23-27.56h-15.73Z" transform="translate(441.62 -3102.1)"/><path class="cls-1" d="M-248.85,3174.6l7.93-21.42a10.31,10.31,0,0,1,1.84-3.15,14,14,0,0,1,2.85-2.57,15.4,15.4,0,0,1,3.41-1.75,10.4,10.4,0,0,1,3.57-.65h33.79l-0.09.33-3.5,7.65h-25.57a7,7,0,0,0-1.91,1,5.83,5.83,0,0,0-1.59,2.26q-0.65,1.4-1.12,2.43t-0.79,1.84c-0.22.54-.41,1-0.58,1.42l-0.49,1.17a16.22,16.22,0,0,0-.54,1.75q-0.21.86-.3,1.19l0,0.33a1.32,1.32,0,0,0,1,.79h29.68l-0.09.42-6.91,7h-40.51Z" transform="translate(441.62 -3102.1)"/><path class="cls-1" d="M-164.75,3174.6l8-21.56h-17a3.36,3.36,0,0,0-1.12.47,7.64,7.64,0,0,0-1.14.86,7.11,7.11,0,0,0-.93,1,3.38,3.38,0,0,0-.54,1l-2.47,6.67a3.76,3.76,0,0,0,0,1.19,3.87,3.87,0,0,0,.37,1.19,2.44,2.44,0,0,0,.77.91,1.91,1.91,0,0,0,1.14.35h14.42l-7.38,7.89H-188a7.18,7.18,0,0,1-3.29-.7,6.17,6.17,0,0,1-2.24-1.89,6.8,6.8,0,0,1-1.17-2.75,9,9,0,0,1,0-3.24l4.76-12.83a10.25,10.25,0,0,1,1.84-3.15,14.54,14.54,0,0,1,2.8-2.57,14.62,14.62,0,0,1,3.34-1.75,10.1,10.1,0,0,1,3.5-.65h38.41l-11,29.54h-13.67Z" transform="translate(441.62 -3102.1)"/><path class="cls-1" d="M-145.26,3180.41l10-27.23a10,10,0,0,1,1.89-3.1,15.18,15.18,0,0,1,2.94-2.59,15.41,15.41,0,0,1,3.5-1.77,10.57,10.57,0,0,1,3.52-.65h33.79l-0.09.33-9.31,7.7-20.1,0a4.31,4.31,0,0,0-.93.4,6.09,6.09,0,0,0-1.1.77,9,9,0,0,0-1,1,2.87,2.87,0,0,0-.61,1.12l-6.77,18.25Z" transform="translate(441.62 -3102.1)"/><path class="cls-1" d="M-48.22,3166.48a9.37,9.37,0,0,1-1.82,3.15,15.14,15.14,0,0,1-2.87,2.59,13.88,13.88,0,0,1-3.45,1.75,11,11,0,0,1-3.57.63H-93.67l0-.33,3.45-7.65H-64.5q2.66-.42,3.27-2.15a3.92,3.92,0,0,0,.14-0.42,1.34,1.34,0,0,1,.09-0.28v-0.37h-28l3.78-10.22a10.31,10.31,0,0,1,1.84-3.15,14,14,0,0,1,2.85-2.57,15.4,15.4,0,0,1,3.41-1.75,10.4,10.4,0,0,1,3.57-.65h33.79l-0.09.33-3.27,7.19H-68.89q-3.17.93-3.5,2.85a1.87,1.87,0,0,0,0,.37V3156h28.1Z" transform="translate(441.62 -3102.1)"/><path class="cls-2" d="M-390.31,3154.26" transform="translate(441.62 -3102.1)"/><path class="cls-3" d="M-397.14,3196.23a34.49,34.49,0,0,0,3.49.18C-394.83,3196.41-396,3196.33-397.14,3196.23Z" transform="translate(441.62 -3102.1)"/><path class="cls-1" d="M-387.29,3109.2l-1,0Z" transform="translate(441.62 -3102.1)"/><path class="cls-1" d="M-390.08,3109.13h0Z" transform="translate(441.62 -3102.1)"/><path class="cls-1" d="M-354.22,3128l-0.48-.8Z" transform="translate(441.62 -3102.1)"/><path class="cls-1" d="M-391.47,3109.16l-0.67,0Z" transform="translate(441.62 -3102.1)"/><path class="cls-1" d="M-381.38,3109.84q-0.84-.15-1.7-0.26Q-382.22,3109.69-381.38,3109.84Z" transform="translate(441.62 -3102.1)"/><path class="cls-1" d="M-385.46,3109.32l-1.1-.09Z" transform="translate(441.62 -3102.1)"/><path class="cls-1" d="M-383.52,3109.52l-1.29-.15Z" transform="translate(441.62 -3102.1)"/><path class="cls-1" d="M-355.12,3126.55l-0.51-.76Z" transform="translate(441.62 -3102.1)"/><path class="cls-1" d="M-379.7,3110.16l-1.2-.23Z" transform="translate(441.62 -3102.1)"/><path class="cls-1" d="M-359.21,3121.34l-0.66-.67Z" transform="translate(441.62 -3102.1)"/><path class="cls-1" d="M-361.1,3119.49l0.75,0.7Z" transform="translate(441.62 -3102.1)"/><path class="cls-1" d="M-356.06,3125.16l-0.54-.73Z" transform="translate(441.62 -3102.1)"/><path class="cls-1" d="M-358.11,3122.56l-0.61-.68Z" transform="translate(441.62 -3102.1)"/><path class="cls-1" d="M-357.06,3123.83l-0.57-.7Z" transform="translate(441.62 -3102.1)"/><path class="cls-1" d="M-367.37,3114.87l-0.76-.44Z" transform="translate(441.62 -3102.1)"/><path class="cls-1" d="M-361.55,3119.08q-0.6-.53-1.22-1Q-362.14,3118.55-361.55,3119.08Z" transform="translate(441.62 -3102.1)"/><path class="cls-1" d="M-351.3,3134.08h0c-0.09-.24-0.18-0.47-0.27-0.71C-351.48,3133.6-351.39,3133.84-351.3,3134.08Z" transform="translate(441.62 -3102.1)"/><path class="cls-1" d="M-363.13,3117.76l-0.91-.71Z" transform="translate(441.62 -3102.1)"/><path class="cls-1" d="M-364.59,3116.67l-0.78-.54Z" transform="translate(441.62 -3102.1)"/><path class="cls-1" d="M-351.85,3132.71c-0.14-.32-0.27-0.65-0.42-1C-352.12,3132.06-352,3132.39-351.85,3132.71Z" transform="translate(441.62 -3102.1)"/><path class="cls-1" d="M-353.38,3129.5l-0.46-.84Z" transform="translate(441.62 -3102.1)"/><path class="cls-1" d="M-378.05,3110.54l-1-.23Z" transform="translate(441.62 -3102.1)"/><path class="cls-1" d="M-352.59,3131.07c-0.14-.3-0.29-0.6-0.44-0.89C-352.87,3130.47-352.73,3130.77-352.59,3131.07Z" transform="translate(441.62 -3102.1)"/><path class="cls-1" d="M-366,3115.73l-0.75-.48Z" transform="translate(441.62 -3102.1)"/><path class="cls-1" d="M-373.28,3112l-0.84-.31Z" transform="translate(441.62 -3102.1)"/><path class="cls-1" d="M-376.43,3111l-0.92-.25Z" transform="translate(441.62 -3102.1)"/><path class="cls-1" d="M-374.84,3111.48l-0.87-.28Z" transform="translate(441.62 -3102.1)"/><path class="cls-1" d="M-368.8,3114.07l-0.77-.4Z" transform="translate(441.62 -3102.1)"/><path class="cls-1" d="M-370.26,3113.34L-371,3113Z" transform="translate(441.62 -3102.1)"/><path class="cls-1" d="M-371.76,3112.66l-0.81-.34Z" transform="translate(441.62 -3102.1)"/><path class="cls-1" d="M-394.46,3102.35a46.73,46.73,0,0,0-15.88,4.21l3.5,4.27a41.62,41.62,0,0,1,12.52-3c1.51-.12,3-0.18,4.51-0.18,19,0,33.75,9.67,40,26l5.49-1.68C-351.34,3109.42-370.84,3100.45-394.46,3102.35Z" transform="translate(441.62 -3102.1)"/><path class="cls-1" d="M-414.67,3108.83c-16,9.4-26.95,27.61-26.95,46.73a47.84,47.84,0,0,0,1.19,10.45,46.51,46.51,0,0,1-.77-8.21A46.36,46.36,0,0,1-418.62,3118a46.72,46.72,0,0,1,4.87-3.55Z" transform="translate(441.62 -3102.1)"/><path class="cls-1" d="M-427.77,3162.26c0-13.42,4.92-26.94,16.24-34.35l-2-11.87a47.7,47.7,0,0,0-21.38,39.14,41.21,41.21,0,0,0,37.72,41.06A34.14,34.14,0,0,1-427.77,3162.26Z" transform="translate(441.62 -3102.1)"/><path class="cls-1" d="M-394.2,3109.31a40,40,0,0,0-11.64,2.75l8.66,10.59c0.87-.13,1.76-0.24,2.68-0.32,13.08-1.11,25.74,6.29,27.73,19.47l16.41-5C-356.37,3117.35-373.84,3107.67-394.2,3109.31Z" transform="translate(441.62 -3102.1)"/><polygon class="cls-1" points="40.78 31.1 31.97 27.96 27.78 2.56 43.92 22.28 40.78 31.1"/></svg>