<svg id="_22_-_HotCars" data-name="22 - HotCars" xmlns="http://www.w3.org/2000/svg" viewBox="0 0 344.28 80.8"><defs><style>.cls-1{fill:#e82323;}.cls-2{fill:#222;}.cls-3{fill:#bf0d0b;}.cls-4{fill:#9e0707;}</style></defs><title>hv-logo-full-colored-dark</title><path class="cls-1" d="M100.19,3149.85" transform="translate(-56.22 -3105.17)"/><path class="cls-2" d="M115.18,3158.34H100.27l-3.4,9.16-13.3,3.63,10.74-28.94h12l-3.6,9.68h14.92l3.61-9.72,13.24-3.89-10.85,29.24h-11.8Z" transform="translate(-56.22 -3105.17)"/><path class="cls-2" d="M174.25,3142.83a5.21,5.21,0,0,1,1.92,1.72,6.33,6.33,0,0,1,1,2.46,8.56,8.56,0,0,1,0,2.86l-4,10.68a8,8,0,0,1-1.56,2.74,12.19,12.19,0,0,1-2.48,2.2,12.63,12.63,0,0,1-3,1.48,9.45,9.45,0,0,1-3.06.54H138.9a6,6,0,0,1-2.88-.64,5.15,5.15,0,0,1-1.9-1.68,5.94,5.94,0,0,1-.92-2.42,8.19,8.19,0,0,1,.06-2.86l4-10.76a10,10,0,0,1,1.7-2.76,12.66,12.66,0,0,1,2.44-2.2,12.3,12.3,0,0,1,2.86-1.46,9,9,0,0,1,3-.54h24.11A6,6,0,0,1,174.25,3142.83Zm-23.15,6.24a5.42,5.42,0,0,0-1.74,1,5.27,5.27,0,0,0-1.34,1.82l-1.84,5a4.29,4.29,0,0,0,.2,3,1.87,1.87,0,0,0,1.64.8h11.36l0.66-.28a2.41,2.41,0,0,0,.62-0.38,5.64,5.64,0,0,0,.74-0.76,14.82,14.82,0,0,0,1-1.42l1.88-5.16a4.36,4.36,0,0,0-.24-2.82,1.49,1.49,0,0,0-1.24-.78H151.09Z" transform="translate(-56.22 -3105.17)"/><path class="cls-2" d="M183.32,3148.87l2.92-6.72h38.51l-2.88,6.52a0.16,0.16,0,0,1-.16.2H208.6l-6.92,18.63-13.64,5,8.76-23.61H183.32Z" transform="translate(-56.22 -3105.17)"/><path class="cls-2" d="M221.4,3167.5l6.8-18.36a8.83,8.83,0,0,1,1.58-2.7,12,12,0,0,1,2.44-2.2,13.2,13.2,0,0,1,2.92-1.5,8.91,8.91,0,0,1,3.06-.56h29l-0.08.28-3,6.56H242.15a6,6,0,0,0-1.64.86,5,5,0,0,0-1.36,1.94l-1,2.08q-0.4.88-.68,1.58c-0.19.47-.35,0.87-0.5,1.22l-0.42,1a13.89,13.89,0,0,0-.46,1.5q-0.18.74-.26,1l0,0.28a1.13,1.13,0,0,0,.84.68H262.1l-0.08.36-5.92,6H221.4Z" transform="translate(-56.22 -3105.17)"/><path class="cls-2" d="M293.45,3167.5l6.84-18.48H285.74a2.88,2.88,0,0,0-1,.4,6.55,6.55,0,0,0-1,.74,6.09,6.09,0,0,0-.8.88,2.9,2.9,0,0,0-.46.86l-2.12,5.72a3.22,3.22,0,0,0,0,1,3.32,3.32,0,0,0,.32,1,2.09,2.09,0,0,0,.66.78,1.64,1.64,0,0,0,1,.3h12.36l-6.32,6.76H273.5a6.15,6.15,0,0,1-2.82-.6,5.28,5.28,0,0,1-1.92-1.62,5.83,5.83,0,0,1-1-2.36,7.74,7.74,0,0,1,0-2.78l4.08-11a8.79,8.79,0,0,1,1.58-2.7,12.54,12.54,0,0,1,5.26-3.7,8.66,8.66,0,0,1,3-.56h32.91l-9.4,25.31H293.45Z" transform="translate(-56.22 -3105.17)"/><path class="cls-2" d="M310.16,3172.48l8.61-23.33a8.57,8.57,0,0,1,1.62-2.66,13,13,0,0,1,2.52-2.22,13.2,13.2,0,0,1,3-1.52,9.05,9.05,0,0,1,3-.56h29l-0.08.28-8,6.6-17.22,0a3.7,3.7,0,0,0-.8.34,5.22,5.22,0,0,0-.94.66,7.68,7.68,0,0,0-.86.88,2.46,2.46,0,0,0-.52,1l-5.8,15.64Z" transform="translate(-56.22 -3105.17)"/><path class="cls-2" d="M393.31,3160.54a8,8,0,0,1-1.56,2.7,13,13,0,0,1-2.46,2.22,11.89,11.89,0,0,1-3,1.5,9.45,9.45,0,0,1-3.06.54H354.36l0-.28,3-6.56h22q2.28-.36,2.8-1.84a3.36,3.36,0,0,0,.12-0.36,1.14,1.14,0,0,1,.08-0.24v-0.32h-24l3.24-8.76a8.83,8.83,0,0,1,1.58-2.7,12,12,0,0,1,2.44-2.2,13.2,13.2,0,0,1,2.92-1.5,8.91,8.91,0,0,1,3.06-.56h29l-0.08.28-2.8,6.16h-22q-2.72.8-3,2.44a1.61,1.61,0,0,0,0,.32v0.16h24.07Z" transform="translate(-56.22 -3105.17)"/><path class="cls-3" d="M94.34,3185.82a29.55,29.55,0,0,0,3,.15C96.32,3186,95.32,3185.9,94.34,3185.82Z" transform="translate(-56.22 -3105.17)"/><path class="cls-4" d="M56.59,3152.88a39.75,39.75,0,0,1,39.75-39.75c15.6,0,28.41,7.07,34.91,20.15l8.3-2.54c-6-19.31-22.68-27-42.92-25.37-22.55,1.81-40.41,23-40.41,45.59a41,41,0,0,0,1,9A39.85,39.85,0,0,1,56.59,3152.88Z" transform="translate(-56.22 -3105.17)"/><path class="cls-3" d="M96.85,3111.34C77.42,3112.9,62,3131.13,62,3150.64a35.31,35.31,0,0,0,32.32,35.18,29.25,29.25,0,0,1-26.25-29.1c0-16.16,8.32-32.51,28.5-34.22,11.21-1,22.06,5.39,23.76,16.68l14.06-4.3C129.27,3118.23,114.3,3109.94,96.85,3111.34Z" transform="translate(-56.22 -3105.17)"/></svg>