<svg id="_22_-_HotCars" data-name="22 - HotCars" xmlns="http://www.w3.org/2000/svg" viewBox="0 0 299.36 70.13"><defs><style>.cls-1{fill:#e82323;}.cls-2{fill:#fff;}.cls-3{fill:#9e0707;}.cls-4{fill:#bf0d0b;}.cls-5{fill:#e5e5e5;}</style></defs><title>hc-logo-full-colored-light</title><path class="cls-1" d="M510.75,3149.36" transform="translate(-472.52 -3110.5)"/><path class="cls-2" d="M523.78,3156.74h-13l-3,8-11.57,3.15,9.34-25.16H516l-3.13,8.41h13l3.14-8.45,11.51-3.38-9.43,25.43H520.83Z" transform="translate(-472.52 -3110.5)"/><path class="cls-2" d="M575.14,3143.25a4.53,4.53,0,0,1,1.67,1.49,5.5,5.5,0,0,1,.83,2.14,7.44,7.44,0,0,1,0,2.49l-3.44,9.28a6.91,6.91,0,0,1-1.36,2.38,10.6,10.6,0,0,1-2.16,1.91,11,11,0,0,1-2.59,1.29,8.22,8.22,0,0,1-2.66.47h-21a5.25,5.25,0,0,1-2.5-.56,4.48,4.48,0,0,1-1.65-1.46,5.17,5.17,0,0,1-.8-2.1,7.13,7.13,0,0,1,.05-2.49l3.44-9.35a8.69,8.69,0,0,1,1.48-2.4,11,11,0,0,1,2.12-1.91,10.7,10.7,0,0,1,2.49-1.27,7.86,7.86,0,0,1,2.64-.47h21A5.26,5.26,0,0,1,575.14,3143.25ZM555,3148.67a4.71,4.71,0,0,0-1.51.89,4.58,4.58,0,0,0-1.17,1.58l-1.6,4.35a3.73,3.73,0,0,0,.17,2.57,1.63,1.63,0,0,0,1.43.7h9.88l0.57-.24a2.09,2.09,0,0,0,.54-0.33,4.9,4.9,0,0,0,.64-0.66,12.89,12.89,0,0,0,.89-1.23l1.63-4.49a3.79,3.79,0,0,0-.21-2.45,1.29,1.29,0,0,0-1.08-.68H555Z" transform="translate(-472.52 -3110.5)"/><path class="cls-2" d="M583,3148.5l2.54-5.84h33.49l-2.5,5.67a0.14,0.14,0,0,1-.14.17H605l-6,16.2L587.13,3169l7.62-20.53H583Z" transform="translate(-472.52 -3110.5)"/><path class="cls-2" d="M616.14,3164.7l5.91-16a7.68,7.68,0,0,1,1.37-2.35,10.4,10.4,0,0,1,2.12-1.91,11.48,11.48,0,0,1,2.54-1.3,7.75,7.75,0,0,1,2.66-.49h25.17l-0.07.24-2.61,5.7H634.18a5.23,5.23,0,0,0-1.43.75,4.34,4.34,0,0,0-1.18,1.69l-0.83,1.81q-0.35.77-.59,1.37c-0.16.41-.31,0.76-0.44,1.06l-0.36.87a12.08,12.08,0,0,0-.4,1.3q-0.16.64-.22,0.89l0,0.24a1,1,0,0,0,.73.59h22.11l-0.07.31-5.14,5.18H616.14Z" transform="translate(-472.52 -3110.5)"/><path class="cls-2" d="M678.79,3164.7l5.95-16.06H672.08a2.5,2.5,0,0,0-.83.35,5.7,5.7,0,0,0-.85.64,5.29,5.29,0,0,0-.7.76,2.52,2.52,0,0,0-.4.75l-1.84,5a2.8,2.8,0,0,0,0,.89,2.88,2.88,0,0,0,.28.89,1.82,1.82,0,0,0,.57.68,1.43,1.43,0,0,0,.85.26h10.74l-5.49,5.88h-13a5.35,5.35,0,0,1-2.45-.52,4.59,4.59,0,0,1-1.67-1.41,5.07,5.07,0,0,1-.87-2.05,6.73,6.73,0,0,1,0-2.42l3.55-9.56a7.64,7.64,0,0,1,1.37-2.35,10.9,10.9,0,0,1,4.57-3.22,7.53,7.53,0,0,1,2.61-.49h28.62l-8.17,22H678.79Z" transform="translate(-472.52 -3110.5)"/><path class="cls-2" d="M693.32,3169l7.49-20.29a7.45,7.45,0,0,1,1.41-2.31,11.31,11.31,0,0,1,2.19-1.93,11.48,11.48,0,0,1,2.61-1.32,7.87,7.87,0,0,1,2.63-.49h25.17l-0.07.24-6.93,5.74-15,0a3.21,3.21,0,0,0-.7.3,4.54,4.54,0,0,0-.82.57,6.68,6.68,0,0,0-.75.76,2.14,2.14,0,0,0-.45.83l-5,13.6Z" transform="translate(-472.52 -3110.5)"/><path class="cls-2" d="M765.62,3158.65a7,7,0,0,1-1.36,2.35,11.28,11.28,0,0,1-2.14,1.93,10.34,10.34,0,0,1-2.57,1.3,8.22,8.22,0,0,1-2.66.47H731.75l0-.24,2.57-5.7h19.12a2.74,2.74,0,0,0,2.43-1.6,2.92,2.92,0,0,0,.1-0.31,1,1,0,0,1,.07-0.21v-0.28h-20.9l2.82-7.62a7.68,7.68,0,0,1,1.37-2.35,10.4,10.4,0,0,1,2.12-1.91,11.48,11.48,0,0,1,2.54-1.3,7.75,7.75,0,0,1,2.66-.49h25.17l-0.07.24-2.43,5.35H750.22q-2.36.7-2.61,2.12a1.4,1.4,0,0,0,0,.28v0.14H768.5Z" transform="translate(-472.52 -3110.5)"/><path class="cls-3" d="M472.83,3152a34.56,34.56,0,0,1,34.56-34.56c13.57,0,24.7,6.15,30.36,17.52l7.22-2.21c-5.19-16.79-19.72-23.47-37.32-22.06-19.6,1.57-35.13,20-35.13,39.64a35.64,35.64,0,0,0,.89,7.79A34.65,34.65,0,0,1,472.83,3152Z" transform="translate(-472.52 -3110.5)"/><path class="cls-4" d="M507.85,3115.87c-16.9,1.36-30.29,17.21-30.29,34.17a30.7,30.7,0,0,0,28.1,30.59,25.43,25.43,0,0,1-22.82-25.31c0-14,7.23-28.27,24.78-29.75,9.75-.83,19.18,4.68,20.66,14.51l12.23-3.74C536,3121.86,523,3114.65,507.85,3115.87Z" transform="translate(-472.52 -3110.5)"/><polygon class="cls-2" points="30.38 23.17 23.82 20.83 20.7 1.9 32.72 16.6 30.38 23.17"/><polyline class="cls-5" points="20.7 1.9 32.72 16.6 30.38 23.17"/></svg>