<svg xmlns="http://www.w3.org/2000/svg" viewBox="0 0 103.89 70.13"><defs><style>.cls-1{fill:#222;}.cls-2{fill:#9e0707;}.cls-3{fill:#bf0d0b;}.cls-4{fill:#fff;}.cls-5{fill:#e5e5e5;}</style></defs><g id="Layer_2" data-name="Layer 2"><g id="_11_-_HotCars" data-name="11 - HotCars"><path class="cls-1" d="M51.26,46.24h-13l-2.95,8L23.77,57.35l9.34-25.16h10.4L40.38,40.6h13l3.14-8.44L68,28.77,58.57,54.2H48.31Z"/><path class="cls-1" d="M64.12,54.2l5.91-16a7.81,7.81,0,0,1,1.37-2.35A10.45,10.45,0,0,1,73.52,34a11.5,11.5,0,0,1,2.54-1.3,7.61,7.61,0,0,1,2.66-.49h25.17l-.07.24-2.6,5.71H82.16a5,5,0,0,0-1.42.74,4.5,4.5,0,0,0-1.19,1.69l-.83,1.81c-.23.51-.43,1-.59,1.37s-.31.76-.44,1.06-.24.59-.36.87a11.49,11.49,0,0,0-.4,1.31c-.11.43-.18.72-.23.88l0,.25c0,.2.26.4.73.59H99.51l-.07.31L94.3,54.2Z"/><path class="cls-2" d="M.31,41.49A34.56,34.56,0,0,1,34.88,6.93c13.56,0,24.7,6.15,30.36,17.52l7.21-2.21C67.26,5.45,52.73-1.23,35.13.18,15.53,1.76,0,20.14,0,39.82a35.7,35.7,0,0,0,.89,7.79A34.31,34.31,0,0,1,.31,41.49Z"/><path class="cls-3" d="M35.32,5.37C18.43,6.72,5,22.57,5,39.54a30.7,30.7,0,0,0,28.1,30.59A25.44,25.44,0,0,1,10.32,44.82c0-14,7.23-28.26,24.78-29.75,9.75-.83,19.18,4.68,20.66,14.5L68,25.83C63.51,11.36,50.5,4.15,35.32,5.37Z"/><polygon class="cls-4" points="30.38 23.17 23.82 20.83 20.7 1.9 32.72 16.6 30.38 23.17"/><polyline class="cls-5" points="20.7 1.9 32.72 16.6 30.38 23.17"/></g></g></svg>