<?xml version="1.0" encoding="utf-8"?>
<!-- Generator: Adobe Illustrator 23.0.1, SVG Export Plug-In . SVG Version: 6.00 Build 0)  -->
<svg version="1.1" id="Layer_1" xmlns="http://www.w3.org/2000/svg" xmlns:xlink="http://www.w3.org/1999/xlink" x="0px" y="0px"
	 viewBox="0 0 60 60.9" style="enable-background:new 0 0 60 60.9;" xml:space="preserve">
<style type="text/css">
	.st0{fill:#FFFFFF;}
	.st1{fill:#0072EA;}
</style>
<title>Asset 46</title>
<g>
	<path class="st0" d="M49.4,30.5c2.3-0.7,3.5-2,3.5-4c0-1.3-0.5-2.4-1.6-3.3c-1.1-0.9-2.5-1.3-4.2-1.3h-7.6v17.6h8
		c1.8,0,3.2-0.4,4.3-1.2c1-0.8,1.5-1.9,1.5-3.3c0-1.1-0.3-2.1-1-2.9C51.5,31.2,50.6,30.7,49.4,30.5z M43.7,25.2h2.8
		c0.6,0,1.1,0.2,1.5,0.5c0.4,0.3,0.6,0.8,0.6,1.4c0,0.6-0.2,1.1-0.6,1.4c-0.4,0.3-0.9,0.5-1.5,0.5h-2.8V25.2z M48.3,35.7
		c-0.4,0.4-0.9,0.5-1.4,0.5h-3.2v-4H47c0.6,0,1.1,0.2,1.4,0.6c0.4,0.4,0.5,0.9,0.5,1.5C48.9,34.9,48.7,35.4,48.3,35.7z"/>
	<path class="st1" d="M47,32.2h-3.3v4h3.2c0.6,0,1.1-0.2,1.4-0.5c0.4-0.4,0.6-0.8,0.6-1.5c0-0.6-0.2-1.1-0.5-1.5
		C48,32.4,47.5,32.2,47,32.2z"/>
	<path class="st1" d="M48,28.5c0.4-0.3,0.6-0.8,0.6-1.4c0-0.6-0.2-1.1-0.6-1.4c-0.4-0.3-0.9-0.5-1.5-0.5h-2.8V29h2.8
		C47.1,29,47.6,28.8,48,28.5z"/>
	<path class="st1" d="M56.2,16.8H36.5c-1.1,0-2.1,0.5-2.8,1.2c-1.9-0.8-3.9-1.2-6-1.2c-1.5,0.1-2.9,0.3-4.2,0.6
		c-1.4,0.4-2.5,1-3.5,1.8c-1.2-1-2.5-1.7-4-2c-1.5-0.3-3-0.5-4.5-0.5c-2.9,0.1-5.5,1-7.8,2.5C1.2,20.8,0,23.8,0,28.4V44h7V27
		c0-1.6,0.5-2.8,1.4-3.5c0.9-0.7,2-1.1,3.2-1.1s2.3,0.4,3.2,1.1c1,0.7,1.4,1.9,1.4,3.5v1.4V44h6.9V28.4V27c0-1.6,0.5-2.8,1.4-3.5
		c1-0.7,2-1.1,3.2-1.1c1.2,0,2.3,0.4,3.2,1.1c1,0.7,1.4,1.9,1.4,3.5v13.6c0,1,0.3,1.8,0.9,2.4c0.5,0.5,1.1,0.8,1.8,0.9

		c0.3,0.1,0.7,0.2,1.1,0.2h19.8c2.1,0,3.8-1.7,3.8-3.8V20.6C60,18.5,58.3,16.8,56.2,16.8z M51.7,38.2c-1,0.8-2.4,1.2-4.3,1.2h-8
		V21.9H47c1.8,0,3.2,0.4,4.2,1.3c1.1,0.9,1.6,2,1.6,3.3c0,2-1.2,3.3-3.5,4c1.2,0.2,2.1,0.7,2.8,1.5c0.7,0.8,1,1.8,1,2.9
		C53.2,36.3,52.7,37.4,51.7,38.2z"/>
</g>
</svg>
