<?xml version="1.0" encoding="utf-8"?>
<!-- Generator: Adobe Illustrator 23.0.1, SVG Export Plug-In . SVG Version: 6.00 Build 0)  -->
<svg version="1.1" id="Layer_1" xmlns="http://www.w3.org/2000/svg" xmlns:xlink="http://www.w3.org/1999/xlink" x="0px" y="0px"
	 viewBox="0 0 46.3 25" style="enable-background:new 0 0 46.3 25;" xml:space="preserve">
<style type="text/css">
	.st0{fill:#FFFFFF;}
</style>
<title>Asset 3</title>
<g>
	<g>

		<path class="st0" d="M8.2,14.9H1.9c-1.1,0-1.9,0.9-1.9,1.9v6.2C0,24.1,0.9,25,1.9,25h6.2c1.1,0,1.9-0.9,1.9-1.9v-6.2
			C10.1,15.8,9.2,14.9,8.2,14.9z M7,22.7c-0.4,0.3-0.9,0.5-1.6,0.5h-3v-6.5h2.8c0.7,0,1.2,0.2,1.6,0.5c0.4,0.3,0.6,0.7,0.6,1.2
			c0,0.7-0.4,1.2-1.3,1.5c0.4,0.1,0.8,0.2,1,0.5c0.3,0.3,0.4,0.7,0.4,1.1C7.6,22,7.4,22.4,7,22.7z"/>
		<path class="st0" d="M5.3,20.5H4.1V22h1.2c0.2,0,0.4-0.1,0.5-0.2C5.9,21.7,6,21.5,6,21.3c0-0.2-0.1-0.4-0.2-0.5
			C5.6,20.6,5.5,20.5,5.3,20.5z"/>

		<path class="st0" d="M5.6,19.1c0.1-0.1,0.2-0.3,0.2-0.5c0-0.2-0.1-0.4-0.2-0.5c-0.1-0.1-0.3-0.2-0.5-0.2h-1v1.4h1
			C5.3,19.3,5.5,19.3,5.6,19.1z"/>
		<path class="st0" d="M20.2,14.9H14c-1.1,0-1.9,0.9-1.9,1.9v6.2c0,1.1,0.9,1.9,1.9,1.9h6.2c1.1,0,1.9-0.9,1.9-1.9v-6.2
			C22.2,15.8,21.3,14.9,20.2,14.9z M19.8,20.6c0,0.6-0.1,1.1-0.4,1.5c-0.3,0.4-0.6,0.7-1,0.9c-0.4,0.2-0.8,0.3-1.3,0.3
			c-0.7,0-1.4-0.2-1.9-0.7c-0.5-0.5-0.8-1.1-0.8-2v-3.9h1.6v3.9c0,0.4,0.1,0.7,0.3,0.9c0.2,0.2,0.5,0.3,0.8,0.3s0.6-0.1,0.8-0.3
			c0.2-0.2,0.3-0.5,0.3-0.9v-3.9h1.6V20.6z"/>
		<path class="st0" d="M32.4,14.9h-6.2c-1.1,0-1.9,0.9-1.9,1.9v6.2c0,1.1,0.9,1.9,1.9,1.9h6.2c1.1,0,1.9-0.9,1.9-1.9v-6.2
			C34.3,15.8,33.4,14.9,32.4,14.9z M31.5,17.9h-2.6v1.4h2v1.2h-2v2.7h-1.6v-6.5h4.2V17.9z"/>
		<path class="st0" d="M44.4,14.9h-6.2c-1.1,0-1.9,0.9-1.9,1.9v6.2c0,1.1,0.9,1.9,1.9,1.9h6.2c1.1,0,1.9-0.9,1.9-1.9v-6.2
			C46.3,15.8,45.4,14.9,44.4,14.9z M43.5,17.9h-2.6v1.4h2v1.2h-2v2.7h-1.6v-6.5h4.2V17.9z"/>
	</g>
	<g>
		<g>
			<path class="st0" d="M8.8,13.1H6.2V7.2V6.6c0-0.6-0.2-1-0.6-1.3C5.3,5,4.9,4.9,4.4,4.9C3.9,4.9,3.5,5,3.2,5.3
				C2.8,5.6,2.7,6,2.7,6.6v6.4H0V7.2c0-1.7,0.4-2.9,1.3-3.5c0.9-0.6,1.9-0.9,3-0.9C4.9,2.8,5.5,2.8,6,3c0.6,0.1,1.1,0.4,1.5,0.8
				C7.9,3.4,8.4,3.2,8.9,3c0.5-0.1,1.1-0.2,1.6-0.2c1.1,0,2.1,0.3,3.1,0.9C14.5,4.2,15,5.4,15,7.2v5.9h-1.3c-0.4,0-0.7-0.1-0.9-0.4
				c-0.2-0.2-0.4-0.6-0.4-0.9V6.6c0-0.6-0.2-1-0.6-1.3C11.4,5,11,4.9,10.6,4.9S9.7,5,9.4,5.3C9,5.6,8.8,6,8.8,6.6v0.5V13.1z"/>
			<path class="st0" d="M22.7,10h1.9c-0.3,1.1-0.8,1.9-1.6,2.4c-0.8,0.6-1.8,0.9-3,0.9c-1.4,0-2.6-0.5-3.4-1.4
				C15.9,11,15.5,9.7,15.5,8c0-1.6,0.4-2.9,1.2-3.8c0.8-0.9,1.9-1.4,3.4-1.4c1.5,0,2.7,0.5,3.5,1.4c0.8,0.9,1.2,2.2,1.2,3.9
				c0,0.1,0,0.2,0,0.3c0,0.1,0,0.1,0,0.2c0,0.1,0,0.2,0,0.3h-6.6c0,0.8,0.2,1.4,0.6,1.7c0.3,0.4,0.8,0.6,1.5,0.6
				c0.4,0,0.8-0.1,1.1-0.3c0.1,0,0.1-0.1,0.2-0.1c0.1-0.1,0.1-0.1,0.2-0.2c0-0.1,0.1-0.2,0.3-0.3C22.2,10,22.4,10,22.7,10z M18.2,7
				H22c-0.1-0.7-0.2-1.2-0.5-1.5C21.2,5.1,20.7,5,20.1,5c-0.6,0-1,0.2-1.4,0.5C18.4,5.9,18.2,6.4,18.2,7z"/>
			<path class="st0" d="M31.9,0h1.3c0.4,0,0.7,0.1,0.9,0.4c0.3,0.3,0.4,0.6,0.4,0.9v7.4c0,1.8-0.5,3-1.6,3.6c-1,0.6-2.2,0.9-3.4,0.9
				c-0.7,0-1.3-0.1-1.9-0.3c-0.6-0.2-1.1-0.6-1.5-1C25.3,11,25,9.7,25,8.1c0-1.6,0.4-2.9,1.1-3.8c0.8-1,1.7-1.5,2.9-1.5
				c0.6,0,1.2,0.1,1.7,0.4c0.5,0.3,0.9,0.7,1.2,1.2V0z M27.5,8c0,1,0.2,1.8,0.6,2.3c0.4,0.5,0.9,0.8,1.6,0.8c0.7,0,1.2-0.3,1.6-0.8
				C31.7,9.7,31.9,9,31.9,8c0-0.9-0.2-1.6-0.6-2.2C30.9,5.3,30.3,5,29.7,5c-0.7,0-1.2,0.3-1.6,0.8C27.7,6.3,27.5,7.1,27.5,8z"/>
			<path class="st0" d="M35.1,0h1.4c0.4,0,0.7,0.1,0.9,0.4c0.3,0.3,0.4,0.6,0.4,0.9v0.8h-2.7V0z M35.1,3h1.4c0.4,0,0.7,0.1,0.9,0.4
				c0.3,0.3,0.4,0.6,0.4,0.9v8.8h-2.7V3z"/>
			<path class="st0" d="M44.3,12.7c-0.5,0.3-1.1,0.4-1.7,0.5c-0.6,0.1-1.1,0.1-1.6,0.1c-0.9,0-1.7-0.2-2.4-0.7c-0.7-0.5-1-1.3-1-2.4
				c0-1.1,0.3-1.8,0.9-2.3C39.2,7.4,40,7.1,41,6.9c0.1,0,0.3,0,0.5-0.1c0.2,0,0.4-0.1,0.6-0.1c1.1-0.2,1.7-0.5,1.7-1
				c0-0.4-0.2-0.6-0.6-0.7c-0.4-0.1-0.8-0.2-1.1-0.2c-0.4,0-0.7,0.1-0.9,0.2c-0.3,0.1-0.5,0.3-0.6,0.6h-2.5C38,4.8,38.4,4.1,39,3.6
				c0.7-0.6,1.7-0.9,2.9-0.9c1.4,0,2.5,0.2,3.2,0.7c0.7,0.5,1.1,1.2,1.1,2.1v3.5c0,1-0.2,1.8-0.6,2.4C45.3,12,44.9,12.4,44.3,12.7z
				 M43.7,8c-0.4,0.2-0.8,0.3-1.5,0.5l-0.9,0.2c-0.5,0.1-0.8,0.3-1,0.5c-0.2,0.3-0.3,0.6-0.3,0.8c0,0.4,0.1,0.7,0.3,0.9
				c0.2,0.2,0.6,0.3,1,0.3c0.7,0,1.3-0.2,1.7-0.6c0.4-0.4,0.6-1,0.6-1.7V8z"/>
		</g>
	</g>
</g>
</svg>
