<?xml version="1.0" encoding="utf-8"?>
<!-- Generator: Adobe Illustrator 23.0.1, SVG Export Plug-In . SVG Version: 6.00 Build 0)  -->
<svg version="1.1" id="Layer_1" xmlns="http://www.w3.org/2000/svg" xmlns:xlink="http://www.w3.org/1999/xlink" x="0px" y="0px"
	 viewBox="0 0 124 44.3" style="enable-background:new 0 0 124 44.3;" xml:space="preserve">
<style type="text/css">
	.st0{fill:#FFFFFF;}
</style>
<title>Asset 3</title>
<g>
	<g>
		<g>
			<g>
				<path class="st0" d="M75.1,33.7c1.9,0,3,1,3.3,1.5c0.1,0.2,0.1,0.3,0.1,0.4c0,0.4-0.3,0.6-0.6,0.6c-0.2,0-0.4-0.1-0.5-0.3
					c-0.3-0.4-0.9-1-2.3-1c-2,0-3,1.3-3,4c0,2.7,1,4,3,4c1.2,0,2-0.6,2.5-0.9c0.1-0.1,0.3-0.2,0.4-0.2c0.3,0,0.6,0.3,0.6,0.6
					c0,0.2-0.1,0.4-0.3,0.5c-0.5,0.4-1.5,1.2-3.2,1.2c-2.8,0-4.4-1.7-4.4-5.3C70.7,35.4,72.4,33.7,75.1,33.7z"/>
				<path class="st0" d="M84.6,33.7c3.4,0,4.1,2.8,4.1,4.3c0,0.6,0,1.4-0.9,1.4h-6.2c0,2.2,1.2,3.6,3.2,3.6c1.2,0,2-0.5,2.6-0.9
					c0.1-0.1,0.2-0.1,0.4-0.1c0.3,0,0.6,0.3,0.6,0.6c0,0.2-0.1,0.4-0.2,0.5c-0.3,0.3-1.4,1.2-3.3,1.2c-2.8,0-4.6-1.6-4.6-5.3
					C80.2,35.6,81.8,33.7,84.6,33.7z M84.6,35c-1.9,0-2.9,1.2-3,3.2h5.8C87.3,36.6,86.8,35,84.6,35z"/>
				<path class="st0" d="M98.9,37.6v5.9c0,0.4-0.3,0.7-0.7,0.7c-0.4,0-0.7-0.3-0.7-0.7v-5.6c0-1.7-0.5-2.9-2.6-2.9
					c-2.1,0-2.8,1.3-2.8,3.1v5.4c0,0.4-0.3,0.7-0.7,0.7c-0.4,0-0.7-0.3-0.7-0.7v-8.9c0-0.4,0.3-0.7,0.7-0.7c0.4,0,0.7,0.3,0.7,0.7
					v0.7c0.4-0.8,1.5-1.5,2.8-1.5C98.3,33.7,98.9,35.8,98.9,37.6z"/>
				<path class="st0" d="M102,31.7c0-0.4,0.3-0.7,0.7-0.7c0.4,0,0.7,0.3,0.7,0.7V34h1.4c0.4,0,0.6,0.3,0.6,0.7
					c0,0.4-0.3,0.7-0.6,0.7h-1.4v6.1c0,0.9,0.5,1.5,1.2,1.5c0.4,0,0.7,0.3,0.7,0.7s-0.3,0.7-0.7,0.7c-1.7,0-2.6-1.2-2.6-2.8v-6.1
					h-0.8c-0.4,0-0.6-0.3-0.6-0.7c0-0.4,0.3-0.7,0.6-0.7h0.8V31.7z"/>
				<path class="st0" d="M111.2,33.7c3.4,0,4.1,2.8,4.1,4.3c0,0.6,0,1.4-0.9,1.4h-6.2c0,2.2,1.2,3.6,3.2,3.6c1.2,0,2-0.5,2.6-0.9
					c0.1-0.1,0.2-0.1,0.4-0.1c0.3,0,0.6,0.3,0.6,0.6c0,0.2-0.1,0.4-0.2,0.5c-0.3,0.3-1.4,1.2-3.3,1.2c-2.8,0-4.6-1.6-4.6-5.3
					C106.8,35.6,108.5,33.7,111.2,33.7z M111.2,35c-1.9,0-2.9,1.2-3,3.2h5.8C114,36.6,113.4,35,111.2,35z"/>
				<path class="st0" d="M118.8,35.5c0.4-1,1.5-1.8,3-1.8c0.4,0,0.7,0.3,0.7,0.7c0,0.4-0.3,0.7-0.7,0.7c-2,0-3,1.4-3,3.4v4.9
					c0,0.4-0.3,0.7-0.7,0.7c-0.4,0-0.7-0.3-0.7-0.7v-8.9c0-0.4,0.3-0.7,0.7-0.7c0.4,0,0.7,0.3,0.7,0.7V35.5z"/>
			</g>
		</g>
	</g>
	<g>
		<path class="st0" d="M45.2,18c-0.3-0.6-0.5-1.2-0.5-1.9c0-0.3,0-0.6,0.1-0.8h-0.1c-0.8,0-1.4,0.3-1.9,1C42.3,17,42,18,42,19.2
			c0,0.9,0.2,1.7,0.6,2.2c0.4,0.5,0.9,0.7,1.4,0.7c0.6,0,1.1-0.2,1.6-0.7c0.4-0.4,0.7-1.1,0.9-1.9C45.9,19.1,45.5,18.6,45.2,18z"/>
		<path class="st0" d="M107.1,16.3c0-0.3-0.1-0.6-0.3-0.8c-0.2-0.2-0.5-0.3-0.8-0.3c-0.7,0-1.3,0.4-1.8,1.1
			c-0.5,0.7-0.7,1.6-0.7,2.7V19c1.1-0.2,2-0.6,2.6-1.1C106.8,17.5,107.1,16.9,107.1,16.3z"/>
		<path class="st0" d="M123.1,18.1C123.1,18.1,123.1,18.1,123.1,18.1c-0.4-0.6-0.9-1.3-1.6-2.2c0,0,0,0-0.1-0.1
			c-0.1-0.2-0.3-0.3-0.3-0.4c0.2-0.4,0.4-0.7,0.5-1.1c0.2-0.5,0.3-1,0.3-1.4c0-1.3-0.8-2.5-2-3c-0.6-0.2-1.2-0.3-2.2-0.3
			c-2.2,0-3.9,1-4.7,2.7c-0.2,0.4-0.4,0.8-0.6,1.2c-0.3-0.8-0.8-1.4-1.4-2c-0.8-0.7-2.3-1.6-4.5-1.6c-1.7,0-3.3,0.4-4.8,1.3
			c-0.4,0.2-0.8,0.5-1.1,0.8c-0.2-0.4-0.5-0.8-0.8-1.1c1.5-1.3,2.9-3.1,2.3-5.3c-0.4-1.7-2-2.8-3.7-2.8c-0.1,0-0.3,0-0.4,0
			c-0.4,0-0.8,0.2-1.2,0.3C96.4,3,96,2.9,95.6,2.9c-0.1,0-0.3,0-0.4,0l-0.1,0c-1.8,0-3.3,1.2-3.7,2.8c-0.6,2.1,0.8,3.9,2.2,5.2
			c-0.2,0.2-0.4,0.4-0.6,0.6c-0.8-1-2.1-1.5-3.6-1.5c-1.3,0-2.6,0.4-3.9,1.3c0,0,0,0,0,0c-0.8-0.8-1.9-1.2-3.4-1.2
			c-1.1,0-2.1,0.3-3.2,0.9c-0.2-0.2-0.4-0.3-0.6-0.4c-0.6-0.3-1.3-0.5-2.2-0.5c-1.2,0-2.2,0.2-3.1,0.7c-0.4,0.2-0.7,0.5-1,0.8
			c-0.8-1-2.1-1.6-3.7-1.6c-1.3,0-2.6,0.4-3.9,1.3c0,0,0,0,0,0c-0.8-0.8-1.9-1.2-3.4-1.2c-1.1,0-2.1,0.3-3.2,0.9
			c-0.2-0.2-0.4-0.3-0.6-0.4c-0.6-0.3-1.3-0.5-2.2-0.5c-1.2,0-2.2,0.2-3.1,0.7c-0.7,0.4-1.3,1-1.7,1.7c-0.1-0.1-0.2-0.2-0.3-0.3
			c-1.4-1.4-3.3-2.2-5.5-2.2c-1.7,0-3.2,0.4-4.6,1.3c-0.9,0.6-1.7,1.3-2.4,2.1l0.6-2.6c0.3-1.3,0.4-2.4,0.4-3.4
			c0-2.1-0.6-3.8-1.8-5.1C36.1,1.1,34.6,0,31.9,0c-2.3,0-4.3,0.7-6.1,2.2c0,0-0.1,0.1-0.1,0.1c0-0.1-0.1-0.1-0.1-0.2
			c-1.2-1.4-3-2.1-5-2.1c-2.2,0-4.2,0.7-6,2.1c-0.1-0.1-0.2-0.2-0.3-0.3C13.6,1,12.2,0,9.9,0C8.3,0,6.7,0.4,5.2,1.3
			C3.8,2.1,2.5,3.2,1.4,4.7c-0.4,0.6-0.8,1.1-1,1.6C0.1,6.9,0,7.5,0,8.2c0,1,0.3,1.9,1,2.6c0.7,0.9,1.7,1.3,2.8,1.3
			c1,0,1.9-0.4,2.7-1.1c-0.3,1.7-0.6,3.6-1,5.7c-0.3,1.5-0.5,2.7-0.6,3.6c-0.1,1-0.2,1.8-0.2,2.5c0,1.6,0.4,2.8,1.3,3.6
			c0.8,0.8,2,1.2,3.4,1.2c2.1,0,3.2-0.9,3.7-1.6c0.5-0.7,0.9-1.7,1.1-3.1c0.6-3.9,1.3-7.1,2.2-9.3c0.7-1.9,1.3-2.9,1.7-3.5
			c-0.2,1.2-0.5,2.9-1,5.4c-0.3,1.6-0.6,2.9-0.8,4.1c-0.2,1.3-0.4,2.4-0.4,3.3c0,1.6,0.4,2.8,1.3,3.6c0.8,0.8,1.9,1.2,3.3,1.2
			c1.9,0,3-0.8,3.6-1.4c0.8-0.8,1.2-2,1.4-3.6c0.5-3.6,1.2-6.6,2-8.8c0.3-0.8,0.6-1.5,0.8-2L27.6,15c-0.5,2.2-0.7,3.8-0.7,5.1
			c0,2.2,0.8,4.1,2.2,5.5c1.4,1.4,3.3,2.1,5.7,2.1c1.5,0,2.9-0.4,4.3-1.1c0.1-0.1,0.2-0.1,0.3-0.2c0,0,0.1,0,0.1,0.1
			c1.2,0.8,2.7,1.2,4.4,1.2c2,0,3.8-0.7,5.4-1.9c0.2-0.2,0.4-0.3,0.5-0.5c0.8,1.5,2.2,2.4,3.9,2.4c1.7,0,2.7-0.7,3.3-1.3
			c0.1-0.1,0.2-0.2,0.3-0.3c0.8,1,2,1.6,3.4,1.6c1.7,0,2.7-0.7,3.3-1.2c0.1-0.1,0.3-0.3,0.4-0.5c0,0,0.1,0.1,0.1,0.1
			c0.7,0.7,2,1.6,4.2,1.6c1.3,0,2.5-0.2,3.6-0.7c0.7,0.5,1.5,0.7,2.5,0.7c1.7,0,2.7-0.7,3.3-1.3c0.1-0.1,0.2-0.2,0.3-0.3
			c0.8,1,2,1.6,3.4,1.6c1.7,0,2.7-0.7,3.3-1.2c0.1-0.1,0.3-0.3,0.4-0.5c0,0,0.1,0.1,0.1,0.1c0.7,0.7,2,1.6,4.2,1.6
			c1.5,0,2.8-0.3,4-0.9c0.8,0.5,2,0.9,3.5,0.9c1.4,0,2.7-0.4,4.1-1.3c1.4,0.8,3.2,1.3,5.2,1.3c1.9,0,3.7-0.4,5.3-1.3
			c0.1-0.1,0.2-0.1,0.4-0.2c0.2,0.3,0.5,0.6,0.8,0.8c1,0.8,2.4,1.2,4,1.2c1.4,0,2.6-0.3,3.7-1c1.1-0.6,1.9-1.5,2.5-2.6
			c0.6-1.1,0.9-2.2,0.9-3.4C124,20.1,123.7,19,123.1,18.1z M93.1,6.6c0-0.1,0-0.1,0-0.2c0,0,0,0,0,0c0-0.1,0-0.1,0-0.2c0,0,0,0,0,0
			c0-0.1,0-0.1,0-0.1c0,0,0,0,0,0c0.1-0.2,0.2-0.4,0.3-0.6c0,0,0,0,0,0c0,0,0-0.1,0.1-0.1c0,0,0,0,0-0.1c0,0,0,0,0.1-0.1
			c0,0,0,0,0.1-0.1c0,0,0,0,0.1-0.1c0,0,0,0,0.1-0.1c0,0,0,0,0.1-0.1C94,5,94,5,94,5c0,0,0,0,0.1,0c0,0,0.1,0,0.1,0c0,0,0,0,0.1,0
			c0,0,0.1,0,0.1,0c0,0,0,0,0.1,0c0,0,0.1,0,0.1,0c0,0,0,0,0.1,0c0.1,0,0.1,0,0.2,0c0,0,0,0,0,0c0.1,0,0.1,0,0.2,0c0,0,0,0,0.1,0
			c0,0,0.1,0,0.1,0c0,0,0,0,0,0c0.1,0,0.1,0,0.2,0c0.4,0,0.7,0.2,0.9,0.3c0.1,0.1,0.2,0.2,0.3,0.3c0.1,0.1,0.1,0.2,0.2,0.3
			c0.2-0.4,0.6-0.8,1.4-0.9c0.1,0,0.1,0,0.2,0c0,0,0,0,0,0c0,0,0.1,0,0.1,0c0,0,0,0,0,0c0.1,0,0.1,0,0.2,0c0,0,0,0,0.1,0
			c0,0,0.1,0,0.1,0c0,0,0,0,0.1,0c0,0,0.1,0,0.1,0c0,0,0.1,0,0.1,0c0,0,0.1,0,0.1,0c0,0,0.1,0,0.1,0c0,0,0.1,0,0.1,0
			c0,0,0.1,0,0.1,0c0,0,0,0,0.1,0c0,0,0.1,0,0.1,0.1c0,0,0,0,0.1,0c0,0,0.1,0,0.1,0.1c0,0,0,0,0,0c0.1,0.1,0.2,0.2,0.3,0.3
			c0,0,0,0,0,0c0,0,0,0.1,0.1,0.1c0,0,0,0,0,0c0,0,0,0.1,0.1,0.1c0,0,0,0,0,0c0,0,0,0.1,0,0.1c0,0,0,0,0,0c0,0.1,0,0.1,0,0.2
			c0,0,0,0,0,0c0.1,0.4,0,0.9-0.3,1.5c0,0,0,0,0,0c-0.3,0.5-0.7,1.1-1.4,1.7c0,0,0,0,0,0c-0.1,0.1-0.2,0.2-0.3,0.2c0,0,0,0,0,0
			c-0.1,0.1-0.2,0.2-0.3,0.2c0,0,0,0,0,0c0,0,0,0,0,0c-0.4,0.3-0.8,0.5-1.2,0.8c0,0,0,0,0,0c-0.5-0.3-0.9-0.5-1.3-0.8c0,0,0,0,0,0
			c0,0,0,0,0,0c-0.1-0.1-0.2-0.2-0.3-0.2c0,0,0,0,0,0c-0.1-0.1-0.2-0.2-0.3-0.2c0,0,0,0,0,0c-0.1-0.1-0.2-0.1-0.2-0.2c0,0,0,0,0,0
			C94.4,9.1,94.4,9,94.3,9c0,0,0,0,0,0c-0.1-0.1-0.1-0.2-0.2-0.2c0,0,0,0,0,0c-0.5-0.6-0.8-1.1-0.9-1.6c0,0,0,0,0,0
			c0-0.1,0-0.1,0-0.2c0,0,0,0,0,0C93.1,6.8,93.1,6.7,93.1,6.6C93.1,6.7,93.1,6.7,93.1,6.6z M120.7,23.2c-0.4,0.6-0.9,1.2-1.5,1.6
			c-0.7,0.4-1.4,0.6-2.3,0.6c-1,0-1.7-0.2-2.2-0.6c-0.5-0.4-0.8-0.9-0.8-1.4c0-0.4,0.2-0.8,0.5-1.2c0.4-0.3,0.9-0.5,1.6-0.5
			c0.2,0,0.5,0,0.9,0.1c0.3,0,0.6,0.1,0.7,0.1c0-0.4-0.1-0.9-0.3-1.3c-0.2-0.4-0.4-0.8-0.7-1.1c-0.3-0.4-0.6-0.7-0.8-1
			c-0.6,1-1.2,1.9-1.7,2.5c-0.1,0.1-0.2,0.2-0.3,0.3c-0.1,0.1-0.2,0.2-0.2,0.3c-0.3,0.3-0.6,0.6-1,0.9c-0.1,0.1-0.2,0.2-0.4,0.4
			c-0.2,0.2-0.5,0.4-0.8,0.4c-0.3,0.2-0.6,0.3-0.9,0.5c-1.3,0.7-2.6,1-4.1,1c-2,0-3.5-0.5-4.6-1.5c-0.2-0.2-0.4-0.4-0.5-0.6
			c-1.5,1.4-2.9,2-4.2,2c-1.2,0-2.1-0.4-2.7-1.2c-0.1-0.2-0.3-0.4-0.4-0.6c-0.4,0.4-0.9,0.7-1.3,1c-0.9,0.6-2,0.9-3.2,0.9
			c-1,0-1.7-0.3-2.2-0.8c-0.5-0.5-0.7-1.2-0.7-2.2c0-0.5,0.1-1.3,0.4-2.6c0.2-1.1,0.4-1.8,0.4-2.2c0-0.3-0.1-0.4-0.3-0.4
			c-0.2,0-0.6,0.3-1,0.9c-0.5,0.6-0.9,1.3-1.4,2.3c-0.5,0.9-0.8,1.9-1.1,3c-0.2,0.8-0.4,1.4-0.7,1.7c-0.3,0.3-0.7,0.4-1.3,0.4
			c-0.6,0-1.1-0.3-1.4-0.8c-0.3-0.5-0.5-1.2-0.5-2c0-0.7,0.1-1.6,0.3-2.8c0.2-1.1,0.2-1.8,0.2-2.2c0-0.3-0.1-0.4-0.3-0.4
			c-0.3,0-0.6,0.3-1.1,0.9c-0.4,0.6-0.9,1.4-1.3,2.4c-0.4,1-0.7,1.9-1,2.8c-0.2,0.8-0.4,1.4-0.7,1.6c-0.3,0.3-0.7,0.4-1.3,0.4
			c-0.7,0-1.2-0.3-1.5-1c-0.1-0.2-0.2-0.4-0.2-0.7c-0.4,0.3-0.8,0.6-1.1,0.8c-0.9,0.6-2,0.9-3.2,0.9c-1,0-1.7-0.3-2.2-0.8
			c-0.5-0.5-0.7-1.2-0.7-2.2c0-0.5,0.1-1.3,0.4-2.6c0.2-1.1,0.4-1.8,0.4-2.2c0-0.3-0.1-0.4-0.3-0.4c-0.2,0-0.6,0.3-1,0.9
			c-0.5,0.6-0.9,1.3-1.4,2.3c-0.5,0.9-0.8,1.9-1.1,3c-0.2,0.8-0.4,1.4-0.7,1.7c-0.3,0.3-0.7,0.4-1.3,0.4c-0.6,0-1.1-0.3-1.4-0.8
			c-0.3-0.5-0.5-1.2-0.5-2c0-0.7,0.1-1.6,0.3-2.8c0.2-1.1,0.2-1.8,0.2-2.2c0-0.3-0.1-0.4-0.3-0.4c-0.3,0-0.6,0.3-1.1,0.9
			c-0.4,0.6-0.9,1.4-1.3,2.4c-0.4,1-0.7,1.9-1,2.8c-0.2,0.8-0.4,1.4-0.7,1.6c-0.3,0.3-0.7,0.4-1.3,0.4c-0.7,0-1.2-0.3-1.5-1
			c-0.3-0.7-0.4-1.8-0.4-3.3c0-0.2,0-0.5,0-0.7C51,19.9,50.3,20,49.5,20c-0.4,1.4-1.1,2.6-2.1,3.5c-1.1,0.9-2.2,1.3-3.6,1.3
			c-1.1,0-2.1-0.2-2.9-0.7c-0.6-0.3-1-0.8-1.4-1.3c-0.6,0.5-1.2,1-1.8,1.3c-1,0.5-2,0.7-3,0.7c-1.6,0-2.8-0.4-3.8-1.3
			c-0.9-0.9-1.4-2-1.4-3.5c0-1,0.2-2.5,0.7-4.4l1.1-4.7c0-0.2,0.1-0.4,0.2-0.8c0.1-0.4,0.2-0.8,0.2-1.1c0.1-0.4,0.1-0.7,0.1-1
			c0-0.6-0.1-1.1-0.4-1.4c-0.3-0.3-0.6-0.5-1.1-0.5c-0.9,0-1.8,0.5-2.8,1.6c-1,1-1.9,2.8-2.8,5.2c-0.9,2.4-1.6,5.5-2.1,9.4
			c-0.1,1-0.4,1.7-0.7,2.1c-0.3,0.4-0.9,0.5-1.6,0.5c-0.6,0-1.1-0.1-1.4-0.4c-0.3-0.3-0.4-0.8-0.4-1.5c0-0.7,0.1-1.6,0.3-2.8
			c0.2-1.1,0.5-2.5,0.8-4c0.9-4.2,1.3-6.9,1.3-8.1c0-0.7-0.1-1.1-0.4-1.4c-0.3-0.3-0.7-0.5-1.2-0.5c-0.9,0-1.9,0.5-2.8,1.4
			c-1,1-1.9,2.7-2.9,5.1c-0.9,2.4-1.7,5.7-2.3,9.9c-0.1,0.9-0.3,1.5-0.6,1.8c-0.3,0.3-0.7,0.5-1.5,0.5c-0.7,0-1.2-0.1-1.5-0.4
			c-0.3-0.3-0.5-0.8-0.5-1.6c0-0.5,0.1-1.2,0.2-2.1c0.1-0.8,0.3-2,0.6-3.4c0.5-2.7,0.9-5,1.2-7C9.5,9,9.6,8,9.6,7.1
			C9.6,6.4,9.3,6,8.7,6C8.2,6,7.6,6.2,6.9,6.7C6.2,7.1,5.5,7.9,4.6,8.9C4.4,9.2,4.1,9.3,3.8,9.3C3.5,9.3,3.3,9.2,3.1,9
			C2.9,8.8,2.8,8.5,2.8,8.2c0-0.3,0.1-0.6,0.2-0.8c0.1-0.3,0.3-0.6,0.6-1c0.9-1.2,1.9-2,3-2.7c1.1-0.6,2.2-0.9,3.3-0.9
			c1,0,1.8,0.3,2.4,0.9c0.6,0.6,0.8,1.5,0.8,2.6c0,0.5,0,1-0.1,1.6c-0.1,0.6-0.2,1.1-0.3,1.5c-0.1,0.4-0.1,0.7-0.2,0.8
			c1.1-2.8,2.3-4.8,3.6-5.9c1.3-1.1,2.8-1.7,4.4-1.7c1.2,0,2.2,0.4,2.9,1.2c0.7,0.8,1.1,1.9,1.1,3.4c0,0.6-0.1,1.3-0.3,2.1
			c0.9-2.4,2-4.1,3.3-5.1c1.3-1,2.7-1.5,4.3-1.5c1.3,0,2.3,0.4,3,1.2C35.7,4.7,36,5.8,36,7.2c0,0.8-0.1,1.7-0.4,2.8l-1.7,7.4
			c-0.2,0.9-0.3,1.6-0.3,2.2c0,0.7,0.2,1.3,0.6,1.6c0.4,0.4,0.9,0.5,1.5,0.5c0.6,0,1.2-0.2,1.8-0.6c0.3-0.2,0.7-0.5,1-0.8
			c0-0.3-0.1-0.6-0.1-1c0-1.3,0.3-2.5,0.8-3.5c0.5-1,1.3-1.8,2.3-2.4c1-0.6,2-0.9,3.2-0.9c1.4,0,2.6,0.5,3.5,1.4s1.4,2,1.5,3.3
			c0.7,0,1.4-0.1,2.2-0.3c0.2-1,0.4-2,0.7-2.9c0.2-0.5,0.4-0.9,0.8-1.1c0.4-0.2,0.9-0.3,1.6-0.3c0.4,0,0.6,0,0.8,0.1
			c0.2,0.1,0.2,0.2,0.2,0.5c0,0.3-0.1,0.9-0.4,1.9c-0.2,0.7-0.3,1.3-0.5,1.8c-0.1,0.5-0.2,1.1-0.3,1.9c0.5-1.3,1.1-2.5,1.8-3.4
			c0.7-0.9,1.4-1.6,2.2-2.1c0.7-0.5,1.4-0.7,2.1-0.7c0.7,0,1.1,0.1,1.4,0.4c0.3,0.3,0.4,0.7,0.4,1.3c0,0.6-0.2,1.5-0.5,3
			c-0.2,0.6-0.3,1.1-0.3,1.4c0.9-2.1,2-3.7,3.1-4.6c1.1-1,2.2-1.4,3.2-1.4c1.2,0,1.8,0.6,1.8,1.7c0,0.7-0.2,1.9-0.6,3.6
			c-0.4,1.5-0.5,2.5-0.5,3c0,0.7,0.3,1,0.8,1c0.4,0,0.8-0.2,1.3-0.6c0.4-0.3,0.8-0.8,1.4-1.3c0-2.1,0.4-4,1-5.9
			c0.2-0.5,0.4-0.9,0.8-1.1c0.4-0.2,0.9-0.3,1.6-0.3c0.4,0,0.6,0,0.8,0.1c0.2,0.1,0.2,0.2,0.2,0.5c0,0.3-0.1,0.9-0.4,1.9
			c-0.2,0.7-0.3,1.3-0.5,1.8c-0.1,0.5-0.2,1.1-0.3,1.9c0.5-1.3,1.1-2.5,1.8-3.4c0.7-0.9,1.4-1.6,2.2-2.1c0.7-0.5,1.4-0.7,2.1-0.7
			c0.7,0,1.1,0.1,1.4,0.4c0.3,0.3,0.4,0.7,0.4,1.3c0,0.6-0.2,1.5-0.5,3c-0.2,0.6-0.3,1.1-0.3,1.4c0.9-2.1,2-3.7,3.1-4.6
			c1.1-1,2.2-1.4,3.2-1.4c1.2,0,1.8,0.6,1.8,1.7c0,0.7-0.2,1.9-0.6,3.6c-0.4,1.5-0.5,2.5-0.5,3c0,0.7,0.3,1,0.8,1
			c0.4,0,0.8-0.2,1.3-0.6c0.4-0.3,0.8-0.7,1.3-1.3c0-0.7,0.1-1.6,0.3-2.6c0.2-1.2,0.5-2.3,0.8-3.4c0.2-0.6,0.4-0.9,0.7-1.1
			c0.3-0.2,0.7-0.3,1.4-0.3c1,0,1.4,0.3,1.4,0.9c0,0.4-0.2,1.4-0.5,3c-0.5,1.9-0.7,3.2-0.7,3.8c0,0.5,0.1,0.9,0.2,1.2
			c0.2,0.3,0.4,0.4,0.8,0.4c0.3,0,0.8-0.2,1.3-0.6c0.3-0.2,0.6-0.5,1-0.9c-0.1-0.4-0.1-0.7-0.1-1.1c0-1.2,0.3-2.3,0.8-3.3
			c0.5-1,1.3-1.8,2.3-2.4c1-0.6,2.1-0.9,3.3-0.9c1.1,0,2,0.3,2.6,0.9c0.7,0.6,1,1.4,1,2.4c0,1.2-0.5,2.2-1.4,3.1
			c-0.9,0.9-2.5,1.5-4.7,2c0.5,0.8,1.4,1.2,2.7,1.2c0.8,0,1.8-0.3,2.9-0.8c0.7-0.3,1.3-0.8,1.9-1.3c0.7-0.8,1.2-1.5,1.6-2.1
			c0.3-0.5,0.7-1.1,1-1.8c0.3-0.7,0.8-1.6,1.4-2.8c0.4-0.8,1.1-1.1,2.2-1.1c0.5,0,0.9,0,1.1,0.1c0.2,0.1,0.3,0.2,0.3,0.4
			c0,0.1,0,0.3-0.1,0.5c-0.1,0.2-0.2,0.4-0.3,0.7c-0.3,0.6-0.5,1.1-0.5,1.6c0,0.3,0.1,0.5,0.3,0.9c0.2,0.3,0.5,0.7,0.9,1.2
			c0.6,0.7,1.1,1.3,1.4,1.8c0.3,0.5,0.5,1.1,0.5,1.7C121.2,21.9,121,22.6,120.7,23.2z"/>
	</g>
</g>
</svg>
