<?xml version="1.0" encoding="utf-8"?>
<!-- Generator: Adobe Illustrator 23.0.1, SVG Export Plug-In . SVG Version: 6.00 Build 0)  -->
<svg version="1.1" id="Layer_1" xmlns="http://www.w3.org/2000/svg" xmlns:xlink="http://www.w3.org/1999/xlink" x="0px" y="0px"
	 viewBox="0 0 124.8 44.3" style="enable-background:new 0 0 124.8 44.3;" xml:space="preserve">
<style type="text/css">
	.st0{fill:#FFFFFF;}
	.st1{fill:#E72D8E;}
	.st2{fill:none;}
	.st3{fill:#8C97CB;}
</style>
<title>Asset 4</title>
<g>
	<path class="st0" d="M119.3,17.7c-0.4-0.5-0.7-0.9-0.9-1.2c-0.2-0.3-0.3-0.6-0.3-0.9c0-0.4,0.2-1,0.5-1.6c0.1-0.2,0.2-0.4,0.3-0.7
		c0.1-0.2,0.1-0.4,0.1-0.5c0-0.2-0.1-0.3-0.3-0.4c-0.2-0.1-0.6-0.1-1.1-0.1c-1.1,0-1.9,0.4-2.2,1.1c-0.6,1.2-1,2.1-1.4,2.8
		c-0.3,0.7-0.7,1.3-1,1.8c-0.4,0.6-0.9,1.3-1.6,2.1c-0.6,0.5-1.2,0.9-1.9,1.3c-1.1,0.5-2,0.8-2.9,0.8c-1.3,0-2.2-0.4-2.7-1.2
		c2.2-0.5,3.8-1.2,4.7-2c0.9-0.9,1.4-1.9,1.4-3.1c0-1-0.3-1.8-1-2.4c-0.7-0.6-1.5-0.9-2.6-0.9c-1.2,0-2.3,0.3-3.3,0.9
		c-1,0.6-1.7,1.4-2.3,2.4c-0.5,1-0.8,2.1-0.8,3.3c0,0.4,0,0.8,0.1,1.1c-0.4,0.4-0.7,0.7-1,0.9c-0.5,0.4-0.9,0.6-1.3,0.6
		c-0.4,0-0.6-0.1-0.8-0.4C97,21.3,97,20.9,97,20.4c0-0.7,0.2-2,0.7-3.8c0.4-1.6,0.5-2.6,0.5-3c0-0.6-0.5-0.9-1.4-0.9
		c-0.6,0-1.1,0.1-1.4,0.3c-0.3,0.2-0.5,0.6-0.7,1.1c-0.3,1.1-0.6,2.2-0.8,3.4c-0.2,1-0.3,1.9-0.3,2.6c-0.5,0.5-1,1-1.3,1.3
		c-0.5,0.4-1,0.6-1.3,0.6c-0.5,0-0.8-0.3-0.8-1c0-0.5,0.2-1.5,0.5-3c0.4-1.8,0.6-3,0.6-3.6c0-1.1-0.6-1.7-1.8-1.7
		c-1,0-2.1,0.5-3.2,1.4c-1.1,1-2.2,2.5-3.1,4.6c0.1-0.3,0.2-0.8,0.3-1.4c0.4-1.4,0.5-2.4,0.5-3c0-0.6-0.1-1-0.4-1.3
		c-0.3-0.3-0.7-0.4-1.4-0.4c-0.7,0-1.4,0.2-2.1,0.7c-0.7,0.5-1.5,1.1-2.2,2.1c-0.7,0.9-1.3,2.1-1.8,3.4c0.1-0.8,0.2-1.4,0.3-1.9
		c0.1-0.5,0.3-1.1,0.5-1.8c0.3-1,0.4-1.6,0.4-1.9c0-0.2-0.1-0.4-0.2-0.5c-0.2-0.1-0.4-0.1-0.8-0.1c-0.7,0-1.2,0.1-1.6,0.3
		c-0.4,0.2-0.7,0.6-0.8,1.1c-0.6,1.9-1,3.8-1,5.9c-0.6,0.6-1,1-1.4,1.3c-0.5,0.4-1,0.6-1.3,0.6c-0.5,0-0.8-0.3-0.8-1
		c0-0.5,0.2-1.5,0.5-3c0.4-1.8,0.6-3,0.6-3.6c0-1.1-0.6-1.7-1.8-1.7c-1,0-2.1,0.5-3.2,1.4c-1.1,1-2.2,2.5-3.1,4.6
		c0.1-0.3,0.2-0.8,0.3-1.4c0.4-1.4,0.5-2.4,0.5-3c0-0.6-0.1-1-0.4-1.3c-0.3-0.3-0.7-0.4-1.4-0.4c-0.7,0-1.4,0.2-2.1,0.7
		c-0.7,0.5-1.5,1.1-2.2,2.1c-0.7,0.9-1.3,2.1-1.8,3.4c0.1-0.8,0.2-1.4,0.3-1.9c0.1-0.5,0.3-1.1,0.5-1.8c0.3-1,0.4-1.6,0.4-1.9
		c0-0.2-0.1-0.4-0.2-0.5c-0.2-0.1-0.4-0.1-0.8-0.1c-0.7,0-1.2,0.1-1.6,0.3c-0.4,0.2-0.7,0.6-0.8,1.1C52.4,15,52.1,16,52,17
		c-0.8,0.2-1.6,0.3-2.2,0.3c-0.2-1.3-0.7-2.4-1.5-3.3c-0.9-0.9-2-1.4-3.5-1.4c-1.2,0-2.2,0.3-3.2,0.9c-1,0.6-1.7,1.4-2.3,2.4
		c-0.5,1-0.8,2.2-0.8,3.5c0,0.3,0,0.7,0.1,1c-0.4,0.3-0.7,0.6-1,0.8c-0.6,0.4-1.2,0.6-1.8,0.6c-0.7,0-1.2-0.2-1.5-0.5
		c-0.4-0.4-0.5-0.9-0.5-1.6c0-0.6,0.1-1.4,0.3-2.2l1.7-7.4C35.9,8.9,36,8,36,7.2c0-1.4-0.4-2.5-1.1-3.3c-0.7-0.8-1.7-1.2-3-1.2
		c-1.6,0-3.1,0.5-4.3,1.5c-1.3,1-2.4,2.7-3.3,5.1c0.2-0.8,0.3-1.5,0.3-2.1c0-1.4-0.4-2.6-1.1-3.4c-0.7-0.8-1.7-1.2-2.9-1.2
		c-1.6,0-3.1,0.6-4.4,1.7c-1.3,1.1-2.5,3.1-3.6,5.9c0-0.2,0.1-0.4,0.2-0.8C12.8,9.1,12.9,8.6,13,8c0.1-0.6,0.1-1.2,0.1-1.6
		c0-1.2-0.3-2-0.8-2.6c-0.6-0.6-1.3-0.9-2.4-0.9c-1.1,0-2.2,0.3-3.3,0.9c-1.1,0.6-2.1,1.5-3,2.7C3.3,6.8,3.1,7.1,3,7.4
		C2.8,7.6,2.8,7.9,2.8,8.2c0,0.3,0.1,0.6,0.3,0.8c0.2,0.2,0.4,0.3,0.7,0.3c0.3,0,0.6-0.2,0.9-0.5c0.8-1,1.6-1.7,2.3-2.2
		C7.6,6.2,8.2,6,8.7,6c0.6,0,0.9,0.4,0.9,1.2C9.6,8,9.5,9,9.4,10.2c-0.3,2-0.7,4.3-1.2,7c-0.3,1.5-0.5,2.6-0.6,3.4
		c-0.1,0.8-0.2,1.5-0.2,2.1c0,0.8,0.2,1.3,0.5,1.6c0.3,0.3,0.8,0.4,1.5,0.4c0.7,0,1.2-0.2,1.5-0.5c0.3-0.3,0.4-1,0.6-1.8
		c0.6-4.1,1.4-7.4,2.3-9.9c0.9-2.4,1.9-4.1,2.9-5.1c1-1,1.9-1.4,2.8-1.4c0.5,0,1,0.2,1.2,0.5c0.3,0.3,0.4,0.8,0.4,1.4
		c0,1.2-0.4,3.9-1.3,8.1c-0.3,1.5-0.6,2.9-0.8,4c-0.2,1.1-0.3,2.1-0.3,2.8c0,0.8,0.1,1.3,0.4,1.5c0.3,0.3,0.8,0.4,1.4,0.4
		c0.7,0,1.3-0.2,1.6-0.5c0.3-0.4,0.6-1,0.7-2.1c0.5-3.9,1.3-7,2.1-9.4c0.9-2.4,1.8-4.1,2.8-5.2c1-1,1.9-1.6,2.8-1.6
		c0.5,0,0.8,0.2,1.1,0.5c0.3,0.3,0.4,0.8,0.4,1.4c0,0.3,0,0.7-0.1,1c-0.1,0.4-0.1,0.7-0.2,1.1c-0.1,0.4-0.2,0.7-0.2,0.8l-1.1,4.7
		c-0.5,1.9-0.7,3.4-0.7,4.4c0,1.5,0.5,2.6,1.4,3.5c0.9,0.9,2.2,1.3,3.8,1.3c1.1,0,2.1-0.2,3-0.7c0.6-0.3,1.2-0.7,1.8-1.3
		c0.4,0.5,0.8,0.9,1.4,1.3c0.8,0.5,1.8,0.7,2.9,0.7c1.3,0,2.5-0.4,3.6-1.3c1.1-0.9,1.8-2,2.1-3.5c0.8,0,1.5-0.1,2.2-0.2
		c0,0.2,0,0.5,0,0.7c0,1.5,0.1,2.6,0.4,3.3c0.3,0.7,0.8,1,1.5,1c0.6,0,1-0.1,1.3-0.4c0.3-0.3,0.5-0.8,0.7-1.6c0.2-0.9,0.6-1.9,1-2.8
		c0.4-1,0.8-1.8,1.3-2.4c0.4-0.6,0.8-0.9,1.1-0.9c0.2,0,0.3,0.1,0.3,0.4c0,0.3-0.1,1.1-0.2,2.2c-0.2,1.2-0.3,2.2-0.3,2.8
		c0,0.8,0.2,1.4,0.5,2c0.3,0.5,0.8,0.8,1.4,0.8c0.6,0,1-0.1,1.3-0.4c0.3-0.3,0.5-0.8,0.7-1.7c0.3-1,0.6-2,1.1-3
		c0.5-0.9,0.9-1.7,1.4-2.3c0.5-0.6,0.8-0.9,1-0.9c0.2,0,0.3,0.1,0.3,0.4c0,0.4-0.1,1.2-0.4,2.2c-0.3,1.2-0.4,2.1-0.4,2.6
		c0,1,0.2,1.7,0.7,2.2c0.5,0.5,1.2,0.8,2.2,0.8c1.2,0,2.2-0.3,3.2-0.9c0.4-0.2,0.8-0.5,1.1-0.8c0.1,0.3,0.1,0.5,0.2,0.7
		c0.3,0.7,0.8,1,1.5,1c0.6,0,1-0.1,1.3-0.4c0.3-0.3,0.5-0.8,0.7-1.6c0.2-0.9,0.6-1.9,1-2.8c0.4-1,0.8-1.8,1.3-2.4
		c0.4-0.6,0.8-0.9,1.1-0.9c0.2,0,0.3,0.1,0.3,0.4c0,0.3-0.1,1.1-0.2,2.2c-0.2,1.2-0.3,2.2-0.3,2.8c0,0.8,0.2,1.4,0.5,2
		c0.3,0.5,0.8,0.8,1.4,0.8c0.6,0,1-0.1,1.3-0.4c0.3-0.3,0.5-0.8,0.7-1.7c0.3-1,0.6-2,1.1-3c0.5-0.9,0.9-1.7,1.4-2.3
		c0.5-0.6,0.8-0.9,1-0.9c0.2,0,0.3,0.1,0.3,0.4c0,0.4-0.1,1.2-0.4,2.2c-0.3,1.2-0.4,2.1-0.4,2.6c0,1,0.2,1.7,0.7,2.2
		c0.5,0.5,1.2,0.8,2.2,0.8c1.2,0,2.2-0.3,3.2-0.9c0.4-0.3,0.9-0.6,1.3-1c0.1,0.2,0.2,0.4,0.4,0.6c0.6,0.8,1.4,1.2,2.7,1.2
		c1.3,0,2.7-0.7,4.2-2c0.2,0.2,0.3,0.4,0.5,0.6c1.1,1,2.6,1.5,4.6,1.5c1.4,0,2.8-0.3,4.1-1c0.3-0.2,0.6-0.3,0.9-0.5
		c0.3-0.1,0.5-0.2,0.8-0.4c0.1-0.1,0.2-0.2,0.4-0.4c0.4-0.3,0.7-0.6,1-0.9c0.1-0.1,0.2-0.2,0.2-0.3c0.1-0.1,0.2-0.2,0.3-0.3
		c0.6-0.7,1.2-1.5,1.7-2.5c0.3,0.3,0.5,0.6,0.8,1c0.3,0.4,0.5,0.8,0.7,1.1c0.2,0.4,0.3,0.8,0.3,1.3c-0.2,0-0.4,0-0.7-0.1
		c-0.3,0-0.6-0.1-0.9-0.1c-0.7,0-1.2,0.2-1.6,0.5c-0.4,0.3-0.5,0.7-0.5,1.2c0,0.5,0.3,1,0.8,1.4c0.5,0.4,1.3,0.6,2.2,0.6
		c0.8,0,1.6-0.2,2.3-0.6c0.7-0.4,1.2-0.9,1.5-1.6c0.4-0.6,0.5-1.3,0.5-2.1c0-0.6-0.2-1.2-0.5-1.7C120.4,19,119.9,18.4,119.3,17.7z
		 M45.6,21.4c-0.4,0.4-1,0.7-1.6,0.7c-0.5,0-1-0.2-1.4-0.7c-0.4-0.5-0.6-1.2-0.6-2.2c0-1.2,0.2-2.1,0.7-2.8c0.5-0.7,1.1-1,1.9-1h0.1
		c-0.1,0.3-0.1,0.6-0.1,0.8c0,0.7,0.2,1.3,0.5,1.9c0.3,0.6,0.8,1.1,1.3,1.4C46.3,20.3,46,20.9,45.6,21.4z M103.5,19
		c0-1,0.2-1.9,0.7-2.7c0.5-0.7,1.1-1.1,1.8-1.1c0.3,0,0.6,0.1,0.8,0.3c0.2,0.2,0.3,0.5,0.3,0.8c0,0.6-0.3,1.2-1,1.7
		C105.5,18.4,104.6,18.8,103.5,19L103.5,19z"/>
	<path class="st1" d="M78,41.9c-0.1,0-0.3,0-0.4,0.2c-0.5,0.4-1.2,0.9-2.5,0.9c-2,0-3-1.3-3-4c0-2.7,1-4,3-4c1.4,0,2,0.7,2.3,1
		c0.1,0.2,0.3,0.3,0.5,0.3c0.3,0,0.6-0.3,0.6-0.6c0-0.2,0-0.3-0.1-0.4c-0.3-0.5-1.4-1.5-3.3-1.5c-2.8,0-4.4,1.7-4.4,5.3
		c0,3.6,1.6,5.3,4.4,5.3c1.7,0,2.8-0.8,3.2-1.2c0.2-0.2,0.3-0.4,0.3-0.5C78.6,42.2,78.4,41.9,78,41.9z"/>
	<path class="st1" d="M84.6,33.7c-2.8,0-4.4,1.9-4.4,5.3c0,3.7,1.8,5.3,4.6,5.3c1.9,0,3-0.9,3.3-1.2c0.1-0.1,0.2-0.3,0.2-0.5
		c0-0.4-0.3-0.6-0.6-0.6c-0.2,0-0.3,0-0.4,0.1C86.7,42.5,86,43,84.8,43c-2,0-3.2-1.4-3.2-3.6h6.2c0.9,0,0.9-0.8,0.9-1.4
		C88.6,36.5,88,33.7,84.6,33.7z M81.5,38.2c0.1-2,1.2-3.2,3-3.2c2.2,0,2.7,1.6,2.7,3.2H81.5z"/>
	<path class="st1" d="M95,33.7c-1.4,0-2.4,0.7-2.8,1.5v-0.7c0-0.4-0.3-0.7-0.7-0.7s-0.7,0.3-0.7,0.7v8.9c0,0.4,0.3,0.7,0.7,0.7
		s0.7-0.3,0.7-0.7v-5.4c0-1.8,0.7-3.1,2.8-3.1c2.1,0,2.6,1.2,2.6,2.9v5.6c0,0.4,0.3,0.7,0.7,0.7c0.4,0,0.7-0.3,0.7-0.7v-5.9
		C98.9,35.7,98.3,33.7,95,33.7z"/>
	<path class="st1" d="M104.8,35.4c0.4,0,0.6-0.3,0.6-0.7c0-0.4-0.3-0.7-0.6-0.7h-1.4v-2.3c0-0.4-0.3-0.7-0.7-0.7
		c-0.4,0-0.7,0.3-0.7,0.7V34h-0.8c-0.4,0-0.6,0.3-0.6,0.7c0,0.4,0.3,0.7,0.6,0.7h0.8v6.1c0,1.6,0.9,2.8,2.6,2.8
		c0.4,0,0.7-0.3,0.7-0.7c0-0.4-0.3-0.7-0.7-0.7c-0.7,0-1.2-0.5-1.2-1.5v-6.1H104.8z"/>
	<g>
		<path class="st2" d="M111.2,35c-1.9,0-2.9,1.2-3,3.2h5.8C113.9,36.6,113.4,35,111.2,35z"/>
		<path class="st1" d="M115.3,38c0-1.5-0.7-4.3-4.1-4.3c-2.8,0-4.4,1.9-4.4,5.3c0,3.7,1.8,5.3,4.6,5.3c1.9,0,3-0.9,3.3-1.2
			c0.1-0.1,0.2-0.3,0.2-0.5c0-0.4-0.3-0.6-0.6-0.6c-0.2,0-0.3,0-0.4,0.1c-0.6,0.5-1.3,0.9-2.6,0.9c-2,0-3.2-1.4-3.2-3.6h6.2
			C115.3,39.4,115.3,38.6,115.3,38z M108.2,38.2c0.1-2,1.2-3.2,3-3.2c2.2,0,2.7,1.6,2.7,3.2H108.2z"/>
	</g>
	<path class="st1" d="M121.8,33.8c-1.5,0-2.5,0.7-3,1.8v-1c0-0.4-0.3-0.7-0.7-0.7c-0.4,0-0.7,0.3-0.7,0.7v8.9c0,0.4,0.3,0.7,0.7,0.7
		c0.4,0,0.7-0.3,0.7-0.7v-4.9c0-2,1-3.4,3-3.4c0.4,0,0.7-0.3,0.7-0.7C122.4,34.1,122.1,33.8,121.8,33.8z"/>
	<path class="st3" d="M45.1,18c-0.3-0.6-0.5-1.2-0.5-1.9c0-0.3,0-0.6,0.1-0.8h-0.1c-0.8,0-1.4,0.3-1.9,1C42.3,17,42,17.9,42,19.2
		c0,0.9,0.2,1.7,0.6,2.2c0.4,0.5,0.9,0.7,1.4,0.7c0.6,0,1.1-0.2,1.6-0.7c0.4-0.4,0.7-1.1,0.9-1.9C45.9,19.1,45.5,18.6,45.1,18z"/>
	<path class="st3" d="M107.1,16.3c0-0.3-0.1-0.6-0.3-0.8c-0.2-0.2-0.5-0.3-0.8-0.3c-0.7,0-1.3,0.4-1.8,1.1c-0.5,0.7-0.7,1.6-0.7,2.7
		V19c1.1-0.2,2-0.6,2.6-1.1C106.8,17.5,107.1,16.9,107.1,16.3z"/>
	<path class="st3" d="M123.1,18c-0.4-0.6-0.9-1.3-1.6-2.2c0,0,0,0-0.1-0.1c-0.1-0.2-0.3-0.3-0.3-0.4c0.2-0.4,0.4-0.7,0.5-1.1
		c0.2-0.5,0.3-1,0.3-1.4c0-1.3-0.8-2.5-2-3c-0.6-0.2-1.2-0.3-2.2-0.3c-2.2,0-3.9,1-4.7,2.7c-0.2,0.4-0.4,0.8-0.5,1.2
		c-0.3-0.8-0.8-1.4-1.4-2c-0.8-0.7-2.3-1.6-4.5-1.6c-1.7,0-3.3,0.4-4.8,1.3c-0.4,0.2-0.7,0.5-1.1,0.8c-0.2-0.4-0.5-0.8-0.8-1.1
		c1.5-1.3,2.9-3.1,2.3-5.3c-0.4-1.7-2-2.8-3.7-2.8c-0.1,0-0.3,0-0.4,0c-0.4,0-0.8,0.2-1.2,0.3C96.4,3,96,2.9,95.6,2.9
		c-0.1,0-0.3,0-0.4,0l-0.1,0c-1.8,0-3.3,1.2-3.7,2.8c-0.6,2.1,0.8,3.9,2.2,5.2c-0.2,0.2-0.4,0.4-0.6,0.6c-0.8-1-2.1-1.5-3.6-1.5
		c-1.3,0-2.6,0.4-3.9,1.3c0,0,0,0,0,0c-0.8-0.8-1.9-1.2-3.4-1.2c-1.1,0-2.1,0.3-3.2,0.9c-0.2-0.2-0.4-0.3-0.6-0.4
		C77.7,10,77,9.9,76.2,9.9c-1.2,0-2.2,0.2-3.1,0.7c-0.4,0.2-0.7,0.5-1,0.8c-0.8-1-2.1-1.6-3.7-1.6c-1.3,0-2.6,0.4-3.9,1.3
		c0,0,0,0,0,0c-0.8-0.8-1.9-1.2-3.4-1.2c-1.1,0-2.1,0.3-3.2,0.9c-0.2-0.2-0.4-0.3-0.6-0.4c-0.6-0.3-1.3-0.5-2.2-0.5
		c-1.2,0-2.2,0.2-3.1,0.7c-0.7,0.4-1.3,1-1.7,1.7c-0.1-0.1-0.2-0.2-0.3-0.3c-1.4-1.4-3.3-2.2-5.5-2.2c-1.7,0-3.2,0.4-4.6,1.3
		c-0.9,0.6-1.7,1.3-2.4,2.1l0.6-2.6c0.3-1.3,0.4-2.4,0.4-3.4c0-2.1-0.6-3.8-1.8-5.1C36.1,1.1,34.6,0,31.9,0c-2.3,0-4.3,0.7-6.1,2.2
		c0,0-0.1,0.1-0.1,0.1c0-0.1-0.1-0.1-0.1-0.2c-1.2-1.4-3-2.1-5-2.1c-2.2,0-4.2,0.7-6,2.1c-0.1-0.1-0.2-0.2-0.3-0.3
		C13.6,1,12.2,0,9.9,0C8.3,0,6.7,0.4,5.2,1.3C3.8,2.1,2.5,3.2,1.4,4.7c-0.4,0.6-0.8,1.1-1,1.6C0.1,6.9,0,7.5,0,8.2
		c0,1,0.3,1.8,1,2.6c0.7,0.9,1.7,1.3,2.8,1.3c1,0,1.9-0.4,2.7-1.1c-0.3,1.7-0.6,3.6-1,5.7c-0.3,1.5-0.5,2.7-0.6,3.6
		c-0.1,1-0.2,1.8-0.2,2.5c0,1.6,0.4,2.8,1.3,3.6c0.8,0.8,2,1.2,3.4,1.2c2.1,0,3.2-0.9,3.7-1.6c0.5-0.7,0.9-1.7,1.1-3.1
		c0.6-3.9,1.3-7.1,2.2-9.3c0.7-1.9,1.3-2.9,1.7-3.5c-0.2,1.2-0.5,2.9-1,5.4c-0.3,1.6-0.6,2.9-0.8,4.1c-0.2,1.3-0.4,2.4-0.4,3.3
		c0,1.5,0.4,2.8,1.3,3.6c0.8,0.8,1.9,1.2,3.3,1.2c1.9,0,3-0.8,3.6-1.4c0.8-0.8,1.2-2,1.4-3.6c0.5-3.6,1.2-6.6,2-8.8
		c0.3-0.8,0.6-1.5,0.8-2L27.6,15c-0.5,2.2-0.7,3.8-0.7,5c0,2.2,0.8,4.1,2.2,5.5c1.4,1.4,3.3,2.1,5.7,2.1c1.5,0,2.9-0.4,4.3-1.1
		c0.1-0.1,0.2-0.1,0.3-0.2c0,0,0.1,0,0.1,0.1c1.2,0.8,2.7,1.2,4.4,1.2c2,0,3.8-0.7,5.4-1.9c0.2-0.2,0.4-0.3,0.5-0.5
		c0.8,1.5,2.2,2.4,3.9,2.4c1.7,0,2.7-0.7,3.3-1.3c0.1-0.1,0.2-0.2,0.3-0.3c0.8,1,2,1.6,3.4,1.6c1.7,0,2.7-0.7,3.3-1.2
		c0.1-0.1,0.3-0.3,0.4-0.5c0,0,0.1,0.1,0.1,0.1c0.7,0.7,2,1.6,4.2,1.6c1.3,0,2.5-0.2,3.6-0.7c0.7,0.5,1.5,0.7,2.5,0.7
		c1.7,0,2.7-0.7,3.3-1.3c0.1-0.1,0.2-0.2,0.3-0.3c0.8,1,2,1.6,3.4,1.6c1.7,0,2.7-0.7,3.3-1.2c0.1-0.1,0.3-0.3,0.4-0.5
		c0,0,0.1,0.1,0.1,0.1c0.7,0.7,2,1.6,4.2,1.6c1.5,0,2.8-0.3,4-0.9c0.8,0.5,2,0.9,3.5,0.9c1.4,0,2.7-0.4,4.1-1.3
		c1.4,0.8,3.2,1.3,5.2,1.3c1.9,0,3.7-0.4,5.3-1.3c0.1-0.1,0.2-0.1,0.4-0.2c0.2,0.3,0.5,0.6,0.8,0.8c1,0.8,2.4,1.2,4,1.2
		c1.4,0,2.6-0.3,3.7-1c1.1-0.6,1.9-1.5,2.5-2.6c0.6-1.1,0.9-2.2,0.9-3.4C124,20,123.7,19,123.1,18C123.1,18,123.1,18,123.1,18z
		 M93.1,7.1C93.1,7.1,93.1,7.1,93.1,7.1c0-0.1,0-0.1,0-0.2c0,0,0,0,0,0c0-0.1,0-0.1,0-0.2c0,0,0,0,0,0c0-0.1,0-0.1,0-0.2
		c0,0,0,0,0,0c0-0.1,0-0.1,0-0.2c0,0,0,0,0,0c0-0.1,0-0.1,0-0.1c0,0,0,0,0,0c0.1-0.2,0.2-0.4,0.3-0.6c0,0,0,0,0,0c0,0,0-0.1,0.1-0.1
		c0,0,0,0,0-0.1c0,0,0,0,0.1-0.1c0,0,0,0,0.1-0.1c0,0,0,0,0.1-0.1c0,0,0,0,0.1-0.1c0,0,0,0,0.1-0.1C94,5,94,5,94,5c0,0,0,0,0.1,0
		c0,0,0.1,0,0.1,0c0,0,0,0,0.1,0c0,0,0.1,0,0.1,0c0,0,0,0,0.1,0c0,0,0.1,0,0.1,0c0,0,0,0,0.1,0c0.1,0,0.1,0,0.2,0c0,0,0,0,0,0
		c0.1,0,0.1,0,0.2,0c0,0,0,0,0.1,0c0,0,0.1,0,0.1,0c0,0,0,0,0,0c0.1,0,0.1,0,0.2,0c0.4,0,0.7,0.2,0.9,0.3c0.1,0.1,0.2,0.2,0.3,0.3
		c0.1,0.1,0.1,0.2,0.2,0.3c0.2-0.4,0.6-0.8,1.4-0.9c0.1,0,0.1,0,0.2,0c0,0,0,0,0,0c0,0,0.1,0,0.1,0c0,0,0,0,0,0c0.1,0,0.1,0,0.2,0
		c0,0,0,0,0.1,0c0,0,0.1,0,0.1,0c0,0,0,0,0.1,0c0,0,0.1,0,0.1,0c0,0,0.1,0,0.1,0c0,0,0.1,0,0.1,0c0,0,0.1,0,0.1,0c0,0,0.1,0,0.1,0
		c0,0,0.1,0,0.1,0c0,0,0,0,0.1,0c0,0,0.1,0,0.1,0.1c0,0,0,0,0.1,0c0,0,0.1,0,0.1,0.1c0,0,0,0,0,0c0.1,0.1,0.2,0.2,0.3,0.3
		c0,0,0,0,0,0c0,0,0,0.1,0.1,0.1c0,0,0,0,0,0c0,0,0,0.1,0.1,0.1c0,0,0,0,0,0c0,0,0,0.1,0,0.1c0,0,0,0,0,0c0,0.1,0,0.1,0,0.2
		c0,0,0,0,0,0c0,0.1,0,0.3,0,0.4c0,0,0,0,0,0c0,0.1,0,0.3-0.1,0.4c0,0,0,0,0,0c0,0,0,0,0,0c0,0.1,0,0.2-0.1,0.3
		c0,0.1-0.1,0.2-0.1,0.3c0,0,0,0,0,0C100.1,7.9,100,8,100,8.1c0,0,0,0,0,0c-0.1,0.1-0.1,0.2-0.2,0.3c0,0,0,0,0,0.1
		c-0.1,0.1-0.2,0.2-0.3,0.3c0,0,0,0,0,0C99.2,9,99.1,9.1,99,9.2c0,0,0,0,0,0c0,0,0,0,0,0c-0.1,0.1-0.2,0.2-0.3,0.2c0,0,0,0,0,0
		c-0.1,0.1-0.2,0.2-0.3,0.2c0,0,0,0,0,0C98.3,9.8,98.1,9.9,98,10c0,0,0,0,0,0c0,0,0,0,0,0c-0.4,0.3-0.8,0.5-1.2,0.8c0,0,0,0,0,0
		c-0.5-0.3-0.9-0.5-1.3-0.8c0,0,0,0,0,0c0,0,0,0,0,0c-0.1-0.1-0.2-0.2-0.3-0.2c0,0,0,0,0,0c-0.1-0.1-0.2-0.2-0.3-0.2c0,0,0,0,0,0
		c-0.1-0.1-0.2-0.1-0.2-0.2c0,0,0,0,0,0C94.4,9.1,94.3,9,94.3,9c0,0,0,0,0,0c-0.1-0.1-0.1-0.2-0.2-0.2c0,0,0,0,0,0
		c-0.1-0.1-0.2-0.2-0.3-0.3c-0.2-0.2-0.3-0.5-0.4-0.7c0,0,0-0.1-0.1-0.1c0-0.1,0-0.1-0.1-0.2C93.2,7.3,93.2,7.2,93.1,7.1z
		 M120.6,23.2c-0.4,0.6-0.9,1.2-1.5,1.6c-0.7,0.4-1.4,0.6-2.3,0.6c-1,0-1.7-0.2-2.2-0.6c-0.5-0.4-0.8-0.9-0.8-1.4
		c0-0.4,0.2-0.8,0.5-1.2c0.4-0.3,0.9-0.5,1.6-0.5c0.2,0,0.5,0,0.9,0.1c0.3,0,0.6,0.1,0.7,0.1c0-0.4-0.1-0.9-0.3-1.3
		c-0.2-0.4-0.4-0.8-0.7-1.1c-0.3-0.4-0.6-0.7-0.8-1c-0.6,1-1.2,1.9-1.7,2.5c-0.1,0.1-0.2,0.2-0.3,0.3c-0.1,0.1-0.2,0.2-0.2,0.3
		c-0.3,0.3-0.6,0.6-1,0.9c-0.1,0.1-0.2,0.2-0.4,0.4c-0.2,0.2-0.5,0.4-0.8,0.4c-0.3,0.2-0.6,0.3-0.9,0.5c-1.3,0.7-2.6,1-4.1,1
		c-2,0-3.5-0.5-4.6-1.5c-0.2-0.2-0.4-0.4-0.5-0.6c-1.5,1.4-2.8,2-4.2,2c-1.2,0-2.1-0.4-2.7-1.2c-0.1-0.2-0.3-0.4-0.4-0.6
		c-0.4,0.4-0.9,0.7-1.3,1c-0.9,0.6-2,0.9-3.2,0.9c-1,0-1.7-0.3-2.2-0.8c-0.5-0.5-0.7-1.2-0.7-2.2c0-0.5,0.1-1.3,0.4-2.6
		c0.2-1.1,0.4-1.8,0.4-2.2c0-0.3-0.1-0.4-0.3-0.4c-0.2,0-0.6,0.3-1,0.9c-0.5,0.6-0.9,1.3-1.4,2.3c-0.5,0.9-0.8,1.9-1.1,3
		c-0.2,0.8-0.4,1.4-0.7,1.7c-0.3,0.3-0.7,0.4-1.3,0.4c-0.6,0-1.1-0.3-1.4-0.8c-0.3-0.5-0.5-1.2-0.5-2c0-0.7,0.1-1.6,0.3-2.8
		c0.2-1.1,0.2-1.8,0.2-2.2c0-0.3-0.1-0.4-0.3-0.4c-0.3,0-0.6,0.3-1.1,0.9c-0.4,0.6-0.9,1.4-1.3,2.4c-0.4,1-0.7,1.9-1,2.8
		c-0.2,0.8-0.4,1.4-0.7,1.6c-0.3,0.3-0.7,0.4-1.3,0.4c-0.7,0-1.2-0.3-1.5-1c-0.1-0.2-0.2-0.4-0.2-0.7c-0.4,0.3-0.8,0.6-1.1,0.8
		c-0.9,0.6-2,0.9-3.2,0.9c-1,0-1.7-0.3-2.2-0.8c-0.5-0.5-0.7-1.2-0.7-2.2c0-0.5,0.1-1.3,0.4-2.6c0.2-1.1,0.4-1.8,0.4-2.2
		c0-0.3-0.1-0.4-0.3-0.4c-0.2,0-0.6,0.3-1,0.9c-0.5,0.6-0.9,1.3-1.4,2.3c-0.5,0.9-0.8,1.9-1.1,3c-0.2,0.8-0.4,1.4-0.7,1.7
		c-0.3,0.3-0.7,0.4-1.3,0.4c-0.6,0-1.1-0.3-1.4-0.8c-0.3-0.5-0.5-1.2-0.5-2c0-0.7,0.1-1.6,0.3-2.8c0.2-1.1,0.2-1.8,0.2-2.2
		c0-0.3-0.1-0.4-0.3-0.4c-0.3,0-0.6,0.3-1.1,0.9c-0.4,0.6-0.9,1.4-1.3,2.4c-0.4,1-0.7,1.9-1,2.8c-0.2,0.8-0.4,1.4-0.7,1.6
		c-0.3,0.3-0.7,0.4-1.3,0.4c-0.7,0-1.2-0.3-1.5-1c-0.3-0.7-0.4-1.8-0.4-3.3c0-0.2,0-0.5,0-0.7C51,19.9,50.3,20,49.5,20
		c-0.4,1.4-1.1,2.6-2.1,3.5c-1.1,0.9-2.2,1.3-3.6,1.3c-1.1,0-2.1-0.2-2.9-0.7c-0.6-0.3-1-0.8-1.4-1.3c-0.6,0.5-1.2,1-1.8,1.3
		c-1,0.5-2,0.7-3,0.7c-1.6,0-2.8-0.4-3.8-1.3c-0.9-0.9-1.4-2-1.4-3.5c0-1,0.2-2.5,0.7-4.4l1.1-4.7c0-0.2,0.1-0.4,0.2-0.8
		c0.1-0.4,0.2-0.8,0.2-1.1c0.1-0.4,0.1-0.7,0.1-1c0-0.6-0.1-1.1-0.4-1.4c-0.3-0.3-0.6-0.5-1.1-0.5c-0.9,0-1.8,0.5-2.8,1.6
		c-1,1-1.9,2.8-2.8,5.2c-0.9,2.4-1.6,5.5-2.1,9.4c-0.1,1-0.4,1.7-0.7,2.1c-0.3,0.4-0.9,0.5-1.6,0.5c-0.6,0-1.1-0.1-1.4-0.4
		c-0.3-0.3-0.4-0.8-0.4-1.5c0-0.7,0.1-1.6,0.3-2.8c0.2-1.1,0.5-2.5,0.8-4c0.9-4.2,1.3-6.9,1.3-8.1c0-0.7-0.1-1.1-0.4-1.4
		c-0.3-0.3-0.7-0.5-1.2-0.5c-0.9,0-1.9,0.5-2.8,1.4c-1,1-1.9,2.7-2.9,5.1c-0.9,2.4-1.7,5.7-2.3,9.9c-0.1,0.9-0.3,1.5-0.6,1.8
		c-0.3,0.3-0.7,0.5-1.5,0.5c-0.7,0-1.2-0.1-1.5-0.4c-0.3-0.3-0.5-0.8-0.5-1.6c0-0.5,0.1-1.2,0.2-2.1c0.1-0.8,0.3-2,0.6-3.4
		c0.5-2.7,0.9-5,1.2-7C9.5,9,9.6,8,9.6,7.1C9.6,6.4,9.3,6,8.7,6C8.2,6,7.6,6.2,6.9,6.7C6.2,7.1,5.5,7.9,4.6,8.8
		C4.4,9.2,4.1,9.3,3.8,9.3C3.5,9.3,3.3,9.2,3.1,9C2.9,8.8,2.8,8.5,2.8,8.2c0-0.3,0.1-0.6,0.2-0.8c0.1-0.3,0.3-0.6,0.6-1
		c0.9-1.2,1.9-2,3-2.7c1.1-0.6,2.2-0.9,3.3-0.9c1,0,1.8,0.3,2.4,0.9c0.6,0.6,0.8,1.5,0.8,2.6c0,0.5,0,1-0.1,1.6
		c-0.1,0.6-0.2,1.1-0.3,1.5c-0.1,0.4-0.1,0.7-0.2,0.8c1.1-2.8,2.3-4.8,3.6-5.9c1.3-1.1,2.8-1.7,4.4-1.7c1.2,0,2.2,0.4,2.9,1.2
		c0.7,0.8,1.1,1.9,1.1,3.4c0,0.6-0.1,1.3-0.3,2.1c0.9-2.4,2-4.1,3.3-5.1c1.3-1,2.7-1.5,4.3-1.5c1.3,0,2.3,0.4,3,1.2
		C35.6,4.7,36,5.8,36,7.2c0,0.8-0.1,1.7-0.4,2.8l-1.7,7.4c-0.2,0.9-0.3,1.6-0.3,2.2c0,0.7,0.2,1.3,0.5,1.6c0.4,0.4,0.9,0.5,1.5,0.5
		c0.6,0,1.2-0.2,1.8-0.6c0.3-0.2,0.7-0.5,1-0.8c0-0.3-0.1-0.6-0.1-1c0-1.3,0.3-2.5,0.8-3.5c0.5-1,1.3-1.8,2.3-2.4
		c1-0.6,2-0.9,3.2-0.9c1.4,0,2.6,0.5,3.5,1.4c0.9,0.9,1.4,2,1.5,3.3c0.7,0,1.4-0.1,2.2-0.3c0.2-1,0.4-2,0.7-2.9
		c0.2-0.5,0.4-0.9,0.8-1.1c0.4-0.2,0.9-0.3,1.6-0.3c0.4,0,0.6,0,0.8,0.1c0.2,0.1,0.2,0.2,0.2,0.5c0,0.3-0.1,0.9-0.4,1.9
		c-0.2,0.7-0.3,1.3-0.5,1.8c-0.1,0.5-0.2,1.1-0.3,1.9c0.5-1.3,1.1-2.5,1.8-3.4c0.7-0.9,1.4-1.6,2.2-2.1c0.7-0.5,1.4-0.7,2.1-0.7
		c0.7,0,1.1,0.1,1.4,0.4c0.3,0.3,0.4,0.7,0.4,1.3c0,0.6-0.2,1.5-0.5,3c-0.2,0.6-0.3,1.1-0.3,1.4c0.9-2.1,2-3.7,3.1-4.6
		c1.1-1,2.2-1.4,3.2-1.4c1.2,0,1.8,0.6,1.8,1.7c0,0.7-0.2,1.9-0.6,3.6c-0.4,1.5-0.5,2.5-0.5,3c0,0.7,0.3,1,0.8,1
		c0.4,0,0.8-0.2,1.3-0.6c0.4-0.3,0.8-0.8,1.4-1.3c0-2.1,0.4-4,1-5.9c0.2-0.5,0.4-0.9,0.8-1.1c0.4-0.2,0.9-0.3,1.6-0.3
		c0.4,0,0.6,0,0.8,0.1c0.2,0.1,0.2,0.2,0.2,0.5c0,0.3-0.1,0.9-0.4,1.9c-0.2,0.7-0.3,1.3-0.5,1.8c-0.1,0.5-0.2,1.1-0.3,1.9
		c0.5-1.3,1.1-2.5,1.8-3.4c0.7-0.9,1.4-1.6,2.2-2.1c0.7-0.5,1.4-0.7,2.1-0.7c0.7,0,1.1,0.1,1.4,0.4c0.3,0.3,0.4,0.7,0.4,1.3
		c0,0.6-0.2,1.5-0.5,3c-0.2,0.6-0.3,1.1-0.3,1.4c0.9-2.1,2-3.7,3.1-4.6c1.1-1,2.2-1.4,3.2-1.4c1.2,0,1.8,0.6,1.8,1.7
		c0,0.7-0.2,1.9-0.6,3.6c-0.4,1.5-0.5,2.5-0.5,3c0,0.7,0.3,1,0.8,1c0.4,0,0.8-0.2,1.3-0.6c0.4-0.3,0.8-0.7,1.3-1.3
		c0-0.7,0.1-1.6,0.3-2.6c0.2-1.2,0.5-2.3,0.8-3.4c0.2-0.6,0.4-0.9,0.7-1.1c0.3-0.2,0.7-0.3,1.4-0.3c1,0,1.4,0.3,1.4,0.9
		c0,0.4-0.2,1.4-0.5,3c-0.5,1.9-0.7,3.2-0.7,3.8c0,0.5,0.1,0.9,0.2,1.2c0.2,0.3,0.4,0.4,0.8,0.4c0.3,0,0.8-0.2,1.3-0.6
		c0.3-0.2,0.6-0.5,1-0.9c-0.1-0.4-0.1-0.7-0.1-1.1c0-1.2,0.3-2.3,0.8-3.3c0.5-1,1.3-1.8,2.3-2.4c1-0.6,2.1-0.9,3.3-0.9
		c1.1,0,2,0.3,2.6,0.9c0.7,0.6,1,1.4,1,2.4c0,1.2-0.5,2.2-1.4,3.1c-0.9,0.9-2.5,1.5-4.7,2c0.5,0.8,1.4,1.2,2.7,1.2
		c0.8,0,1.8-0.3,2.9-0.8c0.7-0.3,1.3-0.8,1.9-1.3c0.7-0.8,1.2-1.5,1.6-2.1c0.3-0.5,0.7-1.1,1-1.8c0.3-0.7,0.8-1.6,1.4-2.8
		c0.4-0.8,1.1-1.1,2.2-1.1c0.5,0,0.9,0,1.1,0.1c0.2,0.1,0.3,0.2,0.3,0.4c0,0.1,0,0.3-0.1,0.5c-0.1,0.2-0.2,0.4-0.3,0.7
		c-0.3,0.6-0.5,1.1-0.5,1.6c0,0.3,0.1,0.5,0.3,0.9c0.2,0.3,0.5,0.7,0.9,1.2c0.6,0.7,1.1,1.3,1.4,1.8c0.3,0.5,0.5,1.1,0.5,1.7
		C121.2,21.9,121,22.6,120.6,23.2z"/>
	<path class="st1" d="M93.3,7.7c0.1,0.1,0.1,0.3,0.2,0.4c0.1,0.1,0.1,0.2,0.2,0.3c0.1,0.1,0.2,0.2,0.3,0.3c0,0,0,0,0,0
		c0.1,0.1,0.1,0.2,0.2,0.2c0,0,0,0,0,0c0.1,0.1,0.1,0.1,0.2,0.2c0,0,0,0,0,0c0.1,0.1,0.2,0.1,0.2,0.2c0,0,0,0,0,0
		c0.1,0.1,0.2,0.2,0.3,0.2c0,0,0,0,0,0c0.1,0.1,0.2,0.2,0.3,0.2c0,0,0,0,0,0c0.4,0.3,0.8,0.5,1.3,0.8c0,0,0,0,0,0
		c0.5-0.3,0.9-0.5,1.2-0.8c0,0,0,0,0,0c0.1-0.1,0.2-0.2,0.3-0.2c0,0,0,0,0,0c0.1-0.1,0.2-0.2,0.3-0.2c0,0,0,0,0,0
		c0.1-0.1,0.2-0.2,0.3-0.2c0,0,0,0,0,0c0.1-0.1,0.3-0.2,0.4-0.4c0,0,0,0,0,0c0.1-0.1,0.2-0.2,0.3-0.3c0,0,0,0,0-0.1
		c0.1-0.1,0.2-0.2,0.2-0.3c0,0,0,0,0,0c0.1-0.1,0.1-0.2,0.2-0.3c0,0,0,0,0,0c0.1-0.1,0.1-0.2,0.1-0.3c0-0.1,0.1-0.2,0.1-0.3
		c0,0,0,0,0,0c0-0.1,0.1-0.3,0.1-0.4c0,0,0,0,0,0c0-0.1,0-0.3,0-0.4c0,0,0,0,0,0c0-0.1,0-0.1,0-0.2c0,0,0,0,0,0c0,0,0-0.1,0-0.1
		c0,0,0,0,0,0c0,0,0-0.1-0.1-0.1c0,0,0,0,0,0c0,0,0-0.1-0.1-0.1c0,0,0,0,0,0c-0.1-0.1-0.2-0.2-0.3-0.3c0,0,0,0,0,0
		c0,0-0.1,0-0.1-0.1c0,0,0,0-0.1,0c0,0-0.1,0-0.1-0.1c0,0,0,0-0.1,0c0,0-0.1,0-0.1,0c0,0-0.1,0-0.1,0c0,0-0.1,0-0.1,0
		c0,0-0.1,0-0.1,0c0,0-0.1,0-0.1,0c0,0-0.1,0-0.1,0c0,0,0,0-0.1,0c0,0-0.1,0-0.1,0c0,0,0,0-0.1,0c-0.1,0-0.1,0-0.2,0c0,0,0,0,0,0
		c0,0-0.1,0-0.1,0c-0.1,0-0.1,0-0.2,0c-0.8,0.1-1.2,0.5-1.4,0.9c0-0.1-0.1-0.2-0.2-0.3c-0.1-0.1-0.2-0.2-0.3-0.3
		c-0.2-0.2-0.5-0.3-0.9-0.3c-0.1,0-0.1,0-0.2,0c0,0-0.1,0-0.1,0c0,0,0,0-0.1,0c-0.1,0-0.1,0-0.2,0c0,0,0,0,0,0c-0.1,0-0.1,0-0.2,0
		c0,0,0,0-0.1,0c0,0-0.1,0-0.1,0c0,0,0,0-0.1,0c0,0-0.1,0-0.1,0c0,0,0,0-0.1,0c0,0-0.1,0-0.1,0c0,0,0,0-0.1,0C94,5,94,5,93.9,5
		c0,0,0,0-0.1,0.1c0,0,0,0-0.1,0.1c0,0,0,0-0.1,0.1c0,0,0,0-0.1,0.1c0,0,0,0-0.1,0.1c0,0,0,0,0,0.1c0,0,0,0.1-0.1,0.1c0,0,0,0,0,0
		c-0.1,0.2-0.2,0.4-0.3,0.6c0,0,0,0,0,0c0,0,0,0.1,0,0.1c0,0,0,0,0,0c0,0,0,0.1,0,0.2c0,0,0,0,0,0c0,0.1,0,0.1,0,0.2c0,0,0,0,0,0
		c0,0.1,0,0.1,0,0.2c0,0,0,0,0,0c0,0.1,0,0.1,0,0.2c0,0,0,0,0,0c0,0.1,0.1,0.2,0.1,0.3c0,0.1,0,0.1,0.1,0.2
		C93.3,7.6,93.3,7.6,93.3,7.7z"/>
</g>
</svg>
