<?xml version="1.0" encoding="utf-8"?>
<!-- Generator: Adobe Illustrator 23.0.1, SVG Export Plug-In . SVG Version: 6.00 Build 0)  -->
<svg version="1.1" id="Layer_1" xmlns="http://www.w3.org/2000/svg" xmlns:xlink="http://www.w3.org/1999/xlink" x="0px" y="0px"
	 viewBox="0 0 60 60.9" style="enable-background:new 0 0 60 60.9;" xml:space="preserve">
<style type="text/css">
	.st0{fill:#8C97CB;}
	.st1{fill:#FFFFFF;}
	.st2{fill:#E72D8E;}
</style>
<title>Asset 48</title>
<g>
	<g>
	</g>
	<g>
		<path class="st0" d="M48.1,35.1c-0.7-1.1-1.9-1.7-3.2-1.7c-1.2,0-2.3,0.5-3.1,1.4c-0.5,0.6-1,1-1.3,1.2c0-0.2,0.1-0.4,0.1-0.6
			l1.9-8.2c0.3-1.4,0.5-2.7,0.5-3.7c0-2.3-0.7-4.2-2-5.7c-1-1-2.7-2.3-5.6-2.3c-2.5,0-4.8,0.8-6.8,2.4c-0.1,0-0.1,0.1-0.2,0.1
			c-0.1-0.1-0.1-0.1-0.2-0.2c-1.4-1.5-3.3-2.3-5.5-2.3c-2.4,0-4.6,0.8-6.6,2.4c-0.1-0.1-0.2-0.3-0.3-0.4c-0.8-0.9-2.4-2-4.9-2
			c-1.8,0-3.5,0.5-5.2,1.4c-1.6,0.9-3,2.2-4.3,3.8c-0.5,0.6-0.8,1.2-1.1,1.7C0.2,23.1,0,23.8,0,24.6c0,1.1,0.4,2,1.1,2.9
			c0.8,0.9,1.9,1.5,3.1,1.5c1.1,0,2.2-0.5,3-1.3c-0.3,1.9-0.7,4.1-1.1,6.5c-0.3,1.7-0.6,3-0.7,4c-0.2,1.1-0.2,2-0.2,2.7
			c0,1.7,0.5,3.1,1.5,4c0.9,0.9,2.2,1.3,3.8,1.3c2.3,0,3.5-1,4.1-1.8c0.6-0.8,1-1.9,1.2-3.4c0.7-4.4,1.5-7.9,2.4-10.3
			c0.8-2.2,1.5-3.4,2-4.1c-0.2,1.3-0.5,3.2-1.2,6.2c-0.4,1.7-0.7,3.3-0.9,4.6c-0.3,1.5-0.4,2.7-0.4,3.6c0,1.7,0.5,3,1.4,3.9
			c0.9,0.9,2.1,1.3,3.7,1.3c2.1,0,3.3-0.8,4-1.6c0.8-0.9,1.3-2.2,1.6-4c0.6-4.1,1.3-7.4,2.2-9.8c0.4-1,0.7-1.9,1.1-2.5l-0.9,3.9
			c-0.6,2.4-0.8,4.2-0.8,5.6c0,2.4,0.8,4.6,2.4,6.1c1.6,1.5,3.7,2.3,6.3,2.3c1.7,0,3.3-0.4,4.8-1.2c1.4-0.7,2.8-1.8,4.1-3.3
			c0.6-0.7,1.4-1.9,1.4-3.8C48.8,36.7,48.6,35.8,48.1,35.1z M2.7,23.4C2.8,23.4,2.8,23.4,2.7,23.4C2.8,23.4,2.8,23.4,2.7,23.4z
			 M45.2,39.6c-1.1,1.2-2.2,2.1-3.2,2.6c-1.1,0.6-2.2,0.8-3.4,0.8c-1.8,0-3.2-0.5-4.2-1.5c-1-1-1.5-2.3-1.5-3.9
			c0-1.1,0.3-2.8,0.8-4.9l1.3-5.3c0-0.2,0.1-0.5,0.2-0.9c0.1-0.4,0.2-0.9,0.3-1.2c0.1-0.4,0.1-0.8,0.1-1.2c0-0.7-0.1-1.2-0.4-1.5
			c-0.3-0.3-0.7-0.5-1.2-0.5c-1,0-2,0.6-3.1,1.7c-1.1,1.2-2.1,3.1-3.1,5.8c-1,2.7-1.8,6.2-2.4,10.5c-0.1,1.1-0.4,1.9-0.8,2.3
			c-0.4,0.4-1,0.6-1.8,0.6c-0.7,0-1.2-0.2-1.6-0.5c-0.3-0.3-0.5-0.9-0.5-1.7c0-0.8,0.1-1.8,0.3-3.1c0.2-1.3,0.5-2.8,0.9-4.5
			c1-4.6,1.4-7.6,1.4-9c0-0.7-0.2-1.3-0.5-1.6s-0.8-0.5-1.4-0.5c-1,0-2.1,0.5-3.2,1.6c-1.1,1.1-2.1,2.9-3.2,5.7
			c-1,2.7-1.9,6.4-2.6,11c-0.1,1-0.4,1.7-0.6,2c-0.3,0.4-0.8,0.6-1.6,0.6c-0.8,0-1.3-0.2-1.7-0.5c-0.3-0.3-0.5-0.9-0.5-1.8
			c0-0.6,0.1-1.4,0.2-2.3c0.1-0.9,0.4-2.2,0.7-3.8c0.5-3,1-5.6,1.3-7.8c0.2-1.4,0.3-2.5,0.3-3.4c0-0.9-0.3-1.3-1-1.3
			c-0.5,0-1.2,0.3-2,0.8c-0.8,0.5-1.6,1.3-2.5,2.4c-0.3,0.4-0.6,0.5-1,0.5c-0.3,0-0.5-0.1-0.8-0.4c-0.2-0.3-0.3-0.5-0.3-0.9
			c0-0.3,0.1-0.6,0.2-0.9c0.1-0.3,0.4-0.7,0.7-1.1c1-1.3,2.1-2.3,3.4-3c1.2-0.7,2.5-1,3.7-1c1.1,0,2,0.3,2.6,1
			c0.6,0.7,0.9,1.6,0.9,2.9c0,0.5-0.1,1.1-0.2,1.8c-0.1,0.7-0.2,1.3-0.3,1.7c-0.1,0.4-0.1,0.7-0.2,0.9c1.2-3.1,2.5-5.3,4-6.5
			c1.5-1.2,3.1-1.9,4.9-1.9c1.4,0,2.4,0.4,3.2,1.3c0.8,0.9,1.2,2.1,1.2,3.7c0,0.6-0.1,1.4-0.3,2.4c1-2.6,2.3-4.5,3.7-5.7
			c1.4-1.1,3-1.7,4.8-1.7c1.5,0,2.6,0.4,3.4,1.3c0.8,0.9,1.2,2.1,1.2,3.6c0,0.8-0.1,1.9-0.4,3.1l-1.9,8.2c-0.2,1-0.3,1.8-0.3,2.5
			c0,0.8,0.2,1.4,0.6,1.8c0.4,0.4,1,0.6,1.7,0.6c0.7,0,1.4-0.2,2-0.6c0.7-0.4,1.4-1.1,2.3-2.1c0.3-0.3,0.5-0.4,0.8-0.4
			c0.3,0,0.5,0.1,0.6,0.3c0.2,0.2,0.2,0.5,0.2,0.9C45.8,38.5,45.6,39.1,45.2,39.6z"/>
		<path class="st1" d="M44.9,36.5c-0.3,0-0.6,0.1-0.8,0.4c-0.9,1-1.7,1.7-2.3,2.1c-0.7,0.4-1.3,0.6-2,0.6c-0.7,0-1.3-0.2-1.7-0.6
			c-0.4-0.4-0.6-1-0.6-1.8c0-0.7,0.1-1.5,0.3-2.5l1.9-8.2c0.3-1.2,0.4-2.2,0.4-3.1c0-1.6-0.4-2.8-1.2-3.6c-0.8-0.9-1.9-1.3-3.4-1.3
			c-1.8,0-3.4,0.6-4.8,1.7c-1.4,1.1-2.6,3-3.7,5.7c0.2-0.9,0.3-1.7,0.3-2.4c0-1.6-0.4-2.9-1.2-3.7c-0.8-0.9-1.9-1.3-3.2-1.3
			c-1.8,0-3.4,0.6-4.9,1.9c-1.5,1.2-2.8,3.4-4,6.5c0-0.2,0.1-0.5,0.2-0.9c0.1-0.4,0.2-1,0.3-1.7c0.1-0.7,0.2-1.3,0.2-1.8
			c0-1.3-0.3-2.3-0.9-2.9c-0.6-0.7-1.5-1-2.6-1c-1.2,0-2.5,0.3-3.7,1c-1.2,0.7-2.4,1.7-3.4,3c-0.3,0.4-0.5,0.8-0.7,1.1
			c-0.1,0.3-0.2,0.6-0.2,0.9c0,0.3,0.1,0.6,0.3,0.9c0.2,0.3,0.5,0.4,0.8,0.4c0.4,0,0.7-0.2,1-0.5c0.9-1.1,1.8-1.9,2.5-2.4
			c0.8-0.5,1.4-0.8,2-0.8c0.7,0,1,0.4,1,1.3c0,0.9-0.1,2.1-0.3,3.4c-0.3,2.2-0.7,4.8-1.3,7.8c-0.3,1.6-0.5,2.9-0.7,3.8
			c-0.1,0.9-0.2,1.7-0.2,2.3c0,0.9,0.2,1.5,0.5,1.8C9,42.9,9.6,43,10.4,43c0.8,0,1.4-0.2,1.6-0.6c0.3-0.4,0.5-1.1,0.6-2
			c0.7-4.6,1.6-8.3,2.6-11c1-2.7,2.1-4.6,3.2-5.7c1.1-1.1,2.1-1.6,3.2-1.6c0.6,0,1.1,0.2,1.4,0.5s0.5,0.9,0.5,1.6
			c0,1.3-0.5,4.3-1.4,9c-0.4,1.7-0.6,3.2-0.9,4.5c-0.2,1.3-0.3,2.3-0.3,3.1c0,0.8,0.2,1.4,0.5,1.7c0.3,0.3,0.8,0.5,1.6,0.5
			c0.8,0,1.4-0.2,1.8-0.6c0.4-0.4,0.6-1.2,0.8-2.3c0.6-4.3,1.4-7.8,2.4-10.5c1-2.7,2-4.6,3.1-5.8c1.1-1.2,2.1-1.7,3.1-1.7
			c0.5,0,0.9,0.2,1.2,0.5c0.3,0.3,0.4,0.8,0.4,1.5c0,0.4,0,0.8-0.1,1.2c-0.1,0.4-0.1,0.8-0.3,1.2C35,27,35,27.3,34.9,27.5l-1.3,5.3
			c-0.5,2.1-0.8,3.8-0.8,4.9c0,1.6,0.5,2.9,1.5,3.9c1,1,2.4,1.5,4.2,1.5c1.2,0,2.3-0.3,3.4-0.8c1.1-0.6,2.1-1.4,3.2-2.6
			c0.4-0.4,0.6-1,0.6-1.8c0-0.4-0.1-0.7-0.2-0.9C45.4,36.6,45.2,36.5,44.9,36.5z"/>
	</g>
	<path class="st0" d="M57.7,26.2c-0.2-0.1-0.4-0.3-0.6-0.4c-0.6-0.4-1.2-0.6-1.8-0.8c-0.3-0.6-0.7-1.1-1.2-1.6
		c-0.1-0.1-0.3-0.3-0.4-0.4L53.7,23c-2.2-1.7-5.2-1.8-7.3-0.2c-4.3,3.2-2.2,9.9-1.1,12.6c0.2,0.5,0.5,0.9,0.9,1.2c0,0,0,0,0,0
		c0,0,0,0,0,0c0.4,0.3,0.8,0.5,1.3,0.6c2.9,0.5,9.8,1,12-3.8C60.6,30.8,59.8,27.9,57.7,26.2z M47.7,34.6
		C47.7,34.6,47.7,34.6,47.7,34.6c-4.1-10.1,1.6-12.1,4.3-9.8c0.1,0.1,0.2,0.1,0.3,0.2c1,1,1.1,2,0.9,2.7c0.6-0.3,1.6-0.5,2.8,0.3
		C59.1,30,58.7,36.4,47.7,34.6z"/>
	<path class="st2" d="M56,28c-1.2-0.8-2.2-0.6-2.8-0.3c0.1-0.7,0.1-1.7-0.9-2.7c-0.1-0.1-0.2-0.2-0.3-0.2c-2.7-2.2-8.4-0.3-4.4,9.8
		c0,0,0.1,0,0,0C58.7,36.4,59.1,30,56,28z"/>
</g>
</svg>
