<svg xmlns="http://www.w3.org/2000/svg" viewBox="0 0 103.11 84.07"><defs><style>.cls-1{fill:#fff;}.cls-2{fill:#ff3056;}</style></defs><title>Asset 5</title><g id="Layer_2" data-name="Layer 2"><g id="_24_-_Moms.com" data-name="24 - Moms.com"><path class="cls-1" d="M89.62,39.33c8.53,0,13.49,5.39,13.49,15.4V81.89a2,2,0,0,1-2.17,2.18H92.23a2,2,0,0,1-2.17-2.18v-26c0-3.48-2.09-4.52-4.53-4.52-2.61,0-5,1.3-5,5.57v25a2,2,0,0,1-2.17,2.18H69.6a2,2,0,0,1-2.17-2.18v-26c0-3.48-2.09-4.52-4.53-4.52-2.61,0-5,1.3-5,5.57v25a2,2,0,0,1-2.17,2.18H47a2,2,0,0,1-2.18-2.18V42.72A2,2,0,0,1,47,40.54h8.71a2,2,0,0,1,2.17,2.18V44.5a11.67,11.67,0,0,1,10-5.17c4.4,0,7.9,1.77,10.09,5.18a15.23,15.23,0,0,1,11.67-5.19Z"/><path class="cls-2" d="M40.07,66.33a34.61,34.61,0,0,0-4.2-5.15,60.27,60.27,0,0,0-5.07-4.31c-2.68-2.06-5.41-3.95-8.3-6l-2.87-2c-2.25-1.57-4.08-2.9-5.74-4.18a58.65,58.65,0,0,1-5.68-4.89,25.15,25.15,0,0,1-5-6.79A23.92,23.92,0,0,1,.85,24.81,25.62,25.62,0,0,1,1.4,16.4a26.62,26.62,0,0,1,1.27-4c.27-.65.56-1.29.88-1.91.16-.31.33-.61.52-1s.36-.6.57-.92A17,17,0,0,1,11.3,2.77a19.63,19.63,0,0,1,8.09-2H20a19,19,0,0,1,7.35,1.46,20.67,20.67,0,0,1,6.51,4.3,22.8,22.8,0,0,1,4.74,6.63c.21-.43.42-.85.65-1.25a17.66,17.66,0,0,1,6.21-6.53,18.68,18.68,0,0,1,4.15-1.88l.21-.06.88-.25L51,3.07l.79-.18.51-.1.6-.1c.42,0,.82-.1,1.22-.13s.69,0,1,0a17.27,17.27,0,0,1,8.24,2.16,19.74,19.74,0,0,1,6.72,6.18l.31.48.25.42c.26.44.43.73.61,1.09A15.56,15.56,0,0,1,72.19,15a17.82,17.82,0,0,1,.89,4.4A20.32,20.32,0,0,1,72,27.8c-.41,1.18-2.25,4.94-5.19,6.55l-2,1.11,1-2.07a17.09,17.09,0,0,0,1.54-6.58,20,20,0,0,0-.62-6.36,14.47,14.47,0,0,0-1.06-2.74c-.22-.4-.45-.8-.71-1.18a12.59,12.59,0,0,0-10.72-5.79,14.6,14.6,0,0,0-4.58.74C48,12,43,13.71,38.34,25.74l-1.69,4.33.29-4.63c.55-8.68-4-14.65-5.7-16A13,13,0,0,0,25.9,6.65a12.33,12.33,0,0,0-2.72-.31,12.64,12.64,0,0,0-3,.37,13,13,0,0,0-8.38,6.15c-.09.17-.17.34-.29.6l-.27.62c-.17.42-.33.86-.47,1.3a17.3,17.3,0,0,0-.54,8.19,17.31,17.31,0,0,0,1.73,5.07,18.64,18.64,0,0,0,1.42,2.27c.55.74,1.24,1.53,1.84,2.19,2.2,2.34,4.75,4.63,7.45,7.06L25,42.25A109.3,109.3,0,0,1,35.07,52.42c1.54,1.87,6.18,7.54,6.31,13.47l0,2.32Z"/><path class="cls-2" d="M20,1.44a18.42,18.42,0,0,1,7.07,1.4A20.18,20.18,0,0,1,33.38,7a22.56,22.56,0,0,1,5.24,7.91,22.06,22.06,0,0,1,1.28-2.7,17,17,0,0,1,6-6.26,17.64,17.64,0,0,1,4-1.81l1-.3c.36-.09.76-.19,1-.24l.52-.1L53,3.41c.38-.05.77-.1,1.16-.13s.66,0,1,0a16.52,16.52,0,0,1,7.89,2.08,18.85,18.85,0,0,1,6.47,5.94l.31.48.24.4c.23.4.4.67.57,1a14.71,14.71,0,0,1,.86,2.06,17.57,17.57,0,0,1,.85,4.22,19.81,19.81,0,0,1-1.08,8.1c-.44,1.26-2.22,4.71-4.86,6.15A17.85,17.85,0,0,0,68,26.86a20.54,20.54,0,0,0-.64-6.6,15.25,15.25,0,0,0-1.12-2.88,14,14,0,0,0-.76-1.26A13.29,13.29,0,0,0,54.21,10a15.16,15.16,0,0,0-4.81.78c-2.25.76-7.14,2.87-11.74,14.68.58-9.14-4.3-15.24-5.95-16.65A13.75,13.75,0,0,0,26.06,6a12.81,12.81,0,0,0-2.89-.33A13.22,13.22,0,0,0,20,6a13.65,13.65,0,0,0-8.85,6.52c-.1.19-.18.35-.31.63l-.27.64c-.19.45-.35.9-.5,1.36a18.25,18.25,0,0,0-.56,8.53A17.83,17.83,0,0,0,11.28,29a19.79,19.79,0,0,0,1.47,2.36c.55.74,1.2,1.49,1.9,2.26,2.87,3,6.38,6.07,9.81,9.2a105.44,105.44,0,0,1,10.06,10.1c1.53,1.87,6,7.39,6.13,13a34.88,34.88,0,0,0-4.28-5.24,58.1,58.1,0,0,0-5.14-4.37c-3.58-2.76-7.38-5.31-11.19-8-1.9-1.33-3.81-2.7-5.71-4.16a57.59,57.59,0,0,1-5.61-4.83,24.26,24.26,0,0,1-4.85-6.59,23.49,23.49,0,0,1-2.3-8A25.26,25.26,0,0,1,3.34,12.67c.26-.63.55-1.24.86-1.85.15-.3.31-.59.5-.92S5,9.32,5.24,9a16.26,16.26,0,0,1,6.38-5.6,18.93,18.93,0,0,1,7.8-2H20M20,0h-.66A20.36,20.36,0,0,0,11,2.12,17.84,17.84,0,0,0,4,8.22c-.22.34-.43.7-.58,1s-.38.66-.54,1c-.33.63-.63,1.29-.9,1.95A26.25,26.25,0,0,0,.69,16.23a26.53,26.53,0,0,0-.56,8.65,24.7,24.7,0,0,0,2.45,8.49,25.9,25.9,0,0,0,5.13,7,58.45,58.45,0,0,0,5.73,4.93c1.7,1.3,3.53,2.63,5.78,4.21l2.86,2c2.89,2,5.61,3.9,8.27,5.95a58,58,0,0,1,5,4.27,34.53,34.53,0,0,1,4.1,5l2.72,3.76-.1-4.63C42,59.7,37.2,53.88,35.64,52a111,111,0,0,0-10.2-10.25l-2.32-2.09c-2.69-2.42-5.24-4.71-7.42-7-.57-.63-1.25-1.4-1.79-2.13a20,20,0,0,1-1.36-2.18,16.59,16.59,0,0,1-1.64-4.84,16.6,16.6,0,0,1,.51-7.85c.13-.42.28-.84.45-1.25l.27-.63c.1-.21.18-.37.27-.54a12.23,12.23,0,0,1,7.9-5.77,12.23,12.23,0,0,1,2.86-.35,10.81,10.81,0,0,1,2.56.3,12.12,12.12,0,0,1,5,2.58c1.58,1.34,6,7.07,5.45,15.45l-.58,9.27L39,26c4.56-11.72,9.3-13.32,10.85-13.85a14,14,0,0,1,4.35-.7,11.9,11.9,0,0,1,10.12,5.48A11.67,11.67,0,0,1,65,18.07a13.34,13.34,0,0,1,1,2.58,19.26,19.26,0,0,1,.59,6.12,16.18,16.18,0,0,1-1.47,6.29L63,37.21,67.11,35c3.16-1.72,5.07-5.6,5.54-6.95a21.17,21.17,0,0,0,1.15-8.68,19.31,19.31,0,0,0-.92-4.57,17.29,17.29,0,0,0-.95-2.27c-.16-.33-.33-.63-.57-1l0-.06L71.07,11l-.33-.51a20.34,20.34,0,0,0-7-6.43,17.93,17.93,0,0,0-8.58-2.25c-.37,0-.73,0-1.09,0s-.83.08-1.25.14l-.61.09-.56.11c-.22,0-.53.12-.85.2l-.25.06c-.34.08-.63.17-.92.26l-.2.06a19.39,19.39,0,0,0-4.35,2,18.41,18.41,0,0,0-6.45,6.79l0,0A22.79,22.79,0,0,0,34.38,6a21.16,21.16,0,0,0-6.73-4.45A19.84,19.84,0,0,0,20,0Z"/></g></g></svg>