<svg xmlns="http://www.w3.org/2000/svg" viewBox="0 0 153.58 53.12"><defs><style>.cls-1{fill:#fff;}.cls-2{fill:#ff3056;}</style></defs><title>Asset 9</title><g id="Layer_2" data-name="Layer 2"><g id="Layer_3" data-name="Layer 3"><path class="cls-1" d="M55.82,24.49c5.31,0,8.4,3.37,8.4,9.6V51a1.23,1.23,0,0,1-1.35,1.36H57.45A1.23,1.23,0,0,1,56.09,51V34.79A2.51,2.51,0,0,0,53.27,32c-1.62,0-3.14.81-3.14,3.47V51a1.23,1.23,0,0,1-1.36,1.36H43.35A1.23,1.23,0,0,1,42,51V34.79A2.51,2.51,0,0,0,39.18,32c-1.63,0-3.15.81-3.15,3.47V51a1.23,1.23,0,0,1-1.35,1.36H29.26A1.23,1.23,0,0,1,27.9,51V26.61a1.23,1.23,0,0,1,1.36-1.36h5.42A1.23,1.23,0,0,1,36,26.61v1.1a7.29,7.29,0,0,1,6.24-3.22,7.09,7.09,0,0,1,6.28,3.23,9.49,9.49,0,0,1,7.27-3.23Z"/><path class="cls-1" d="M64.48,38.81A14.37,14.37,0,1,1,78.85,53.12,14.22,14.22,0,0,1,64.48,38.81Zm20.6,0a6.24,6.24,0,1,0-12.47,0,6.24,6.24,0,1,0,12.47,0Z"/><path class="cls-1" d="M122.1,24.49c5.31,0,8.4,3.37,8.4,9.6V51a1.23,1.23,0,0,1-1.35,1.36h-5.43A1.23,1.23,0,0,1,122.37,51V34.79A2.51,2.51,0,0,0,119.55,32c-1.63,0-3.14.81-3.14,3.47V51a1.23,1.23,0,0,1-1.36,1.36h-5.42A1.23,1.23,0,0,1,108.27,51V34.79A2.51,2.51,0,0,0,105.45,32c-1.62,0-3.14.81-3.14,3.47V51A1.23,1.23,0,0,1,101,52.36H95.53A1.23,1.23,0,0,1,94.18,51V26.61a1.23,1.23,0,0,1,1.35-1.36H101a1.23,1.23,0,0,1,1.36,1.36v1.1a7.28,7.28,0,0,1,6.23-3.22,7.09,7.09,0,0,1,6.29,3.23,9.49,9.49,0,0,1,7.27-3.23Z"/><path class="cls-1" d="M153.58,44.23c0,6.23-5.31,8.89-11.27,8.89-5.53,0-10.52-2.49-11.17-8.24a1.16,1.16,0,0,1,1.3-1.41h5.31c.82,0,1.09.43,1.47,1.14.43.92,1.46,1.46,3.09,1.46,2.27,0,3.14-.76,3.14-1.84,0-3.91-14.15-.33-14.15-10.85,0-6.12,5.31-8.89,11-8.89,5,0,10,2.5,10.62,8.24a1.16,1.16,0,0,1-1.3,1.41h-5.31c-.81,0-1.09-.43-1.46-1.19a2.61,2.61,0,0,0-2.55-1.41c-2,0-2.88.76-2.88,1.84C139.43,37.4,153.58,33.66,153.58,44.23Z"/><path class="cls-2" d="M25,41.31a21.51,21.51,0,0,0-2.62-3.2,35.91,35.91,0,0,0-3.16-2.69C17.52,34.14,15.81,33,14,31.71l-1.78-1.25c-1.41-1-2.54-1.81-3.58-2.61a36.6,36.6,0,0,1-3.54-3A15.68,15.68,0,0,1,2,20.58,14.9,14.9,0,0,1,.53,15.45a16,16,0,0,1,.34-5.24,16.42,16.42,0,0,1,.8-2.49c.16-.4.34-.8.54-1.19.1-.19.21-.38.33-.59s.22-.37.35-.57A10.64,10.64,0,0,1,7,1.72a12.22,12.22,0,0,1,5-1.26h.39a12,12,0,0,1,4.58.9A12.85,12.85,0,0,1,21.1,4a14.1,14.1,0,0,1,2.95,4.13c.13-.27.27-.53.41-.78a10.91,10.91,0,0,1,3.87-4.07,11.58,11.58,0,0,1,2.58-1.17l.14,0L31.59,2l.18-.05c.18,0,.36-.09.5-.11l.31-.06L33,1.68a6.7,6.7,0,0,1,.77-.08c.21,0,.43,0,.64,0a10.7,10.7,0,0,1,5.13,1.34,12.23,12.23,0,0,1,4.19,3.85l.19.3.16.26c.16.27.27.45.38.68A8.24,8.24,0,0,1,45,9.35a10.75,10.75,0,0,1,.55,2.74,12.54,12.54,0,0,1-.69,5.22,8.35,8.35,0,0,1-3.23,4.08l-1.27.7L41,20.8a10.58,10.58,0,0,0,1-4.1,12.62,12.62,0,0,0-.38-4A8.83,8.83,0,0,0,40.88,11a6.73,6.73,0,0,0-.44-.73,7.85,7.85,0,0,0-6.67-3.61,9.07,9.07,0,0,0-2.86.46c-1,.34-4.11,1.39-7,8.88l-1.05,2.7L23,15.84a13,13,0,0,0-3.55-10,8.15,8.15,0,0,0-3.33-1.71A8,8,0,0,0,14.43,4a8.21,8.21,0,0,0-1.89.23A8.11,8.11,0,0,0,7.32,8l-.18.37L7,8.77q-.17.39-.3.81a10.37,10.37,0,0,0-.38,1.69,10.54,10.54,0,0,0,0,3.41,11.24,11.24,0,0,0,1.07,3.16,12.12,12.12,0,0,0,.89,1.41c.34.46.77.95,1.15,1.37,1.36,1.45,2.95,2.88,4.63,4.39.49.43,1,.87,1.45,1.31a67.3,67.3,0,0,1,6.3,6.33c1,1.17,3.85,4.7,3.93,8.39l0,1.44Z"/><path class="cls-2" d="M12.48.9a11.51,11.51,0,0,1,4.4.87,12.58,12.58,0,0,1,3.91,2.59,14.06,14.06,0,0,1,3.26,4.93,14.29,14.29,0,0,1,.8-1.68,10.49,10.49,0,0,1,3.71-3.9,11.58,11.58,0,0,1,2.49-1.13l.65-.19.65-.15.32-.06L33,2.12c.24,0,.48-.06.72-.07s.42,0,.62,0a10.31,10.31,0,0,1,4.92,1.29,11.63,11.63,0,0,1,4,3.7l.2.3.15.24c.14.25.24.43.35.65a9.42,9.42,0,0,1,.54,1.28,11.16,11.16,0,0,1,.53,2.63,12.31,12.31,0,0,1-.67,5,8,8,0,0,1-3,3.84,11,11,0,0,0,1-4.27,13,13,0,0,0-.4-4.11,9.48,9.48,0,0,0-.7-1.8c-.15-.27-.3-.53-.47-.78a8.29,8.29,0,0,0-7-3.8,9.66,9.66,0,0,0-3,.48c-1.41.48-4.45,1.8-7.31,9.15A13.39,13.39,0,0,0,19.75,5.5a8.54,8.54,0,0,0-3.52-1.79,7.83,7.83,0,0,0-1.8-.21,8.34,8.34,0,0,0-2,.24A8.55,8.55,0,0,0,6.92,7.8c-.06.12-.11.22-.19.4l-.17.4c-.11.27-.21.56-.3.84a10.94,10.94,0,0,0-.41,1.76A11.39,11.39,0,0,0,7,18a13.92,13.92,0,0,0,.92,1.47c.34.46.75.93,1.18,1.41,1.79,1.9,4,3.78,6.12,5.73a66.4,66.4,0,0,1,6.26,6.29c1,1.16,3.75,4.6,3.82,8.11a21.71,21.71,0,0,0-2.67-3.26,34.89,34.89,0,0,0-3.2-2.73c-2.23-1.71-4.59-3.3-7-5-1.18-.83-2.37-1.68-3.56-2.59a35.56,35.56,0,0,1-3.49-3,15.19,15.19,0,0,1-3-4.1,14.66,14.66,0,0,1-1.43-5,15.31,15.31,0,0,1,.33-5.1,16.19,16.19,0,0,1,.77-2.42c.16-.39.34-.77.53-1.15.1-.19.2-.37.32-.57a5.25,5.25,0,0,1,.34-.56,10,10,0,0,1,4-3.48A11.63,11.63,0,0,1,12.09.91h.39m0-.9h-.42A12.62,12.62,0,0,0,6.84,1.32a11,11,0,0,0-4.33,3.8l-.36.6c-.13.22-.24.41-.34.61-.2.4-.39.81-.56,1.22a17,17,0,0,0-.82,2.56A16.59,16.59,0,0,0,.08,15.5a15.45,15.45,0,0,0,1.53,5.29A16.31,16.31,0,0,0,4.8,25.14a38.77,38.77,0,0,0,3.57,3.07c1.06.81,2.2,1.64,3.6,2.62l1.78,1.24c1.8,1.25,3.5,2.43,5.15,3.71A35.24,35.24,0,0,1,22,38.44a20.87,20.87,0,0,1,2.55,3.14l1.69,2.34L26.22,41c-.08-3.85-3-7.47-4-8.66A69.83,69.83,0,0,0,15.84,26l-1.44-1.3c-1.68-1.51-3.26-2.93-4.62-4.38A16.11,16.11,0,0,1,8.67,19a11.73,11.73,0,0,1-.85-1.36,10.43,10.43,0,0,1-1-3,10.61,10.61,0,0,1,0-3.28,10.76,10.76,0,0,1,.37-1.61,7.31,7.31,0,0,1,.29-.78l.16-.39a3.58,3.58,0,0,1,.17-.34,7.6,7.6,0,0,1,4.92-3.6,7.73,7.73,0,0,1,1.78-.21,7.07,7.07,0,0,1,1.6.18,7.65,7.65,0,0,1,3.14,1.61,12.53,12.53,0,0,1,3.39,9.62l-.36,5.78,2.1-5.39c2.84-7.3,5.79-8.3,6.76-8.62a8.4,8.4,0,0,1,2.71-.44,7.41,7.41,0,0,1,6.3,3.41,6.59,6.59,0,0,1,.42.71,7.85,7.85,0,0,1,.62,1.6,12,12,0,0,1,.37,3.81,10,10,0,0,1-.91,3.92l-1.31,2.58,2.54-1.38a8.76,8.76,0,0,0,3.45-4.33A13.09,13.09,0,0,0,46,12.05a11.55,11.55,0,0,0-.57-2.84,9.23,9.23,0,0,0-.59-1.42c-.1-.21-.21-.39-.35-.64l0,0-.15-.26-.21-.32a12.68,12.68,0,0,0-4.35-4,11.13,11.13,0,0,0-5.35-1.4c-.23,0-.45,0-.68,0l-.77.08-.38.06-.36.07c-.13,0-.32.07-.52.12l-.16,0-.57.16-.12,0a11.87,11.87,0,0,0-2.71,1.22,11.37,11.37,0,0,0-4,4.23v0a14.5,14.5,0,0,0-2.65-3.48A13.3,13.3,0,0,0,17.22.94,12.48,12.48,0,0,0,12.48,0Z"/></g></g></svg>