<svg xmlns="http://www.w3.org/2000/svg" viewBox="0 0 508.71 253.17"><defs><style>.cls-1{fill:#c60d0d;}.cls-2{fill:#fff;}</style></defs><g id="Layer_2" data-name="Layer 2"><g id="Layer_1-2" data-name="Layer 1"><polygon class="cls-1" points="103.67 0 0 103.67 0 253.16 405.32 253.16 508.71 149.78 508.71 0 103.67 0"/><path class="cls-2" d="M198.43,173.88a6.24,6.24,0,0,1-6.66-6.67v-51.1a12.5,12.5,0,0,1,2.82-8l2.78-3.47.25-.28c1.23-1.23,2.2-2.2,3.77-2.2.68,0,4.06.25,4.06,5.27v59.79C205.45,171.26,202.7,173.88,198.43,173.88Zm-87.41,0a6.25,6.25,0,0,1-6.67-6.67V83.27A6.25,6.25,0,0,1,111,76.6a12.66,12.66,0,0,1,9.86,4.66l34.76,42.2,34.43-43a10,10,0,0,1,8-3.87h3.47a3.8,3.8,0,0,1,3.89,3.89,4.1,4.1,0,0,1-1,2.7l-41.83,52.23c-2.18,2.69-4.52,4.05-7,4.05s-4.57-1.29-6.88-3.94L118,98.35v68.86C118,171.26,115.28,173.88,111,173.88Z"/><path class="cls-2" d="M224.17,173c-7.44,0-11.71-4.27-11.71-11.71V82.4c0-4.05,2.76-6.67,7-6.67a6.25,6.25,0,0,1,6.67,6.67v77.44H289.8V82.4c0-4.05,2.75-6.67,7-6.67a6.25,6.25,0,0,1,6.67,6.67v78.9c0,7.44-4.33,11.71-11.88,11.71Z"/><path class="cls-2" d="M321.92,173c-7.44,0-11.71-4.27-11.71-11.71v-73c0-7.44,4.27-11.71,11.71-11.71h70.73c7.44,0,11.71,4.27,11.71,11.71v73c0,7.44-4.27,11.71-11.71,11.71Zm68.76-13.17V89.76H323.9v70.08Z"/></g></g></svg>