<svg xmlns="http://www.w3.org/2000/svg" viewBox="0 0 341.31 53.01"><defs><style>.cls-1{fill:#fff;}</style></defs><title>Asset 5</title><g id="Layer_2" data-name="Layer 2"><g id="Layer_1-2" data-name="Layer 1"><path class="cls-1" d="M172.57,29.23a12.5,12.5,0,1,1,0-10h12a24,24,0,1,0,0,10.05Z"/><path class="cls-1" d="M204.08,49A17.38,17.38,0,0,1,186,30.92a17.38,17.38,0,0,1,18.09-18.08c5.28,0,9.55,1.71,12.7,5.1a18.44,18.44,0,0,1,4.71,13v4.42H198.14a4.83,4.83,0,0,0,1.76,2.48,6.71,6.71,0,0,0,4.18,1.33,13.23,13.23,0,0,0,8-2.54l.69-.5,6.68,6.68-.51.69C216.21,47.15,211.22,49,204.08,49Zm5.75-22.5A3.94,3.94,0,0,0,208.27,24a7.25,7.25,0,0,0-8.37,0,3.9,3.9,0,0,0-1.56,2.48Z"/><path class="cls-1" d="M187,30.92a16.39,16.39,0,0,1,17.09-17.08c5,0,9,1.59,12,4.78a17.37,17.37,0,0,1,4.44,12.3v3.42H196.91a6,6,0,0,0,2.39,4.28,7.78,7.78,0,0,0,4.78,1.53,14.2,14.2,0,0,0,8.55-2.73l5.47,5.47q-3.76,5.13-14,5.12A16.39,16.39,0,0,1,187,30.92Zm21.88-7.69a8.25,8.25,0,0,0-9.57,0,5,5,0,0,0-2.05,4.28h13.67A5,5,0,0,0,208.87,23.23Z"/><path class="cls-1" d="M245,49V29.22a6.66,6.66,0,0,0-1.45-4.63,6,6,0,0,0-4.45-1.65c-1.45.1-2.85,1.31-4.06,3.58V49H223.51V13.93l11.57-1.24v2.2a13.05,13.05,0,0,1,7.2-2.05c4.61,0,8.2,1.43,10.67,4.27a14.43,14.43,0,0,1,3.66,9.71V49Z"/><path class="cls-1" d="M234.08,26.28V48h-9.57V14.83l9.57-1v3.11a11.9,11.9,0,0,1,8.2-3.07q6.5,0,9.91,3.93a13.39,13.39,0,0,1,3.42,9.05V48H246V29.22a7.59,7.59,0,0,0-1.71-5.3,6.91,6.91,0,0,0-5.16-2Q236.2,22.14,234.08,26.28Z"/><path class="cls-1" d="M275.59,49c-4.12,0-7.45-1.18-9.91-3.52a12,12,0,0,1-3.73-9.1V22.59h-5.13V12.87H262V3.71l11.6-1.24v10.4h5.13v9.72h-5.13V35a4.43,4.43,0,0,0,.84,3.12,3.09,3.09,0,0,0,2.26.83,14.79,14.79,0,0,0,2.35-.42l.91-.2,2.49,8.48-.62.41A11.15,11.15,0,0,1,275.59,49Z"/><path class="cls-1" d="M275.59,48q-5.8,0-9.22-3.24A11,11,0,0,1,263,36.39V21.59h-5.13V13.87H263V4.61l9.6-1V13.87h5.13v7.72h-5.13V35c0,1.82.38,3.1,1.15,3.84A4.06,4.06,0,0,0,276.65,40a15.93,15.93,0,0,0,2.57-.44l2,6.87A10.09,10.09,0,0,1,275.59,48Z"/><path class="cls-1" d="M298.82,49a17.38,17.38,0,0,1-18.09-18.09,17.38,17.38,0,0,1,18.09-18.08c5.28,0,9.55,1.71,12.7,5.1a18.44,18.44,0,0,1,4.71,13v4.42H292.88a4.83,4.83,0,0,0,1.76,2.48,6.71,6.71,0,0,0,4.18,1.33,13.23,13.23,0,0,0,8-2.54l.69-.5,6.68,6.68-.51.69C311,47.15,306,49,298.82,49Zm5.75-22.5A3.94,3.94,0,0,0,303,24a7.25,7.25,0,0,0-8.37,0,3.9,3.9,0,0,0-1.56,2.48Z"/><path class="cls-1" d="M281.73,30.92a16.39,16.39,0,0,1,17.09-17.08c5,0,9,1.59,12,4.78a17.37,17.37,0,0,1,4.44,12.3v3.42H291.64a6,6,0,0,0,2.4,4.28,7.76,7.76,0,0,0,4.78,1.53,14.2,14.2,0,0,0,8.55-2.73l5.47,5.47q-3.76,5.13-14,5.12a16.39,16.39,0,0,1-17.09-17.09Zm21.88-7.69a8.25,8.25,0,0,0-9.57,0A5,5,0,0,0,292,27.51h13.67A5.07,5.07,0,0,0,303.61,23.23Z"/><path class="cls-1" d="M317.5,49V13.93l11.57-1.24v2.7A12.89,12.89,0,0,1,337,12.84a19.09,19.09,0,0,1,3.35.28l1,.18-1.95,12.21L338,24.29a6.29,6.29,0,0,0-4.09-1.35c-1.87.15-3.49,1.59-4.83,4.29V49Z"/><path class="cls-1" d="M328.07,17.59A12,12,0,0,1,337,13.84a18.1,18.1,0,0,1,3.18.27l-1.51,9.43a7.25,7.25,0,0,0-4.78-1.6c-2.33.16-4.26,1.84-5.81,5V48H318.5V14.83l9.57-1Z"/><path class="cls-1" d="M72,49.72V47.63a13,13,0,0,1-7.19,2.08c-4.61,0-8.21-1.41-10.68-4.24a14.47,14.47,0,0,1-3.7-9.7L50.3,13.58l11.57,0,.07,19.8A6.62,6.62,0,0,0,63.4,38a6,6,0,0,0,4.46,1.64c1.48-.11,2.84-1.18,4-3.28l-.08-22.81,11.57,0,.12,36.21Z"/><polygon class="cls-1" points="100.19 49.63 100.18 46.06 113.56 23.54 100.11 23.59 100.07 13.52 129.38 13.43 129.4 17.2 115.99 39.51 129.47 39.47 129.5 49.54 100.19 49.63"/><polygon class="cls-1" points="97.75 15.38 94.41 19.78 93.06 21.57 91.32 20.16 86.18 16.02 86.29 49.68 97.86 49.64 97.75 15.38"/><path class="cls-1" d="M24.25,49.22A24.17,24.17,0,1,1,48.34,25,24.19,24.19,0,0,1,24.25,49.22Zm-.12-36.06A11.9,11.9,0,1,0,36.06,25,11.9,11.9,0,0,0,24.13,13.16Z"/><rect class="cls-1" x="22.15" y="35.56" width="22.51" height="10.27" transform="translate(51.79 -8.64) rotate(59.81)"/><polygon class="cls-1" points="92.83 17.33 83.4 9.71 85.89 6.63 92.14 11.68 101 0 104.15 2.39 92.83 17.33"/></g></g></svg>