<svg xmlns="http://www.w3.org/2000/svg" viewBox="0 0 41.08 47.46"><defs><style>.cls-1{fill:#b8313a;}.cls-1,.cls-2{stroke:#fff;stroke-miterlimit:10;stroke-width:2.43px;}.cls-2{fill:#fff;}</style></defs><g id="Layer_2" data-name="Layer 2"><g id="_14_-_TheRecipe" data-name="14 - TheRecipe"><path class="cls-1" d="M39.87,11.8c0-5.06-4.57-9.16-10.2-9.16a11.07,11.07,0,0,0-3,.41,11.06,11.06,0,0,0-12.22,0,11,11,0,0,0-3-.41c-5.64,0-10.21,4.1-10.21,9.16a9.21,9.21,0,0,0,6.36,8.48V39.06A43.94,43.94,0,0,1,33,38.86V20.46A9.3,9.3,0,0,0,39.87,11.8Z"/><ellipse class="cls-1" cx="20.28" cy="42.56" rx="12.71" ry="3.69"/><path class="cls-1" d="M20.28,32.61c-7,0-12.71,1.65-12.71,3.68v6.32c0-2,5.69-3.68,12.71-3.68S33,40.58,33,42.61V36.29C33,34.26,27.3,32.61,20.28,32.61Z"/><path class="cls-2" d="M20.28,28v0Z"/><path class="cls-2" d="M13.13,28v0Z"/><path class="cls-2" d="M27.43,28v0Z"/></g></g></svg>