<?xml version="1.0" encoding="utf-8"?>
<!-- Generator: Adobe Illustrator 22.1.0, SVG Export Plug-In . SVG Version: 6.00 Build 0)  -->
<svg version="1.1" id="Layer_1" xmlns="http://www.w3.org/2000/svg" xmlns:xlink="http://www.w3.org/1999/xlink" x="0px" y="0px"
	 viewBox="0 0 1000 1000" style="enable-background:new 0 0 1000 1000;" xml:space="preserve">
<style type="text/css">
	.st0{fill:#FFFFFF;stroke:#000000;stroke-width:30;stroke-miterlimit:10;}
	.st1{fill:#E6E6E6;stroke:#000000;stroke-width:30;stroke-miterlimit:10;}
</style>
<g>
	<path class="st0" d="M857,278.3c0-93.8-84.7-169.8-189.1-169.8c-19.5,0-38.3,2.7-55.9,7.6c-31.6-21.3-70.7-34-113.2-34
		s-81.6,12.7-113.2,34c-17.7-4.9-36.5-7.6-55.9-7.6c-104.4,0-189.1,76-189.1,169.8c0,71.1,48.7,131.9,117.8,157.2v348
		c76.6-23.8,157.8-36.7,241.9-36.7c79.5,0,156.3,11.7,229.2,33V438.7C803.6,415.8,857,352.7,857,278.3z"/>
	<ellipse class="st1" cx="493.9" cy="848.3" rx="235.5" ry="68.3"/>
	<g>
		<path class="st0" d="M493.9,663.9c-130.1,0-235.5,30.6-235.5,68.3v117.1c0-37.7,105.5-68.3,235.5-68.3s235.5,30.6,235.5,68.3
			V732.2C729.4,694.5,624,663.9,493.9,663.9z"/>
	</g>
	<path class="st0" d="M493.9,579.3c0,51.2,0,92.7,0,92.7S493.9,630.5,493.9,579.3s0-92.7,0-92.7S493.9,528.1,493.9,579.3z"/>
	<path class="st0" d="M361.4,579.3c0,51.2,0,92.7,0,92.7S361.4,630.5,361.4,579.3s0-92.7,0-92.7S361.4,528.1,361.4,579.3z"/>
	<path class="st0" d="M626.4,579.3c0,51.2,0,92.7,0,92.7S626.4,630.5,626.4,579.3s0-92.7,0-92.7S626.4,528.1,626.4,579.3z"/>
</g>
</svg>
