<?xml version="1.0" encoding="utf-8"?>
<!-- Generator: Adobe Illustrator 23.0.0, SVG Export Plug-In . SVG Version: 6.00 Build 0)  -->
<svg version="1.1" id="Layer_1" xmlns="http://www.w3.org/2000/svg" xmlns:xlink="http://www.w3.org/1999/xlink" x="0px" y="0px"
	 viewBox="0 0 146 29" style="enable-background:new 0 0 146 29;" xml:space="preserve">
<style type="text/css">
	.st0{fill:#FFFFFF;}
	.st1{fill:#FFFFFF;stroke:#000000;stroke-width:1.5;stroke-miterlimit:10;}
	.st2{fill:#E6E6E6;stroke:#000000;stroke-width:1.5;stroke-miterlimit:10;}
</style>
<g>
	<g id="Layer_8">
		<g>
			<g>
				<path class="st0" d="M41,11h-2.8V8h-3.8v12h2.9v2.7h-8.9V20h2.9V8h-3.8v3h-2.8V5.2H41V11L41,11z"/>
				<path class="st0" d="M57.3,22.7h-6.9V20h1.9v-3.8c0-2.1-1.1-3.3-3-3.3c-1,0-2.2,0.6-3.1,1.8V20h2v2.7h-6.9V20h1.9l0.1-12.1h-2.1
					V5.2h5v6.3c1-0.9,2.3-1.4,3.7-1.4c3.2,0,5.3,2.3,5.3,5.8v4h1.9L57.3,22.7L57.3,22.7z"/>
				<path class="st0" d="M69.1,17.8L69.1,17.8h-9.4c0.4,1.5,1.5,2.7,3.6,2.7c1.2,0,2-0.4,2.5-1.1H69c-0.7,2.2-3,3.7-5.7,3.7
					c-3.9,0-6.5-2.8-6.5-6.4s2.6-6.4,6.3-6.4c3.5,0,6.1,2.5,6.1,6.2C69.2,16.8,69.2,17.3,69.1,17.8z M59.8,15.4h6.6
					c-0.3-1.7-1.3-2.8-3.2-2.8C61.3,12.6,60.2,13.8,59.8,15.4z"/>
				<path class="st0" d="M87.1,22.7h-6.6v-2.6l-2.7-3.4h-3.3V20h2.3v2.7h-7.6V20h2.2V8h-2.2V5.2h9.1c4,0,6.6,2.3,6.6,5.9
					c0,2.5-1.4,4.4-3.7,5.2l3.1,3.7h2.9L87.1,22.7L87.1,22.7z M78.2,14.1c2.1,0,3.6-1.2,3.6-3s-1.4-3-3.6-3h-3.8v6H78.2z"/>
				<path class="st0" d="M98.6,17.8L98.6,17.8h-9.4c0.4,1.5,1.5,2.7,3.6,2.7c1.2,0,2-0.4,2.5-1.1h3.2c-0.7,2.2-3,3.7-5.7,3.7
					c-3.9,0-6.5-2.8-6.5-6.4s2.6-6.4,6.3-6.4c3.5,0,6.1,2.5,6.1,6.2C98.7,16.8,98.7,17.3,98.6,17.8z M89.3,15.4h6.6
					c-0.3-1.7-1.3-2.8-3.2-2.8C90.8,12.6,89.7,13.8,89.3,15.4z"/>
				<path class="st0" d="M111.6,18.1c-0.4,2.9-2.7,4.8-6,4.8c-3.9,0-6.7-2.7-6.7-6.4c0-3.6,2.7-6.3,6.5-6.3c1.4,0,2.5,0.4,3.4,1.1
					v-0.9h2.7V15h-2.9c-0.3-1.3-1.5-2.1-3-2.1c-2.1,0-3.7,1.6-3.7,3.7s1.6,3.7,3.7,3.7c1.5,0,2.6-0.9,3-2.2L111.6,18.1L111.6,18.1z"
					/>
				<path class="st0" d="M119.1,22.7h-6.9V20h1.9v-6.7h-1.9v-2.7h4.9V20h2V22.7L119.1,22.7z M113.6,7.1c0-1.1,0.9-2,2-2s2,0.9,2,2
					s-0.9,1.9-2,1.9C114.5,9.1,113.6,8.2,113.6,7.1z"/>
				<path class="st0" d="M133.4,16.6c0,3.5-2.7,6.4-6.1,6.4c-1.5,0-2.7-0.4-3.7-1.2v3.5h2.8V28h-7.7v-2.7h1.9v-12h-1.9v-2.7h4.9v0.9
					c1-0.7,2.3-1.2,3.7-1.2C130.7,10.2,133.4,13,133.4,16.6z M130.4,16.6c0-2-1.5-3.8-3.6-3.8c-1.1,0-2.2,0.4-3.3,1.4v4.7
					c1,1,2.2,1.4,3.3,1.4C128.9,20.4,130.4,18.6,130.4,16.6z"/>
				<path class="st0" d="M145.9,17.8L145.9,17.8h-9.3c0.4,1.5,1.5,2.7,3.6,2.7c1.2,0,2-0.4,2.5-1.1h3.1c-0.7,2.2-3,3.7-5.7,3.7
					c-3.9,0-6.5-2.8-6.5-6.4s2.6-6.4,6.3-6.4c3.5,0,6.1,2.5,6.1,6.2C146,16.8,146,17.3,145.9,17.8z M136.6,15.4h6.6
					c-0.3-1.7-1.3-2.8-3.2-2.8C138.1,12.6,137,13.8,136.6,15.4z"/>
			</g>
			<g>
				<path class="st1" d="M21,6.8C21,4.1,18.6,2,15.7,2c-0.5,0-1.1,0.1-1.6,0.2c-0.9-0.6-2-0.9-3.2-0.9S8.7,1.6,7.8,2.2
					C7.3,2.1,6.8,2,6.3,2C3.4,2,1,4.1,1,6.8c0,2,1.4,3.7,3.3,4.4v9.7c2.1-0.7,4.4-1,6.8-1c2.2,0,4.4,0.3,6.4,0.9v-9.5
					C19.5,10.6,21,8.8,21,6.8z"/>
				<ellipse class="st2" cx="10.9" cy="22.7" rx="6.6" ry="1.9"/>
				<g>
					<path class="st1" d="M10.9,17.5c-3.6,0-6.6,0.9-6.6,1.9v3.3c0-1,3-1.9,6.6-1.9s6.6,0.9,6.6,1.9v-3.3
						C17.4,18.4,14.5,17.5,10.9,17.5z"/>
				</g>
				<path class="st1" d="M10.9,15.1c0,1.4,0,2.6,0,2.6S10.9,16.6,10.9,15.1s0-2.6,0-2.6S10.9,13.7,10.9,15.1z"/>
				<path class="st1" d="M7.2,15.1c0,1.4,0,2.6,0,2.6S7.2,16.6,7.2,15.1s0-2.6,0-2.6S7.2,13.7,7.2,15.1z"/>
				<path class="st1" d="M14.6,15.1c0,1.4,0,2.6,0,2.6S14.6,16.6,14.6,15.1s0-2.6,0-2.6S14.6,13.7,14.6,15.1z"/>
			</g>
		</g>
	</g>
</g>
</svg>
