<?xml version="1.0" encoding="utf-8"?>
<!-- Generator: Adobe Illustrator 22.1.0, SVG Export Plug-In . SVG Version: 6.00 Build 0)  -->
<svg version="1.1" id="Layer_1" xmlns="http://www.w3.org/2000/svg" xmlns:xlink="http://www.w3.org/1999/xlink" x="0px" y="0px"
	 viewBox="0 0 300 60" style="enable-background:new 0 0 300 60;" xml:space="preserve">
<style type="text/css">
	.st0{display:none;}
	.st1{display:inline;fill:#999999;}
	.st2{fill:#FFFFFF;}
</style>
<g id="Layer_2" class="st0">
	<rect class="st1" width="300" height="60"/>
</g>
<g id="Layer_8">
	<g>
		<g>
			<path class="st2" d="M84.2,23h-5.6v-6.3h-7.6v25h5.9v5.7H58.7v-5.7h5.9V16.7H57V23h-5.6V10.7h32.8L84.2,23L84.2,23z"/>
			<path class="st2" d="M117.2,47.3h-13.9v-5.7h3.9v-8c0-4.5-2.2-7-6-7c-2.1,0-4.5,1.3-6.4,3.7v11.2h4v5.7H84.9v-5.7h3.9L89,16.4
				h-4.2v-5.6h10.1l0,13.2c2.1-1.8,4.6-2.9,7.6-2.9c6.5,0,10.8,4.9,10.8,12.2v8.3h3.9L117.2,47.3L117.2,47.3z"/>
			<path class="st2" d="M141.1,37L141.1,37h-19c0.8,3.2,3.1,5.6,7.3,5.6c2.3,0,4.1-0.8,5-2.4h6.4c-1.4,4.7-6,7.8-11.6,7.8
				c-7.8,0-13.1-6-13.1-13.5c0-7.6,5.3-13.4,12.9-13.4c7.2,0,12.3,5.3,12.3,12.9C141.3,35.1,141.3,36,141.1,37z M122.2,32.1h13.4
				c-0.5-3.5-2.7-6-6.4-6C125.3,26.1,123,28.8,122.2,32.1z"/>
			<path class="st2" d="M177.5,47.3h-13.3v-5.4l-5.6-7.1h-6.8v6.8h4.7v5.7h-15.4v-5.7h4.5V16.4h-4.5v-5.7h18.4
				c8.1,0,13.4,4.9,13.4,12.3c0,5.2-2.8,9.1-7.5,10.9l6.2,7.8h5.9L177.5,47.3L177.5,47.3z M159.5,29.3c4.3,0,7.3-2.4,7.3-6.3
				c0-3.8-2.9-6.3-7.3-6.3h-7.7v12.6H159.5z"/>
			<path class="st2" d="M201,37L201,37h-19c0.8,3.2,3.1,5.6,7.3,5.6c2.3,0,4.1-0.8,5-2.4h6.4c-1.4,4.7-6,7.8-11.6,7.8
				c-7.8,0-13.1-6-13.1-13.5c0-7.6,5.3-13.4,12.9-13.4c7.2,0,12.3,5.3,12.3,12.9C201.1,35.1,201.1,36,201,37z M182,32.1h13.4
				c-0.5-3.5-2.7-6-6.4-6C185.1,26.1,182.8,28.8,182,32.1z"/>
			<path class="st2" d="M227.3,37.8c-0.8,6-5.5,10.1-12.1,10.1c-7.8,0-13.6-5.6-13.6-13.3c0-7.6,5.5-13.2,13.1-13.2
				c2.8,0,5.1,0.9,6.9,2.4v-1.9h5.6v9.5h-5.8c-0.7-2.7-3.1-4.5-6.2-4.5c-4.3,0-7.6,3.4-7.6,7.7c0,4.3,3.3,7.7,7.6,7.7
				c3,0,5.3-1.8,6-4.5L227.3,37.8L227.3,37.8z"/>
			<path class="st2" d="M242.4,47.3h-13.9v-5.7h3.9V27.5h-3.9v-5.7h9.9v19.7h4L242.4,47.3L242.4,47.3z M231.3,14.8
				c0-2.4,1.8-4.2,4.1-4.2c2.2,0,4.1,1.8,4.1,4.2c0,2.3-1.8,4.1-4.1,4.1C233.1,18.8,231.3,17.1,231.3,14.8z"/>
			<path class="st2" d="M271.5,34.6c0,7.4-5.5,13.3-12.4,13.3c-3,0-5.6-0.9-7.6-2.4v7.3h5.7v5.7h-15.6v-5.7h3.9V27.6h-3.9v-5.7h9.9
				v1.8c2-1.5,4.6-2.4,7.6-2.4C265.9,21.2,271.5,27.2,271.5,34.6z M265.4,34.6c0-4.2-3-8-7.3-8c-2.3,0-4.5,0.8-6.7,3v9.9
				c2.1,2.2,4.4,3,6.7,3C262.4,42.5,265.4,38.8,265.4,34.6z"/>
			<path class="st2" d="M296.8,37L296.8,37h-18.9c0.8,3.2,3.1,5.6,7.3,5.6c2.3,0,4.1-0.8,5-2.4h6.4c-1.4,4.7-6,7.8-11.6,7.8
				c-7.8,0-13.1-6-13.1-13.5c0-7.6,5.3-13.4,12.9-13.4c7.2,0,12.3,5.3,12.3,12.9C297,35.1,297,36,296.8,37z M277.9,32.1h13.4
				c-0.5-3.5-2.7-6-6.4-6C281,26.1,278.7,28.8,277.9,32.1z"/>
		</g>
		<path class="st2" d="M32.9,2.6c-0.9,0-1.9,0.1-2.9,0.3C28,1.7,25.7,1,23.3,1c-2.4,0-4.7,0.6-6.7,1.9c-0.9-0.2-1.9-0.3-2.9-0.3
			C7,2.6,1.5,7.7,1.5,14c0,4.3,2.6,8.2,6.7,10.2v16.3v5.1v1.7l0,0c0.1,4.3,9.3,5.4,14.8,5.4c5.5,0,14.7-1.1,14.8-5.4h0v-2l0,0V24.4
			c4.4-1.8,7.2-5.9,7.2-10.4C45.1,7.7,39.6,2.6,32.9,2.6z M32,36c-1-0.2-2-0.4-3-0.6v-9.3h3V36z M24.5,35c-0.5,0-1,0-1.5,0
			s-1,0-1.5,0v-8.9h3V35z M17,35.4c-1,0.1-2,0.3-3,0.6v-9.9h3V35.4z M23,49.7c-7.2,0-11.2-1.7-11.8-2.5c0.7-0.9,5-2.5,11.8-2.5
			c5.2,0,9,0.9,10.7,1.7c0.6,0.3,0.9,0.5,1,0.7C34.2,48,30.3,49.7,23,49.7z"/>
	</g>
</g>
</svg>
