<svg xmlns="http://www.w3.org/2000/svg" viewBox="0 0 151.06 25.43"><g id="Layer_2" data-name="Layer 2"><g id="_21_-_ReviewThis" data-name="21 - ReviewThis"><path d="M102.11,8.2H96.38V25.14H95V8.2H89.24V6.9h12.87Z"/><path d="M122,6.9V25.14h-1.38V16.41H110v8.73h-1.38V6.9H110v8.21h10.61V6.9Z"/><path d="M131.57,6.9V25.14h-1.38V6.9Z"/><path d="M138.4,21.13l1.19-.7c.63,2.18,2.48,3.67,5.48,3.67s4.58-1.56,4.58-3.65-1.92-3-4.71-3.91c-3.05-1-5.79-1.85-5.79-5,0-3,2.43-4.9,5.53-4.9a6.13,6.13,0,0,1,5.86,3.83l-1.17.65a4.8,4.8,0,0,0-4.69-3.15c-2.53,0-4.12,1.49-4.12,3.52,0,2.19,1.85,2.87,4.46,3.73,3.23,1.07,6,2.08,6,5.24s-2.37,5-6,5C141.65,25.43,139.23,23.71,138.4,21.13Z"/><path d="M17.14,21.29H15.77v4.14H12.89V12.83h5a4.31,4.31,0,0,1,4.32,4.32,4.15,4.15,0,0,1-2.32,3.65l2.68,4.63h-3.1Zm-1.37-2.52h2.16a1.53,1.53,0,0,0,1.44-1.62,1.53,1.53,0,0,0-1.44-1.62H15.77Z"/><path d="M34.39,22.66v2.77H26.47V12.83H34.3V15.6H29.35v2.09h4.5v2.74h-4.5v2.23Z"/><path d="M37.45,12.83H40.6l2.79,9.27,2.79-9.27h3.15l-4.11,12.6H41.55Z"/><path d="M55.8,12.83v12.6H52.92V12.83Z"/><path d="M68.4,22.66v2.77H60.48V12.83h7.83V15.6h-5v2.09h4.5v2.74h-4.5v2.23Z"/><path d="M71.64,12.83h3l2.18,8.82,2.43-8.82h2.34L84,21.65l2.18-8.82h3l-3.47,12.6H82.49l-2-7.43-2,7.43H75.11Z"/><polygon points="2.68 11.15 2.68 5.45 0 5.45 0 13.83 8.38 13.83 8.38 11.15 2.68 11.15"/><polygon points="11.16 2.68 11.16 8.38 13.85 8.38 13.85 0 5.46 0 5.46 2.68 11.16 2.68"/></g></g></svg>