<svg xmlns="http://www.w3.org/2000/svg" viewBox="0 0 143.75 86.04"><defs><style>.cls-1{fill:#1566fb;}.cls-2{fill:#202020;}.cls-3{fill:#fff;}</style></defs><g id="Layer_2" data-name="Layer 2"><g id="_21_-_ReviewThis" data-name="21 - ReviewThis"><rect class="cls-1" x="42.02" y="37.24" width="64.86" height="48.8"/><rect class="cls-1" x="50.62" width="64.81" height="39.64"/><rect class="cls-2" y="8.55" width="106.88" height="31.1"/><path class="cls-3" d="M15.73,26.49H14.21V31.1H11v-14h5.6a4.79,4.79,0,0,1,4.8,4.8A4.61,4.61,0,0,1,18.83,26l3,5.15H18.37Zm-1.52-2.8h2.4a1.81,1.81,0,0,0,0-3.6h-2.4Z"/><path class="cls-3" d="M34.91,28V31.1h-8.8v-14h8.7v3.08h-5.5v2.32h5v3h-5V28Z"/><path class="cls-3" d="M38.31,17.09h3.5l3.1,10.31L48,17.09h3.5L47,31.1H42.87Z"/><path class="cls-3" d="M58.71,17.09v14h-3.2v-14Z"/><path class="cls-3" d="M72.71,28V31.1h-8.8v-14h8.7v3.08h-5.5v2.32h5v3h-5V28Z"/><path class="cls-3" d="M76.31,17.09h3.36l2.42,9.81,2.7-9.81h2.6l2.7,9.81,2.42-9.81h3.36L92,31.1H88.37l-2.28-8.27L83.81,31.1H80.17Z"/><rect class="cls-2" x="50.57" y="39.42" width="93.16" height="38.1" transform="translate(0.07 -0.11) rotate(0.07)"/><path class="cls-3" d="M76.38,49.47h-6.6V69H68.16V49.47h-6.6V48H76.38Z"/><path class="cls-3" d="M99.27,48V69H97.68v-10H85.47V69H83.88V48h1.59v9.45H97.68V48Z"/><path class="cls-3" d="M110.28,48V69h-1.59V48Z"/><path class="cls-3" d="M118.14,64.35l1.38-.81c.72,2.52,2.85,4.23,6.3,4.23s5.28-1.8,5.28-4.2-2.22-3.48-5.43-4.5c-3.51-1.14-6.66-2.13-6.66-5.79,0-3.45,2.79-5.64,6.36-5.64a7.05,7.05,0,0,1,6.75,4.41l-1.35.75a5.52,5.52,0,0,0-5.4-3.63c-2.91,0-4.74,1.71-4.74,4,0,2.52,2.13,3.3,5.13,4.29,3.72,1.23,7,2.4,7,6,0,3.48-2.73,5.76-6.9,5.76C121.89,69.3,119.1,67.32,118.14,64.35Z"/></g></g></svg>