<svg id="_3_-_ScreenRant" data-name="3 - ScreenRant" xmlns="http://www.w3.org/2000/svg" viewBox="0 0 324.14 35.18"><defs><style>.cls-1{fill:#333;}.cls-2{fill:#d9a32e;}</style></defs><title>sr-logo-full-colored-dark</title><path class="cls-1" d="M83.48,304v-5.82a33.64,33.64,0,0,0,11.79,1.94q8,0,8-5.34,0-3.88-4.9-3.88H92.92q-10.65,0-10.65-9.71,0-10.67,15.17-10.68a35.43,35.43,0,0,1,11,1.7V278a31.43,31.43,0,0,0-11-1.94q-8.74,0-8.74,5.1,0,3.88,4.22,3.88h5.43q11.33,0,11.33,9.71,0,10.92-14.41,10.92A38,38,0,0,1,83.48,304Z" transform="translate(-82.27 -270.51)"/><path class="cls-1" d="M141.81,304a28.65,28.65,0,0,1-10.19,1.7q-18.68,0-18.68-18.08,0-17.11,18.68-17.11a28.62,28.62,0,0,1,10.19,1.7V278a24.2,24.2,0,0,0-9.7-1.94q-12.5,0-12.5,11.53,0,12.5,12.5,12.5a24.18,24.18,0,0,0,9.7-1.94V304Z" transform="translate(-82.27 -270.51)"/><path class="cls-1" d="M146.88,305.4V270.75h15.77q10.63,0,10.63,9.29,0,6.29-8.27,10.41l11,15h-8.1l-10.55-15.12V287.4q9.22-1.58,9.22-7.16,0-3.83-4.32-3.83h-8.81v29h-6.55Z" transform="translate(-82.27 -270.51)"/><path class="cls-1" d="M201.8,270.75v5.53H184.42V285H201v5.75H184.35v9.1h17.79v5.58H178v-34.7H201.8Z" transform="translate(-82.27 -270.51)"/><path class="cls-1" d="M230.84,270.75v5.53H213.47V285H230v5.75H213.4v9.1h17.79v5.58h-24.1v-34.7h23.76Z" transform="translate(-82.27 -270.51)"/><path class="cls-1" d="M236.13,305.45v-34.7h6.43L260.88,296V270.75h6.19v34.7h-6.43l-18.32-25.82v25.82h-6.19Z" transform="translate(-82.27 -270.51)"/><path class="cls-2" d="M278.43,305.4V270.75H294.2q10.63,0,10.63,9.29,0,6.29-8.27,10.41l11,15h-8.1l-10.56-15.12V287.4q9.22-1.58,9.22-7.16,0-3.83-4.32-3.83H285v29h-6.55Z" transform="translate(-82.27 -270.51)"/><path class="cls-2" d="M313.15,305.45h-6.6l14.73-34.7h6.92l15,34.7h-6.91l-4-9.46H320.85l2.21-5.58h7l-5.46-13Z" transform="translate(-82.27 -270.51)"/><path class="cls-2" d="M346.49,305.45v-34.7h6.43L371.24,296V270.75h6.19v34.7H371l-18.32-25.82v25.82h-6.19Z" transform="translate(-82.27 -270.51)"/><path class="cls-2" d="M406.4,270.75v5.58h-9.95v29.12H390V276.33h-9.95v-5.58H406.4Z" transform="translate(-82.27 -270.51)"/></svg>