<svg id="_14-_TheClever" data-name="14- TheClever" xmlns="http://www.w3.org/2000/svg" viewBox="0 0 324.9 66.9"><defs><style>.cls-1{fill:#eb1a21;}.cls-2{fill:#fff;}</style></defs><title>tc-logo-full-colored-light</title><path class="cls-1" d="M457,1682.84v66.9H781.9v-66.9H457Zm322.28,64.28H550.18v-61.66h229.1v61.66Z" transform="translate(-457 -1682.84)"/><path class="cls-2" d="M489.32,1697.48l-1,7.19h-6.87v30.4H471.9v-30.4h-7.36v-7.19h24.78Z" transform="translate(-457 -1682.84)"/><path class="cls-2" d="M508,1735.08v-15.8H501.5v15.8h-9.58v-37.6h9.58v14.39H508v-14.39h9.58v37.6H508Z" transform="translate(-457 -1682.84)"/><path class="cls-2" d="M542.35,1697.48l-1,6.76H531.26v8.44h8.87v6.65h-8.87v8.93H542v6.82H521.68v-37.6h20.67Z" transform="translate(-457 -1682.84)"/><path class="cls-2" d="M568,1730.55q-4.57-5.08-4.57-13.91a21.25,21.25,0,0,1,2.42-10.38,16.76,16.76,0,0,1,6.67-6.77,19.48,19.48,0,0,1,9.6-2.35,35.77,35.77,0,0,1,4.09.23q2,0.23,4.75.63a28.86,28.86,0,0,0,2.88.4l-0.61,11.06h-5.15l-1.67-7.63a4.56,4.56,0,0,0-1.77-.86,11.49,11.49,0,0,0-3.13-.35q-3.94,0-6.31,3.92t-2.37,11.39q0,7.27,2.3,11.72t6.64,4.44a9.72,9.72,0,0,0,3.18-.4,5.54,5.54,0,0,0,1.92-1.16l2.27-5.4,4.8,0.46-1,8.13a18,18,0,0,0-3.64.76,33.48,33.48,0,0,1-3.71.86,26.8,26.8,0,0,1-4.37.3Q572.58,1735.63,568,1730.55Z" transform="translate(-457 -1682.84)"/><path class="cls-2" d="M601.26,1731.29v-29.65l-3.84-.66v-3.43h17V1701l-4.8.66v29.6l9.8-.5,3.28-9.85,4.6,0.61-1.52,13.59H597.37v-3.23Z" transform="translate(-457 -1682.84)"/><path class="cls-2" d="M633.54,1731.29v-29.65l-4-.66v-3.43H657l0.66,8.79h-3.84l-1.72-5.05-10.2-.45v13.23l6.36-.15,0.86-4.14h3.43v12.58h-3.43l-0.81-4.44-6.41-.1v13.84l11.36-.66,3-6.51,4.14,1.16-1.21,9.44H629.65v-3.23Z" transform="translate(-457 -1682.84)"/><path class="cls-2" d="M660.05,1701v-3.43h16.21V1701l-4.14.66,7.17,22.12,1.31,4.6,1.06-4.65,6.77-22.07-3.94-.66v-3.43h12.68V1701l-3.28.66-11.41,33.79h-6.77L663,1701.64Z" transform="translate(-457 -1682.84)"/><path class="cls-2" d="M703.52,1731.29v-29.65l-4-.66v-3.43H727l0.66,8.79h-3.84l-1.72-5.05-10.2-.45v13.23l6.36-.15,0.86-4.14h3.44v12.58h-3.44l-0.81-4.44-6.41-.1v13.84l11.36-.66,3-6.51,4.14,1.16-1.21,9.44H699.63v-3.23Z" transform="translate(-457 -1682.84)"/><path class="cls-2" d="M732.81,1731.84l3.89-.56v-29.65l-3.74-.71v-3.38h7.68q1,0,2.1-.05t1.74-.1q2.73-.2,4.6-0.2a28.18,28.18,0,0,1,8.51,1,8.35,8.35,0,0,1,4.6,3.23,10.4,10.4,0,0,1,1.44,5.78,12,12,0,0,1-1.84,6.41,9.4,9.4,0,0,1-5.38,4.09,8,8,0,0,1,3.81,3.13,49.89,49.89,0,0,1,3.36,6q1.06,2.22,1.69,3.26a2.32,2.32,0,0,0,1.29,1.19l1.52,0.51v3.23h-9.34q-0.76,0-1.57-1.62t-2.17-5.1q-1.57-4.09-2.73-6.41a5.6,5.6,0,0,0-2.53-2.88H745v12.22l4.55,0.56v3.23H732.81v-3.23Zm20.51-18.06q1.52-2,1.52-6.24,0-3.64-1.49-5.33t-5-1.69a19.92,19.92,0,0,0-2.22.1q-0.86.1-1.06,0.1v15a17.87,17.87,0,0,0,2.53.1h1.52A5,5,0,0,0,753.32,1713.79Z" transform="translate(-457 -1682.84)"/></svg>