<svg id="_14-_TheClever" data-name="14- TheClever" xmlns="http://www.w3.org/2000/svg" viewBox="0 0 324.9 66.9"><defs><style>.cls-1{fill:#fff;}</style></defs><title>tc-logo-full-white</title><path class="cls-1" d="M-372.54,1688.76v66.9h324.9v-66.9h-324.9Zm31.35,21.84h-6.87V1741h-9.58v-30.4H-365v-7.19h24.78Zm29.28,30.4h-9.58v-15.8H-328V1741h-9.58v-37.6H-328v14.39h6.55V1703.4h9.58V1741Zm22.5-22.4v6.65h-8.87v8.93h10.77V1741h-20.34v-37.6h20.67l-1,6.76h-10.06v8.44h8.87ZM-50.26,1753h-229.1v-61.66h229.1V1753Z" transform="translate(372.54 -1688.76)"/><path class="cls-1" d="M-261.53,1736.47q-4.57-5.08-4.57-13.91a21.25,21.25,0,0,1,2.42-10.38,16.76,16.76,0,0,1,6.67-6.77,19.48,19.48,0,0,1,9.6-2.35,35.77,35.77,0,0,1,4.09.23q2,0.23,4.75.63a28.86,28.86,0,0,0,2.88.4l-0.61,11.06h-5.15l-1.67-7.63a4.56,4.56,0,0,0-1.77-.86,11.49,11.49,0,0,0-3.13-.35q-3.94,0-6.31,3.92t-2.37,11.39q0,7.27,2.3,11.72t6.64,4.44a9.72,9.72,0,0,0,3.18-.4,5.54,5.54,0,0,0,1.92-1.16l2.27-5.4,4.8,0.46-1,8.13a18,18,0,0,0-3.64.76,33.48,33.48,0,0,1-3.71.86,26.8,26.8,0,0,1-4.37.3Q-257,1741.55-261.53,1736.47Z" transform="translate(372.54 -1688.76)"/><path class="cls-1" d="M-228.27,1737.2v-29.65l-3.84-.66v-3.43h17v3.43l-4.8.66v29.6l9.8-.5,3.28-9.85,4.6,0.61-1.52,13.59h-28.38v-3.23Z" transform="translate(372.54 -1688.76)"/><path class="cls-1" d="M-196,1737.2v-29.65l-4-.66v-3.43h27.43l0.66,8.79h-3.84l-1.72-5.05-10.2-.45V1720l6.36-.15,0.86-4.14H-177v12.58h-3.43l-0.81-4.44-6.41-.1v13.84l11.36-.66,3-6.51,4.14,1.16-1.21,9.44h-29.55v-3.23Z" transform="translate(372.54 -1688.76)"/><path class="cls-1" d="M-169.48,1706.9v-3.43h16.21v3.43l-4.14.66,7.17,22.12,1.31,4.6,1.06-4.65,6.77-22.07-3.94-.66v-3.43h12.68v3.43l-3.28.66-11.41,33.79h-6.77l-12.68-33.79Z" transform="translate(372.54 -1688.76)"/><path class="cls-1" d="M-126,1737.2v-29.65l-4-.66v-3.43h27.42l0.66,8.79h-3.84l-1.72-5.05-10.2-.45V1720l6.36-.15,0.86-4.14H-107v12.58h-3.44l-0.81-4.44-6.41-.1v13.84l11.36-.66,3-6.51,4.14,1.16-1.21,9.44h-29.55v-3.23Z" transform="translate(372.54 -1688.76)"/><path class="cls-1" d="M-96.72,1737.76l3.89-.56v-29.65l-3.74-.71v-3.38h7.68q1,0,2.1-.05t1.74-.1q2.73-.2,4.6-0.2a28.18,28.18,0,0,1,8.51,1,8.35,8.35,0,0,1,4.6,3.23,10.4,10.4,0,0,1,1.44,5.78,12,12,0,0,1-1.84,6.41,9.4,9.4,0,0,1-5.38,4.09,8,8,0,0,1,3.81,3.13,49.89,49.89,0,0,1,3.36,6q1.06,2.22,1.69,3.26a2.32,2.32,0,0,0,1.29,1.19l1.52,0.51V1741h-9.34q-0.76,0-1.57-1.62t-2.17-5.1q-1.57-4.09-2.73-6.41A5.6,5.6,0,0,0-79.8,1725h-4.7v12.22l4.55,0.56V1741H-96.72v-3.23Zm20.51-18.06q1.52-2,1.52-6.24,0-3.64-1.49-5.33t-5-1.69a19.92,19.92,0,0,0-2.22.1q-0.86.1-1.06,0.1v15a17.87,17.87,0,0,0,2.53.1h1.52A5,5,0,0,0-76.22,1719.7Z" transform="translate(372.54 -1688.76)"/></svg>