<svg xmlns="http://www.w3.org/2000/svg" xmlns:xlink="http://www.w3.org/1999/xlink" viewBox="0 0 60 60.87"><defs><style>.cls-1{fill:url(#linear-gradient);}.cls-2{fill:#fff;}</style><linearGradient id="linear-gradient" y1="30.43" x2="60" y2="30.43" gradientUnits="userSpaceOnUse"><stop offset="0" stop-color="#f0c"/><stop offset="1" stop-color="#ff0049"/></linearGradient></defs><title>Asset 48</title><g id="Layer_2" data-name="Layer 2"><g id="_15_-_TheTrendy" data-name="15 - TheTrendy"><path class="cls-1" d="M57,3V57.87H3V3H57m3-3H0V60.87H60V0Z"/><path class="cls-2" d="M40.82,15.77v4.75a1,1,0,0,1-1.14,1.14H33.79V45.09a1,1,0,0,1-1.14,1.14h-5.1a1,1,0,0,1-1.14-1.14l0-23.43H20.32a1,1,0,0,1-1.14-1.14V15.77a1,1,0,0,1,1.14-1.14H39.68A1,1,0,0,1,40.82,15.77Z"/></g></g></svg>