<svg xmlns="http://www.w3.org/2000/svg" xmlns:xlink="http://www.w3.org/1999/xlink" viewBox="0 0 124.79 24.36"><defs><style>.cls-1{fill:url(#linear-gradient);}.cls-2{fill:url(#linear-gradient-2);}.cls-3{fill:url(#linear-gradient-3);}.cls-4{fill:url(#linear-gradient-4);}.cls-5{fill:url(#linear-gradient-5);}.cls-6{fill:url(#linear-gradient-6);}.cls-7{fill:url(#linear-gradient-7);}.cls-8{fill:url(#linear-gradient-8);}.cls-9{fill:url(#linear-gradient-9);}.cls-10{fill:url(#linear-gradient-10);}.cls-11{fill:url(#linear-gradient-11);}.cls-12{fill:url(#linear-gradient-12);}.cls-13{fill:url(#linear-gradient-13);}.cls-14{fill:url(#linear-gradient-14);}.cls-15{fill:url(#linear-gradient-15);}.cls-16{fill:url(#linear-gradient-16);}.cls-17{fill:url(#linear-gradient-17);}.cls-18{fill:url(#linear-gradient-18);}.cls-19{fill:#fff;}</style><linearGradient id="linear-gradient" x1="-1.09" y1="9.53" x2="132.19" y2="10.84" gradientUnits="userSpaceOnUse"><stop offset="0" stop-color="#f0c"/><stop offset="1" stop-color="#ff0049"/></linearGradient><linearGradient id="linear-gradient-2" x1="-1.09" y1="9.53" x2="132.19" y2="10.84" xlink:href="#linear-gradient"/><linearGradient id="linear-gradient-3" x1="-1.09" y1="9.45" x2="132.19" y2="10.76" xlink:href="#linear-gradient"/><linearGradient id="linear-gradient-4" x1="-1.09" y1="9.45" x2="132.19" y2="10.76" xlink:href="#linear-gradient"/><linearGradient id="linear-gradient-5" x1="-1.11" y1="11.81" x2="132.16" y2="13.13" xlink:href="#linear-gradient"/><linearGradient id="linear-gradient-6" x1="-1.11" y1="11.81" x2="132.16" y2="13.13" xlink:href="#linear-gradient"/><linearGradient id="linear-gradient-7" x1="-1.08" y1="9.11" x2="132.19" y2="10.42" xlink:href="#linear-gradient"/><linearGradient id="linear-gradient-8" x1="-1.08" y1="9.11" x2="132.19" y2="10.42" xlink:href="#linear-gradient"/><linearGradient id="linear-gradient-9" x1="-1.1" y1="11.46" x2="132.17" y2="12.77" xlink:href="#linear-gradient"/><linearGradient id="linear-gradient-10" x1="-1.1" y1="11.46" x2="132.17" y2="12.77" xlink:href="#linear-gradient"/><linearGradient id="linear-gradient-11" x1="-1.1" y1="11.45" x2="132.17" y2="12.77" xlink:href="#linear-gradient"/><linearGradient id="linear-gradient-12" x1="-1.1" y1="11.45" x2="132.17" y2="12.77" xlink:href="#linear-gradient"/><linearGradient id="linear-gradient-13" x1="-1.1" y1="11.15" x2="132.17" y2="12.46" xlink:href="#linear-gradient"/><linearGradient id="linear-gradient-14" x1="-1.1" y1="11.15" x2="132.17" y2="12.46" xlink:href="#linear-gradient"/><linearGradient id="linear-gradient-15" x1="-1.08" y1="8.76" x2="132.19" y2="10.08" xlink:href="#linear-gradient"/><linearGradient id="linear-gradient-16" x1="-1.08" y1="8.76" x2="132.19" y2="10.08" xlink:href="#linear-gradient"/><linearGradient id="linear-gradient-17" x1="-1.13" y1="13.54" x2="132.15" y2="14.86" xlink:href="#linear-gradient"/><linearGradient id="linear-gradient-18" x1="-1.13" y1="13.54" x2="132.15" y2="14.86" xlink:href="#linear-gradient"/></defs><title>Asset 3</title><g id="Layer_2" data-name="Layer 2"><g id="Layer_3" data-name="Layer 3"><path class="cls-1" d="M12.8.71a.59.59,0,0,1,.66.64V4a.59.59,0,0,1-.66.64H9.22V17.91a.59.59,0,0,1-.66.64H5.64A.59.59,0,0,1,5,17.91V4.64H1.4A.59.59,0,0,1,.74,4V1.35A.59.59,0,0,1,1.4.71H12.8m0-.63H1.4A1.23,1.23,0,0,0,.08,1.35V4A1.23,1.23,0,0,0,1.4,5.27H4.32V17.91a1.23,1.23,0,0,0,1.32,1.28H8.56a1.23,1.23,0,0,0,1.32-1.28V5.27H12.8A1.23,1.23,0,0,0,14.13,4V1.35A1.23,1.23,0,0,0,12.8.08Z"/><path class="cls-2" d="M8.56,19.26H5.64a1.3,1.3,0,0,1-1.4-1.35V5.35H1.4A1.3,1.3,0,0,1,0,4V1.35A1.3,1.3,0,0,1,1.4,0H12.8a1.3,1.3,0,0,1,1.4,1.35V4a1.3,1.3,0,0,1-1.4,1.35H10V17.91A1.3,1.3,0,0,1,8.56,19.26ZM1.4.15A1.16,1.16,0,0,0,.15,1.35V4A1.16,1.16,0,0,0,1.4,5.2h3V17.91a1.16,1.16,0,0,0,1.25,1.2H8.56a1.16,1.16,0,0,0,1.25-1.2V5.2h3A1.16,1.16,0,0,0,14.05,4V1.35A1.16,1.16,0,0,0,12.8.15ZM8.56,18.62H5.64a.66.66,0,0,1-.73-.71V4.71H1.4A.66.66,0,0,1,.66,4V1.35A.66.66,0,0,1,1.4.64H12.8a.67.67,0,0,1,.74.71V4a.67.67,0,0,1-.74.71H9.3v13.2A.66.66,0,0,1,8.56,18.62ZM1.4.79a.52.52,0,0,0-.59.56V4a.52.52,0,0,0,.59.56H5.06V17.91a.51.51,0,0,0,.58.56H8.56a.52.52,0,0,0,.59-.56V4.56H12.8A.52.52,0,0,0,13.39,4V1.35A.52.52,0,0,0,12.8.79Z"/><path class="cls-3" d="M18.5.71a.59.59,0,0,1,.67.64V7a4,4,0,0,1,3.44-1.52c2.47,0,4.24,1.84,4.24,5v7.44a.59.59,0,0,1-.66.64H23.54a.59.59,0,0,1-.66-.64V10.8A1.65,1.65,0,0,0,21.1,9c-1.19,0-1.93.63-1.93,2.14v6.8a.59.59,0,0,1-.67.64H15.85a.59.59,0,0,1-.66-.64V1.35a.59.59,0,0,1,.66-.64H18.5m0-.63H15.85a1.23,1.23,0,0,0-1.32,1.27V17.91a1.23,1.23,0,0,0,1.32,1.28H18.5a1.24,1.24,0,0,0,1.33-1.28v-6.8c0-1.32.61-1.51,1.27-1.51s1.11.4,1.11,1.2v7.11a1.24,1.24,0,0,0,1.33,1.28h2.65a1.24,1.24,0,0,0,1.33-1.28V10.47c0-3.38-2-5.66-4.91-5.66a5.43,5.43,0,0,0-2.78.69V1.35A1.23,1.23,0,0,0,18.5.08Z"/><path class="cls-4" d="M26.19,19.26H23.54a1.3,1.3,0,0,1-1.4-1.35V10.8c0-.76-.33-1.12-1-1.12s-1.2.11-1.2,1.43v6.8a1.3,1.3,0,0,1-1.4,1.35H15.85a1.3,1.3,0,0,1-1.4-1.35V1.35A1.3,1.3,0,0,1,15.85,0H18.5a1.3,1.3,0,0,1,1.4,1.35v4a5.59,5.59,0,0,1,2.71-.64c3,0,5,2.3,5,5.73v7.44A1.3,1.3,0,0,1,26.19,19.26ZM21.1,9.53c.79,0,1.19.43,1.19,1.27v7.11a1.16,1.16,0,0,0,1.25,1.2h2.65a1.16,1.16,0,0,0,1.25-1.2V10.47c0-3.34-1.94-5.58-4.83-5.58a5.3,5.3,0,0,0-2.74.68l-.12.07V1.35A1.16,1.16,0,0,0,18.5.15H15.85a1.16,1.16,0,0,0-1.25,1.2V17.91a1.16,1.16,0,0,0,1.25,1.2H18.5a1.16,1.16,0,0,0,1.25-1.2v-6.8C19.75,9.72,20.43,9.53,21.1,9.53Zm5.09,9.09H23.54a.67.67,0,0,1-.74-.71V10.8A1.57,1.57,0,0,0,21.1,9c-1.23,0-1.86.7-1.86,2.07v6.8a.66.66,0,0,1-.74.71H15.85a.66.66,0,0,1-.74-.71V1.35a.66.66,0,0,1,.74-.71H18.5a.66.66,0,0,1,.74.71v5.4a4.19,4.19,0,0,1,3.37-1.37c2.62,0,4.32,2,4.32,5.09v7.44A.67.67,0,0,1,26.19,18.62ZM21.1,8.89A1.73,1.73,0,0,1,23,10.8v7.11a.52.52,0,0,0,.59.56h2.65c.39,0,.59-.19.59-.56V10.47c0-3-1.64-4.94-4.17-4.94A3.83,3.83,0,0,0,19.23,7l-.14.19V1.35c0-.37-.2-.56-.59-.56H15.85a.52.52,0,0,0-.59.56V17.91a.52.52,0,0,0,.59.56H18.5c.39,0,.59-.19.59-.56v-6.8C19.09,9.66,19.79,8.89,21.1,8.89Z"/><path class="cls-5" d="M35.87,5.45a6.51,6.51,0,0,1,6.68,6.73c0,.33,0,.64,0,.94a.64.64,0,0,1-.72.59H32.93A3,3,0,0,0,36,15.82a3.22,3.22,0,0,0,2-.64,1.25,1.25,0,0,1,.82-.33l2.55,0c.47,0,.74.3.53.71-1,2.22-3.21,3.36-5.92,3.36-4.4,0-7.21-2.93-7.21-6.72s2.92-6.73,7.11-6.73m-3,5.35h5.68a2.64,2.64,0,0,0-2.75-2,2.81,2.81,0,0,0-2.93,2m3-6c-4.5,0-7.77,3.1-7.77,7.37s3.24,7.36,7.87,7.36c3,0,5.41-1.36,6.52-3.74a1,1,0,0,0,0-1.07,1.09,1.09,0,0,0-.45-.4,1.25,1.25,0,0,0,1.14-1.13c0-.34.06-.66.06-1a7.19,7.19,0,0,0-7.34-7.37ZM34,10.17a2.36,2.36,0,0,1,1.84-.69,2.12,2.12,0,0,1,1.7.69Zm0,4.17h4.15a2.55,2.55,0,0,0-.56.35,2.67,2.67,0,0,1-1.55.49,2.53,2.53,0,0,1-2-.84Z"/><path class="cls-6" d="M36,19.62c-4.68,0-7.94-3.06-7.94-7.44s3.29-7.44,7.84-7.44a7.27,7.27,0,0,1,7.42,7.44c0,.36,0,.68-.06,1a1.34,1.34,0,0,1-1,1.18,1.05,1.05,0,0,1,.31.32,1.13,1.13,0,0,1,0,1.15C41.44,18.24,39,19.62,36,19.62Zm-.1-14.73c-4.46,0-7.69,3.07-7.69,7.29s3.2,7.29,7.79,7.29c3,0,5.36-1.35,6.45-3.7a1,1,0,0,0,0-1A1,1,0,0,0,42,14.4l-.23-.11.25,0a1.19,1.19,0,0,0,1.08-1.07c0-.34.06-.66.06-1A7.12,7.12,0,0,0,35.87,4.89ZM36,19c-4.29,0-7.28-2.8-7.28-6.8s3-6.8,7.18-6.8a6.55,6.55,0,0,1,6.75,6.8c0,.33,0,.65,0,1a.7.7,0,0,1-.79.65H33a2.93,2.93,0,0,0,3,2,3.19,3.19,0,0,0,1.91-.62,1.31,1.31,0,0,1,.87-.35l2.55,0A.68.68,0,0,1,42,15a.54.54,0,0,1,0,.55C40.93,17.77,38.81,19,36,19Zm-.1-13.45c-4.08,0-7,2.79-7,6.65s2.93,6.65,7.13,6.65c2.77,0,4.85-1.18,5.85-3.32a.39.39,0,0,0,0-.4.54.54,0,0,0-.48-.21l-2.55,0a1.18,1.18,0,0,0-.77.31,3.34,3.34,0,0,1-2,.66,3.05,3.05,0,0,1-3.17-2.17l0-.1h9c.39,0,.6-.17.64-.52a9,9,0,0,0,0-.93A6.4,6.4,0,0,0,35.87,5.53ZM36,15.26a2.6,2.6,0,0,1-2.1-.87l-.09-.12h4.68l-.35.14a2.45,2.45,0,0,0-.55.34A2.69,2.69,0,0,1,36,15.26Zm-1.87-.84a2.54,2.54,0,0,0,1.87.69,2.58,2.58,0,0,0,1.5-.48l.3-.21Zm4.53-3.54H32.81l0-.1a2.88,2.88,0,0,1,3-2,2.71,2.71,0,0,1,2.82,2ZM33,10.73h5.47a2.58,2.58,0,0,0-2.65-1.81A2.74,2.74,0,0,0,33,10.73Zm4.68-.49H33.84l.11-.13a2.44,2.44,0,0,1,1.89-.71,2.2,2.2,0,0,1,1.76.72Zm-3.51-.15h3.18a2.17,2.17,0,0,0-1.53-.54A2.36,2.36,0,0,0,34.19,10.09Z"/><path class="cls-7" d="M55.62.71a.59.59,0,0,1,.66.64V4a.59.59,0,0,1-.66.64H52V17.91a.59.59,0,0,1-.66.64H48.46a.59.59,0,0,1-.66-.64V4.64H44.22A.59.59,0,0,1,43.56,4V1.35a.59.59,0,0,1,.66-.64h11.4m0-.63H44.22A1.23,1.23,0,0,0,42.9,1.35V4a1.23,1.23,0,0,0,1.32,1.27h2.92V17.91a1.23,1.23,0,0,0,1.32,1.28h2.92a1.24,1.24,0,0,0,1.33-1.28V5.27h2.91A1.23,1.23,0,0,0,57,4V1.35A1.23,1.23,0,0,0,55.62.08Z"/><path class="cls-8" d="M51.38,19.26H48.46a1.3,1.3,0,0,1-1.4-1.35V5.35H44.22A1.3,1.3,0,0,1,42.82,4V1.35A1.3,1.3,0,0,1,44.22,0h11.4A1.3,1.3,0,0,1,57,1.35V4a1.3,1.3,0,0,1-1.4,1.35H52.78V17.91A1.3,1.3,0,0,1,51.38,19.26ZM44.22.15A1.16,1.16,0,0,0,43,1.35V4a1.16,1.16,0,0,0,1.25,1.2h3V17.91a1.16,1.16,0,0,0,1.25,1.2h2.92a1.16,1.16,0,0,0,1.25-1.2V5.2h3A1.16,1.16,0,0,0,56.87,4V1.35A1.16,1.16,0,0,0,55.62.15Zm7.16,18.47H48.46a.66.66,0,0,1-.73-.71V4.71H44.22A.66.66,0,0,1,43.48,4V1.35a.66.66,0,0,1,.74-.71h11.4a.67.67,0,0,1,.74.71V4a.67.67,0,0,1-.74.71h-3.5v13.2A.67.67,0,0,1,51.38,18.62ZM44.22.79a.52.52,0,0,0-.59.56V4a.52.52,0,0,0,.59.56h3.66V17.91a.51.51,0,0,0,.58.56h2.92a.52.52,0,0,0,.59-.56V4.56h3.65A.52.52,0,0,0,56.21,4V1.35a.52.52,0,0,0-.59-.56Z"/><path class="cls-9" d="M64.09,5.59c.36,0,.55.26.55.63v3c0,.41-.19.61-.53.61H64a2.52,2.52,0,0,0-2.77,2.7v5.38a.59.59,0,0,1-.66.64H57.88a.59.59,0,0,1-.67-.64V6.45a.59.59,0,0,1,.67-.64h2.65a.59.59,0,0,1,.66.64V7.82A3.2,3.2,0,0,1,64,5.6h.14m0-.64-.26,0a4.21,4.21,0,0,0-2.1.89,1.25,1.25,0,0,0-1.2-.7H57.88a1.23,1.23,0,0,0-1.33,1.28V17.91a1.23,1.23,0,0,0,1.33,1.27h2.65a1.23,1.23,0,0,0,1.32-1.27V12.53a2,2,0,0,1,.62-1.61A2.37,2.37,0,0,1,64,10.47h.12A1.15,1.15,0,0,0,65.3,9.22v-3A1.19,1.19,0,0,0,64.09,5Z"/><path class="cls-10" d="M60.53,19.26H57.88a1.31,1.31,0,0,1-1.41-1.35V6.45A1.31,1.31,0,0,1,57.88,5.1h2.65a1.34,1.34,0,0,1,1.23.65,4.38,4.38,0,0,1,2.06-.85l.27,0a1.25,1.25,0,0,1,1.28,1.34v3a1.22,1.22,0,0,1-1.29,1.33H64a2.29,2.29,0,0,0-1.44.44,1.93,1.93,0,0,0-.59,1.55v5.38A1.3,1.3,0,0,1,60.53,19.26Zm-2.65-14a1.17,1.17,0,0,0-1.26,1.2V17.91a1.17,1.17,0,0,0,1.26,1.2h2.65a1.16,1.16,0,0,0,1.25-1.2V12.53a2.05,2.05,0,0,1,.65-1.66A2.4,2.4,0,0,1,64,10.39h.13a1.07,1.07,0,0,0,1.13-1.18v-3A1.11,1.11,0,0,0,64.09,5l-.25,0a4.27,4.27,0,0,0-2.06.87L61.71,6l-.05-.09a1.16,1.16,0,0,0-1.13-.65Zm2.65,13.37H57.88a.66.66,0,0,1-.74-.71V6.45a.66.66,0,0,1,.74-.72h2.65a.66.66,0,0,1,.73.72v1a3.34,3.34,0,0,1,2.68-1.88h.15a.62.62,0,0,1,.62.7v3c0,.45-.21.69-.6.69H64a2.45,2.45,0,0,0-2.7,2.62v5.38A.66.66,0,0,1,60.53,18.62ZM57.88,5.88a.52.52,0,0,0-.59.57V17.91c0,.37.2.56.59.56h2.65a.51.51,0,0,0,.58-.56V12.53A2.58,2.58,0,0,1,64,9.76h.15q.45,0,.45-.54v-3c0-.39-.22-.61-.6-.54a3.11,3.11,0,0,0-2.7,2.16l-.15.48V6.45a.52.52,0,0,0-.58-.57Z"/><path class="cls-11" d="M72.54,5.45a6.51,6.51,0,0,1,6.68,6.73c0,.33,0,.64,0,.94a.64.64,0,0,1-.72.59H69.6a3,3,0,0,0,3.1,2.11,3.22,3.22,0,0,0,2-.64,1.25,1.25,0,0,1,.82-.33l2.55,0c.47,0,.74.3.53.71-1,2.22-3.21,3.36-5.92,3.36-4.4,0-7.21-2.93-7.21-6.72s2.92-6.73,7.11-6.73m-3,5.35h5.68a2.64,2.64,0,0,0-2.75-2,2.81,2.81,0,0,0-2.93,2m3-6c-4.5,0-7.77,3.1-7.77,7.37s3.24,7.36,7.87,7.36c3,0,5.41-1.36,6.52-3.74a1,1,0,0,0,0-1.07,1.09,1.09,0,0,0-.45-.4,1.25,1.25,0,0,0,1.14-1.13c0-.34.06-.66.06-1a7.2,7.2,0,0,0-7.34-7.37Zm-1.87,5.36a2.36,2.36,0,0,1,1.84-.69,2.12,2.12,0,0,1,1.7.69Zm0,4.17h4.15a2.55,2.55,0,0,0-.56.35,2.67,2.67,0,0,1-1.55.49,2.53,2.53,0,0,1-2-.84Z"/><path class="cls-12" d="M72.64,19.62c-4.68,0-7.94-3.06-7.94-7.44S68,4.74,72.54,4.74A7.27,7.27,0,0,1,80,12.18c0,.37,0,.7-.06,1a1.33,1.33,0,0,1-1,1.16,1.05,1.05,0,0,1,.31.32,1.13,1.13,0,0,1,0,1.15C78.11,18.24,75.71,19.62,72.64,19.62Zm-.1-14.73c-4.46,0-7.69,3.07-7.69,7.29s3.2,7.29,7.79,7.29c3,0,5.36-1.35,6.45-3.7a1,1,0,0,0,0-1,1,1,0,0,0-.42-.37l-.23-.11.25,0a1.19,1.19,0,0,0,1.08-1.07c0-.32.06-.65.06-1A7.12,7.12,0,0,0,72.54,4.89ZM72.64,19c-4.29,0-7.28-2.8-7.28-6.8s3-6.8,7.18-6.8a6.55,6.55,0,0,1,6.75,6.8c0,.33,0,.65-.05,1a.7.7,0,0,1-.79.65H69.7a2.93,2.93,0,0,0,3,2,3.21,3.21,0,0,0,1.91-.62,1.34,1.34,0,0,1,.87-.35l2.54,0a.69.69,0,0,1,.62.28.54.54,0,0,1,0,.55C77.6,17.77,75.48,19,72.64,19Zm-.1-13.45c-4.08,0-7,2.79-7,6.65s2.93,6.65,7.13,6.65c2.77,0,4.85-1.18,5.85-3.32a.39.39,0,0,0,0-.4A.55.55,0,0,0,78,14.9l-2.55,0a1.18,1.18,0,0,0-.77.31,3.34,3.34,0,0,1-2,.66,3.05,3.05,0,0,1-3.17-2.17l0-.1h9c.39,0,.6-.17.64-.52a9,9,0,0,0,0-.93A6.4,6.4,0,0,0,72.54,5.53Zm.16,9.73a2.6,2.6,0,0,1-2.1-.87l-.09-.12h4.68l-.35.14a2.14,2.14,0,0,0-.55.34A2.69,2.69,0,0,1,72.7,15.26Zm-1.87-.84a2.54,2.54,0,0,0,1.87.69,2.58,2.58,0,0,0,1.5-.48,2.28,2.28,0,0,1,.3-.21Zm4.53-3.54H69.48l0-.1a2.88,2.88,0,0,1,3-2,2.71,2.71,0,0,1,2.82,2Zm-5.67-.15h5.47a2.58,2.58,0,0,0-2.65-1.81A2.74,2.74,0,0,0,69.69,10.73Zm4.68-.49H70.51l.11-.13a2.44,2.44,0,0,1,1.89-.71,2.2,2.2,0,0,1,1.76.72Zm-3.51-.15H74a2.17,2.17,0,0,0-1.53-.54A2.36,2.36,0,0,0,70.86,10.09Z"/><path class="cls-13" d="M88.84,5.45c2.47,0,4.25,1.84,4.25,5v7.44a.59.59,0,0,1-.67.64H89.77a.59.59,0,0,1-.66-.64V10.8A1.65,1.65,0,0,0,87.33,9c-1.19,0-1.93.63-1.93,2.14v6.8a.59.59,0,0,1-.66.64H82.08a.59.59,0,0,1-.66-.64V6.45a.59.59,0,0,1,.66-.64h2.66a.59.59,0,0,1,.66.64V7a4,4,0,0,1,3.44-1.52m0-.64a5.25,5.25,0,0,0-3,.85,1.3,1.3,0,0,0-1.08-.49H82.08a1.23,1.23,0,0,0-1.32,1.28V17.91a1.23,1.23,0,0,0,1.32,1.28h2.66a1.23,1.23,0,0,0,1.32-1.28v-6.8c0-1.32.61-1.51,1.27-1.51s1.12.4,1.12,1.2v7.11a1.23,1.23,0,0,0,1.32,1.28h2.65a1.24,1.24,0,0,0,1.33-1.28V10.47c0-3.38-2-5.66-4.91-5.66Z"/><path class="cls-14" d="M92.42,19.26H89.77a1.3,1.3,0,0,1-1.4-1.35V10.8c0-.76-.33-1.12-1-1.12s-1.19.11-1.19,1.43v6.8a1.3,1.3,0,0,1-1.4,1.35H82.08a1.3,1.3,0,0,1-1.4-1.35V6.45a1.3,1.3,0,0,1,1.4-1.35h2.66a1.38,1.38,0,0,1,1.09.46,5.4,5.4,0,0,1,3-.82c3,0,5,2.3,5,5.73v7.44A1.3,1.3,0,0,1,92.42,19.26ZM87.33,9.53c.79,0,1.19.43,1.19,1.27v7.11a1.16,1.16,0,0,0,1.25,1.2h2.65a1.16,1.16,0,0,0,1.25-1.2V10.47c0-3.34-1.94-5.58-4.83-5.58a5.25,5.25,0,0,0-3,.83l-.06,0,0,0a1.23,1.23,0,0,0-1-.46H82.08a1.16,1.16,0,0,0-1.25,1.2V17.91a1.16,1.16,0,0,0,1.25,1.2h2.66A1.16,1.16,0,0,0,86,17.91v-6.8C86,9.72,86.67,9.53,87.33,9.53Zm5.09,9.09H89.77a.66.66,0,0,1-.74-.71V10.8A1.57,1.57,0,0,0,87.33,9c-1.23,0-1.86.7-1.86,2.07v6.8a.66.66,0,0,1-.73.71H82.08a.66.66,0,0,1-.73-.71V6.45a.67.67,0,0,1,.73-.72h2.66a.67.67,0,0,1,.73.72v.3a4.2,4.2,0,0,1,3.37-1.37c2.63,0,4.32,2,4.32,5.09v7.44A.67.67,0,0,1,92.42,18.62ZM87.33,8.89a1.73,1.73,0,0,1,1.85,1.91v7.11a.52.52,0,0,0,.59.56h2.65c.39,0,.59-.19.59-.56V10.47c0-3-1.63-4.94-4.17-4.94A3.84,3.84,0,0,0,85.46,7l-.14.19V6.45a.52.52,0,0,0-.58-.57H82.08a.52.52,0,0,0-.58.57V17.91a.51.51,0,0,0,.58.56h2.66a.51.51,0,0,0,.58-.56v-6.8C85.32,9.66,86,8.89,87.33,8.89Z"/><path class="cls-15" d="M108.6.71a.59.59,0,0,1,.66.64V17.91a.59.59,0,0,1-.66.64h-2.66a.59.59,0,0,1-.66-.64v-.55a5.07,5.07,0,0,1-4,1.54A6.5,6.5,0,0,1,95,12.18a6.5,6.5,0,0,1,6.33-6.73,5.07,5.07,0,0,1,4,1.55V1.35a.59.59,0,0,1,.66-.64h2.66m-6.47,14.58a3,3,0,0,0,3.15-3.11,3.16,3.16,0,0,0-6.31,0,3,3,0,0,0,3.16,3.11M108.6.08h-2.66a1.23,1.23,0,0,0-1.32,1.27V5.63a6.35,6.35,0,0,0-3.29-.82,7.12,7.12,0,0,0-7,7.37,7.11,7.11,0,0,0,7,7.36,6.23,6.23,0,0,0,3.48-.93,1.27,1.27,0,0,0,1.13.58h2.66a1.23,1.23,0,0,0,1.32-1.28V1.35A1.23,1.23,0,0,0,108.6.08Zm-6.47,14.57a2.32,2.32,0,0,1-2.49-2.47,2.49,2.49,0,0,1,5,0,2.33,2.33,0,0,1-2.49,2.47Z"/><path class="cls-16" d="M101.33,19.62a7.19,7.19,0,0,1-7.07-7.44,7.19,7.19,0,0,1,7.07-7.44,6.49,6.49,0,0,1,3.21.76V1.35A1.31,1.31,0,0,1,106,0h2.65A1.3,1.3,0,0,1,110,1.35V17.91a1.3,1.3,0,0,1-1.4,1.35H106a1.39,1.39,0,0,1-1.17-.55A6.31,6.31,0,0,1,101.33,19.62Zm0-14.73a7,7,0,0,0-6.92,7.29,7,7,0,0,0,6.92,7.29,6.14,6.14,0,0,0,3.43-.92l.07,0,0,.06a1.2,1.2,0,0,0,1.08.54h2.65a1.16,1.16,0,0,0,1.25-1.2V1.35A1.16,1.16,0,0,0,108.6.15H106a1.17,1.17,0,0,0-1.26,1.2V5.76l-.11-.07A6.29,6.29,0,0,0,101.33,4.89Zm0,14.09a6.55,6.55,0,0,1-6.41-6.8,6.54,6.54,0,0,1,6.41-6.8,5.26,5.26,0,0,1,3.88,1.43V1.35A.66.66,0,0,1,106,.64h2.65a.66.66,0,0,1,.73.71V17.91a.66.66,0,0,1-.73.71H106a.66.66,0,0,1-.74-.71v-.36A5.26,5.26,0,0,1,101.33,19Zm0-13.45a6.39,6.39,0,0,0-6.26,6.65,6.39,6.39,0,0,0,6.26,6.65,5.05,5.05,0,0,0,3.9-1.52l.13-.14v.74c0,.37.2.56.59.56h2.65a.51.51,0,0,0,.58-.56V1.35a.51.51,0,0,0-.58-.56H106c-.39,0-.59.19-.59.56V7.19l-.13-.14A5.05,5.05,0,0,0,101.33,5.53Zm.8,9.83a3,3,0,0,1-3.23-3.18,3.23,3.23,0,0,1,6.46,0A3,3,0,0,1,102.13,15.36Zm0-6.22a2.9,2.9,0,0,0-3.08,3,3.08,3.08,0,0,0,6.16,0A2.9,2.9,0,0,0,102.13,9.14Zm0,5.58a2.4,2.4,0,0,1-2.57-2.54,2.57,2.57,0,0,1,5.13,0A2.39,2.39,0,0,1,102.13,14.72Zm0-4.94a2.26,2.26,0,0,0-2.42,2.4,2.42,2.42,0,0,0,4.83,0A2.25,2.25,0,0,0,102.13,9.78Z"/><path class="cls-17" d="M123.44,5.81c.48,0,.72.25.56.71l-5.73,16.61a.71.71,0,0,1-.76.51h-2.87c-.47,0-.71-.25-.55-.71l1.59-4.59L111,6.55c-.16-.44,0-.74.53-.74h2.86a.75.75,0,0,1,.75.51l2.51,6.75,2.18-6.73a.71.71,0,0,1,.74-.53h2.86m0-.64h-2.86a1.36,1.36,0,0,0-1.38,1l-1.58,4.89-1.85-5a1.42,1.42,0,0,0-1.37-.93h-2.86a1.25,1.25,0,0,0-1,.47,1.16,1.16,0,0,0-.12,1.12L115,18.36l-1.51,4.37a1.13,1.13,0,0,0,.12,1.09,1.26,1.26,0,0,0,1.06.46h2.87a1.36,1.36,0,0,0,1.4-1l5.72-16.59a1.13,1.13,0,0,0-.12-1.09,1.27,1.27,0,0,0-1.07-.46Z"/><path class="cls-18" d="M117.51,24.36h-2.87a1.32,1.32,0,0,1-1.12-.5,1.17,1.17,0,0,1-.13-1.16l1.5-4.34L110.32,6.79a1.21,1.21,0,0,1,.12-1.19,1.3,1.3,0,0,1,1.1-.5h2.86a1.48,1.48,0,0,1,1.44,1l1.78,4.75,1.51-4.69a1.44,1.44,0,0,1,1.45-1h2.86a1.35,1.35,0,0,1,1.13.49,1.2,1.2,0,0,1,.13,1.16L119,23.33A1.44,1.44,0,0,1,117.51,24.36Zm-6-19.11a1.16,1.16,0,0,0-1,.44,1.05,1.05,0,0,0-.1,1l4.59,11.63v0l-1.51,4.37a1,1,0,0,0,.11,1,1.18,1.18,0,0,0,1,.44h2.87a1.31,1.31,0,0,0,1.33-.92L124.56,6.7a1.05,1.05,0,0,0-.11-1,1.19,1.19,0,0,0-1-.43h-2.86a1.3,1.3,0,0,0-1.31.94l-1.65,5.1L115.7,6.13a1.34,1.34,0,0,0-1.3-.88Zm6,18.47h-2.87a.67.67,0,0,1-.59-.24.6.6,0,0,1,0-.57l1.59-4.56L110.94,6.57A.63.63,0,0,1,111,6a.66.66,0,0,1,.57-.25h2.86a.81.81,0,0,1,.81.56l2.45,6.55,2.11-6.52a.78.78,0,0,1,.81-.59h2.86A.72.72,0,0,1,124,6a.62.62,0,0,1,0,.58l-5.72,16.61A.8.8,0,0,1,117.51,23.72Zm-6-17.84a.52.52,0,0,0-.44.18.48.48,0,0,0,0,.46l4.68,11.82v0L114.16,23a.45.45,0,0,0,0,.43.54.54,0,0,0,.47.18h2.87a.65.65,0,0,0,.69-.46L123.93,6.5a.5.5,0,0,0,0-.44.56.56,0,0,0-.48-.18h-2.86a.64.64,0,0,0-.67.49l-2.24,6.93-2.59-7a.69.69,0,0,0-.68-.46Z"/><path class="cls-19" d="M13.39,1.27V4a.5.5,0,0,1-.5.5H9.13l0,13.39a.58.58,0,0,1-.65.64h-3a.49.49,0,0,1-.49-.5V4.6H1.35a.5.5,0,0,1-.5-.5V1.27a.51.51,0,0,1,.5-.5H12.89A.51.51,0,0,1,13.39,1.27Z"/><path class="cls-19" d="M26.12,10.52v7.53a.59.59,0,0,1-.64.65H22.9a.59.59,0,0,1-.65-.65v-7.2A1.63,1.63,0,0,0,20.53,9c-1.17,0-1.89.64-1.89,2.16v6.89a.59.59,0,0,1-.64.65H15.42a.59.59,0,0,1-.65-.65V1.28a.58.58,0,0,1,.65-.64H18a.58.58,0,0,1,.64.64V7A3.83,3.83,0,0,1,22,5.44C24.4,5.44,26.12,7.29,26.12,10.52Z"/><path class="cls-19" d="M41.4,12.25c0,.33,0,.64-.06.95a.62.62,0,0,1-.69.6H32a2.93,2.93,0,0,0,3,2.14A3.1,3.1,0,0,0,37,15.29a1.15,1.15,0,0,1,.8-.33l2.48,0c.46,0,.72.31.51.72A5.9,5.9,0,0,1,35,19.06a6.63,6.63,0,0,1-7-6.81A6.66,6.66,0,0,1,34.9,5.44,6.47,6.47,0,0,1,41.4,12.25Zm-3.86-1.4a2.57,2.57,0,0,0-2.67-2,2.74,2.74,0,0,0-2.85,2Z"/><path class="cls-19" d="M54.76,1.28V4a.58.58,0,0,1-.65.64H50.63V18.05a.59.59,0,0,1-.64.65H47.15a.59.59,0,0,1-.65-.65V4.61H43A.58.58,0,0,1,42.38,4V1.28A.58.58,0,0,1,43,.64H54.11A.58.58,0,0,1,54.76,1.28Z"/><path class="cls-19" d="M62.21,5.59c.44-.08.68.21.68.62v3c0,.42-.18.62-.52.62a2.52,2.52,0,0,0-2.84,2.74v5.44a.59.59,0,0,1-.64.65H56.31a.59.59,0,0,1-.65-.65V6.44a.58.58,0,0,1,.65-.64h2.58a.58.58,0,0,1,.64.64v1.4a3.14,3.14,0,0,1,2.68-2.25Z"/><path class="cls-19" d="M77.07,12.25c0,.33,0,.64,0,.95a.63.63,0,0,1-.69.6H67.71a2.93,2.93,0,0,0,3,2.14,3.1,3.1,0,0,0,1.91-.65,1.15,1.15,0,0,1,.8-.33l2.47,0c.47,0,.73.31.52.72a5.91,5.91,0,0,1-5.75,3.41,6.63,6.63,0,0,1-7-6.81,6.65,6.65,0,0,1,6.91-6.81A6.47,6.47,0,0,1,77.07,12.25Zm-3.85-1.4a2.58,2.58,0,0,0-2.67-2,2.75,2.75,0,0,0-2.86,2Z"/><path class="cls-19" d="M90.57,10.52v7.53a.59.59,0,0,1-.65.65H87.34a.59.59,0,0,1-.64-.65v-7.2A1.63,1.63,0,0,0,85,9c-1.16,0-1.89.64-1.89,2.16v6.89a.59.59,0,0,1-.64.65H79.86a.59.59,0,0,1-.64-.65V6.44a.58.58,0,0,1,.64-.64h2.58a.58.58,0,0,1,.64.64V7a3.83,3.83,0,0,1,3.36-1.54C88.84,5.44,90.57,7.29,90.57,10.52Z"/><path class="cls-19" d="M106.3,1.28V18.05a.59.59,0,0,1-.64.65h-2.58a.59.59,0,0,1-.65-.65v-.56a4.81,4.81,0,0,1-3.84,1.57c-3.38,0-6.17-3-6.17-6.81s2.79-6.81,6.17-6.81A4.84,4.84,0,0,1,102.43,7V1.28a.59.59,0,0,1,.65-.64h2.58A.58.58,0,0,1,106.3,1.28Zm-3.87,11a3.07,3.07,0,1,0-6.14,0,3.07,3.07,0,1,0,6.14,0Z"/><path class="cls-19" d="M117.32,5.8h2.78c.47,0,.7.26.55.72l-5.58,16.82a.7.7,0,0,1-.74.52h-2.79c-.47,0-.7-.26-.54-.73l1.55-4.64L108,6.55a.51.51,0,0,1,.52-.75h2.79a.72.72,0,0,1,.72.51l2.45,6.84,2.12-6.81A.69.69,0,0,1,117.32,5.8Z"/></g></g></svg>