<svg xmlns="http://www.w3.org/2000/svg" viewBox="0 0 119.84 23.22"><defs><style>.cls-1{fill:#fff;}</style></defs><title>Asset 6</title><g id="Layer_2" data-name="Layer 2"><g id="Layer_3" data-name="Layer 3"><path class="cls-1" d="M12.53.64V3.39a.49.49,0,0,1-.49.49H8.28l0,13.39a.58.58,0,0,1-.64.64h-3a.5.5,0,0,1-.5-.5V4H.5A.49.49,0,0,1,0,3.47V.64A.5.5,0,0,1,.5.14H12A.49.49,0,0,1,12.53.64Z"/><path class="cls-1" d="M25.27,9.88v7.53a.58.58,0,0,1-.64.65H22.05a.59.59,0,0,1-.65-.65V10.22a1.64,1.64,0,0,0-1.73-1.86c-1.16,0-1.88.64-1.88,2.17v6.88a.59.59,0,0,1-.65.65H14.56a.58.58,0,0,1-.64-.65V.64A.58.58,0,0,1,14.56,0h2.58a.58.58,0,0,1,.65.64v5.7A3.81,3.81,0,0,1,21.14,4.8C23.54,4.8,25.27,6.66,25.27,9.88Z"/><path class="cls-1" d="M40.54,11.61c0,.33,0,.64,0,1a.62.62,0,0,1-.69.6H31.18a2.93,2.93,0,0,0,3,2.14,3.1,3.1,0,0,0,1.91-.65,1.18,1.18,0,0,1,.8-.33l2.47,0c.47,0,.73.31.52.72a5.91,5.91,0,0,1-5.75,3.41,6.63,6.63,0,0,1-7-6.81A6.66,6.66,0,0,1,34,4.8,6.47,6.47,0,0,1,40.54,11.61Zm-3.85-1.39a2.58,2.58,0,0,0-2.67-2,2.75,2.75,0,0,0-2.86,2Z"/><path class="cls-1" d="M53.91.64V3.33a.59.59,0,0,1-.65.64H49.78V17.41a.59.59,0,0,1-.65.65H46.3a.59.59,0,0,1-.65-.65V4H42.17a.59.59,0,0,1-.65-.64V.64A.59.59,0,0,1,42.17,0H53.26A.59.59,0,0,1,53.91.64Z"/><path class="cls-1" d="M61.36,5c.44-.07.67.21.67.62v3c0,.41-.18.62-.51.62A2.51,2.51,0,0,0,58.68,12v5.44a.59.59,0,0,1-.65.65H55.45a.58.58,0,0,1-.64-.65V5.8a.58.58,0,0,1,.64-.64H58a.58.58,0,0,1,.65.64V7.2A3.14,3.14,0,0,1,61.36,5Z"/><path class="cls-1" d="M76.22,11.61c0,.33,0,.64,0,1a.63.63,0,0,1-.7.6H66.86a2.93,2.93,0,0,0,3,2.14,3,3,0,0,0,1.9-.65,1.22,1.22,0,0,1,.8-.33l2.48,0c.47,0,.72.31.52.72a5.91,5.91,0,0,1-5.76,3.41,6.62,6.62,0,0,1-7-6.81A6.65,6.65,0,0,1,69.72,4.8,6.47,6.47,0,0,1,76.22,11.61Zm-3.85-1.39a2.59,2.59,0,0,0-2.68-2,2.74,2.74,0,0,0-2.85,2Z"/><path class="cls-1" d="M89.71,9.88v7.53a.58.58,0,0,1-.64.65H86.49a.59.59,0,0,1-.65-.65V10.22a1.63,1.63,0,0,0-1.72-1.86c-1.17,0-1.89.64-1.89,2.17v6.88a.58.58,0,0,1-.64.65H79a.59.59,0,0,1-.65-.65V5.8A.58.58,0,0,1,79,5.16h2.58a.58.58,0,0,1,.64.64v.54A3.83,3.83,0,0,1,85.59,4.8C88,4.8,89.71,6.66,89.71,9.88Z"/><path class="cls-1" d="M105.45.64V17.41a.58.58,0,0,1-.64.65h-2.58a.59.59,0,0,1-.65-.65v-.56a4.83,4.83,0,0,1-3.84,1.57c-3.38,0-6.17-3-6.17-6.81S94.36,4.8,97.74,4.8a4.86,4.86,0,0,1,3.84,1.56V.64a.58.58,0,0,1,.65-.64h2.58A.58.58,0,0,1,105.45.64Zm-3.87,11a3.07,3.07,0,1,0-6.14,0,3.07,3.07,0,1,0,6.14,0Z"/><path class="cls-1" d="M116.47,5.16h2.78c.47,0,.7.26.54.72L114.22,22.7a.71.71,0,0,1-.75.52h-2.78c-.47,0-.7-.26-.55-.72l1.55-4.65L107.15,5.91c-.15-.44,0-.75.52-.75h2.78a.72.72,0,0,1,.73.52l2.45,6.83,2.11-6.81A.7.7,0,0,1,116.47,5.16Z"/></g></g></svg>