<svg id="_15_-_TheGamer" data-name="15 - TheGamer" xmlns="http://www.w3.org/2000/svg" viewBox="0 0 323.1 68.08"><defs><style>.cls-1,.cls-2{fill:none;stroke:#fff;stroke-linejoin:round;}.cls-1{stroke-width:4.57px;}.cls-2{stroke-width:2.74px;}.cls-3{fill:#fff;}</style></defs><title>tg-logo-full-white</title><path class="cls-1" d="M-373.15,1833.12l-3.52-3.52a2.75,2.75,0,0,1,0-3.88l3.5-3.5" transform="translate(379.75 -1793.63)"/><path class="cls-2" d="M-368.83,1817.88l3.05-3.05a2.75,2.75,0,0,1,3.88,0l10.89,10.89a2.75,2.75,0,0,1,0,3.88l-10.89,10.89a2.75,2.75,0,0,1-3.88,0l-3.05-3.05" transform="translate(379.75 -1793.63)"/><path class="cls-1" d="M-318.27,1822.2l3.52,3.52a2.75,2.75,0,0,1,0,3.88l-3.5,3.5" transform="translate(379.75 -1793.63)"/><path class="cls-2" d="M-322.59,1837.44l-3.05,3.05a2.75,2.75,0,0,1-3.88,0l-10.89-10.89a2.75,2.75,0,0,1,0-3.88l10.89-10.89a2.75,2.75,0,0,1,3.88,0l3.05,3.05" transform="translate(379.75 -1793.63)"/><path class="cls-1" d="M-351.17,1800.23l3.52-3.52a2.75,2.75,0,0,1,3.88,0l3.5,3.5" transform="translate(379.75 -1793.63)"/><path class="cls-2" d="M-335.93,1804.55l3.05,3.05a2.75,2.75,0,0,1,0,3.88l-10.89,10.89a2.75,2.75,0,0,1-3.88,0l-10.89-10.89a2.75,2.75,0,0,1,0-3.88l3.05-3.05" transform="translate(379.75 -1793.63)"/><path class="cls-1" d="M-340.25,1855.11l-3.52,3.52a2.75,2.75,0,0,1-3.88,0l-3.5-3.5" transform="translate(379.75 -1793.63)"/><path class="cls-2" d="M-355.49,1850.79l-3.05-3.05a2.75,2.75,0,0,1,0-3.88l10.89-10.89a2.75,2.75,0,0,1,3.88,0l10.89,10.89a2.75,2.75,0,0,1,0,3.88l-3.05,3.05" transform="translate(379.75 -1793.63)"/><path class="cls-3" d="M-276.65,1811.84v6.1h-11v22h-6.1v-22h-11v-6.1h28.13Z" transform="translate(379.75 -1793.63)"/><path class="cls-3" d="M-245.74,1811.84V1840h-6.06v-11h-16.61v11h-6.06v-28.13h6.06v11h16.61v-11h6.06Z" transform="translate(379.75 -1793.63)"/><path class="cls-3" d="M-216,1817.94h-19.85v4.92h16v6.1h-16v4.92H-216v6.1h-26v-28.13h26v6.1Z" transform="translate(379.75 -1793.63)"/><path class="cls-3" d="M-184.76,1820.28h-6.14v-2.34h-15.94v15.94h15.94v-4.22H-197v-6.1h12.23v10.63a5.8,5.8,0,0,1-5.82,5.78h-16.53a5.77,5.77,0,0,1-5.78-5.78v-16.57a5.77,5.77,0,0,1,5.78-5.78h16.53a5.8,5.8,0,0,1,5.82,5.78v2.66Z" transform="translate(379.75 -1793.63)"/><path class="cls-3" d="M-158.85,1811.84a5.8,5.8,0,0,1,5.82,5.78V1840h-6.14v-9.07h-15.94V1840h-6.06v-22.35a5.77,5.77,0,0,1,5.78-5.78h16.53Zm-0.31,13v-6.88h-15.94v6.88h15.94Z" transform="translate(379.75 -1793.63)"/><path class="cls-3" d="M-124.08,1811.84h6.29V1840h-6.1V1821.1c-3.17,3.75-6.56,7.89-9.69,11.57l-9.73-11.53V1840h-6.06v-28.13h6.25l9.53,11.37Z" transform="translate(379.75 -1793.63)"/><path class="cls-3" d="M-87.83,1817.94h-19.85v4.92h16v6.1h-16v4.92h19.85v6.1h-26v-28.13h26v6.1Z" transform="translate(379.75 -1793.63)"/><path class="cls-3" d="M-56.65,1824.93a5.83,5.83,0,0,1-5.82,5.78h-0.27c2,2.34,4.14,4.85,6.1,7.19V1840H-62.9l-7.78-9.26-8,0q0.12,0,.12.23a0.19,0.19,0,0,1-.12,0v9h-6.06v-28.1h22.31a5.83,5.83,0,0,1,5.82,5.78v7.27Zm-22.08-.31h15.94v-6.68H-78.73v6.68Z" transform="translate(379.75 -1793.63)"/></svg>