<svg xmlns="http://www.w3.org/2000/svg" viewBox="0 0 66.71 66.71"><defs><style>.cls-1,.cls-2{fill:none;stroke:#f60;stroke-linejoin:round;}.cls-1{stroke-width:4.48px;}.cls-2{stroke-width:2.69px;}</style></defs><g id="Layer_2" data-name="Layer 2"><g id="_9_-_TheGamer" data-name="9 - TheGamer"><path class="cls-1" d="M6.47,38.69,3,35.24a2.7,2.7,0,0,1,0-3.8L6.45,28"/><path class="cls-2" d="M10.7,23.76l3-3a2.69,2.69,0,0,1,3.79,0L28.17,31.44a2.7,2.7,0,0,1,0,3.8L17.49,45.92a2.69,2.69,0,0,1-3.79,0l-3-3"/><path class="cls-1" d="M60.24,28l3.44,3.45a2.69,2.69,0,0,1,0,3.8l-3.42,3.43"/><path class="cls-2" d="M56,42.92l-3,3a2.7,2.7,0,0,1-3.8,0L38.54,35.24a2.69,2.69,0,0,1,0-3.8L49.21,20.77a2.7,2.7,0,0,1,3.8,0l3,3"/><path class="cls-1" d="M28,6.47,31.45,3a2.7,2.7,0,0,1,3.8,0l3.43,3.43"/><path class="cls-2" d="M42.93,10.7l3,3a2.69,2.69,0,0,1,0,3.79L35.25,28.17a2.7,2.7,0,0,1-3.8,0L20.78,17.49a2.69,2.69,0,0,1,0-3.79l3-3"/><path class="cls-1" d="M38.7,60.24l-3.45,3.44a2.69,2.69,0,0,1-3.8,0L28,60.26"/><path class="cls-2" d="M23.77,56l-3-3a2.7,2.7,0,0,1,0-3.8L31.45,38.54a2.69,2.69,0,0,1,3.8,0L45.93,49.21a2.7,2.7,0,0,1,0,3.8l-3,3"/></g></g></svg>