<svg xmlns="http://www.w3.org/2000/svg" viewBox="0 0 57.71 57.71"><defs><style>.cls-1{fill:#fff;stroke:#e93366;}.cls-1,.cls-2{stroke-miterlimit:10;}.cls-2{fill:#e93366;stroke:#fff;}</style></defs><g id="Layer_2" data-name="Layer 2"><g id="Layer_2-2" data-name="Layer 2"><circle class="cls-1" cx="28.86" cy="28.86" r="28.36"/><path class="cls-2" d="M21.84,34.81a6.64,6.64,0,0,0-.1,1c0,1.49.8,2.23,2.38,2.23h1.39c.53,0,.73.27.61.8l-.75,4.32a.84.84,0,0,1-.79.8,12.37,12.37,0,0,1-2.37.23,7.8,7.8,0,0,1-5.47-1.84,7,7,0,0,1-2-5.42A13.38,13.38,0,0,1,15,34.25l3.49-20a.82.82,0,0,1,.88-.75h4.56a.79.79,0,0,1,.63.24.71.71,0,0,1,.17.6l-.28,5.54h3.72a.74.74,0,0,1,.63.26.67.67,0,0,1,.12.62l-.75,4.29a.82.82,0,0,1-.88.74H23.42Z"/><path class="cls-2" d="M35.94,34.81a7.92,7.92,0,0,0-.09,1c0,1.49.79,2.23,2.37,2.23h1.4c.52,0,.72.27.6.8l-.74,4.32a.86.86,0,0,1-.79.8,12.55,12.55,0,0,1-2.38.23,7.8,7.8,0,0,1-5.47-1.84,7,7,0,0,1-2-5.42,14.17,14.17,0,0,1,.23-2.66l3.49-20a.82.82,0,0,1,.89-.75H38a.79.79,0,0,1,.63.24.74.74,0,0,1,.16.6l-.28,5.54h3.72a.74.74,0,0,1,.63.26.67.67,0,0,1,.12.62l-.75,4.29a.82.82,0,0,1-.88.74H37.52Z"/></g></g></svg>