<svg xmlns="http://www.w3.org/2000/svg" viewBox="0 0 256.32 58.71"><defs><style>.cls-1{fill:none;stroke:#e93366;stroke-miterlimit:10;stroke-width:2px;}.cls-2{fill:#fff;}.cls-3{fill:#e93366;}</style></defs><g id="Layer_2" data-name="Layer 2"><g id="Layer_2-2" data-name="Layer 2"><circle class="cls-1" cx="29.36" cy="29.36" r="28.36"/><path class="cls-2" d="M86.72,11.52a.88.88,0,0,1,.14.65l-.93,5.12a.77.77,0,0,1-.84.75H77L72.48,43.82a.8.8,0,0,1-.84.75H65.82a.71.71,0,0,1-.58-.26.69.69,0,0,1-.12-.63L69.68,18h-8a.74.74,0,0,1-.6-.23.86.86,0,0,1-.14-.66L61.91,12a.79.79,0,0,1,.84-.74H86.11A.76.76,0,0,1,86.72,11.52Z"/><path class="cls-2" d="M98.82,19.71a7.25,7.25,0,0,1,5.56,2.17,8.48,8.48,0,0,1,2,6,16.5,16.5,0,0,1-.28,2.83L103.8,43.82a.92.92,0,0,1-.26.54.78.78,0,0,1-.58.21H97.61a.77.77,0,0,1-.63-.26.69.69,0,0,1-.12-.63l2.38-13.77a7.2,7.2,0,0,0,.14-1.35c0-1.83-1-2.75-3-2.75a6.94,6.94,0,0,0-3.12.79l-3,17.22a.83.83,0,0,1-.89.75H84a.71.71,0,0,1-.58-.26.8.8,0,0,1-.16-.63L88.86,12a.76.76,0,0,1,.84-.74h5.35a.71.71,0,0,1,.58.26.67.67,0,0,1,.12.62l-1.49,8.52A10.44,10.44,0,0,1,98.82,19.71Z"/><path class="cls-2" d="M113.41,22A12.72,12.72,0,0,1,121,19.71a10.59,10.59,0,0,1,6.66,2,6.88,6.88,0,0,1,2.51,5.77,15,15,0,0,1-.23,2.28l-.79,4.52a.78.78,0,0,1-.84.69H115.39l-.14.66a10,10,0,0,0-.09,1c0,1.77,1.1,2.65,3.3,2.65a11.82,11.82,0,0,0,6.05-1.86.85.85,0,0,1,.51-.19.6.6,0,0,1,.56.42l1.91,3.59a3,3,0,0,1,.09.46.66.66,0,0,1-.37.65,16.72,16.72,0,0,1-9.73,2.84A10.46,10.46,0,0,1,110.66,43,7.1,7.1,0,0,1,108,37.21a16.41,16.41,0,0,1,.19-1.81l1.21-6.75A10,10,0,0,1,113.41,22Zm9.94,6.33a2.64,2.64,0,0,0-.75-1.95,2.94,2.94,0,0,0-2.19-.75,3.87,3.87,0,0,0-2.58.89A4.27,4.27,0,0,0,116.46,29l-.23,1.26H123l.23-1.16A4.92,4.92,0,0,0,123.35,28.32Z"/><path class="cls-2" d="M155,11.52a.84.84,0,0,1,.14.65l-.93,5.12a.76.76,0,0,1-.84.75h-8L140.8,43.82a.79.79,0,0,1-.84.75h-5.81a.73.73,0,0,1-.59-.26.66.66,0,0,1-.11-.63L138,18h-8a.73.73,0,0,1-.6-.23.82.82,0,0,1-.14-.66l.93-5.12a.79.79,0,0,1,.83-.74h23.37A.73.73,0,0,1,155,11.52Z"/><path class="cls-2" d="M167.14,19.71a7.27,7.27,0,0,1,5.57,2.17,8.47,8.47,0,0,1,2,6,15.55,15.55,0,0,1-.28,2.83l-2.33,13.08a.91.91,0,0,1-.25.54.79.79,0,0,1-.58.21h-5.35a.77.77,0,0,1-.63-.26.69.69,0,0,1-.12-.63l2.37-13.77a6.45,6.45,0,0,0,.14-1.35c0-1.83-1-2.75-3-2.75a6.87,6.87,0,0,0-3.12.79l-3,17.22a.81.81,0,0,1-.88.75H152.3a.71.71,0,0,1-.58-.26.8.8,0,0,1-.17-.63L157.18,12a.77.77,0,0,1,.84-.74h5.35a.73.73,0,0,1,.59.26.67.67,0,0,1,.11.62l-1.49,8.52A10.51,10.51,0,0,1,167.14,19.71Z"/><path class="cls-2" d="M175.87,44.31a.66.66,0,0,1-.11-.63l4-22.62a.74.74,0,0,1,.84-.69H186a.79.79,0,0,1,.63.23.62.62,0,0,1,.12.6l-4,22.62a.83.83,0,0,1-.89.75h-5.4A.71.71,0,0,1,175.87,44.31Zm11.31-28.58a4,4,0,0,1-3,1.24,3.41,3.41,0,0,1-2.51-1,3.35,3.35,0,0,1-1-2.47,4.18,4.18,0,0,1,1.19-3.07,4,4,0,0,1,3-1.21,3.37,3.37,0,0,1,2.53,1,3.43,3.43,0,0,1,1,2.51A4.17,4.17,0,0,1,187.18,15.73Z"/><path class="cls-2" d="M186.67,44.31a.69.69,0,0,1-.12-.63l3.82-21.27a1.12,1.12,0,0,1,.7-.83,31.15,31.15,0,0,1,4.72-1.35,23,23,0,0,1,4.73-.52c3,0,5.26.76,6.86,2.28a8.2,8.2,0,0,1,2.4,6.24,17.49,17.49,0,0,1-.23,2.56l-2.33,13a.82.82,0,0,1-.89.75H201a.71.71,0,0,1-.58-.26.8.8,0,0,1-.16-.63l2.32-13.59a7.42,7.42,0,0,0,.14-1.39c0-1.93-1-2.89-3.07-2.89a7.14,7.14,0,0,0-3,.56l-3.07,17.45a.82.82,0,0,1-.88.75h-5.4A.77.77,0,0,1,186.67,44.31Z"/><path class="cls-2" d="M229.05,49.08a8.78,8.78,0,0,1-4,3.7A15.66,15.66,0,0,1,218.48,54a15.24,15.24,0,0,1-4.75-.67,11.13,11.13,0,0,1-3.67-2.12.78.78,0,0,1-.33-.56,1.06,1.06,0,0,1,.23-.56l2.84-3.63a.78.78,0,0,1,.61-.37,1,1,0,0,1,.51.23,9.33,9.33,0,0,0,5.17,1.44,4.9,4.9,0,0,0,3.37-1.09,6,6,0,0,0,1.7-3.42,13.82,13.82,0,0,1-4.14.7,8.48,8.48,0,0,1-6.15-2.17,7.75,7.75,0,0,1-2.23-5.84,14,14,0,0,1,.23-2.33l.79-4.42a10.62,10.62,0,0,1,4.1-7.1,13.37,13.37,0,0,1,8-2.35,22.51,22.51,0,0,1,9.35,2,.88.88,0,0,1,.51,1l-3.4,19.6A20.91,20.91,0,0,1,229.05,49.08ZM218.81,35.31c0,1.73,1,2.6,2.93,2.6a7.46,7.46,0,0,0,1.93-.25,4.43,4.43,0,0,0,1.47-.63L227,26.42a5.3,5.3,0,0,0-2.79-.56,4.69,4.69,0,0,0-3,.88,4.14,4.14,0,0,0-1.46,2.65l-.84,4.8A5.54,5.54,0,0,0,218.81,35.31Z"/><path class="cls-2" d="M251.06,43.36a13.43,13.43,0,0,1-7.35,1.81,14.43,14.43,0,0,1-9.45-3.12.77.77,0,0,1-.33-.6.8.8,0,0,1,.19-.51l2.65-3.63a.79.79,0,0,1,.61-.38,1.63,1.63,0,0,1,.51.19,9.88,9.88,0,0,0,6.05,2,5.18,5.18,0,0,0,2.72-.56,1.75,1.75,0,0,0,.91-1.58,1.2,1.2,0,0,0-.79-1.12,13.52,13.52,0,0,0-2.42-.74A11.63,11.63,0,0,1,239,32.65a5.81,5.81,0,0,1-2-4.6,6.9,6.9,0,0,1,.18-1.63,7.32,7.32,0,0,1,3.42-5.08,13.77,13.77,0,0,1,7.1-1.63,16.69,16.69,0,0,1,4.33.52,15.42,15.42,0,0,1,3.86,1.62.64.64,0,0,1,.42.61,1,1,0,0,1-.23.51l-2.75,3.68a.76.76,0,0,1-.6.37,1.16,1.16,0,0,1-.51-.14,10.21,10.21,0,0,0-5.17-1.26A5.14,5.14,0,0,0,245,26a1.52,1.52,0,0,0-.88,1.19,1.21,1.21,0,0,0,.63,1.42,12,12,0,0,0,2.82.91,12.23,12.23,0,0,1,5.09,2.33,5.59,5.59,0,0,1,2.12,4.65A9,9,0,0,1,254.6,38,7.92,7.92,0,0,1,251.06,43.36Z"/><path class="cls-3" d="M22.34,35.31a6.64,6.64,0,0,0-.1,1c0,1.49.8,2.23,2.38,2.23H26c.53,0,.73.27.61.8l-.75,4.32a.84.84,0,0,1-.79.8,12.37,12.37,0,0,1-2.37.23,7.8,7.8,0,0,1-5.47-1.84,7,7,0,0,1-2-5.42,13.38,13.38,0,0,1,.23-2.66l3.49-20a.82.82,0,0,1,.88-.75h4.56a.79.79,0,0,1,.63.24.71.71,0,0,1,.17.6l-.28,5.54h3.72a.74.74,0,0,1,.63.26.67.67,0,0,1,.12.62l-.75,4.29a.82.82,0,0,1-.88.74H23.92Z"/><path class="cls-3" d="M36.44,35.31a7.92,7.92,0,0,0-.09,1c0,1.49.79,2.23,2.37,2.23h1.4c.52,0,.72.27.6.8L40,43.64a.86.86,0,0,1-.79.8,12.55,12.55,0,0,1-2.38.23,7.8,7.8,0,0,1-5.47-1.84,7,7,0,0,1-2-5.42,14.17,14.17,0,0,1,.23-2.66l3.49-20a.82.82,0,0,1,.89-.75h4.56a.79.79,0,0,1,.63.24.74.74,0,0,1,.16.6L39,20.42h3.72a.74.74,0,0,1,.63.26.67.67,0,0,1,.12.62l-.75,4.29a.82.82,0,0,1-.88.74H38Z"/></g></g></svg>