<svg id="_18_-_TheQuiz" data-name="18 - TheQuiz" xmlns="http://www.w3.org/2000/svg" viewBox="0 0 321.87 64.9"><defs><style>.cls-1{fill:#fff;}.cls-2{fill:#e2e2e2;}.cls-3{fill:#2e72ef;}.cls-4{fill:#1b62c9;}</style></defs><title>tq-logo-full-colored-light</title><g id="Layer_1" data-name="Layer 1"><path class="cls-1" d="M575.54,2408.17H563.77v-37.43H552.32v-9.15H587v9.15H575.37l0.16,37.43h0Z" transform="translate(-457.51 -2354.72)"/><path class="cls-1" d="M614.11,2388.72H599.73V2408h-10.3v-46.42h10.3v18.14h14.22v-18.14h10.46l-0.16,46.59h-10.3v-19.45h0.16Z" transform="translate(-457.51 -2354.72)"/><path class="cls-1" d="M628.66,2361.59h25.83v9.15H639v9h14.22v7.68H639v11.77h15.53v9H628.66v-46.59Z" transform="translate(-457.51 -2354.72)"/><path class="cls-1" d="M695.85,2411.61l-3.6-3.76-20.92.16H670a3,3,0,0,1-1.14-.33c-0.33-.16-0.65-0.16-1-0.33a2.87,2.87,0,0,1-.82-0.65,1.39,1.39,0,0,1-.49-0.82l-0.49-1a12.62,12.62,0,0,1-.33-2.45v-35.15c0-2,0-2.94.16-3.11l0.49-1c0.16-.33.33-0.49,0.49-0.82a3.57,3.57,0,0,1,.82-0.65,2.32,2.32,0,0,1,1-.33c0.33-.16.82-0.16,1.14-0.33H694a3,3,0,0,1,1.14.33c0.33,0.16.65,0.16,1,.33a2.87,2.87,0,0,1,.82.65,1.39,1.39,0,0,1,.49.82l0.49,1a0.6,0.6,0,0,0,.16.49v37.76l3.43,3.6Zm-19.62-40.87v28.44h11.44v-28.44H676.23Z" transform="translate(-457.51 -2354.72)"/><path class="cls-1" d="M726.74,2396.73l-0.16-35.15H737.2v42.5a2.36,2.36,0,0,1-.33,1.14,2.78,2.78,0,0,1-1,1.63,3.39,3.39,0,0,1-1.63,1c-0.33.16-.82,0.16-1.14,0.33h-24a3,3,0,0,1-1.14-.33c-0.33-.16-0.65-0.16-1-0.33a2.87,2.87,0,0,1-.82-0.65,1.39,1.39,0,0,1-.49-0.82l-0.49-1a12.62,12.62,0,0,1-.33-2.45v-41h10l0.33,37.6h11.44v-2.45h0.16Z" transform="translate(-457.51 -2354.72)"/><path class="cls-1" d="M739.66,2408.17v-46.59H751.1v46.59H739.66Z" transform="translate(-457.51 -2354.72)"/><path class="cls-1" d="M779.05,2361.59l-11.93,37.27h12.26l-0.16,9.32h-25.5l11.77-37.6h-12.1v-9.15l25.66,0.16h0Z" transform="translate(-457.51 -2354.72)"/><polygon class="cls-1" points="45.61 37.76 56.89 49.04 82.88 0 76.18 35.31 56.89 64.9 25.66 33.67 45.61 37.76"/><polyline class="cls-2" points="56.72 49.04 83.04 0 76.18 35.31 56.89 64.73"/><path class="cls-3" d="M489.88,2400.49H469v-34.33h34.33v20.92l11.44,11.44V2362.4a7.67,7.67,0,0,0-7.68-7.68H465.2a7.67,7.67,0,0,0-7.68,7.68v41.85a7.67,7.67,0,0,0,7.68,7.68h36.13Z" transform="translate(-457.51 -2354.72)"/><g id="Layer_2" data-name="Layer 2"><path class="cls-4" d="M459.47,2357.34a7,7,0,0,0-2,5.07v41.85a7.67,7.67,0,0,0,7.68,7.68h36.13l-11.44-11.44H469v-34.33" transform="translate(-457.51 -2354.72)"/></g></g></svg>