<svg id="_18_-_TheQuiz" data-name="18 - TheQuiz" xmlns="http://www.w3.org/2000/svg" viewBox="0 0 321.87 64.9"><defs><style>.cls-1{fill:#fff;}</style></defs><title>logo-full-white</title><g id="Layer_1" data-name="Layer 1"><path class="cls-1" d="M-315.77,2388.34h-11.77v-37.43H-339v-9.15h34.65v9.15h-11.61l0.16,37.43h0Z" transform="translate(433.8 -2334.89)"/><path class="cls-1" d="M-277.2,2368.89h-14.39v19.29h-10.3v-46.42h10.3v18.14h14.22v-18.14h10.46l-0.16,46.59h-10.3v-19.45h0.16Z" transform="translate(433.8 -2334.89)"/><path class="cls-1" d="M-262.65,2341.75h25.83v9.15h-15.53v9h14.22v7.68h-14.22v11.77h15.53v9h-25.83v-46.59Z" transform="translate(433.8 -2334.89)"/><path class="cls-1" d="M-195.46,2391.77l-3.6-3.76-20.92.16h-1.31a3,3,0,0,1-1.14-.33c-0.33-.16-0.65-0.16-1-0.33a2.87,2.87,0,0,1-.82-0.65,1.39,1.39,0,0,1-.49-0.82l-0.49-1a12.62,12.62,0,0,1-.33-2.45v-35.15c0-2,0-2.94.16-3.11l0.49-1c0.16-.33.33-0.49,0.49-0.82a3.57,3.57,0,0,1,.82-0.65,2.32,2.32,0,0,1,1-.33c0.33-.16.82-0.16,1.14-0.33h24.19a3,3,0,0,1,1.14.33c0.33,0.16.65,0.16,1,.33a2.87,2.87,0,0,1,.82.65,1.39,1.39,0,0,1,.49.82l0.49,1a0.6,0.6,0,0,0,.16.49v37.76l3.43,3.6Zm-19.62-40.87v28.44h11.44v-28.44h-11.44Z" transform="translate(433.8 -2334.89)"/><path class="cls-1" d="M-164.57,2376.9l-0.16-35.15h10.63v42.5a2.36,2.36,0,0,1-.33,1.14,2.78,2.78,0,0,1-1,1.63,3.39,3.39,0,0,1-1.63,1c-0.33.16-.82,0.16-1.14,0.33h-24a3,3,0,0,1-1.14-.33c-0.33-.16-0.65-0.16-1-0.33a2.87,2.87,0,0,1-.82-0.65,1.39,1.39,0,0,1-.49-0.82l-0.49-1a12.62,12.62,0,0,1-.33-2.45v-41h10l0.33,37.6h11.44v-2.45h0.16Z" transform="translate(433.8 -2334.89)"/><path class="cls-1" d="M-151.65,2388.34v-46.59h11.44v46.59h-11.44Z" transform="translate(433.8 -2334.89)"/><path class="cls-1" d="M-112.26,2341.75L-124.19,2379h12.26l-0.16,9.32h-25.5l11.77-37.6h-12.1v-9.15l25.66,0.16h0Z" transform="translate(433.8 -2334.89)"/><polygon class="cls-1" points="45.61 37.76 56.89 49.04 82.88 0 76.18 35.31 56.89 64.9 25.66 33.67 45.61 37.76"/><polyline class="cls-1" points="56.72 49.04 83.04 0 76.18 35.31 56.89 64.73"/><path class="cls-1" d="M-401.43,2380.66h-20.92v-34.33H-388v20.92l11.44,11.44v-36.13a7.67,7.67,0,0,0-7.68-7.68h-41.85a7.67,7.67,0,0,0-7.68,7.68v41.85a7.67,7.67,0,0,0,7.68,7.68H-390Z" transform="translate(433.8 -2334.89)"/><g id="Layer_2" data-name="Layer 2"><path class="cls-1" d="M-431.83,2337.5a7,7,0,0,0-2,5.07v41.85a7.67,7.67,0,0,0,7.68,7.68H-390l-11.44-11.44h-20.92v-34.33" transform="translate(433.8 -2334.89)"/></g></g></svg>