<svg xmlns="http://www.w3.org/2000/svg" viewBox="0 0 83.04 64.9"><defs><style>.cls-1{fill:#272a2f;}.cls-2{fill:#0e1014;}.cls-3{fill:#2e72ef;}.cls-4{fill:#1b62c9;}</style></defs><g id="Layer_2" data-name="Layer 2"><g id="_10_-_TheQuiz" data-name="10 - TheQuiz"><g id="Layer_1-2" data-name="Layer 1"><polygon class="cls-1" points="45.61 37.76 56.89 49.04 82.88 0 76.18 35.31 56.89 64.9 25.66 33.67 45.61 37.76"/><polyline class="cls-2" points="56.72 49.04 83.04 0 76.18 35.31 56.89 64.73"/><path class="cls-3" d="M32.37,45.77H11.44V11.44H45.77V32.37L57.21,43.81V7.68A7.67,7.67,0,0,0,49.53,0H7.68A7.67,7.67,0,0,0,0,7.68V49.53a7.67,7.67,0,0,0,7.68,7.68H43.81Z"/><g id="Layer_2-2" data-name="Layer 2"><path class="cls-4" d="M2,2.62A7,7,0,0,0,0,7.68V49.53a7.67,7.67,0,0,0,7.68,7.68H43.81L32.37,45.77H11.44V11.44"/></g></g></g></g></svg>