<?xml version="1.0" encoding="utf-8"?>
<!-- Generator: Adobe Illustrator 22.1.0, SVG Export Plug-In . SVG Version: 6.00 Build 0)  -->
<svg version="1.1" xmlns="http://www.w3.org/2000/svg" xmlns:xlink="http://www.w3.org/1999/xlink" x="0px" y="0px"
	 viewBox="0 0 306.1 48.3" style="enable-background:new 0 0 306.1 48.3;" xml:space="preserve">
<g id="Layer_2">
</g>
<g id="Layer_1">
	<title>Asset 2</title>
	<g id="Layer_2_1_">
		<g id="_1_-_TheRichest">
			<g id="Layer_1-2">
				<g id="Layer_6">
					<rect x="5.8" y="19.4" width="6.9" height="28.9"/>
					<polygon points="35,30.2 29.7,34.6 40.9,48.3 49.8,48.3 					"/>
					<polygon points="18,40.2 18,32.5 39.4,15.3 31.4,6.4 4.2,6.4 0,0 34.3,0 48.3,15.5 					"/>
					<path d="M27.7,21.1c-3.2-2.5-3.5-2.7-3.9-2.8c-0.4,0.1-0.7,0.2-3.9,2.8c2.5-3.2,2.7-3.5,2.8-3.9c-0.1-0.4-0.2-0.7-2.8-3.9
						c3.2,2.6,3.5,2.7,3.9,2.8c0.4-0.1,0.7-0.2,3.9-2.8c-2.5,3.2-2.7,3.5-2.8,3.9C25,17.6,25.1,17.9,27.7,21.1z"/>
					<path d="M30.8,14.2c-1.6-1.3-1.8-1.4-2-1.4s-0.4,0.1-2,1.4c1.3-1.6,1.4-1.8,1.4-2s-0.1-0.4-1.4-2c1.6,1.3,1.8,1.4,2,1.4
						s0.4-0.1,2-1.4c-1.3,1.6-1.4,1.8-1.4,2S29.5,12.6,30.8,14.2z"/>
				</g>
			</g>
			<path d="M92.8,18.6h-1.5c-0.3-4.7-2.2-6-6-6S81,12.8,81,13.7v18.7c0,3.1,0.6,4.3,4.8,4.4v1.4h-15v-1.4c4.3-0.1,4.9-1.3,4.9-4.4
				V13.7c0-0.9-0.5-1.1-3.7-1.1c-3.5,0-6.4,0.2-6.6,6h-1.4l0.3-7.9h28L92.8,18.6z"/>
			<path d="M117.4,33.9c0,2.7,0.4,3.2,2.8,3.2v1.1h-9.8v-1.1c2.6-0.1,3.1-0.5,3.1-3v-5.6h-9.9v5.4c0,2.7,0.4,3.2,3,3.2v1.1h-9.7
				v-1.1c2.4-0.1,2.8-0.5,2.8-3V21.8c0-2.5-0.3-2.9-2.5-3v-1.1h9.2v1.1c-2.4,0.1-2.8,0.5-2.8,3.2v4.9h9.9v-5.1c0-2.5-0.4-2.9-2.8-3
				v-1.1h9.2v1.1c-2.2,0.1-2.5,0.5-2.5,3.2V33.9z"/>
			<path d="M130.8,26.9c4.6,0,5.2-0.4,5.6-3.3h1v7.8h-1c-0.5-2.9-1.1-3.2-5.6-3.2v5.5c0,2.3,1.1,3,4.6,3c4.1,0,5.4-1,6.2-4.7h1.1
				l-0.4,6.1h-18.1v-1.1c2.4-0.1,2.8-0.5,2.8-3V21.8c0-2.5-0.4-2.9-2.5-3v-1.1h16.9l0.2,5.2h-1.1c-0.5-3-1.7-3.8-5.5-3.8h-3
				c-0.9,0-1,0.1-1,1L130.8,26.9z"/>
			<path d="M163.2,25.3l8.3,9.5c1.1,1.3,2.7,2,4.4,2v1.4h-8.5l-8.9-10.9c-1.2-1.4-2-1.8-2.8-1.8v7c0,3.5,0.6,4.3,5.2,4.3v1.4h-14.2
				v-1.4c3.1,0,3.8-0.7,3.8-4.1V16.2c0-3.3-0.4-3.9-3.4-4.1v-1.4h12.4c6.9,0,10.8,2.6,10.8,6.9C170.4,21.6,168.2,24.4,163.2,25.3z
				 M155.9,23.4h2.3c4.5,0,6.7-1.6,6.7-5.6c0-3-2-5.1-5.3-5.1h-3.1c-0.3,0-0.6,0.2-0.6,0.5c0,0,0,0,0,0.1L155.9,23.4z"/>
			<path d="M187.9,38.2h-9.5v-1.1c2.4-0.1,2.8-0.5,2.8-3.8V22.6c0-3-0.4-3.7-2.5-3.9v-1.1h9v1.1c-2.2,0.1-2.5,0.8-2.5,3.9v10.8
				c0,3.3,0.4,3.8,2.8,3.8L187.9,38.2z"/>
			<path d="M209.8,17.6h1.3l-0.5,6.8h-1.1c-0.8-3.3-3.1-5.3-6.1-5.3c-4.2,0-6.6,3.4-6.6,9s2.3,8.6,6.7,8.6c3.5,0,5.9-2,6.9-5.8h1.2
				v7.2h-1.3l-0.3-2.1c-2,1.6-4.6,2.5-7.1,2.4c-6.5,0-10.7-4-10.7-10.2c0-6.5,4.5-10.9,11-10.9c2.2,0,4.3,0.7,6.1,1.9L209.8,17.6z"
				/>
			<path d="M236.4,33.9c0,2.7,0.4,3.2,2.8,3.2v1.1h-9.8v-1.1c2.6-0.1,3.1-0.5,3.1-3v-5.6h-9.9v5.4c0,2.7,0.4,3.2,3.1,3.2v1.1h-9.8
				v-1.1c2.4-0.1,2.8-0.5,2.8-3V21.8c0-2.5-0.4-2.9-2.5-3v-1.1h9.2v1.1c-2.4,0.1-2.8,0.5-2.8,3.2v4.9h9.9v-5.1c0-2.5-0.4-2.9-2.8-3
				v-1.1h9.2v1.1c-2.2,0.1-2.5,0.5-2.5,3.2L236.4,33.9z"/>
			<path d="M249.8,26.9c4.6,0,5.2-0.4,5.6-3.3h1v7.8h-1c-0.4-2.9-1.1-3.2-5.6-3.2v5.5c0,2.3,1.1,3,4.6,3c4.1,0,5.4-1,6.2-4.7h1.1
				l-0.4,6.1h-18.1v-1.1c2.4-0.1,2.8-0.5,2.8-3V21.8c0-2.5-0.4-2.9-2.5-3v-1.1h16.9l0.2,5.2h-1.1c-0.5-3-1.6-3.8-5.4-3.8h-3
				c-0.9,0-1,0.1-1,1L249.8,26.9z"/>
			<path d="M266,31.4h1c0.3,3.1,3,5.5,6.1,5.4c2.7,0,4.5-1.3,4.5-3.3c0-1.7-0.9-2.4-5-4s-6.1-3.7-6.1-6.5c0-3.3,2.7-5.7,6.6-5.7
				c1.8,0,3.5,0.6,4.9,1.7l0.5-1.3h0.6l0.3,5.8h-1c-0.9-2.9-2.8-4.5-5.2-4.5c-2.2,0-3.7,1.2-3.7,2.9c0,1.5,0.9,2.2,4.5,3.6
				c5,1.9,7,3.9,7,6.9c0,3.6-3.3,6.1-8,6.1c-2,0-4-0.6-5.5-1.9l-0.5,1.6h-0.6L266,31.4z"/>
			<path d="M306.1,23.5H305c-0.2-3.5-1.7-4.5-4.5-4.5s-3.2,0.2-3.2,0.8v14c0,2.3,0.5,3.2,3.6,3.3v1.1h-11.2v-1
				c3.2-0.1,3.7-1,3.7-3.3v-14c0-0.6-0.4-0.8-2.8-0.8c-2.6,0-4.8,0.2-4.9,4.5h-1l0.3-5.9h20.9L306.1,23.5z"/>
		</g>
	</g>
</g>
</svg>
