<svg xmlns="http://www.w3.org/2000/svg" viewBox="0 0 54.15 52.49"><defs><style>.cls-1{fill:#e8c280;}</style></defs><g id="Layer_2" data-name="Layer 2"><g id="_1_-_TheRichest" data-name="1 - TheRichest"><g id="Layer_1-2" data-name="Layer 1"><g id="Layer_6" data-name="Layer 6"><rect class="cls-1" x="6.35" y="21.03" width="7.47" height="31.45"/><polygon class="cls-1" points="38.06 32.88 32.3 37.63 44.47 52.49 54.15 52.49 38.06 32.88"/><polygon points="19.55 43.63 19.53 35.27 42.83 16.6 34.15 6.98 4.55 6.98 0 0 37.26 0 52.47 16.85 19.55 43.63"/><path d="M30.11,22.89c-3.45-2.77-3.84-2.89-4.23-3-.39.12-.78.24-4.22,3,2.78-3.44,2.89-3.83,3-4.22-.12-.39-.23-.78-3-4.22,3.44,2.77,3.83,2.89,4.22,3,.39-.12.78-.24,4.23-3-2.78,3.44-2.9,3.83-3,4.22C27.21,19.08,27.33,19.47,30.11,22.89Z"/><path d="M33.47,15.44C31.69,14,31.49,14,31.3,13.9s-.41.12-2.19,1.54c1.43-1.78,1.48-2,1.54-2.19s-.11-.41-1.54-2.17c1.78,1.43,2,1.49,2.17,1.55s.41-.12,2.19-1.55c-1.43,1.78-1.49,2-1.55,2.19S32,13.66,33.47,15.44Z"/></g></g></g></g></svg>