<svg xmlns="http://www.w3.org/2000/svg" viewBox="0 0 306.11 48.3"><defs><style>.cls-1{fill:#e8c280;}.cls-2{fill:#e6e6e5;}.cls-3{fill:#fff;}</style></defs><title>Asset 2</title><g id="Layer_2" data-name="Layer 2"><g id="_1_-_TheRichest" data-name="1 - TheRichest"><g id="Layer_1-2" data-name="Layer 1"><g id="Layer_6" data-name="Layer 6"><rect class="cls-1" x="5.85" y="19.35" width="6.87" height="28.94"/><polygon class="cls-1" points="35.02 30.25 29.72 34.63 40.92 48.3 49.83 48.3 35.02 30.25"/><polygon class="cls-2" points="17.99 40.15 17.97 32.45 39.41 15.27 31.43 6.42 4.19 6.42 0 0 34.28 0 48.28 15.51 17.99 40.15"/><path class="cls-2" d="M27.7,21.06c-3.16-2.55-3.52-2.66-3.88-2.77-.36.11-.72.22-3.89,2.77,2.55-3.16,2.66-3.52,2.77-3.88-.11-.36-.22-.72-2.77-3.89,3.17,2.56,3.53,2.67,3.89,2.77.36-.1.72-.21,3.88-2.77-2.55,3.17-2.66,3.53-2.77,3.89C25,17.56,25.15,17.92,27.7,21.06Z"/><path class="cls-2" d="M30.8,14.21c-1.64-1.31-1.82-1.37-2-1.42s-.38.11-2,1.42c1.32-1.64,1.37-1.82,1.42-2s-.1-.38-1.42-2c1.64,1.31,1.82,1.37,2,1.42s.38-.11,2-1.42c-1.32,1.64-1.37,1.82-1.43,2S29.48,12.57,30.8,14.21Z"/></g></g><path class="cls-3" d="M92.78,18.58H91.24c-.28-4.72-2.18-6-6-6S81,12.82,81,13.68V32.41c0,3.08.61,4.26,4.83,4.4v1.43h-15V36.81c4.26-.14,4.9-1.32,4.9-4.4V13.68c0-.86-.5-1.11-3.68-1.11-3.47,0-6.44.22-6.58,6H64.08l.35-7.86h28Z"/><path class="cls-3" d="M117.41,33.93c0,2.73.4,3.16,2.81,3.24v1.07h-9.81V37.17c2.62-.08,3.07-.54,3.07-3.05V28.53h-9.92v5.4c0,2.73.43,3.16,3,3.24v1.07H96.83V37.17c2.4-.08,2.8-.54,2.8-3.05V21.77c0-2.49-.34-2.94-2.51-3.05V17.65h9.22v1.07c-2.4.08-2.78.54-2.78,3.24v4.91h9.92v-5.1c0-2.49-.4-2.94-2.8-3.05V17.65h9.25v1.07c-2.17.08-2.52.54-2.52,3.24Z"/><path class="cls-3" d="M130.83,26.85c4.58,0,5.24-.38,5.57-3.26h1v7.83h-1c-.46-2.89-1.1-3.21-5.57-3.21v5.51c0,2.3,1.13,3.05,4.58,3.05,4.06,0,5.42-1,6.17-4.65h1.07l-.43,6.12H124.1V37.17c2.38-.08,2.8-.54,2.8-3.05V21.77c0-2.49-.37-2.94-2.51-3.05V17.65h16.9l.19,5.24h-1.15c-.46-3-1.66-3.82-5.46-3.82h-3c-.91,0-1,.13-1,1Z"/><path class="cls-3" d="M163.25,25.26l8.29,9.51a6,6,0,0,0,4.43,2v1.43H167.5l-8.86-10.87c-1.18-1.43-2-1.82-2.79-1.82v7c0,3.54.64,4.26,5.18,4.26v1.43H146.84V36.81c3.15,0,3.76-.72,3.76-4.08V16.22c0-3.32-.43-3.93-3.36-4.08V10.72H159.6c6.87,0,10.83,2.57,10.83,6.89C170.43,21.58,168.25,24.37,163.25,25.26Zm-7.4-1.86h2.32c4.47,0,6.69-1.64,6.69-5.61,0-3-2-5.07-5.26-5.07h-3.11a.59.59,0,0,0-.64.6Z"/><path class="cls-3" d="M187.91,38.24h-9.54V37.17c2.4-.08,2.81-.54,2.81-3.85V22.57c0-3-.35-3.74-2.54-3.85V17.65h9v1.07c-2.2.11-2.54.83-2.54,3.85V33.32c0,3.31.4,3.77,2.8,3.85Z"/><path class="cls-3" d="M209.78,17.65h1.31l-.53,6.77h-1.07c-.75-3.27-3.05-5.3-6.1-5.3-4.2,0-6.6,3.42-6.6,9s2.32,8.61,6.71,8.61c3.53,0,5.93-2,6.92-5.75h1.18v7.25h-1.26L210,36.13a11,11,0,0,1-7.14,2.38c-6.5,0-10.69-4-10.69-10.22,0-6.47,4.49-10.91,11-10.91a10.85,10.85,0,0,1,6.12,1.93Z"/><path class="cls-3" d="M236.41,33.93c0,2.73.4,3.16,2.81,3.24v1.07h-9.81V37.17c2.62-.08,3.07-.54,3.07-3.05V28.53h-9.92v5.4c0,2.73.43,3.16,3.05,3.24v1.07h-9.79V37.17c2.41-.08,2.81-.54,2.81-3.05V21.77c0-2.49-.35-2.94-2.51-3.05V17.65h9.22v1.07c-2.4.08-2.78.54-2.78,3.24v4.91h9.92v-5.1c0-2.49-.4-2.94-2.81-3.05V17.65h9.25v1.07c-2.16.08-2.51.54-2.51,3.24Z"/><path class="cls-3" d="M249.83,26.85c4.57,0,5.24-.38,5.56-3.26h1v7.83h-1c-.45-2.89-1.09-3.21-5.56-3.21v5.51c0,2.3,1.12,3.05,4.57,3.05,4.07,0,5.43-1,6.18-4.65h1.07l-.43,6.12H243.09V37.17c2.38-.08,2.81-.54,2.81-3.05V21.77c0-2.49-.37-2.94-2.51-3.05V17.65h16.9l.18,5.24h-1.15c-.45-3-1.65-3.82-5.45-3.82h-3c-.91,0-1,.13-1,1Z"/><path class="cls-3" d="M266,31.42h1.05a6,6,0,0,0,6.12,5.45c2.67,0,4.46-1.33,4.46-3.31,0-1.69-.88-2.41-5-4s-6.13-3.69-6.13-6.55c0-3.34,2.7-5.67,6.61-5.67a8,8,0,0,1,4.94,1.71l.49-1.33h.64l.29,5.77h-1c-.86-2.91-2.78-4.52-5.16-4.52-2.19,0-3.72,1.21-3.72,2.92,0,1.52.86,2.19,4.55,3.58,5,1.9,7,3.9,7,6.87,0,3.61-3.29,6.13-8,6.13a8.72,8.72,0,0,1-5.53-1.88l-.53,1.61h-.65Z"/><path class="cls-3" d="M306.11,23.53H305C304.75,20,303.33,19,300.47,19s-3.18.19-3.18.83v14c0,2.3.45,3.18,3.61,3.29v1.07H289.69V37.17c3.19-.11,3.67-1,3.67-3.29v-14c0-.64-.38-.83-2.76-.83-2.59,0-4.81.16-4.92,4.49h-1l.27-5.88h20.93Z"/></g></g></svg>