<svg id="_2_-_TheSportster" data-name="2 - TheSportster" xmlns="http://www.w3.org/2000/svg" viewBox="0 0 290.61 47.52"><title>ts-logo-full-black</title><polygon points="45.47 14.53 0 14.53 14.53 0 60 0 45.47 14.53"/><polygon points="14.53 31.02 60 31.02 45.47 16.49 0 16.49 14.53 31.02"/><polygon points="45.47 47.52 0 47.52 14.53 32.98 60 32.98 45.47 47.52"/><path d="M-684.5,183.38h2.35V168.74h-2.76v2.94h-4.89v-6.91h20.67v6.91H-674v-2.94h-3.13v14.64h2.4v4.11h-9.73v-4.11Z" transform="translate(759.13 -153.72)"/><path d="M-654.82,168.89h8v3.37h-2v11.86h2v3.36h-8v-3.36h1.94v-4.76h-8.39v4.76h2v3.36h-8v-3.36h1.93V172.26h-1.93v-3.37h8v3.37h-2v3.86h8.39v-3.86h-1.94v-3.37Z" transform="translate(759.13 -153.72)"/><path d="M-644.09,168.89h14.79v6.34h-4v-2.64h-4.77v3.67h3.69v3.56h-3.69v4.31h4.77v-3.3h4v6.66h-14.79v-3.36h2V172.59h-2v-3.7Z" transform="translate(759.13 -153.72)"/><path d="M-615.93,171.16a2.51,2.51,0,0,0-.37-1,2.93,2.93,0,0,0-.75-0.8,3.76,3.76,0,0,0-1-.53,3.75,3.75,0,0,0-1.21-.19,4.52,4.52,0,0,0-1.06.12,2.65,2.65,0,0,0-.86.37,1.83,1.83,0,0,0-.58.64,1.88,1.88,0,0,0-.22.93,1.77,1.77,0,0,0,.29,1.07,2.31,2.31,0,0,0,.75.65,4.44,4.44,0,0,0,1,.4q0.55,0.15,1.08.33l4.12,1.38a6.6,6.6,0,0,1,1.6.82,5.51,5.51,0,0,1,1.3,1.27,6.06,6.06,0,0,1,.86,1.72,7.1,7.1,0,0,1,.31,2.19,7.33,7.33,0,0,1-.61,3,6.78,6.78,0,0,1-1.7,2.34,7.8,7.8,0,0,1-2.62,1.51,10.12,10.12,0,0,1-3.39.54,10.07,10.07,0,0,1-2.47-.29,8.21,8.21,0,0,1-2.12-.85,7.2,7.2,0,0,1-1.68-1.33,5.8,5.8,0,0,1-1.12-1.75h-1.54v-4.51h5.43v0.93a3.46,3.46,0,0,0,.22,1.24,2.69,2.69,0,0,0,.65,1,3,3,0,0,0,1.09.65,4.65,4.65,0,0,0,1.54.23,3,3,0,0,0,2.05-.62,2.19,2.19,0,0,0,.7-1.73,1.72,1.72,0,0,0-.25-1,2.24,2.24,0,0,0-.64-0.64,4.2,4.2,0,0,0-.87-0.44l-0.94-.33-3.43-1.11a8.62,8.62,0,0,1-1.88-.84,6.47,6.47,0,0,1-1.6-1.35,6.3,6.3,0,0,1-1.11-1.9,7,7,0,0,1-.41-2.48,6.66,6.66,0,0,1,.6-2.89,6,6,0,0,1,1.68-2.14,7.51,7.51,0,0,1,2.56-1.32,11.17,11.17,0,0,1,3.25-.45,9.8,9.8,0,0,1,2.58.32,8.94,8.94,0,0,1,2.12.86,6.8,6.8,0,0,1,1.59,1.24,5.5,5.5,0,0,1,1,1.45h1.5v4.53h-5.43v-1.32Z" transform="translate(759.13 -153.72)"/><path d="M-608.5,168.89h8.59a7.5,7.5,0,0,1,2.64.45,6.64,6.64,0,0,1,2.07,1.21,5.62,5.62,0,0,1,1.36,1.75,4.63,4.63,0,0,1,.49,2.07,7.51,7.51,0,0,1-.39,2.44,5.19,5.19,0,0,1-1.2,2,5.7,5.7,0,0,1-2,1.32,8,8,0,0,1-2.93.48h-2.59v3.55h1.71v3.36h-7.7v-3.36h1.93V172.26h-1.93v-3.37Zm6,3.37v5h1.68a3.74,3.74,0,0,0,2.22-.59,2.14,2.14,0,0,0,.82-1.86,2.35,2.35,0,0,0-.77-1.86,3.36,3.36,0,0,0-2.27-.67h-1.68Z" transform="translate(759.13 -153.72)"/><path d="M-582.91,187.82a8.43,8.43,0,0,1-2.42-.34,8.73,8.73,0,0,1-2.15-1,9,9,0,0,1-1.82-1.5,9.33,9.33,0,0,1-1.39-2,10.32,10.32,0,0,1-.9-2.3,10.15,10.15,0,0,1-.32-2.56,10.22,10.22,0,0,1,.32-2.57,10.29,10.29,0,0,1,.9-2.31,9.33,9.33,0,0,1,1.39-2,9,9,0,0,1,1.82-1.5,8.74,8.74,0,0,1,2.15-1,8.42,8.42,0,0,1,2.42-.34,8.48,8.48,0,0,1,2.42.34,8.73,8.73,0,0,1,2.16,1,9,9,0,0,1,1.82,1.5,9.51,9.51,0,0,1,1.4,2,10.14,10.14,0,0,1,.9,2.31,10.22,10.22,0,0,1,.32,2.57,10.17,10.17,0,0,1-.32,2.56,10.14,10.14,0,0,1-.9,2.31,9.51,9.51,0,0,1-1.4,2,9,9,0,0,1-1.82,1.5,8.72,8.72,0,0,1-2.16,1A8.49,8.49,0,0,1-582.91,187.82Zm0-3.85a4.19,4.19,0,0,0,2-.46,4.74,4.74,0,0,0,1.53-1.25,5.85,5.85,0,0,0,1-1.84,7,7,0,0,0,.35-2.23,7,7,0,0,0-.36-2.24,5.86,5.86,0,0,0-1-1.85,4.83,4.83,0,0,0-1.53-1.25,4.13,4.13,0,0,0-1.94-.46,4.13,4.13,0,0,0-1.94.46,4.76,4.76,0,0,0-1.52,1.25,6,6,0,0,0-1,1.85,6.87,6.87,0,0,0-.36,2.24,6.78,6.78,0,0,0,.36,2.23,6,6,0,0,0,1,1.84,4.76,4.76,0,0,0,1.52,1.25A4.13,4.13,0,0,0-582.91,184Z" transform="translate(759.13 -153.72)"/><path d="M-571.46,168.89h9.84a7.18,7.18,0,0,1,2.56.43,5.78,5.78,0,0,1,1.9,1.15,4.92,4.92,0,0,1,1.18,1.67,5,5,0,0,1,.41,2,6.08,6.08,0,0,1-.2,1.66,4.18,4.18,0,0,1-.59,1.26,4.3,4.3,0,0,1-1,1,7.5,7.5,0,0,1-1.29.77,3.14,3.14,0,0,1,1.1,1,4.69,4.69,0,0,1,.72,1.7l0.63,2.42h1.53l0,3.62H-560l-0.74-4.42a5.91,5.91,0,0,0-.34-1.36,2.58,2.58,0,0,0-.61-0.93,2.35,2.35,0,0,0-.93-0.53,4.35,4.35,0,0,0-1.29-.17h-1.58v4h1.71v3.36h-7.7v-3.36h1.93V172.26h-1.93v-3.37Zm6,3.37v4.5H-563a5.6,5.6,0,0,0,1.26-.13,2.74,2.74,0,0,0,1-.4,1.88,1.88,0,0,0,.61-0.69,2.15,2.15,0,0,0,.21-1,2,2,0,0,0-.77-1.68,3.65,3.65,0,0,0-2.27-.6h-2.44Z" transform="translate(759.13 -153.72)"/><path d="M-549.5,184.12h1.93v-12h-2.26v2.4h-4v-5.65h16.92v5.65h-4v-2.4h-2.56v12h2v3.36h-8v-3.36Z" transform="translate(759.13 -153.72)"/><path d="M-526.2,174.13a2.06,2.06,0,0,0-.3-0.81,2.4,2.4,0,0,0-.61-0.66,3.07,3.07,0,0,0-.85-0.44,3.07,3.07,0,0,0-1-.16,3.7,3.7,0,0,0-.87.1,2.16,2.16,0,0,0-.71.3,1.5,1.5,0,0,0-.48.52,1.54,1.54,0,0,0-.18.76,1.45,1.45,0,0,0,.24.88,1.89,1.89,0,0,0,.61.53,3.63,3.63,0,0,0,.83.33q0.45,0.12.88,0.27l3.37,1.13a5.39,5.39,0,0,1,1.31.67,4.51,4.51,0,0,1,1.06,1,5,5,0,0,1,.71,1.41,5.81,5.81,0,0,1,.26,1.79,6,6,0,0,1-.5,2.47,5.55,5.55,0,0,1-1.39,1.91,6.37,6.37,0,0,1-2.15,1.24,8.28,8.28,0,0,1-2.77.44,8.24,8.24,0,0,1-2-.24,6.73,6.73,0,0,1-1.74-.69,5.89,5.89,0,0,1-1.37-1.09,4.76,4.76,0,0,1-.92-1.43H-536v-3.69h4.44v0.76a2.83,2.83,0,0,0,.18,1,2.2,2.2,0,0,0,.53.81,2.42,2.42,0,0,0,.9.53,3.8,3.8,0,0,0,1.26.19,2.47,2.47,0,0,0,1.68-.51,1.79,1.79,0,0,0,.58-1.42,1.41,1.41,0,0,0-.2-0.78,1.83,1.83,0,0,0-.52-0.53,3.43,3.43,0,0,0-.71-0.36l-0.77-.27-2.81-.91a7.07,7.07,0,0,1-1.54-.69,5.3,5.3,0,0,1-1.31-1.1,5.15,5.15,0,0,1-.91-1.55,5.69,5.69,0,0,1-.34-2,5.45,5.45,0,0,1,.49-2.36,4.91,4.91,0,0,1,1.37-1.75,6.15,6.15,0,0,1,2.1-1.08,9.15,9.15,0,0,1,2.66-.37,8,8,0,0,1,2.11.26,7.32,7.32,0,0,1,1.74.71,5.58,5.58,0,0,1,1.3,1,4.49,4.49,0,0,1,.82,1.18h1.23v3.7h-4.44v-1.08Z" transform="translate(759.13 -153.72)"/><path d="M-516.68,184.12h1.93v-12H-517v2.4h-4v-5.65h16.92v5.65h-4v-2.4h-2.56v12h2v3.36h-8v-3.36Z" transform="translate(759.13 -153.72)"/><path d="M-502.33,168.89h14.79v6.34h-4v-2.64h-4.77v3.67h3.69v3.56h-3.69v4.31h4.77v-3.3h4v6.66h-14.79v-3.36h2V172.59h-2v-3.7Z" transform="translate(759.13 -153.72)"/><path d="M-485.4,168.89h9.84a7.18,7.18,0,0,1,2.56.43,5.77,5.77,0,0,1,1.9,1.15,4.92,4.92,0,0,1,1.18,1.67,5,5,0,0,1,.41,2,6.08,6.08,0,0,1-.2,1.66,4.18,4.18,0,0,1-.59,1.26,4.3,4.3,0,0,1-1,1,7.49,7.49,0,0,1-1.29.77,3.13,3.13,0,0,1,1.1,1,4.68,4.68,0,0,1,.72,1.7l0.63,2.42h1.53l0,3.62h-5.4l-0.74-4.42a6,6,0,0,0-.34-1.36,2.59,2.59,0,0,0-.61-0.93,2.35,2.35,0,0,0-.93-0.53,4.34,4.34,0,0,0-1.29-.17h-1.58v4h1.7v3.36h-7.7v-3.36h1.93V172.26h-1.93v-3.37Zm6,3.37v4.5H-477a5.6,5.6,0,0,0,1.26-.13,2.74,2.74,0,0,0,1-.4,1.88,1.88,0,0,0,.61-0.69,2.14,2.14,0,0,0,.21-1,2,2,0,0,0-.77-1.68,3.65,3.65,0,0,0-2.27-.6h-2.44Z" transform="translate(759.13 -153.72)"/></svg>