<svg id="_2_-_TheSportster" data-name="2 - TheSportster" xmlns="http://www.w3.org/2000/svg" viewBox="0 0 290.99 47.52"><defs><style>.cls-1{fill:#fff;}</style></defs><title>ts-logo-full-white</title><polygon class="cls-1" points="45.47 14.53 0 14.53 14.53 0 60 0 45.47 14.53"/><polygon class="cls-1" points="14.53 31.02 60 31.02 45.47 16.49 0 16.49 14.53 31.02"/><polygon class="cls-1" points="45.47 47.52 0 47.52 14.53 32.98 60 32.98 45.47 47.52"/><path class="cls-1" d="M-308.8,183.37h2.35V168.75h-2.75v2.93h-4.88v-6.9h20.64v6.9h-4.91v-2.93h-3.13v14.62h2.4v4.1h-9.71v-4.1Z" transform="translate(384.08 -153.72)"/><path class="cls-1" d="M-279.16,168.9h8v3.37h-2v11.85h2v3.36h-8v-3.36h1.94v-4.75h-8.38v4.75h2v3.36h-8v-3.36h1.92V172.27h-1.92V168.9h8v3.37h-2v3.86h8.38v-3.86h-1.94V168.9Z" transform="translate(384.08 -153.72)"/><path class="cls-1" d="M-268.44,168.9h14.78v6.33h-4V172.6h-4.77v3.66h3.69v3.55h-3.69v4.3h4.77v-3.3h4v6.65h-14.78v-3.36h1.95V172.6h-1.95v-3.7Z" transform="translate(384.08 -153.72)"/><path class="cls-1" d="M-240.31,171.17a2.5,2.5,0,0,0-.37-1,2.93,2.93,0,0,0-.75-0.8,3.75,3.75,0,0,0-1-.53,3.75,3.75,0,0,0-1.21-.19,4.52,4.52,0,0,0-1.06.12,2.65,2.65,0,0,0-.86.37,1.83,1.83,0,0,0-.58.64,1.88,1.88,0,0,0-.22.93,1.77,1.77,0,0,0,.29,1.07,2.3,2.3,0,0,0,.75.65,4.44,4.44,0,0,0,1,.4q0.55,0.15,1.08.33l4.12,1.38a6.59,6.59,0,0,1,1.6.82,5.5,5.5,0,0,1,1.29,1.27,6.05,6.05,0,0,1,.86,1.72,7.1,7.1,0,0,1,.31,2.19,7.32,7.32,0,0,1-.61,3,6.78,6.78,0,0,1-1.7,2.34A7.79,7.79,0,0,1-240,187.4a10.11,10.11,0,0,1-3.38.54,10.05,10.05,0,0,1-2.46-.29,8.2,8.2,0,0,1-2.12-.85,7.19,7.19,0,0,1-1.68-1.32,5.8,5.8,0,0,1-1.12-1.74h-1.54v-4.51h5.42v0.93a3.46,3.46,0,0,0,.22,1.24,2.69,2.69,0,0,0,.65,1,3,3,0,0,0,1.09.65,4.64,4.64,0,0,0,1.54.23,3,3,0,0,0,2.05-.62,2.19,2.19,0,0,0,.7-1.73,1.72,1.72,0,0,0-.25-1,2.24,2.24,0,0,0-.64-0.64,4.19,4.19,0,0,0-.87-0.44l-0.94-.33-3.43-1.11a8.61,8.61,0,0,1-1.88-.84,6.46,6.46,0,0,1-1.6-1.35,6.29,6.29,0,0,1-1.11-1.89,7,7,0,0,1-.41-2.48,6.65,6.65,0,0,1,.6-2.88,6,6,0,0,1,1.68-2.13,7.5,7.5,0,0,1,2.56-1.32,11.16,11.16,0,0,1,3.25-.45,9.79,9.79,0,0,1,2.57.32,8.93,8.93,0,0,1,2.12.86,6.8,6.8,0,0,1,1.59,1.23,5.49,5.49,0,0,1,1,1.44h1.5v4.52h-5.42v-1.32Z" transform="translate(384.08 -153.72)"/><path class="cls-1" d="M-232.89,168.9h8.58a7.49,7.49,0,0,1,2.63.45,6.64,6.64,0,0,1,2.07,1.21,5.61,5.61,0,0,1,1.36,1.75,4.62,4.62,0,0,1,.49,2.07,7.5,7.5,0,0,1-.39,2.43,5.18,5.18,0,0,1-1.19,2,5.69,5.69,0,0,1-2,1.32,8,8,0,0,1-2.93.48h-2.59v3.54h1.7v3.36h-7.69v-3.36H-231V172.27h-1.92V168.9Zm6,3.37v5h1.68a3.74,3.74,0,0,0,2.22-.59,2.13,2.13,0,0,0,.82-1.86,2.34,2.34,0,0,0-.77-1.86,3.35,3.35,0,0,0-2.27-.67h-1.68Z" transform="translate(384.08 -153.72)"/><path class="cls-1" d="M-207.33,187.8a8.42,8.42,0,0,1-2.41-.34,8.72,8.72,0,0,1-2.15-1,9,9,0,0,1-1.81-1.5A9.32,9.32,0,0,1-215.1,183a10.31,10.31,0,0,1-.89-2.3,10.13,10.13,0,0,1-.32-2.56,10.21,10.21,0,0,1,.32-2.57,10.28,10.28,0,0,1,.89-2.3,9.32,9.32,0,0,1,1.39-1.95,9,9,0,0,1,1.81-1.5,8.73,8.73,0,0,1,2.15-1,8.41,8.41,0,0,1,2.41-.34,8.47,8.47,0,0,1,2.42.34,8.71,8.71,0,0,1,2.16,1,9,9,0,0,1,1.81,1.5,9.5,9.5,0,0,1,1.4,1.95,10.13,10.13,0,0,1,.9,2.3,10.21,10.21,0,0,1,.32,2.57,10.16,10.16,0,0,1-.32,2.55,10.13,10.13,0,0,1-.9,2.3,9.5,9.5,0,0,1-1.4,1.95,9,9,0,0,1-1.81,1.5,8.71,8.71,0,0,1-2.16,1A8.48,8.48,0,0,1-207.33,187.8Zm0-3.85a4.19,4.19,0,0,0,2-.46,4.74,4.74,0,0,0,1.53-1.25,5.84,5.84,0,0,0,1-1.84,7,7,0,0,0,.35-2.22,7,7,0,0,0-.36-2.24,5.85,5.85,0,0,0-1-1.84,4.82,4.82,0,0,0-1.53-1.25,4.13,4.13,0,0,0-1.94-.46,4.13,4.13,0,0,0-1.94.46,4.76,4.76,0,0,0-1.52,1.25,6,6,0,0,0-1,1.84,6.87,6.87,0,0,0-.36,2.24,6.77,6.77,0,0,0,.36,2.22,6,6,0,0,0,1,1.84,4.76,4.76,0,0,0,1.52,1.25A4.13,4.13,0,0,0-207.33,184Z" transform="translate(384.08 -153.72)"/><path class="cls-1" d="M-195.89,168.9h9.83a7.17,7.17,0,0,1,2.56.43,5.77,5.77,0,0,1,1.9,1.15,4.92,4.92,0,0,1,1.18,1.67,4.94,4.94,0,0,1,.41,2,6.07,6.07,0,0,1-.2,1.65,4.18,4.18,0,0,1-.59,1.26,4.29,4.29,0,0,1-.95,1,7.49,7.49,0,0,1-1.29.77,3.13,3.13,0,0,1,1.1,1,4.68,4.68,0,0,1,.72,1.7l0.62,2.41h1.53l0,3.61h-5.39l-0.74-4.41a5.9,5.9,0,0,0-.34-1.35,2.58,2.58,0,0,0-.61-0.93,2.34,2.34,0,0,0-.93-0.53,4.34,4.34,0,0,0-1.29-.17h-1.58v4h1.7v3.36h-7.69v-3.36H-194V172.27h-1.92V168.9Zm6,3.37v4.5h2.44a5.59,5.59,0,0,0,1.26-.13,2.74,2.74,0,0,0,1-.4,1.88,1.88,0,0,0,.61-0.69,2.14,2.14,0,0,0,.21-1,2,2,0,0,0-.77-1.68,3.64,3.64,0,0,0-2.27-.6h-2.44Z" transform="translate(384.08 -153.72)"/><path class="cls-1" d="M-174,184.12H-172v-12h-2.25v2.4h-4V168.9h16.9v5.65h-4v-2.4H-168v12h2v3.36h-8v-3.36Z" transform="translate(384.08 -153.72)"/><path class="cls-1" d="M-150.69,174.13a2.06,2.06,0,0,0-.3-0.81,2.39,2.39,0,0,0-.61-0.66,3.07,3.07,0,0,0-.85-0.44,3.06,3.06,0,0,0-1-.16,3.69,3.69,0,0,0-.87.1,2.16,2.16,0,0,0-.7.3,1.5,1.5,0,0,0-.48.52,1.54,1.54,0,0,0-.18.76,1.45,1.45,0,0,0,.24.88,1.88,1.88,0,0,0,.61.53,3.63,3.63,0,0,0,.83.33q0.45,0.12.88,0.27l3.37,1.13a5.38,5.38,0,0,1,1.31.67,4.5,4.5,0,0,1,1.06,1,5,5,0,0,1,.7,1.41,5.8,5.8,0,0,1,.26,1.79,6,6,0,0,1-.5,2.46,5.55,5.55,0,0,1-1.39,1.91,6.37,6.37,0,0,1-2.14,1.24,8.27,8.27,0,0,1-2.77.44,8.23,8.23,0,0,1-2-.24,6.72,6.72,0,0,1-1.73-.69,5.89,5.89,0,0,1-1.37-1.08,4.75,4.75,0,0,1-.92-1.43h-1.26v-3.69h4.44v0.76a2.83,2.83,0,0,0,.18,1,2.2,2.2,0,0,0,.53.81,2.42,2.42,0,0,0,.89.53,3.79,3.79,0,0,0,1.26.19,2.46,2.46,0,0,0,1.68-.51,1.79,1.79,0,0,0,.58-1.42,1.4,1.4,0,0,0-.2-0.78,1.83,1.83,0,0,0-.52-0.53,3.43,3.43,0,0,0-.71-0.36l-0.77-.27-2.81-.91a7.06,7.06,0,0,1-1.54-.69,5.29,5.29,0,0,1-1.31-1.1,5.15,5.15,0,0,1-.91-1.55,5.69,5.69,0,0,1-.34-2,5.45,5.45,0,0,1,.49-2.36,4.91,4.91,0,0,1,1.37-1.75,6.14,6.14,0,0,1,2.1-1.08,9.14,9.14,0,0,1,2.66-.37,8,8,0,0,1,2.11.26,7.31,7.31,0,0,1,1.73.7,5.57,5.57,0,0,1,1.3,1,4.49,4.49,0,0,1,.81,1.18h1.23v3.7h-4.44v-1.08Z" transform="translate(384.08 -153.72)"/><path class="cls-1" d="M-141.19,184.12h1.92v-12h-2.25v2.4h-4V168.9h16.9v5.65h-4v-2.4h-2.56v12h2v3.36h-8v-3.36Z" transform="translate(384.08 -153.72)"/><path class="cls-1" d="M-126.85,168.9h14.78v6.33h-4V172.6h-4.77v3.66h3.69v3.55h-3.69v4.3h4.77v-3.3h4v6.65h-14.78v-3.36h1.95V172.6h-1.95v-3.7Z" transform="translate(384.08 -153.72)"/><path class="cls-1" d="M-109.94,168.9h9.83a7.17,7.17,0,0,1,2.56.43,5.77,5.77,0,0,1,1.9,1.15,4.92,4.92,0,0,1,1.18,1.67,4.94,4.94,0,0,1,.41,2,6.07,6.07,0,0,1-.2,1.65,4.17,4.17,0,0,1-.59,1.26,4.29,4.29,0,0,1-.95,1,7.48,7.48,0,0,1-1.29.77,3.13,3.13,0,0,1,1.1,1,4.68,4.68,0,0,1,.72,1.7l0.62,2.41h1.53l0,3.61h-5.39l-0.73-4.41a6,6,0,0,0-.34-1.35,2.59,2.59,0,0,0-.61-0.93,2.34,2.34,0,0,0-.93-0.53,4.34,4.34,0,0,0-1.29-.17H-104v4h1.7v3.36h-7.69v-3.36H-108V172.27h-1.92V168.9Zm6,3.37v4.5h2.44a5.59,5.59,0,0,0,1.26-.13,2.74,2.74,0,0,0,1-.4,1.88,1.88,0,0,0,.61-0.69,2.14,2.14,0,0,0,.21-1,2,2,0,0,0-.77-1.68,3.64,3.64,0,0,0-2.27-.6H-104Z" transform="translate(384.08 -153.72)"/></svg>