<svg xmlns="http://www.w3.org/2000/svg" viewBox="0 0 142.43 28.48"><defs><style>.cls-1{fill:#d5e821;}</style></defs><title>Asset 3</title><g id="Layer_2" data-name="Layer 2"><g id="Layer_1-2" data-name="Layer 1"><circle class="cls-1" cx="14.24" cy="14.24" r="14.24"/><path d="M12,6.72,11.45,10H14l-.58,3.28H10.84l-.67,3.77a1,1,0,0,0,.19.87,1,1,0,0,0,.76.27,2.08,2.08,0,0,0,.68-.12,3.5,3.5,0,0,0,.65-.3L12.82,21a6.84,6.84,0,0,1-1.69.61,8.59,8.59,0,0,1-1.75.18,5.55,5.55,0,0,1-1.61-.22,2.64,2.64,0,0,1-1.23-.77,3,3,0,0,1-.67-1.44,5.76,5.76,0,0,1,.07-2.24l.67-3.77H4.77L5.36,10H7.19L7.7,7.18Z"/><path d="M21.7,6.72,21.12,10H23.7l-.58,3.28h-2.6l-.68,3.77A1,1,0,0,0,20,18a1.06,1.06,0,0,0,.77.27,2.06,2.06,0,0,0,.67-.12,3.5,3.5,0,0,0,.65-.3L22.49,21a6.91,6.91,0,0,1-1.68.61,8.69,8.69,0,0,1-1.76.18,5.48,5.48,0,0,1-1.6-.22,2.54,2.54,0,0,1-1.23-.77,2.94,2.94,0,0,1-.68-1.44,6,6,0,0,1,.07-2.24l.67-3.77H14.45L15,10h1.84l.51-2.86Z"/><path d="M50.27,6.32l-1.07,6H45.49l.26-2.29H44.28l-1.46,8.36h1.82L44,21.89H35.9l.62-3.47h1.85l1.46-8.36H38.32l-.53,2.29H34.07l1.07-6Z"/><path d="M50.6,9.37l.56-3.07h5.63l-1,5.8A4.6,4.6,0,0,1,57.23,11a4.6,4.6,0,0,1,3.32,0,3.12,3.12,0,0,1,1.28.9,3.55,3.55,0,0,1,.73,1.59,6.27,6.27,0,0,1,0,2.36L62,18.89h1.54l-.54,3H56.25l.54-3h1.13l.56-3.09a1.34,1.34,0,0,0-.26-1.2,1.27,1.27,0,0,0-1-.43,1.86,1.86,0,0,0-1.52.66,3.22,3.22,0,0,0-.7,1.52l-.45,2.54h1.25l-.53,3H48.4l.53-3h1.49l1.67-9.52Z"/><path d="M71.85,10.57a6.66,6.66,0,0,1,2.62.48,3.87,3.87,0,0,1,2.45,3.57,7.26,7.26,0,0,1-.55,2.93H68.62a1.32,1.32,0,0,0,.72,1.07,3.18,3.18,0,0,0,1.51.34,5.52,5.52,0,0,0,1.67-.25,5.68,5.68,0,0,0,1.36-.64l1.6,2.29a7.66,7.66,0,0,1-2.54,1.38,9.48,9.48,0,0,1-2.82.44A7.91,7.91,0,0,1,68,21.9,4.82,4.82,0,0,1,66.19,21,4.14,4.14,0,0,1,65,19.56a5,5,0,0,1-.42-2.12A6.38,6.38,0,0,1,67,12.26,7.34,7.34,0,0,1,69.31,11,8.19,8.19,0,0,1,71.85,10.57Zm1.27,4.36a1.07,1.07,0,0,0-.19-.78,1.4,1.4,0,0,0-.63-.46,2.81,2.81,0,0,0-.89-.14,2.85,2.85,0,0,0-1,.16,2.65,2.65,0,0,0-.84.46,1.61,1.61,0,0,0-.5.76Z"/><path d="M93.61,6.32l-1.07,6H88.83l.26-2.29H87.63l-1.47,8.36H88l-.62,3.47H79.24l.62-3.47h1.85l1.47-8.36H81.66l-.53,2.29H77.41l1.07-6Z"/><path d="M101.73,10.86h5.21l-.53,3h-1.5l-.86,5h1.49l-.54,3H99.86l0-1.22A4.48,4.48,0,0,1,98,21.8a5.87,5.87,0,0,1-2,.27,5.27,5.27,0,0,1-1.9-.42,3.64,3.64,0,0,1-1.3-1,4.18,4.18,0,0,1-.76-1.43,6.44,6.44,0,0,1-.24-1.81,7.16,7.16,0,0,1,.5-2.67A6.73,6.73,0,0,1,93.7,12.6a6.6,6.6,0,0,1,2.08-1.45,6.13,6.13,0,0,1,2.57-.54,4.3,4.3,0,0,1,1.94.37,2.14,2.14,0,0,1,1,1.06Zm-3,3.07a2.55,2.55,0,0,0-2,.87,2.75,2.75,0,0,0-.55.92,3.34,3.34,0,0,0-.19,1.1,1.92,1.92,0,0,0,.53,1.44,1.82,1.82,0,0,0,1.3.5,2.55,2.55,0,0,0,1.09-.24,2.63,2.63,0,0,0,.88-.63,3.17,3.17,0,0,0,.58-.93,2.87,2.87,0,0,0,.21-1.1,2,2,0,0,0-.48-1.41A1.81,1.81,0,0,0,98.71,13.93Z"/><path d="M106.63,18.89h1.56l1.66-9.52h-1.49l.56-3.07h5.61L112.3,18.89h1.56l-.53,3h-7.24Z"/><path d="M120.36,18.89h1l-.54,3h-6.65l.53-3h1.54l1.67-9.52H116.4L117,6.3h5.63l-1.51,8.5,2.47-1.38-1-.14.42-2.42h6.77l-.52,3h-1.69L125,15.22l2,3.67h1.66c-.08.52-.17,1-.26,1.51l-.27,1.49h-5.25l.27-1.53-1.67-3.16-.91.58Z"/><path d="M137,10.55a7.24,7.24,0,0,1,2.12.3,4.85,4.85,0,0,1,1.71.91A4.26,4.26,0,0,1,142,13.28a5.24,5.24,0,0,1,.41,2.14,6.7,6.7,0,0,1-.63,3,6.16,6.16,0,0,1-1.64,2.11,6.94,6.94,0,0,1-2.35,1.23,9.23,9.23,0,0,1-2.72.4,7.68,7.68,0,0,1-2.21-.29,4.88,4.88,0,0,1-1.72-.86,3.83,3.83,0,0,1-1.11-1.48,5.4,5.4,0,0,1-.39-2.15,6.63,6.63,0,0,1,.64-3,6.37,6.37,0,0,1,1.7-2.15A7.31,7.31,0,0,1,134.38,11,8.79,8.79,0,0,1,137,10.55Zm-1.42,8.23a2.82,2.82,0,0,0,1.08-.22,3.11,3.11,0,0,0,.87-.59,2.85,2.85,0,0,0,.57-.87,2.82,2.82,0,0,0,.22-1.08,2.11,2.11,0,0,0-.48-1.4,1.72,1.72,0,0,0-1.42-.58,2.7,2.7,0,0,0-1.12.23,2.85,2.85,0,0,0-.86.63,2.89,2.89,0,0,0-.55.89,2.59,2.59,0,0,0-.2,1,2.11,2.11,0,0,0,.48,1.38A1.7,1.7,0,0,0,135.62,18.78Z"/></g></g></svg>