<svg xmlns="http://www.w3.org/2000/svg" viewBox="0 0 144.15 28.82"><defs><style>.cls-1{fill:#d5e821;}.cls-2{fill:#fff;}</style></defs><title>Asset 1</title><g id="Layer_2" data-name="Layer 2"><g id="Layer_1-2" data-name="Layer 1"><circle class="cls-1" cx="14.41" cy="14.41" r="14.41"/><path d="M12.18,6.8l-.59,3.36H14.2l-.59,3.32H11l-.69,3.81a1,1,0,0,0,.19.89,1.09,1.09,0,0,0,.78.27,2.08,2.08,0,0,0,.68-.12A2.86,2.86,0,0,0,12.6,18L13,21.23a7.13,7.13,0,0,1-1.71.61A8.9,8.9,0,0,1,9.49,22a5.61,5.61,0,0,1-1.62-.23A2.73,2.73,0,0,1,6.62,21a3.05,3.05,0,0,1-.68-1.46A6,6,0,0,1,6,17.29l.68-3.81H4.83l.59-3.32H7.28L7.8,7.27Z"/><path d="M22,6.8l-.59,3.36H24l-.59,3.32H20.77l-.69,3.81a1,1,0,0,0,.19.89,1.09,1.09,0,0,0,.78.27,2.08,2.08,0,0,0,.68-.12,2.86,2.86,0,0,0,.66-.31l.38,3.21a7.13,7.13,0,0,1-1.71.61,8.9,8.9,0,0,1-1.78.19,5.61,5.61,0,0,1-1.62-.23A2.73,2.73,0,0,1,16.41,21a3.05,3.05,0,0,1-.68-1.46,6,6,0,0,1,.07-2.28l.68-3.81H14.62l.59-3.32h1.86l.52-2.89Z"/><path class="cls-2" d="M50.88,6.4,49.8,12.5H46l.27-2.32H44.82l-1.49,8.47h1.85l-.63,3.51H36.33L37,18.65h1.87l1.49-8.47H38.79l-.54,2.32H34.48l1.09-6.1Z"/><path class="cls-2" d="M51.22,9.48l.56-3.11h5.7l-1,5.88a4.9,4.9,0,0,1,1.49-1.13,4.27,4.27,0,0,1,1.75-.33,4.32,4.32,0,0,1,1.6.29,3.2,3.2,0,0,1,1.3.91,3.59,3.59,0,0,1,.74,1.61,6.43,6.43,0,0,1,0,2.39l-.57,3.13h1.56l-.54,3h-6.8l.54-3h1.15L59.19,16a1.38,1.38,0,0,0-.26-1.22,1.32,1.32,0,0,0-1-.43,1.93,1.93,0,0,0-1.55.67,3.29,3.29,0,0,0-.7,1.54l-.45,2.57h1.26l-.54,3H49l.54-3H51l1.69-9.64Z"/><path class="cls-2" d="M72.72,10.7a6.78,6.78,0,0,1,2.65.48,4,4,0,0,1,1.78,1.4,4.2,4.2,0,0,1,.71,2.21,7.54,7.54,0,0,1-.57,3H69.46a1.35,1.35,0,0,0,.72,1.08,3.26,3.26,0,0,0,1.53.34,5.65,5.65,0,0,0,1.69-.25,5.6,5.6,0,0,0,1.37-.65l1.62,2.31A7.62,7.62,0,0,1,73.83,22a9.43,9.43,0,0,1-2.86.45,8.13,8.13,0,0,1-2.2-.28A5,5,0,0,1,67,21.29a4.15,4.15,0,0,1-1.18-1.5,4.86,4.86,0,0,1-.43-2.14,6.52,6.52,0,0,1,2.41-5.24,7.54,7.54,0,0,1,2.36-1.29A8.37,8.37,0,0,1,72.72,10.7ZM74,15.11a1.08,1.08,0,0,0-.2-.79,1.33,1.33,0,0,0-.64-.46,2.57,2.57,0,0,0-.9-.15,3.23,3.23,0,0,0-1,.16,2.67,2.67,0,0,0-.84.47,1.59,1.59,0,0,0-.51.77Z"/><path class="cls-2" d="M94.75,6.4l-1.08,6.1H89.9l.27-2.32H88.69L87.2,18.65h1.85l-.63,3.51H80.2l.63-3.51H82.7l1.48-8.47H82.65l-.54,2.32H78.35l1.08-6.1Z"/><path class="cls-2" d="M103,11h5.27l-.54,3.06h-1.51l-.88,5.05h1.51l-.54,3.06h-5.21l0-1.24a4.59,4.59,0,0,1-1.93,1.15,6,6,0,0,1-2,.27,5.66,5.66,0,0,1-1.93-.43,3.61,3.61,0,0,1-1.31-1,4,4,0,0,1-.77-1.45,6.23,6.23,0,0,1-.25-1.83,7.13,7.13,0,0,1,.51-2.7,6.76,6.76,0,0,1,1.41-2.19,6.61,6.61,0,0,1,2.1-1.48,6.31,6.31,0,0,1,2.6-.54,4.36,4.36,0,0,1,2,.37,2.2,2.2,0,0,1,1.06,1.07ZM99.9,14.1a2.72,2.72,0,0,0-1.11.23,2.66,2.66,0,0,0-.87.64,3,3,0,0,0-.55.94A3.16,3.16,0,0,0,97.18,17a1.91,1.91,0,0,0,.53,1.46A1.85,1.85,0,0,0,99,19a2.64,2.64,0,0,0,2-.88,3,3,0,0,0,.58-.93,2.78,2.78,0,0,0,.22-1.11,2,2,0,0,0-.49-1.43A1.81,1.81,0,0,0,99.9,14.1Z"/><path class="cls-2" d="M107.92,19.12h1.58l1.69-9.64h-1.51l.56-3.11h5.67l-2.25,12.75h1.58l-.54,3h-7.32Z"/><path class="cls-2" d="M121.82,19.12h1l-.54,3h-6.74l.54-3h1.56l1.69-9.64h-1.53l.56-3.11h5.7L122.54,15l2.5-1.39-1-.14.43-2.45h6.85l-.52,3h-1.71L126.5,15.4l2,3.72h1.68q-.14.78-.27,1.53l-.27,1.51h-5.31l.27-1.56-1.69-3.19L122,18Z"/><path class="cls-2" d="M138.7,10.67a7.33,7.33,0,0,1,2.14.31,5,5,0,0,1,1.74.92,4.35,4.35,0,0,1,1.16,1.54,5.38,5.38,0,0,1,.41,2.17,6.91,6.91,0,0,1-.63,3.06,6.38,6.38,0,0,1-1.66,2.13,7,7,0,0,1-2.38,1.25,9.45,9.45,0,0,1-2.76.4,8.24,8.24,0,0,1-2.23-.29,5.1,5.1,0,0,1-1.74-.88,3.78,3.78,0,0,1-1.13-1.5,5.46,5.46,0,0,1-.39-2.17,6.64,6.64,0,0,1,.65-3,6.49,6.49,0,0,1,1.72-2.17A7.5,7.5,0,0,1,136,11.1,9,9,0,0,1,138.7,10.67ZM137.26,19a2.63,2.63,0,0,0,1.09-.23,2.75,2.75,0,0,0,.88-.6,2.63,2.63,0,0,0,.59-.87,2.87,2.87,0,0,0,.21-1.1,2.2,2.2,0,0,0-.48-1.42,1.74,1.74,0,0,0-1.43-.58,2.64,2.64,0,0,0-1.14.24,2.5,2.5,0,0,0-.87.63,3,3,0,0,0-.56.9,2.87,2.87,0,0,0-.2,1,2.14,2.14,0,0,0,.48,1.4A1.76,1.76,0,0,0,137.26,19Z"/></g></g></svg>