<svg xmlns="http://www.w3.org/2000/svg" viewBox="0 0 65.36 65.36"><defs><style>.cls-1{fill:#d5e821;}</style></defs><g id="Layer_2" data-name="Layer 2"><g id="_23_-_The_Talko_NEW" data-name="23 - The Talko NEW"><circle class="cls-1" cx="32.68" cy="32.68" r="32.68"/><path d="M27.54,15.42,26.28,23h5.85L30.8,30.48H24.88l-1.54,8.65a2.29,2.29,0,0,0,.44,2,2.31,2.31,0,0,0,1.74.62,4.88,4.88,0,0,0,1.56-.28,8.06,8.06,0,0,0,1.49-.69l.85,7.41a15.26,15.26,0,0,1-3.88,1.4,19.3,19.3,0,0,1-4,.42,12.86,12.86,0,0,1-3.7-.51A6,6,0,0,1,15,47.74a7,7,0,0,1-1.54-3.31,13.28,13.28,0,0,1,.16-5.14l1.54-8.65H11L12.3,23h4.2l1.17-6.47Z"/><path d="M49.8,15.42,48.47,23h5.92l-1.33,7.53h-6l-1.56,8.65a2.29,2.29,0,0,0,.37,2.18,2.44,2.44,0,0,0,1.77.62,4.7,4.7,0,0,0,1.53-.28A7.77,7.77,0,0,0,50.7,41l.91,7.22a15.05,15.05,0,0,1-3.85,1.4,19.58,19.58,0,0,1-4,.42,12.66,12.66,0,0,1-3.67-.51,5.8,5.8,0,0,1-2.83-1.76,6.82,6.82,0,0,1-1.56-3.31,13.89,13.89,0,0,1,.16-5.14l1.54-8.65h-4.2L34.42,23h4.23l1.17-6.56Z"/></g></g></svg>