<?xml version="1.0" encoding="utf-8"?>
<!-- Generator: Adobe Illustrator 22.1.0, SVG Export Plug-In . SVG Version: 6.00 Build 0)  -->
<svg version="1.1" id="Layer_1" xmlns="http://www.w3.org/2000/svg" xmlns:xlink="http://www.w3.org/1999/xlink" x="0px" y="0px"
	 viewBox="0 0 265.8 78.8" style="enable-background:new 0 0 265.8 78.8;" xml:space="preserve">
<style type="text/css">
	.st0{opacity:0.75;fill:none;stroke:#FFFFFF;stroke-width:1.25;stroke-miterlimit:10;enable-background:new    ;}
	.st1{opacity:0.5;}
	.st2{fill:#FFFFFF;}
</style>
<title>Asset 1</title>
<g id="Layer_2_1_">
	<g id="Layer_5">
		<circle class="st0" cx="45.2" cy="40.8" r="36.6"/>
		<circle class="st0" cx="37.2" cy="37.9" r="36.6"/>
		<circle class="st0" cx="45.2" cy="37.2" r="36.6"/>
		<circle class="st0" cx="40.1" cy="41.6" r="36.6"/>
		<g class="st1">
			<path class="st2" d="M41.4,8.9c17.2,0,31.1,13.8,31.1,31S58.7,71,41.5,71S10.4,57.2,10.4,40c0,0,0,0,0-0.1
				C10.5,22.8,24.3,9,41.4,8.9 M41.5,4.7C22,4.7,6.2,20.5,6.2,40S22,75.3,41.5,75.3S76.8,59.5,76.8,40S61,4.7,41.5,4.7
				C41.5,4.6,41.4,4.6,41.5,4.7L41.5,4.7z"/>
		</g>
		<g>
			<path class="st2" d="M42.4,13.6h-0.2c-0.2,0.1-0.3,0.2-0.5,0.2s-0.6,0-0.9,0c0,0.1,0,0.1,0,0.2c0-0.1,0-0.1-0.1-0.1l0,0
				c-0.2,0-0.4,0.2-0.4,0.4h0.1l0,0c0,0,0.1,0,0.1,0.1l0,0l-0.1,0.1l0,0c-0.1,0-0.3,0.1-0.4,0.1c-0.1,0-0.1,0-0.2-0.1
				c-0.1,0-0.1,0.1-0.1,0.1H40c0,0.1-0.1,0.2-0.2,0.3C40,15,40.2,15,40.3,15c0.2,0,0.4-0.1,0.5-0.2c0,0-0.1-0.1-0.2-0.1
				c-0.1,0-0.2,0.1-0.3,0.1s-0.1,0-0.2-0.1c0.1,0,0.2-0.1,0.3-0.1s0.3,0.1,0.3,0.2c0.2-0.2,0.4-0.7,0.8-0.7c0.1,0,0.1,0,0.2,0.1
				c-0.1,0.1-0.2,0.1-0.3,0.1s0.2,0.4,0.2,0.4s0.4,0.1,0.5,0.2c0.5,0.2,0.4,0.8,0.8,1c-0.3,0.1-0.2,0.4,0,0.4c0.1,0,0.1,0,0.2-0.1
				c0.2,0.1,0,0.3-0.2,0.3l0,0c-0.2,0,0.3,1.2,0.3,1.3c0.1,0.4,0.7,1.6,1.2,1.6c0.1,0,0.2,0,0.2-0.1c0.4-0.2,0.1-1.2,0.2-1.6
				s0.8-0.8,0.6-1.3l0.1,0.1c0.3-0.1,0.4-0.3,0.5-0.6c-0.1-0.4-0.5-0.5-0.7-0.7c-0.3-0.3-0.6-0.5-1-0.8h0.2l-0.4-0.2H44
				c-0.3,0-0.6-0.4-0.8-0.5s-0.5-0.2-0.7-0.2L42.4,13.6z"/>
			<path class="st2" d="M61.9,36.9C62,37.9,62,39,62,40c0,0.4,0,0.7,0,1c-0.3,0-0.5,0.1-0.8,0.2V41C61.2,39.6,61.4,38.2,61.9,36.9
				 M43.5,12.6l1.5,0.2l-0.6-0.1l0.2,0.1c1,0.2,2,0.4,3,0.6L47,13.3l0.6,0.1L47,13.5c0.7,0.2,1.5,0.4,2.2,0.5h-0.3
				c0.5,0.3,1.5,0.8,1.5,0.8l-0.3-0.1l-0.2-0.1c0.6,0.3,2.2,1.1,2.2,1.1c-0.4-0.1-0.8-0.2-1.2-0.4l-0.1-0.2
				c-0.7-0.3-1.5-0.4-2.3-0.4c0,0.1,0,0.2,0,0.2c0.2,0.1,0.5,0.3,0.7,0.4H49c1.3,1.2,2.7,2.4,4.2,3.4l0.2-0.2c0-0.1-0.1-0.2-0.1-0.3
				c0.5,0.2,1,0.5,1.5,0.8c0,0.1,0,0.2,0,0.3c-0.2-0.2-0.5-0.4-0.8-0.6c0.1,0,0.3,0.7,0.5,0.8c0.3,0.2,0.6,0.4,0.8,0.6l0,0
				c-0.1,0-0.1,0.8-0.1,0.8c0,0.2,0.2,0.5,0.2,0.7c0.1,0.5,0.2,1.1-0.4,1.2c0.2,0.1,2.3,2.3,2,2.4s-1.5,0.1-1.6,0.7
				c0.2,0.5,0.5,1,0.7,1.5s0.3,1.2,0.8,1.5l0.2-0.2l0,0c0.1,0,0.2,0.1,0.2,0.2c0.2,0.1,0.3,0.3,0.5,0.3h0.1c0.5-0.1,0.9-1,0.9-1.5
				s-0.6-0.8-0.5-1.2c0-0.3,0.1-0.6,0.3-0.8c-0.2-0.3-0.4-0.6-0.5-0.9h0.2c0.4,0,0.5-0.3,0.5-0.9c0.4,0.5,0.9,0.8,1.5,1.1
				c0.4,0.2,0.7,0.4,1,0.8c0.1,0.1,0.4,0.3,0.4,0.5s-0.4,0.2-0.4,0.5c0.3,0.2,0.5,0.4,0.8,0.5c-0.3-1.5-0.5-1.6-0.7-1.8
				s-0.2-0.3-0.2-0.4l0,0h0.1c-0.7-0.7-1.6-1.1-2.3-1.7c0-0.1,0-0.1-0.1-0.1l0,0c0.1,0,0.2,0,0.3,0.1l1.6,0.9c0.4,0.4,0.7,0.8,1,1.2
				c0.4,0.4,0.8,0.8,1.2,1.2c-0.2-0.4-0.3-0.8-0.5-1.2c-0.2-0.3-0.6-0.5-0.8-0.9c0.1,0.1,0.2,0.1,0.2,0.1l0,0
				c-0.2-0.5-0.2-0.5-0.1-0.5c0.2,0.2,0.4,0.6,0.6,0.8l0,0l0,0c0,0.1,0,0.1,0.1,0.2c0.3,0.4,0.7,0.7,0.9,1.2
				c-0.1-0.2-0.1-0.2-0.1-0.3s0,0,0.1,0s0-0.1-0.2-0.5c0.2,0.1,0.2,0.1,0.2,0.2s0-0.1-0.1-0.5c0.2,0.4,0.4,0.6,0.7,1.1
				c0.9,1.6,0.9,1.8,0.9,2S64.7,29,64.6,29c-0.2-0.1-0.5-0.2-0.6-0.4c-0.5,0.7,0.4,1.1,0.3,1.8c0-0.2-1.3-0.8-1.6-0.9
				c-0.7-0.4-1.2-1.1-1.3-1.9c-0.1,0-0.2-0.1-0.3-0.1c-0.3,0-0.7,0.2-1.2,0.8c-0.6,0.5-1.2,0.9-2,1.1l-0.3,0.1
				c0.1,0.8,0.1,1.7,0,2.5c0,0.5,0,1-0.2,1.5c-1.2,2.3-1.8,4.8-1.7,7.4c0,1.3-0.3,3,0.8,4c0.7,0.7,0.5,1.8,1.2,2.4
				c0.5,0.4,0.7,1.1,1.4,1.2h0.2c0.6,0,0.8-0.6,1.2-0.8c0.7-0.2,1.7-1.2,2.4-1.2c0.3,0,0.6,0.2,0.7,0.9c0-0.1,0.5-0.2,0.6-0.2h0.1
				c0.2,0.1,0.1,0.4,0.1,0.6c-0.1,0.7-0.2,1.3-0.3,1.9c-0.3,1.9-1,3.7-1.9,5.4c-1.6,2.5-3.7,4.8-6.1,6.6c0.7-0.5,1.6-1.2,2.2-1.8
				c2.2-1.9,4.1-4.1,5.5-6.6c0.7-1.2,1.4-2.5,1.9-3.9c0.6-1.4,1-2.8,1.3-4.2c0.4-1.7,0.6-3.4,0.6-5.1c0-1.5-0.1-3-0.3-4.5
				c-0.2-1-0.5-2.4-0.7-3.4l-0.1-0.4c-0.2-0.7-0.3-0.8-0.6-1.6c0.1,0.1,0.1,0.3,0.2,0.4c-0.4-1-1-2.3-1.4-3.3
				c-0.7-1.3-1.4-2.5-2.3-3.7l-0.6-0.8c0.3,0.4,0.3,0.4,0.3,0.5l0,0c-0.1-0.1-0.3-0.1-0.3-0.2c0,0.3,0.3,0.5,0.3,0.8l0,0
				c-0.1,0-0.5-0.4-0.5-0.4l-0.1-0.1c-0.2-0.3-0.5-0.7-0.8-1c-0.2-0.2-0.4-0.5-0.5-0.7c0-0.1,0-0.1,0-0.1h0.1
				c0.1,0.1,0.1,0.2,0.2,0.2s0.4,0.3,0.5,0.5c-0.2-0.4-0.3-0.4-0.3-0.5l0,0c0.1,0,0.7,0.5,0.9,0.8c-0.6-0.8-1.3-1.6-2.1-2.3
				c-1-1-2.2-2-3.4-2.9c-1.3-0.9-2.6-1.7-4-2.3c-2.5-1.2-5.2-2-7.9-2.4L43.5,12.6L43.5,12.6z M49.9,14.2c-0.7-0.2-1.4-0.4-2.1-0.6
				c0.6,0.1,1.1,0.2,1.7,0.4L49.9,14.2L49.9,14.2z M53.1,17.4c-0.2-0.1-0.5-0.2-0.7-0.4c-0.2-0.1-0.3-0.3-0.5-0.4
				c-0.3-0.3-0.6-0.5-1-0.6l0,0l0,0l0,0l0,0l0,0c0.7,0.4,1.3,1,2,1.3c0.1,0.1,0.3,0.1,0.4,0.1c0.1,0,0.1-0.1,0.2-0.3l0.2,0.1
				c0.2,0.1,0.1,0.2,0.1,0.3s0,0.2,0.3,0.4c0.6,0.4,1.2,0.9,1.8,1.5h-0.2c-0.1,0-0.2,0.1-0.3,0.3s-0.2,0.2-0.2,0.2s0,0-0.1,0
				S55,19.8,55,19.7s0-0.1-0.3-0.3l0.5,0.1c-0.7-0.3-0.6-0.6-0.6-0.6c-0.3-0.2-0.7-0.4-0.9-0.7c-0.2-0.2-0.4-0.4-0.6-0.5
				c-0.1-0.1-0.2-0.1-0.2-0.1L53.1,17.4z M55.1,18.1c-0.1,0-0.1,0-0.2-0.1h-0.2h-0.1c0,0-0.3-0.2-0.2-0.2l0,0c0.2,0,0.3,0.1,0.5,0.2
				C55.1,18.1,55.1,18.1,55.1,18.1L55.1,18.1z M60.5,21.6c-0.2-0.2-0.3-0.3-0.4-0.5s-0.2-0.2-0.2-0.4l0,0c0.2,0.2,0.3,0.3,0.5,0.5
				C60.4,21.5,60.4,21.5,60.5,21.6L60.5,21.6z"/>
			<path class="st2" d="M29.8,51.3H30c1,1.2,2.4,2.2,3.9,2.7c0.2,0.5,0.5,0.9,0.8,1.3c0.9,1.1,2,1.9,3.2,2.5
				c-0.4,0.2-0.8,0.5-1.2,0.8c-0.9-1.7-2.3-3.2-4-4.1c-1.1-0.6-1.6-0.9-3-3.1L29.8,51.3 M33.2,14.7c-0.7,0-1.4,0.2-2.1,0.5L30.9,15
				c-0.5,0.1-0.5,0.1-0.6,0.4c-1.5,0.4-2.9,1.2-4.4,1.5H26c0.8,0,1.4-0.4,2.2-0.4c-0.2,0-0.4,0.1-0.6,0.2c0.3,0,0.7-0.1,1-0.2
				c-0.2,0.5-0.5,0.9-2.5,2.2c0.3-0.1,0.6-0.3,0.8-0.4C18.6,24.8,15,30.1,16.3,34.2c0.7-3.6,0.7-3.6,1.4-5.1l0.1,0.2
				c-0.7,1.6-2.7,7.2,0.4,10.5c0.2-0.1,0.3-0.2,0.5-0.2c0.1,0.1,0.2,0.2,0.3,0.3c0.2,0.4,0.3,0.9,0.5,1.3c0.6,1.1,1.9,1.8,2,3.3
				c0.8,0.5,1.1,1.5,2.1,1.9l0,0c0.1,0,0.2-0.8,0.5-0.8c0.1,0,0.2,0.1,0.3,0.2c0.7,1,0.2,2.7,0,3.7c-0.3,1.4-0.5,2.8,0.2,4.1
				c2.4,4,3.8,4.8,5.5,5.7c1,0.7,1.8,1.6,2.2,2.7c0.6,1.1,1.4,2.1,2.4,2.9c0.6,0.5,1.3,0.9,2,1.1c0.4,0.2,0.8,0.3,1.2,0.3
				c0.1,0,0.2,0,0.4-0.1C38,66,38,66,38.4,65.8s0.1-0.4-0.2-0.6c0.1,0,0.2,0.1,0.2,0.1c0.5-0.1,1-0.4,1.3-0.8s0.5-1,0.5-1.5
				c0-0.3,1.5-0.7,1.8-0.7c0.5-0.1,0.9-0.3,1.1-0.8c0.6-0.9,0.5-2,1-3c0.4-0.8,1.2-1.2,1.7-1.9c0.3-0.4,0.6-1.1,0.2-1.6
				s-1.4-0.5-2-0.7s-1.3-0.4-1.9-0.7c-1-0.4-2.5-0.9-3.2-1.8c-0.1-0.1-0.2-0.3-0.2-0.5c-0.1-0.6-0.3-1.2-0.7-1.7
				c-0.6-0.8-1.2-0.7-2.2-0.9c-1.3-0.2-2.3-2-3.2-2.8c-0.2-0.2-0.4-0.6-0.8-0.7l0,0c-0.4,0-0.5,0.5-0.9,0.5l0,0
				c-0.3,0-0.7-0.1-1-0.3c-0.5-0.2-1.3-0.6-1.4-1.3c0,0.3-0.5,0.6-0.8,0.6h-0.1l0.3-0.8c-0.4,0.2-0.8,0.3-1.2,0.4
				c-0.1,0-0.2,0-0.3,0h-0.2c-0.1,0-0.2,0-0.2,0c-0.6,0.2-0.6,1.2-1.2,1.4c-0.8-0.9-3.2-0.8-2.7-2.4c0.8-2.5,0.6-2.6-0.8-2.9
				c-0.3,0-0.5-0.1-0.8-0.2c0,0,0.6-1.3,0.7-1.4c0.2-0.4,1.2-1.5,0.5-1.8c-0.2-0.1-0.4-0.1-0.6-0.2H21c-0.3,0.1-0.8,0.9-1.1,1.1
				c-0.2,0.2-0.5,0.4-0.7,0.4c-0.1,0-0.1,0-0.2,0c-0.4-0.2-0.5-0.7-0.5-1.1c0-0.1,0.4-5.3,2.8-5.3c0.6,0,1.1,0.2,1.5,0.6
				c0.1-0.2,0.4-0.6,0.6-0.7h0.1c0.4,0,0.8,0.4,1.1,0.5s0.5,0.1,0.6,0.5c0,0.4,0,0.8-0.2,1.2c-0.1,0.3-0.1,1.3,0.3,1.3
				c0.1,0,0.2-0.1,0.2-0.1c0.8-0.7-0.1-2.4,0.7-3.2c1-1,2.6-1,3.7-2c0.7-0.9,1.4-1.8,2.3-2.5c0,0,1.8-0.2,1.8-0.6
				c0.5-1.3,2.1-1.4,2.7-1.5c-0.7,0.3-1.1,0.6-0.8,0.7l0,0c1-0.3,1.9-0.8,2.6-1.5h-0.3c-0.1,0.1-0.2,0.3-0.3,0.5
				c-0.2-0.4-0.3-0.5-0.5-0.5c-0.1,0-0.3,0.1-0.4,0.2c0.1-0.4,0.7-0.8,0.6-1.2c0-0.1-0.1-0.2-0.3-0.2c-0.4,0.1-0.7,0.1-1.1,0.2
				c0.3-0.2,0.4-0.6,0.8-0.7c0.3-0.1,0.6-0.1,0.9-0.1h0.3c0.2,0,0.5,0,0.7,0c0.3-0.1,0.7-0.1,1-0.2c0.2,0,0.3,0,0.3,0.1
				c0,0.5-1.5,1.2-1.2,1.7c0.1-0.1,0.2-0.1,0.3-0.1h0.3H40c0.2,0.1,0.4,0.5,0.7,0.5c0.1,0,0.2,0,0.3-0.1c0.6-0.4-0.1-1.1-0.3-1.4
				s0.3-0.5,0.3-0.9c0-0.6-0.1-1.2-0.2-1.8c0-0.3-0.1-1-0.4-1.2c-0.1,0-0.1-0.1-0.2-0.1c-0.3,0-0.6,0.4-0.7,0.4s-0.1-0.1-0.1-0.5
				c0-0.3-0.1-0.6-0.2-0.8H39h-0.3c-0.5,0-0.9,0.5-1.2,0.8s-0.3,1-0.7,1.3s-1,0.3-1.3,0.8s-0.5,0.9-1.1,1.1l0,0
				c-0.2,0,0.2-0.7,0.2-0.7l0,0c0.1-0.3,0.3-0.6,0.5-0.9c-1-0.2-1.7-1.3-0.6-2s2.3-0.8,3.3-1.4c-0.2,0.1-0.3,0.2-0.4,0.3
				c0.1,0.1,0.2,0.2,0.4,0.2s0.3,0,0.5-0.1c0-0.3-0.1-0.6-0.1-0.8c0,0.1,0.1,0.2,0.1,0.2c0.3-0.1,0.6-0.2,0.8-0.4
				c0.2-0.2,0.3-0.5,0.5-0.6c0,0.1,0.1,0.2,0.1,0.3c0.1-0.1,0.2-0.3,0.3-0.4c0.2,0.4-0.1,0.4-0.3,0.6H40h0.1l0,0
				c0,0-0.3,0.4-0.3,0.5c-0.2,0.2-0.5,0.2-0.8,0.4c0,0,0.1-0.1,0.2,0c0.2,0,0.5,0.4,0.5,0.5s0.2,0.4,0.4,0.4c0.1,0,0.2,0,0.2,0
				c0-0.1,0-0.2,0-0.3c0.1,0,0.2,0.1,0.3,0.2c0.1-0.2,0.4-0.9,0.1-1.1c0.2,0.1,0.3,0.4,0.5,0.4s0.1,0,0.2-0.2c0.2-0.4-0.5-0.8-0.3-1
				c0.1-0.1-0.6-1-0.6-1.1h-0.6c-0.5,0-0.6,0.1-1,0.7l0.2,0.2c0,0.1-0.8,0.6-0.9,0.6c0.1-0.2,0.2-0.3,0.4-0.4c-0.1,0-0.2,0-0.2,0
				s0.2-0.5,0.3-0.6c0.2-0.2,0.5-0.3,0.8-0.4h-0.2c-0.3,0-0.6,0.3-0.8,0.5c-0.3,0.3-0.7,0.5-1,0.7c0.1-0.1,0.2-0.2,0.3-0.4l0,0
				c-0.4,0.2-0.8,0.3-1.2,0.4c-0.1,0-0.1,0-0.1-0.1s0-0.2,0.1-0.3c0.1,0.1,0.2,0.1,0.3,0.1c0.5,0,0.7-0.9,1.2-0.9
				c-0.2-0.1-0.5-0.3-0.7-0.4c-0.1,0-0.2,0-0.2,0c-0.4,0-0.7,0.2-1.1,0.3c0.1,0,0.2,0.1,0.3,0.1s0.1,0,0.2,0c-0.3,0.2-0.6,0.4-1,0.6
				l0,0l-0.1,0.3h0.3c0,0.1-0.1,0.2-0.1,0.2c-0.1-0.1-0.3-0.1-0.4-0.1h-0.1l0.2-0.2c0-0.2-0.1-0.4-0.2-0.5h-0.3l0.2-0.2
				c-0.2,0-0.4,0-0.5,0h-0.8c0.1-0.1,0.4,0,0.2-0.5c-0.1-0.1-0.3-0.2-0.7-0.2L33.2,14.7z M36.5,66.1L36.5,66.1L36.5,66.1L36.5,66.1
				L36.5,66.1z"/>
			<path class="st2" d="M37.9,16.1L37.9,16.1L37.9,16.1L37.9,16.1z"/>
			<path class="st2" d="M55.2,17.1L55.2,17.1l-0.6,0.4L55.2,17.1 M51.7,18.7c0,0.2,0,0.4,0,0.6c-0.1-0.1-0.2-0.1-0.3-0.2
				c0,0.7,1.2,1,1.7,1.4s0.4,0.5,0.6,0.9s0.1,0.7,0.5,0.9c0,0,0.1,0,0.2,0c0.4,0,0.7-0.4,0.8-0.5l0,0c0-0.6-0.1-0.7-0.2-0.7
				s-0.1,0.1-0.2,0.1c0,0,0,0-0.1,0c-0.2-0.2-0.4-0.3-0.6-0.4c-0.6-0.3-1.1-0.6-1.5-1c-0.2-0.2-0.4-0.5-0.7-0.5
				C52,18.9,51.9,18.9,51.7,18.7L51.7,18.7z M51.6,19.3L51.6,19.3z M55.2,21.8L55.2,21.8c0,0.4,0,0.5,0,0.5V21.8z"/>
			<path class="st2" d="M44.2,13.6c0,0-0.1,0.1,0,0.1c0.2,0.1,0.4,0.2,0.6,0.2l0,0l0,0c0.1,0,0.3,0,0.4,0.1l0.4,0.1l0,0
				c0,0,0,0-0.1-0.1l-0.7-0.2c0.2,0.1,0.5,0.1,0.7,0.1l0,0l-0.3-0.1l0,0c-0.2,0-0.4,0-0.5-0.1l0,0h0.1l0,0c0,0,0,0-0.2-0.1H44.2
				L44.2,13.6z"/>
		</g>
		<path class="st2" d="M97.2,57.7V24.4h-4.4v-3.5h13v3.5h-4.4v33.3C101.4,57.7,97.2,57.7,97.2,57.7z"/>
		<path class="st2" d="M121.5,57.7v-17h-6.2v17h-4.1V20.9h4.1v16.4h6.2V20.9h4.1v36.8C125.6,57.7,121.5,57.7,121.5,57.7z"/>
		<path class="st2" d="M132.5,57.7V20.9H144v3.4h-7.5v13.2h6.2V41h-6.2v13.3h7.5v3.4H132.5z"/>
		<path class="st2" d="M164.1,57.7V24.4h-4.4v-3.5h13v3.5h-4.5v33.3C168.2,57.7,164.1,57.7,164.1,57.7z"/>
		<path class="st2" d="M188.1,57.7l-2.7-14.8h-3.2v14.8H178V20.9h9.5c2.2,0,4,1.8,4,4v14c0,1.5-0.8,2.9-2.2,3.6l3,15.2H188.1z
			 M187.4,24.3h-5.3v15.3h5.3V24.3z"/>
		<path class="st2" d="M207.5,57.7V42.9H202v14.8h-4.1V24.9c0-2.2,1.8-4,4-4h5.9c2.2,0,4,1.8,4,4v32.8
			C211.8,57.7,207.5,57.7,207.5,57.7z M207.5,24.3H202v15.2h5.6L207.5,24.3z"/>
		<path class="st2" d="M222.1,57.7l-5.3-36.8h4.1l3.8,30.9l3.7-30.9h4.1l-5.2,36.8C227.3,57.7,222.1,57.7,222.1,57.7z"/>
		<path class="st2" d="M238,57.7V20.9h11.5v3.4H242v13.2h6.2V41H242v13.3h7.5v3.4H238z"/>
		<path class="st2" d="M255.2,57.7V20.9h4.1v33.4h6.5v3.4C265.8,57.7,255.2,57.7,255.2,57.7z"/>
	</g>
</g>
</svg>
