<svg xmlns="http://www.w3.org/2000/svg" viewBox="0 0 82.41 78.76"><defs><style>.cls-1{fill:none;stroke:#3ef7d8;stroke-miterlimit:10;stroke-width:1.25px;opacity:0.75;}.cls-2{opacity:0.5;}.cls-3{fill:#547dbe;}.cls-4{fill:#fff;}</style></defs><title>Asset 4</title><g id="Layer_2" data-name="Layer 2"><g id="_23_-_TheTravel" data-name="23 - TheTravel"><circle class="cls-1" cx="45.23" cy="40.84" r="36.56"/><circle class="cls-1" cx="37.18" cy="37.92" r="36.56"/><circle class="cls-1" cx="45.23" cy="37.18" r="36.56"/><circle class="cls-1" cx="40.11" cy="41.57" r="36.56"/><g class="cls-2"><path class="cls-3" d="M41.41,8.89a31.06,31.06,0,1,1-31,31.05,31.09,31.09,0,0,1,31.05-31m0-4.24a35.29,35.29,0,1,0,35.3,35.29A35.29,35.29,0,0,0,41.41,4.65Z"/></g><path class="cls-4" d="M42.4,13.61h-.16c-.21.05-.29.22-.51.24s-.61,0-.94,0a1.29,1.29,0,0,1,0,.19c0-.07,0-.12-.06-.13h0a.4.4,0,0,0-.36.42.13.13,0,0,0,.08,0h.05a.12.12,0,0,1,.11.06h0l-.09.14h0c-.14,0-.26.07-.39.07a.32.32,0,0,1-.18-.06.19.19,0,0,0-.1.13h.16a.62.62,0,0,1-.17.28,1.38,1.38,0,0,0,.54.13.51.51,0,0,0,.45-.23.27.27,0,0,0-.16-.06c-.09,0-.19.05-.28.05a.18.18,0,0,1-.16-.09.94.94,0,0,1,.34-.08.44.44,0,0,1,.35.16c.15-.2.44-.73.77-.73a.41.41,0,0,1,.17.05.73.73,0,0,1-.35.15c-.14,0,.15.35.18.37s.36.1.51.18c.45.24.41.8.85,1-.29.07-.24.39,0,.39a.34.34,0,0,0,.18-.08c.21.14,0,.3-.16.3h0c-.16,0,.28,1.24.31,1.32.14.35.67,1.56,1.25,1.56a.49.49,0,0,0,.23-.06c.37-.22.12-1.22.19-1.59s.84-.8.62-1.3a.1.1,0,0,0,.09.06.71.71,0,0,0,.47-.61c-.07-.35-.48-.49-.72-.7a5.56,5.56,0,0,0-1-.75l.2,0-.44-.25H44c-.33,0-.56-.38-.84-.51a1.87,1.87,0,0,0-.74-.17Z"/><path class="cls-4" d="M61.86,36.91A26.76,26.76,0,0,1,62,40c0,.39,0,.7,0,1a6.49,6.49,0,0,0-.79.16V41a10.28,10.28,0,0,1,.69-4.07M43.53,12.62l1.51.24-.63-.08.24.14c1,.16,2,.42,3.05.62l-.63-.11.61.14-.66-.1c.72.19,1.46.35,2.19.52l-.29,0c.48.3,1.47.77,1.48.78l-.27-.06-.22-.08c.6.34,2.18,1.1,2.18,1.1a4.45,4.45,0,0,1-1.15-.35l-.07-.25a5.7,5.7,0,0,0-2.26-.42c0,.08,0,.18,0,.25.19.14.46.32.66.45L49,15.3a31.16,31.16,0,0,0,4.15,3.36l.15-.2c0-.09-.1-.19-.14-.28a4.48,4.48,0,0,1,1.46.83c0,.08,0,.19,0,.27a5.68,5.68,0,0,0-.8-.59c.06,0,.32.67.48.81a4.75,4.75,0,0,1,.85.62h0c-.08,0-.09.76-.08.82,0,.24.15.46.21.69.12.45.2,1.07-.38,1.23.2.13,2.33,2.31,2,2.43s-1.5.1-1.64.73A13.3,13.3,0,0,0,56,27.56c.18.48.35,1.22.81,1.52,0,0,.15-.2.19-.21h0c.1,0,.16.15.23.19.24.11.27.33.5.33l.14,0c.46-.12.86-1,.9-1.45s-.56-.75-.49-1.25a1.71,1.71,0,0,1,.29-.84,3,3,0,0,1-.49-.9l.25,0c.4,0,.45-.29.54-.88a4,4,0,0,0,1.5,1.07,2.92,2.92,0,0,1,1,.77c.13.15.41.34.4.54s-.41.19-.44.46a4.55,4.55,0,0,0,.83.54c-.34-1.49-.52-1.64-.72-1.8s-.22-.29-.19-.36h0l.07,0c-.71-.66-1.61-1.06-2.32-1.72,0-.06,0-.07-.07-.13h0a.89.89,0,0,1,.34.07l1.63.92a10.83,10.83,0,0,1,1,1.23c.38.42.8.8,1.2,1.2a10.37,10.37,0,0,0-.55-1.17c-.22-.33-.58-.54-.82-.85.13.1.15.12.18.12h0c-.18-.53-.18-.53-.13-.54.25.24.39.57.64.83h0v0c0,.06,0,.14.06.21a9.53,9.53,0,0,1,.94,1.16c-.11-.23-.1-.25-.09-.31s0,0,.12,0,0-.09-.21-.48c.17.15.18.16.23.16s0-.08-.14-.48c.23.35.41.63.65,1.07.91,1.63.89,1.81.87,2.05s-.15.35-.27.35a1.3,1.3,0,0,1-.64-.39c-.5.68.38,1.13.33,1.75,0-.17-1.35-.77-1.57-.86a2.59,2.59,0,0,1-1.34-1.87.89.89,0,0,0-.31-.06c-.33,0-.65.24-1.22.8a4.38,4.38,0,0,1-2,1.08l-.31.06A13.37,13.37,0,0,1,57.5,32a3.6,3.6,0,0,1-.17,1.5,14.8,14.8,0,0,0-1.72,7.41c0,1.34-.26,3,.75,4,.7.7.54,1.76,1.25,2.37.46.39.74,1.06,1.38,1.18h.15c.57,0,.77-.64,1.25-.81.66-.23,1.7-1.18,2.41-1.18.35,0,.62.24.72.9,0-.08.45-.23.64-.23h.06c.2.11.13.4.13.59A12.44,12.44,0,0,1,64,49.66a17,17,0,0,1-1.93,5.4A25.31,25.31,0,0,1,56,61.64c.68-.51,1.59-1.21,2.24-1.75a27.25,27.25,0,0,0,5.55-6.64,26,26,0,0,0,1.9-3.89A24.69,24.69,0,0,0,67,45.15a27.13,27.13,0,0,0,.59-5.09,26.32,26.32,0,0,0-.28-4.5c-.19-1-.47-2.41-.73-3.43l-.12-.39c-.22-.67-.28-.82-.59-1.61a4.48,4.48,0,0,1,.2.44c-.41-1.05-1-2.34-1.41-3.31a26.49,26.49,0,0,0-2.27-3.69l-.63-.8c.26.35.28.42.29.46h0a1.09,1.09,0,0,1-.35-.24c0,.29.32.51.28.82a.05.05,0,0,1-.05,0c-.13,0-.45-.37-.46-.37a1,1,0,0,1-.08-.14c-.18-.28-.54-.74-.78-1.05a5,5,0,0,1-.52-.74c0-.06,0-.07,0-.07l.08,0c.07.06.11.18.17.24s.37.32.54.49c-.24-.35-.27-.43-.27-.49h0c.14,0,.65.5.94.84a18.75,18.75,0,0,0-2.06-2.29,26.56,26.56,0,0,0-3.39-2.85,29.29,29.29,0,0,0-4-2.34,28.85,28.85,0,0,0-7.9-2.38l-.7-.09Zm6.37,1.55a14.23,14.23,0,0,0-2.06-.57,10.87,10.87,0,0,1,1.65.42l.4.15Zm3.18,3.19a3.59,3.59,0,0,1-.66-.4,3.9,3.9,0,0,1-.5-.41,3.58,3.58,0,0,0-1-.65h0l0,0h0v0h0c.71.37,1.27,1,2,1.29a1.23,1.23,0,0,0,.42.15c.1,0,.13-.09.21-.3l.17.14c.15.14.13.21.1.3s0,.17.31.4a12.56,12.56,0,0,1,1.77,1.5l-.18,0c-.14,0-.18.1-.29.33s-.15.18-.22.18a.2.2,0,0,1-.07,0,.28.28,0,0,1-.1-.17c0-.12-.05-.15-.3-.34l.53.07c-.66-.29-.55-.62-.55-.63a4.16,4.16,0,0,1-.94-.73,1.87,1.87,0,0,0-.6-.5.44.44,0,0,0-.25-.08Zm2,.78a.44.44,0,0,1-.16-.06L54.73,18h-.06s-.27-.19-.25-.25h0a1.14,1.14,0,0,1,.46.24c.18.13.18.13.16.16Zm5.38,3.47c-.19-.2-.31-.33-.42-.47s-.15-.25-.23-.37l0,.05a5.79,5.79,0,0,1,.48.51c.11.14.14.22.12.28Z"/><path class="cls-4" d="M29.82,51.29l.24.05a9.29,9.29,0,0,0,3.87,2.72,7.22,7.22,0,0,0,.82,1.29A9.44,9.44,0,0,0,38,57.83a6.52,6.52,0,0,0-1.17.8,10.12,10.12,0,0,0-4-4.14c-1.07-.57-1.64-.88-3-3.07l0-.13M33.24,14.7a6.68,6.68,0,0,0-2.13.46L30.88,15c-.5.14-.5.14-.65.41-1.49.43-2.88,1.18-4.4,1.54H26c.75,0,1.44-.4,2.19-.4a2.78,2.78,0,0,0-.56.17,3.29,3.29,0,0,0,1-.16c-.25.49-.45.87-2.52,2.25a3.57,3.57,0,0,0,.83-.44c-8.3,6.46-11.88,11.82-10.65,15.93.7-3.61.7-3.61,1.41-5.07l.13.23c-.7,1.63-2.73,7.22.44,10.49a1.36,1.36,0,0,1,.51-.22,1.33,1.33,0,0,1,.26.27c.24.4.28.88.51,1.29.62,1.13,1.92,1.85,2,3.3.8.52,1.14,1.53,2.07,1.9h0c.15,0,.24-.77.5-.77.08,0,.16.06.26.21.68,1,.21,2.66,0,3.72-.29,1.38-.55,2.81.22,4.09,2.4,4,3.83,4.78,5.48,5.67a5.75,5.75,0,0,1,2.2,2.71A8.8,8.8,0,0,0,34.64,65a5.82,5.82,0,0,0,2,1.09,3.76,3.76,0,0,0,1.24.35.73.73,0,0,0,.36-.08C38,66,38,66,38.41,65.82s.11-.41-.17-.59a.5.5,0,0,0,.24.06,2.21,2.21,0,0,0,1.32-.79A2.6,2.6,0,0,0,40.33,63c0-.3,1.53-.69,1.78-.72a1.41,1.41,0,0,0,1.09-.77c.62-.9.5-2.05,1-3,.44-.76,1.22-1.22,1.69-1.94.28-.43.56-1.14.23-1.61s-1.38-.52-1.95-.69a18.84,18.84,0,0,1-1.9-.7c-1-.41-2.51-.88-3.22-1.75a1.09,1.09,0,0,1-.22-.46,3.84,3.84,0,0,0-.71-1.67c-.63-.81-1.25-.72-2.16-.86-1.29-.2-2.28-2-3.16-2.82-.22-.2-.44-.64-.77-.68H32c-.38,0-.45.51-.85.51h0a3.3,3.3,0,0,1-1-.28c-.53-.17-1.32-.64-1.38-1.26,0,.34-.47.61-.79.61h-.08s.31-.76.34-.83a5,5,0,0,1-1.19.44.72.72,0,0,1-.26,0H26.6a.58.58,0,0,0-.24,0c-.56.25-.58,1.16-1.16,1.41-.78-.92-3.19-.81-2.66-2.42.82-2.49.57-2.63-.75-2.87a7.19,7.19,0,0,1-.8-.18s.62-1.33.66-1.41c.23-.43,1.24-1.49.51-1.82a2,2,0,0,0-.62-.15h-.08c-.34.08-.83.88-1.1,1.12a1.22,1.22,0,0,1-.74.41.43.43,0,0,1-.19,0c-.35-.15-.5-.71-.55-1.06,0-.07.39-5.34,2.79-5.34a2.67,2.67,0,0,1,1.51.58c.12-.16.35-.61.56-.69l.15,0c.35,0,.79.39,1.06.5s.52.14.61.49a3.19,3.19,0,0,1-.16,1.22c-.06.29-.07,1.35.29,1.35a.43.43,0,0,0,.23-.11c.79-.7-.1-2.37.72-3.19,1-1,2.65-1,3.66-2a15.93,15.93,0,0,1,2.3-2.55s1.85-.16,1.82-.62c.52-1.32,2.07-1.43,2.72-1.49-.7.28-1.08.6-.79.71h0A6.37,6.37,0,0,0,39,24.87l-.27,0c-.1.14-.24.34-.35.48-.17-.35-.34-.46-.51-.46a.86.86,0,0,0-.41.16c.1-.37.65-.79.62-1.19,0-.15-.12-.2-.28-.2a7.56,7.56,0,0,0-1.06.25c.29-.2.41-.61.76-.72a3.19,3.19,0,0,1,.94-.1h.26a5.12,5.12,0,0,0,.69,0,5.72,5.72,0,0,1,1-.16c.18,0,.31,0,.32.13,0,.5-1.52,1.23-1.18,1.66a.27.27,0,0,1,.26-.12l.28,0h.42c.22.12.4.5.7.5A.43.43,0,0,0,41.5,25c.6-.35-.14-1.09-.35-1.4S41,22.82,41,22.43c0-.61-.11-1.23-.19-1.84-.05-.31-.07-1-.36-1.21a.35.35,0,0,0-.21-.07c-.32,0-.58.43-.71.43s-.1-.13-.09-.55a2.26,2.26,0,0,0-.24-.83l-.23,0h-.29c-.45,0-.9.47-1.16.79s-.33,1-.68,1.3-1,.3-1.35.78-.53.93-1.11,1.14h0c-.19,0,.23-.73.23-.73h0a3.29,3.29,0,0,1,.52-.86c-1-.16-1.68-1.3-.64-2s2.3-.76,3.35-1.36a1.62,1.62,0,0,0-.44.34.4.4,0,0,0,.39.19,2.18,2.18,0,0,0,.48-.08c0-.28-.08-.55-.06-.84a1.73,1.73,0,0,0,.1.24,3.19,3.19,0,0,0,.81-.38c.19-.18.3-.46.54-.58a.66.66,0,0,1,.09.27,1.42,1.42,0,0,1,.32-.37c.24.41-.14.37-.27.64H40a.32.32,0,0,0,.14,0h0s-.26.42-.32.48c-.22.19-.53.23-.77.4a.23.23,0,0,1,.15-.05c.25,0,.47.41.54.55s.2.41.42.41a.8.8,0,0,0,.24,0,.78.78,0,0,1,0-.34,1.77,1.77,0,0,1,.34.16c.08-.21.38-.89.12-1.09.15.12.32.35.47.35s.13-.05.19-.17c.19-.39-.5-.76-.33-1,.06-.1-.57-1-.63-1.13l-.61,0c-.49,0-.6.14-1,.71l.18.2c0,.06-.83.57-.87.59a3.91,3.91,0,0,1,.37-.44,2,2,0,0,1-.24,0s.21-.54.3-.63a2.56,2.56,0,0,1,.78-.42l-.2,0c-.32,0-.58.28-.81.5a7.08,7.08,0,0,1-1,.67.68.68,0,0,0,.28-.37h0a5.79,5.79,0,0,1-1.2.37c-.09,0-.13,0-.11-.09s0-.21.08-.3a.68.68,0,0,0,.32.11c.5,0,.65-.87,1.19-.94a4.73,4.73,0,0,0-.71-.36.67.67,0,0,0-.24,0,3,3,0,0,0-1.06.34,1,1,0,0,0,.35.08.31.31,0,0,0,.17,0,6.27,6.27,0,0,1-1,.6h0l-.1.3h.27c0,.08-.06.18-.09.25a1.16,1.16,0,0,0-.42-.08h-.09l.21-.2a1.24,1.24,0,0,0-.18-.53l-.28,0,.2-.19a4.7,4.7,0,0,1-.53,0h-.84c.07-.15.44,0,.16-.52-.08-.15-.33-.21-.65-.21Zm3.25,51.38-.05,0,.05,0,0,0,0,0ZM39,17.69Z"/><path class="cls-4" d="M37.91,16.12h0l0,.05s0,0,0-.05Z"/><path class="cls-4" d="M55.85,16.91h0l-.48.26.43-.27m-4.14,1.78a1.27,1.27,0,0,0,0,.58,2.09,2.09,0,0,1-.29-.23c0,.72,1.24,1,1.71,1.35s.36.47.58.94.1.74.54.89a.4.4,0,0,0,.15,0c.37,0,.72-.42.84-.46v0c0-.57-.08-.7-.15-.7s-.11.09-.17.09a.09.09,0,0,1-.06,0,2,2,0,0,0-.59-.44,9,9,0,0,1-1.55-1.05c-.24-.22-.39-.45-.73-.49,0-.24-.12-.27-.24-.46Zm-.12.64h0Zm3.62,2.46Zm0,0h0c0,.38,0,.5,0,.5l0-.5Z"/><path class="cls-4" d="M44.23,13.58c.05,0-.07.11,0,.14a3.34,3.34,0,0,0,.62.22l0,0h0a1.91,1.91,0,0,1,.4.08l.39.08h0s0,0-.1-.05l-.69-.23a4.71,4.71,0,0,0,.69.14h0l-.3-.09h0a4.18,4.18,0,0,1-.55-.09h0l.07,0h0s0,0-.25-.07l-.28-.06Z"/></g></g></svg>